<svg id="Layer_1" data-name="Layer 1" xmlns="http://www.w3.org/2000/svg" viewBox="0 0 50 50"><defs><style>.cls-1{fill:none;stroke:#000;stroke-linecap:round;stroke-linejoin:round;stroke-width:2px;}.cls-2{fill:#000;}</style></defs><title>PIDactivitylog</title><path class="cls-1" d="M6,9.6"/><path class="cls-2" d="M4.3,9.2a1,1,0,0,1-1-1,1.54,1.54,0,0,1,0-.2.62.62,0,0,1,.06-.18.55.55,0,0,1,.09-.17,1,1,0,0,1,.12-.16A1,1,0,0,1,5,7.49,1,1,0,0,1,5,8.91.93.93,0,0,1,4.85,9a.55.55,0,0,1-.17.09.62.62,0,0,1-.18.06Z"/><path class="cls-2" d="M37.6,9.2H9.4a1,1,0,0,1,0-2H37.6a1,1,0,0,1,0,2Z"/><path class="cls-1" d="M6,43.3"/><path class="cls-2" d="M4.3,42.8a1,1,0,0,1-.38-.08,1.15,1.15,0,0,1-.33-.21,1,1,0,0,1-.29-.71,1.05,1.05,0,0,1,.29-.71,1,1,0,0,1,1.42,0,1.05,1.05,0,0,1,.29.71,1,1,0,0,1-.29.71A1,1,0,0,1,4.3,42.8Z"/><path class="cls-2" d="M30.3,42.8H9.4a1,1,0,1,1,0-2H30.3a1,1,0,1,1,0,2Z"/><path class="cls-1" d="M6,36.5"/><path class="cls-2" d="M4.3,36.1a1,1,0,0,1-1-1,1.05,1.05,0,0,1,.29-.71,1,1,0,0,1,.33-.21A1,1,0,0,1,5,34.39a1.05,1.05,0,0,1,.29.71,1,1,0,0,1-1,1Z"/><path class="cls-2" d="M45.8,36.1H9.4a1,1,0,1,1,0-2H45.8a1,1,0,0,1,0,2Z"/><path class="cls-1" d="M6,29.8"/><path class="cls-2" d="M4.3,29.4a1,1,0,0,1-.71-.29,1.16,1.16,0,0,1-.21-.33.94.94,0,0,1,0-.76,1.16,1.16,0,0,1,.21-.33,1.05,1.05,0,0,1,.33-.21,1,1,0,0,1,.76,0,1,1,0,0,1,.33.21,1.16,1.16,0,0,1,.21.33.94.94,0,0,1,0,.76,1.16,1.16,0,0,1-.21.33A1,1,0,0,1,4.3,29.4Z"/><path class="cls-2" d="M37.6,29.4H9.4a1,1,0,0,1,0-2H37.6a1,1,0,0,1,0,2Z"/><path class="cls-1" d="M6,23.1"/><path class="cls-2" d="M4.3,22.6l-.2,0-.18-.06a.76.76,0,0,1-.18-.09l-.15-.12a1,1,0,0,1-.29-.71,1,1,0,0,1,.08-.38,1,1,0,0,1,.21-.33l.15-.12a.76.76,0,0,1,.18-.09l.18-.06a1,1,0,0,1,1.2,1,1.46,1.46,0,0,1,0,.2.62.62,0,0,1-.06.18.75.75,0,0,1-.09.18,1.62,1.62,0,0,1-.12.15,1,1,0,0,1-.33.21A.84.84,0,0,1,4.3,22.6Z"/><path class="cls-2" d="M45.8,22.6H9.4a1,1,0,0,1,0-2H45.8a1,1,0,0,1,0,2Z"/><path class="cls-1" d="M6,16.4"/><path class="cls-2" d="M4.3,15.9a1,1,0,0,1-.38-.08,1.15,1.15,0,0,1-.33-.21,1,1,0,0,1-.21-.33.84.84,0,0,1-.08-.38,1.05,1.05,0,0,1,.29-.71A1.14,1.14,0,0,1,3.92,14a1,1,0,0,1,.58-.06.62.62,0,0,1,.18.06.55.55,0,0,1,.17.09.93.93,0,0,1,.16.12,1.05,1.05,0,0,1,.29.71,1,1,0,0,1-.08.38,1,1,0,0,1-.21.33,1,1,0,0,1-.16.12.55.55,0,0,1-.17.09l-.18.06Z"/><path class="cls-2" d="M45.8,15.9H9.4a1,1,0,0,1,0-2H45.8a1,1,0,0,1,0,2Z"/></svg>
