<?xml version="1.0" encoding="utf-8"?>
<!-- Generator: Adobe Illustrator 21.1.0, SVG Export Plug-In . SVG Version: 6.00 Build 0)  -->
<svg version="1.1" id="Layer_1" xmlns="http://www.w3.org/2000/svg" xmlns:xlink="http://www.w3.org/1999/xlink" x="0px" y="0px"
	 viewBox="0 0 550 550" style="enable-background:new 0 0 550 550;" xml:space="preserve">
<style type="text/css">
	.st0{display:none;}
	.st1{display:inline;}
	.st2{fill:none;stroke:#000000;stroke-width:12;stroke-linecap:round;stroke-linejoin:round;}
	.st3{fill:none;}
</style>
<g id="_x31_">
	<g class="st0">
		<g class="st1">
			<path class="st2" d="M-1715.9-1009.4c-50.8-56.4-124.5-91.8-206.4-91.8c-153.4,0-277.8,124.4-277.8,277.8
				s124.4,277.8,277.8,277.8c141.3,0,258-105.6,275.5-242.1"/>
			<g>
				<polygon points="-1678.2,-1056.6 -1668.8,-937.3 -1776.8,-988.8 				"/>
			</g>
		</g>
	</g>
</g>
<g id="_x32_">
</g>
<g id="_x33_">
</g>
<g id="_x35_">
	<g id="Layer_21">
	</g>
</g>
<g id="_x37_">
</g>
<g id="_x38_">
</g>
<g id="_x39_">
</g>
<g id="_x31_0">
</g>
<g id="_x31_1">
</g>
<g id="_x31_2">
</g>
<g id="_x31_3">
</g>
<g id="_x31_4">
</g>
<g id="_x31_5">
</g>
<g>
	<path class="st3" d="M165.6,473.8l13.8-11.2c0.8-1,4.3-5.8,4.4-15c0.1-10.1-4.1-50.5-5.7-65.9L120.5,418L165.6,473.8z"/>
	<path class="st3" d="M467.3,129.3c-0.7-2.4-5.8-10.5-10.5-16.8l-0.3-0.3c-5.2-5.8-12-12.5-14.3-13.7c-3.4-0.1-16.6-0.9-24.5-1.4
		L232.4,247.1L78.2,405.4l4.1,5.1l99.3-80.3c1.7-1.4,4.2-1.1,5.6,0.6c1.4,1.7,1.1,4.2-0.6,5.6l-99.3,80.3l4.2,5.2l186.9-117.8
		l184.9-149.6C464.5,147,466.7,132.9,467.3,129.3z"/>
	<path class="st3" d="M72.8,310.1c-9-1.8-14.5,0.7-15.6,1.2l-13.9,11.2L88.2,378l47.4-48.7C120.6,324.4,82.7,312.1,72.8,310.1z"/>
	<path class="st3" d="M315.3,128.5l-14.7-18.1l-21.7,17.6c8.2,4,16.1,7.8,23.1,11.2L315.3,128.5z"/>
	<path class="st3" d="M179,93.1c-29.4-13.9-34.6-11.2-37.7-9.6c-3.1,1.6-21.1,16.6-38.6,31.6l135.2,112l81.5-66
		C293.3,148.4,203.5,104.7,179,93.1z"/>
	<path class="st3" d="M500.1,79.7c-2.1-2.7-9.1-10.1-15.9-11.5c-3.6-0.7-15.6,2.5-29,7.1c3.5,0.2,6.3,0.4,7.2,0.4
		c1.5,0,4.9,0.2,19.5,16.4c0.1,0.1,0.1,0.1,0.1,0.2l0.4,0.5c0,0,0.1,0.1,0.1,0.1c12.9,17.7,12.3,21.3,12,22.6
		c-0.1,0.7-0.4,2.6-0.9,5.2c6.9-11.6,12.2-21.9,12.2-25.5c0.2-8.4-5.6-15.3-5.7-15.4C500.3,79.8,500.2,79.7,500.1,79.7z"/>
	<path class="st3" d="M426.8,266.3l-14.6-18.1L398.8,259c1.9,7.6,4,16,6.2,24.9L426.8,266.3z"/>
	<path class="st3" d="M380.9,458.9c18.3-13.9,36.7-28.5,38.9-31.2c2.2-2.7,5.9-7.1-1.5-38.8c-6.2-26.4-30.6-124.7-37.4-152.2
		l-81.6,66L380.9,458.9z"/>
	<path class="st3" d="M486.7,114.5c-0.7-2.4-5.8-10.5-10.5-16.8l-0.3-0.3c-5.2-5.8-12-12.5-14.3-13.7c-3.5-0.2-17.1-1-25-1.4
		c-0.4,0.2-0.8,0.3-1.2,0.5l-8.5,6.9c7.1,0.4,14.5,0.9,16,0.9c1.5,0,4.9,0.2,19.5,16.4c0.1,0.1,0.1,0.1,0.1,0.2l0.4,0.5
		c0,0,0.1,0.1,0.1,0.1c12.9,17.7,12.3,21.3,12,22.6c-0.3,1.5-1.4,9.1-2.6,16.9l9-7.3c0.5-0.7,1-1.5,1.5-2.2
		C484.3,129.8,486.1,117.7,486.7,114.5z"/>
	<path d="M509.6,72.2c-1.4-1.8-10.8-13.4-23-15.8c-11.5-2.3-46.1,11.3-56.4,15.5c-0.5,0.2-1.1,0.5-1.5,0.9l-98.8,80
		c-3.4-1.7-10.5-5.1-19.9-9.7l13.5-10.9c1.7-1.4,2-3.9,0.6-5.6l-19.7-24.3c-0.7-0.8-1.6-1.3-2.7-1.5c-1.1-0.1-2.1,0.2-2.9,0.9
		L271,124.2c-33.9-16.5-72.1-35-86.8-41.9c-29.2-13.8-39.5-14-48.3-9.4c-6.3,3.3-39.7,32.1-46.3,37.8c-1.3,1.2-2.1,2.8-2.1,4.6
		c0,1.8,0.8,3.4,2.2,4.6l138.8,115l-4,3.2c-0.2,0.1-0.4,0.3-0.5,0.5l-79.1,81.2c-6.3-2.1-57.3-18.9-69.7-21.4
		c-14.7-3-23.6,2.3-24.6,2.9c-0.2,0.1-0.4,0.3-0.6,0.4l-18.9,15.3c-2.6,2.1-3,5.9-0.9,8.4l49.5,61.3l-13.8,14.2
		c-2.1,2.2-2.3,5.6-0.4,8l20.1,24.9c1.2,1.5,2.9,2.2,4.7,2.2c1.1,0,2.2-0.3,3.2-0.9l16.8-10.6L160,486c1,1.2,2.5,2,4,2.2
		c0.2,0,0.4,0,0.6,0c1.4,0,2.7-0.5,3.8-1.3l18.9-15.3c0.2-0.2,0.4-0.3,0.5-0.5c0.8-0.8,7.8-8.5,7.9-23.4c0.1-13.1-6-69.5-6.4-73.1
		l95.8-60.4c0.2-0.1,0.4-0.3,0.6-0.4l4.1-3.3l83.7,160.3c0.8,1.6,2.3,2.7,4,3.1c0.4,0.1,0.9,0.1,1.3,0.1c1.3,0,2.6-0.4,3.6-1.2
		c7-5.3,42.1-31.9,46.6-37.4c6.3-7.6,8.3-17.7,0.9-49.2c-3.7-15.8-13.9-57.1-22.9-93.7l27.8-22.5c1.7-1.4,2-3.9,0.6-5.6l-19.6-24.3
		c-0.7-0.8-1.6-1.4-2.7-1.5c-1-0.1-2.1,0.2-2.9,0.9l-13.6,11c-2.6-10.7-4.6-18.6-5.5-22l98.6-79.8c0.5-0.4,0.9-0.8,1.2-1.3
		c6.3-9.2,26.7-40.2,26.9-51.9C518.2,83.2,510.7,73.6,509.6,72.2z M300.6,110.4l14.7,18.1L302,139.3c-7-3.4-14.8-7.2-23.1-11.2
		L300.6,110.4z M102.8,115.1c17.4-15,35.5-29.9,38.6-31.6c3.1-1.6,8.3-4.3,37.7,9.6c24.5,11.6,114.2,55.2,140.5,68l-81.5,66
		L102.8,115.1z M43.3,322.5l13.9-11.2c1.1-0.5,6.6-3,15.6-1.2c9.9,2,47.8,14.3,62.8,19.2L88.2,378L43.3,322.5z M183.8,447.6
		c-0.1,9.2-3.6,14-4.4,15l-13.8,11.2L120.5,418l57.6-36.3C179.7,397,183.9,437.4,183.8,447.6z M278.5,304.2L91.6,422l-4.2-5.2
		l99.3-80.3c1.7-1.4,2-3.9,0.6-5.6c-1.4-1.7-3.9-2-5.6-0.6l-99.3,80.3l-4.1-5.1l154.1-158.2L417.8,97.1c7.9,0.5,21.1,1.3,24.5,1.4
		c2.2,1.2,9,7.9,14.3,13.7l0.3,0.3c4.6,6.3,9.8,14.4,10.5,16.8c-0.6,3.5-2.7,17.7-3.9,25.3L278.5,304.2z M412.2,248.2l14.6,18.1
		L405,283.9c-2.2-8.9-4.3-17.4-6.2-24.9L412.2,248.2z M418.4,389c7.4,31.7,3.7,36.1,1.5,38.8c-2.2,2.7-20.6,17.2-38.9,31.2
		l-81.6-156.2l81.6-66C387.8,264.3,412.1,362.5,418.4,389z M472.6,147.2c1.2-7.8,2.3-15.3,2.6-16.9c0.3-1.3,0.9-4.9-12-22.6
		c0,0-0.1-0.1-0.1-0.1l-0.4-0.5c0-0.1-0.1-0.1-0.1-0.2c-14.6-16.3-18.1-16.4-19.5-16.4c-1.5,0-8.9-0.5-16-0.9l8.5-6.9
		c0.4-0.2,0.8-0.3,1.2-0.5c7.8,0.5,21.5,1.3,25,1.4c2.2,1.2,9,7.9,14.3,13.7l0.3,0.3c4.6,6.3,9.8,14.4,10.5,16.8
		c-0.6,3.2-2.4,15.2-3.6,23.2c-0.5,0.7-1,1.5-1.5,2.2L472.6,147.2z M493.8,120.8c0.4-2.6,0.7-4.6,0.9-5.2c0.3-1.3,0.9-4.9-12-22.6
		c0,0-0.1-0.1-0.1-0.1l-0.4-0.5c0-0.1-0.1-0.1-0.1-0.2c-14.6-16.3-18.1-16.4-19.5-16.4c-0.9,0-3.6-0.2-7.2-0.4
		c13.4-4.6,25.3-7.9,29-7.1c6.8,1.3,13.8,8.7,15.9,11.5c0.1,0.1,0.1,0.2,0.2,0.3c0.1,0.1,5.8,7,5.7,15.4
		C505.9,98.8,500.7,109.2,493.8,120.8z"/>
</g>
<g id="_x31_7">
	<g id="Layer_19">
	</g>
	<g id="Layer_20">
	</g>
</g>
</svg>
