<?xml version="1.0" encoding="utf-8"?>
<!-- Generator: Adobe Illustrator 21.1.0, SVG Export Plug-In . SVG Version: 6.00 Build 0)  -->
<svg version="1.1" id="Layer_1" xmlns="http://www.w3.org/2000/svg" xmlns:xlink="http://www.w3.org/1999/xlink" x="0px" y="0px"
	 viewBox="0 0 550 550" style="enable-background:new 0 0 550 550;" xml:space="preserve">
<style type="text/css">
	.st0{display:none;}
	.st1{display:inline;}
	.st2{fill:none;stroke:#000000;stroke-width:12;stroke-linecap:round;stroke-linejoin:round;}
	.st3{fill:none;}
</style>
<g id="_x31_">
	<g class="st0">
		<g class="st1">
			<path class="st2" d="M484.1-1009.4c-50.8-56.4-124.5-91.8-206.4-91.8c-153.4,0-277.8,124.4-277.8,277.8s124.4,277.8,277.8,277.8
				c141.3,0,258-105.6,275.5-242.1"/>
			<g>
				<polygon points="521.8,-1056.6 531.2,-937.3 423.2,-988.8 				"/>
			</g>
		</g>
	</g>
</g>
<g id="_x32_">
</g>
<g id="_x33_">
</g>
<g id="_x35_">
	<g id="Layer_21">
	</g>
</g>
<g id="_x37_">
</g>
<g id="_x38_">
</g>
<g id="_x39_">
</g>
<g id="_x31_0">
</g>
<g id="_x31_1">
</g>
<g>
	<path class="st3" d="M388.9,92.2c-2.8-1.5-6-1.7-9.1-0.8c-3,1-5.5,3.1-7,5.9c-1.5,2.8-1.7,6-0.8,9.1c1,3,3.1,5.5,5.9,7
		c2.8,1.5,6,1.7,9.1,0.8c3-1,5.5-3.1,7-5.9c1.5-2.8,1.7-6,0.8-9.1S391.7,93.7,388.9,92.2z"/>
	<path class="st3" d="M348.2,121.1c-1.7-0.9-3.6-1.3-5.4-1.3c-1.2,0-2.4,0.2-3.6,0.6c-6.3,2-9.7,8.7-7.7,15c2,6.3,8.7,9.7,15,7.7
		c6.3-2,9.7-8.7,7.7-15C353.1,125,351,122.6,348.2,121.1z"/>
	<path class="st3" d="M49.6,367.5c-0.7,0.5-1.1,1.3-1.2,2.2c-0.1,0.5-0.1,1.5,0.7,2.5l47.2,60.5c0.5,0.7,1.3,1.1,2.2,1.2
		c0.5,0.1,1.5,0.1,2.5-0.7l40.8-31.8l-72.4-49.3L49.6,367.5z"/>
	<path class="st3" d="M506.9,300.6H473c-3.3,0-6,2.7-6,6v100.6c0,3.3,2.7,6,6,6h33.9c3.3,0,6-2.7,6-6V306.6
		C512.9,303.3,510.2,300.6,506.9,300.6z"/>
	<path class="st3" d="M426,347.2c-0.2,0-0.5,0.1-0.7,0.1c-0.8,0-1.6-0.2-2.2-0.7l-77.2-52.1l-30.2,23.6l94.5,66.7l44.8-8.5v-34.1
		L426,347.2z"/>
	<path class="st3" d="M482.5,171.5c0.1-0.5,0.1-1.5-0.7-2.5L392.3,54.4c-0.7-1-1.7-1.2-2.2-1.3c-0.5-0.1-1.5-0.1-2.4,0.7l-0.1,0
		L48.3,318.6c-0.7,0.5-1.1,1.3-1.2,2.2c-0.1,0.4-0.1,1.1,0.3,1.9l125.4,85.5c1.9,1.4,4.5,2.8,5.9,1.7l302.7-236.2
		C482,173.1,482.4,172.4,482.5,171.5z M348.8,150.6c-2,0.6-4,0.9-6,0.9c-8.4,0-16.3-5.4-19-13.8c-3.3-10.5,2.5-21.7,12.9-25
		c5.1-1.6,10.5-1.2,15.2,1.3c4.7,2.4,8.2,6.6,9.8,11.6C365,136.1,359.2,147.3,348.8,150.6z M401.1,111.9c-2.4,4.7-6.6,8.2-11.6,9.8
		c-2,0.6-4,1-6.1,1c-3.1,0-6.2-0.7-9.1-2.2c-4.7-2.4-8.2-6.6-9.8-11.6c-1.6-5.1-1.2-10.5,1.3-15.2c2.4-4.7,6.6-8.2,11.6-9.8
		c5.1-1.6,10.5-1.2,15.2,1.3s8.2,6.6,9.8,11.6S403.5,107.2,401.1,111.9z"/>
	<path d="M351.8,114c-4.7-2.4-10.1-2.9-15.2-1.3c-10.5,3.3-16.2,14.6-12.9,25c2.7,8.4,10.5,13.8,19,13.8c2,0,4-0.3,6-0.9
		c10.5-3.3,16.2-14.6,12.9-25C360.1,120.6,356.6,116.4,351.8,114z M346.3,143c-6.2,2-13-1.5-15-7.7c-2-6.3,1.5-13,7.7-15
		c1.2-0.4,2.4-0.6,3.6-0.6c1.9,0,3.7,0.4,5.4,1.3c2.8,1.5,4.9,3.9,5.9,7C356,134.3,352.6,141,346.3,143z"/>
	<path d="M392.5,85.1c-4.7-2.4-10.1-2.9-15.2-1.3c-5.1,1.6-9.2,5.1-11.6,9.8c-2.4,4.7-2.9,10.1-1.3,15.2c1.6,5.1,5.1,9.2,9.8,11.6
		c2.9,1.5,6,2.2,9.1,2.2c2,0,4.1-0.3,6.1-1c5.1-1.6,9.2-5.1,11.6-9.8c2.4-4.7,2.9-10.1,1.3-15.2S397.3,87.5,392.5,85.1z M394,108.2
		c-1.5,2.8-3.9,4.9-7,5.9c-3,1-6.3,0.7-9.1-0.8c-2.8-1.5-4.9-3.9-5.9-7c-1-3-0.7-6.3,0.8-9.1c1.5-2.8,3.9-4.9,7-5.9
		c3-1,6.3-0.7,9.1,0.8c2.8,1.5,4.9,3.9,5.9,7S395.4,105.4,394,108.2z"/>
	<path d="M506.9,288.6H473c-9.9,0-18,8.1-18,18v27.5l-28.8,4.9l-73.7-49.7l136.2-106.2c3.2-2.5,5.3-6.1,5.8-10.2
		c0.5-4.1-0.6-8.1-3.1-11.4L401.8,47.1c-2.5-3.3-6.1-5.4-10.2-5.9c-4.1-0.5-8.1,0.6-11.3,3.2L40.9,309.2c-3.2,2.5-5.3,6.1-5.8,10.2
		c-0.5,4.1,0.6,8.1,3.1,11.3l1.4,1.3l19.2,13.1l-16.6,13c-3.2,2.5-5.3,6.1-5.8,10.2c-0.5,4.1,0.6,8.1,3.1,11.3l47.2,60.5
		c2.5,3.2,6.1,5.3,10.2,5.8c0.6,0.1,1.3,0.1,1.9,0.1c3.4,0,6.7-1.1,9.4-3.2l43.8-34.1l13.7,9.3c4.5,3.3,8.5,4.4,11.7,4.4
		c4.1,0,7.1-1.8,8.6-2.9l123.1-96.1l97.9,69.1c0.7,0.5,1.5,0.7,2.3,0.7c0.2,0,0.5,0,0.7-0.1l45-8.6v22.7c0,9.9,8.1,18,18,18h33.9
		c9.9,0,18-8.1,18-18V306.6C524.9,296.7,516.8,288.6,506.9,288.6z M100.9,433.3c-0.9,0.7-2,0.7-2.5,0.7c-0.9-0.1-1.7-0.5-2.2-1.2
		L49,372.2c-0.7-0.9-0.7-2-0.7-2.5c0.1-0.9,0.5-1.7,1.2-2.2l19.7-15.4l72.4,49.3L100.9,433.3z M178.6,409.9c-1.4,1.1-4-0.3-5.9-1.7
		L47.4,322.7c-0.4-0.8-0.4-1.5-0.3-1.9c0.1-0.9,0.5-1.7,1.2-2.2L387.7,53.8l0.1,0c0.9-0.7,1.9-0.7,2.4-0.7c0.5,0.1,1.4,0.3,2.2,1.3
		L481.9,169c0.7,0.9,0.7,2,0.7,2.5c-0.1,0.9-0.5,1.7-1.2,2.2L178.6,409.9z M410.2,384.9l-94.5-66.7l30.2-23.6l77.2,52.1
		c0.7,0.4,1.4,0.7,2.2,0.7c0.2,0,0.5,0,0.7-0.1l29-5v34.1L410.2,384.9z M512.9,407.2c0,3.3-2.7,6-6,6H473c-3.3,0-6-2.7-6-6V306.6
		c0-3.3,2.7-6,6-6h33.9c3.3,0,6,2.7,6,6V407.2z"/>
</g>
<g id="_x31_3">
</g>
<g id="_x31_4">
</g>
<g id="_x31_5">
</g>
<g id="_x31_6">
</g>
<g id="_x31_7">
	<g id="Layer_19">
	</g>
	<g id="Layer_20">
	</g>
</g>
</svg>
