<?xml version="1.0" encoding="utf-8"?>
<!-- Generator: Adobe Illustrator 21.1.0, SVG Export Plug-In . SVG Version: 6.00 Build 0)  -->
<svg version="1.1" id="Layer_1" xmlns="http://www.w3.org/2000/svg" xmlns:xlink="http://www.w3.org/1999/xlink" x="0px" y="0px"
	 viewBox="0 0 550 550" style="enable-background:new 0 0 550 550;" xml:space="preserve">
<style type="text/css">
	.st0{fill:none;}
</style>
<g>
	<path class="st0" d="M235,368.4l72.3,47.6c0.4,0.3,0.7,0.5,0.9,0.6l173-139.6l-52.5-65L235,368.4z M411.6,268
		c-1.4,2.8-3.7,4.8-6.6,5.8c-1.2,0.4-2.4,0.6-3.7,0.6c-1.7,0-3.5-0.4-5.1-1.2c-2.8-1.4-4.8-3.7-5.8-6.6s-0.8-6,0.6-8.8
		s3.7-4.8,6.6-5.8c6-2,12.5,1.2,14.6,7.2C413.2,262.1,413,265.2,411.6,268z M434.9,242.5c1,2.9,0.8,6-0.6,8.8
		c-1.4,2.8-3.7,4.8-6.6,5.8c-1.2,0.4-2.5,0.6-3.7,0.6c-4.8,0-9.3-3-10.9-7.8c-1-2.9-0.8-6,0.6-8.8s3.7-4.8,6.6-5.8
		C426.3,233.3,432.9,236.5,434.9,242.5z"/>
	<polygon class="st0" points="171.2,262.4 171.2,296.5 187.8,283.1 	"/>
	<polygon class="st0" points="367.2,139.1 387,123.2 347.7,74.2 327.9,90.2 	"/>
	<polygon class="st0" points="398.9,113.7 419.9,96.8 380.6,47.8 359.6,64.7 	"/>
	<polygon class="st0" points="235.8,397.3 263.2,431.2 283.6,414.7 245.4,389.6 	"/>
	<polygon class="st0" points="333.1,166.5 355.3,148.7 316,99.7 293.8,117.6 	"/>
	<path class="st0" d="M421.9,240.1c-1.6,0.6-3,1.7-3.7,3.3c-0.8,1.6-0.9,3.3-0.3,5c0.6,1.6,1.7,3,3.3,3.7c1.6,0.8,3.3,0.9,5,0.3
		c1.6-0.6,3-1.7,3.7-3.3c0.8-1.6,0.9-3.3,0.3-5c-0.9-2.7-3.5-4.4-6.2-4.4C423.3,239.7,422.6,239.8,421.9,240.1
		C421.9,240.1,421.9,240.1,421.9,240.1z"/>
	<rect x="473.9" y="363.5" class="st0" width="22.3" height="50.4"/>
	<path class="st0" d="M401.3,256.4c-0.7,0-1.4,0.1-2.1,0.3c-1.6,0.6-3,1.7-3.7,3.3c-0.8,1.6-0.9,3.3-0.3,5c0.6,1.6,1.7,3,3.3,3.7
		s3.3,0.9,5,0.3c1.6-0.6,3-1.7,3.7-3.3c0.8-1.6,0.9-3.3,0.3-5C406.6,258.1,404,256.4,401.3,256.4z"/>
	<path class="st0" d="M444.2,400.5l17.7-4.6v-16.4l-8.5,2.4c-0.4,0.1-0.7,0.1-1.1,0.1c-0.8,0-1.5-0.2-2.2-0.6l-43.7-28.5l-14.7,11.9
		L444.2,400.5z"/>
	<polygon class="st0" points="199.7,273.6 221.7,255.9 182.5,207 171.2,216.1 171.2,238.1 	"/>
	<path class="st0" d="M159.2,500.9V168c0-3.3-2.7-6-6-6H58.7c-3.3,0-6,2.7-6,6v332.9H159.2z M80.2,202.5c0-8.8,7.2-16,16-16h19.5
		c8.8,0,16,7.2,16,16V222c0,8.8-7.2,16-16,16H96.2c-8.8,0-16-7.2-16-16V202.5z"/>
	<path class="st0" d="M96.2,230h19.5c4.4,0,8-3.6,8-8v-19.5c0-4.4-3.6-8-8-8H96.2c-4.4,0-8,3.6-8,8V222
		C88.2,226.4,91.8,230,96.2,230z"/>
	<polygon class="st0" points="299.2,193.7 321.2,176 281.9,127.1 259.9,144.8 	"/>
	<rect x="44.3" y="512.9" class="st0" width="459" height="21.4"/>
	<path class="st0" d="M431.8,87.3l17.4-13.9c0.4-0.3,0.5-0.6,0.5-0.9c0-0.2,0-0.6-0.3-1.1l-37.6-46.8c-0.3-0.4-0.6-0.5-0.9-0.5
		c-0.2,0-0.6,0-1.1,0.3l-17.3,13.9L431.8,87.3z"/>
	<polygon class="st0" points="233.6,246.4 252.4,231.2 213.2,182.4 194.3,197.5 	"/>
	<polygon class="st0" points="264.3,221.7 287.3,203.2 248.1,154.3 225,172.8 	"/>
	<path d="M96.2,238h19.5c8.8,0,16-7.2,16-16v-19.5c0-8.8-7.2-16-16-16H96.2c-8.8,0-16,7.2-16,16V222C80.2,230.8,87.4,238,96.2,238z
		 M88.2,202.5c0-4.4,3.6-8,8-8h19.5c4.4,0,8,3.6,8,8V222c0,4.4-3.6,8-8,8H96.2c-4.4,0-8-3.6-8-8V202.5z"/>
	<path d="M421.8,202.3L226.6,359.8c-2.3,1.9-3.8,4.6-4.1,7.6c-0.3,3.1,0.6,6.1,2.5,8.4l1.3,1.2l8.5,5.6l-7.1,5.7
		c-4.9,4-5.6,11.2-1.6,16l28.1,34.9c2.3,2.8,5.6,4.2,8.9,4.2c2.5,0,5-0.8,7.1-2.5l23.8-19.2l6.4,4.2c2.7,1.9,5.6,2.9,8.2,2.9
		c2.4,0,4.6-0.8,6.5-2.4l69.9-56.4l56.1,38.1c0.7,0.5,1.5,0.7,2.2,0.7c0.3,0,0.7,0,1-0.1l17.4-4.5v13.8c0,4.4,3.6,8,8,8h30.3
		c4.4,0,8-3.6,8-8v-58.4c0-4.4-3.6-8-8-8h-30.3c-4.4,0-8,3.6-8,8v11.7l-8.9,2.5l-40.1-26.1l76.4-61.6c2.3-1.9,3.8-4.6,4.1-7.6
		c0.3-3.1-0.6-6.1-2.5-8.4l-53.2-66C433.8,199.2,426.7,198.5,421.8,202.3z M263.2,431.2l-27.4-33.9l9.5-7.7l38.2,25.1L263.2,431.2z
		 M473.9,363.5h22.3v50.4h-22.3V363.5z M450.1,381.4c0.7,0.4,1.4,0.6,2.2,0.6c0.4,0,0.7,0,1.1-0.1l8.5-2.4v16.4l-17.7,4.6
		l-52.6-35.7l14.7-11.9L450.1,381.4z M308.3,416.6c-0.2-0.1-0.6-0.3-0.9-0.6L235,368.4L428.8,212l52.5,65L308.3,416.6z"/>
	<path d="M397.6,252c-2.9,1-5.3,3-6.6,5.8s-1.6,5.9-0.6,8.8s3,5.3,5.8,6.6c1.6,0.8,3.3,1.2,5.1,1.2c1.2,0,2.5-0.2,3.7-0.6
		c2.9-1,5.3-3,6.6-5.8c1.4-2.8,1.6-5.9,0.6-8.8C410.2,253.2,403.6,250,397.6,252z M407.1,265.8c-0.8,1.6-2.1,2.7-3.7,3.3
		c-1.6,0.6-3.4,0.4-5-0.3s-2.7-2.1-3.3-3.7c-0.6-1.6-0.4-3.4,0.3-5c0.8-1.6,2.1-2.7,3.7-3.3c0.7-0.2,1.4-0.3,2.1-0.3
		c2.7,0,5.3,1.7,6.2,4.4C408,262.5,407.9,264.2,407.1,265.8z"/>
	<path d="M420.3,235.3c-2.9,1-5.3,3-6.6,5.8s-1.6,5.9-0.6,8.8c1.6,4.8,6.1,7.8,10.9,7.8c1.2,0,2.5-0.2,3.7-0.6c2.9-1,5.3-3,6.6-5.8
		c1.4-2.8,1.6-5.9,0.6-8.8C432.9,236.5,426.3,233.3,420.3,235.3z M430.2,244.1c0.6,1.6,0.4,3.4-0.3,5c-0.8,1.6-2.1,2.7-3.7,3.3
		c-1.6,0.6-3.4,0.4-5-0.3c-1.6-0.8-2.7-2.1-3.3-3.7c-0.6-1.6-0.4-3.4,0.3-5c0.8-1.6,2.1-2.7,3.7-3.3c0,0,0,0,0,0
		c0.7-0.2,1.4-0.3,2.1-0.3C426.7,239.7,429.3,241.4,430.2,244.1z"/>
	<path d="M504.3,500.9H171.2v-189L456.6,82.7c2.8-2.2,4.6-5.4,5-8.9c0.4-3.6-0.6-7.1-2.9-9.9l-37.5-46.7c-2.2-2.8-5.4-4.6-8.9-5
		c-3.6-0.4-7.2,0.6-9.9,2.9l-231,185.7V168c0-9.9-8.1-18-18-18H58.7c-9.9,0-18,8.1-18,18v333.2c-4.8,1.2-8.4,5.5-8.4,10.7v23.4
		c0,6.1,4.9,11,11,11h461c6.1,0,11-4.9,11-11v-23.4C515.3,505.8,510.4,500.9,504.3,500.9z M171.2,262.4l16.6,20.7l-16.6,13.3V262.4z
		 M419.9,96.8l-21,16.9l-39.3-49l21-16.9L419.9,96.8z M387,123.2l-19.9,16l-39.3-48.9l19.9-16L387,123.2z M355.3,148.7l-22.2,17.8
		l-39.3-48.9L316,99.7L355.3,148.7z M321.2,176l-22,17.7l-39.3-48.9l22-17.7L321.2,176z M287.3,203.2l-23,18.5L225,172.8l23-18.5
		L287.3,203.2z M252.4,231.2l-18.9,15.1l-39.3-48.9l18.8-15.1L252.4,231.2z M409.8,24.4c0.4-0.3,0.8-0.3,1.1-0.3
		c0.2,0,0.6,0.1,0.9,0.5l37.6,46.8c0.3,0.4,0.3,0.8,0.3,1.1c0,0.2-0.1,0.6-0.5,0.9l-17.4,13.9l-39.3-49L409.8,24.4z M182.5,207
		l39.2,48.9l-22.1,17.7l-28.5-35.5v-22L182.5,207z M58.7,162h94.5c3.3,0,6,2.7,6,6v332.9H52.7V168C52.7,164.7,55.4,162,58.7,162z
		 M503.3,534.3h-459v-21.4h459V534.3z"/>
</g>
</svg>
