<?xml version="1.0" encoding="utf-8"?>
<!-- Generator: Adobe Illustrator 21.1.0, SVG Export Plug-In . SVG Version: 6.00 Build 0)  -->
<svg version="1.1" id="Layer_1" xmlns="http://www.w3.org/2000/svg" xmlns:xlink="http://www.w3.org/1999/xlink" x="0px" y="0px"
	 viewBox="0 0 550 550" style="enable-background:new 0 0 550 550;" xml:space="preserve">
<style type="text/css">
	.st0{display:none;}
	.st1{display:inline;}
	.st2{fill:none;stroke:#000000;stroke-width:12;stroke-linecap:round;stroke-linejoin:round;}
	.st3{fill:none;}
</style>
<g id="_x31_">
	<g class="st0">
		<g class="st1">
			<path class="st2" d="M484.1-1559.4c-50.8-56.4-124.5-91.8-206.4-91.8c-153.4,0-277.8,124.4-277.8,277.8s124.4,277.8,277.8,277.8
				c141.3,0,258-105.6,275.5-242.1"/>
			<g>
				<polygon points="521.8,-1606.6 531.2,-1487.3 423.2,-1538.8 				"/>
			</g>
		</g>
	</g>
</g>
<g id="_x32_">
</g>
<g id="_x33_">
</g>
<g id="_x35_">
	<g id="Layer_21">
	</g>
</g>
<g id="_x37_">
</g>
<g id="_x38_">
</g>
<g id="_x39_">
</g>
<g id="_x31_0">
</g>
<g id="_x31_1">
</g>
<g id="_x31_2">
</g>
<g id="_x31_3">
</g>
<g id="_x31_4">
</g>
<g>
	<path class="st3" d="M411.2,191.2l1.2-11.7c-0.1-2.2-2.1-4.2-4.3-4.2H146.4c-2.3,0-4.1,1.8-4.3,4.1l1.5,11.8H411.2z"/>
	<path class="st3" d="M196.1,88.7c3.4,6,17.2,14.1,37.5,13.1c20.4-1,26.9-5.5,32.6-9.5c7.7-5.4,15.3-10.6,19-12.3
		c14.4-6.4,45.7-13.6,51.9-15c3.9-0.9,5.2-3.3,6.1-6.8c0-0.1,0-0.1,0.1-0.2c-1.5-2.4-5.5-6.8-15.8-13c-14.3-8.7-20.1-10-32.5-7.6
		c-4.3,0.8-8.3,4.2-13,8.2c-5.3,4.5-11.3,9.6-19.3,12c-3.5,1-9.1,1.8-16.3,2.7c-16,2-45.9,5.8-50.8,16.2c0,0.1-0.1,0.2-0.1,0.2
		c-0.1,0.1-2.5,5.1,0.1,10.5C195.8,87.7,196,88.2,196.1,88.7z"/>
	<path class="st3" d="M254.8,276.7l-120.2,93.5l10.6,15.4l120.7-94.9C260.8,287.4,256.8,282.5,254.8,276.7z"/>
	<path class="st3" d="M339.9,89.5c0-2.4,1.9-4.4,4.3-4.7l0-14.1c-1.4,0.9-3.1,1.7-5.2,2.1c-0.9,0.2-2.5,0.6-4.5,1
		c1.6,0.7,2.8,2.4,2.8,4.3c0,2.6-2.1,4.7-4.7,4.7c-2.6,0-4.7-2.1-4.7-4.7c0-1.1,0.4-2.2,1.1-3c-11.9,2.9-30.6,7.7-40.3,12.1
		c-3.5,1.6-13.8,8.8-17.7,11.5c-0.3,0.2-0.6,0.4-0.9,0.6c0.3,0.7,0.6,1.4,0.6,2.2c0,2.6-2.1,4.7-4.7,4.7c-1.7,0-3.1-0.9-4-2.2
		c-5.6,2.6-12.7,4.5-24,5.3c0.1,0.3,0.1,0.7,0.1,1c0,2.6-2.1,4.7-4.7,4.7c-2.6,0-4.7-2.1-4.7-4.7c0-0.3,0-0.5,0.1-0.7
		c-15.1-0.3-27.3-5.2-34.4-11.3v26.1c1.3,2,4.9,6.7,11.8,10.5c0.8-1.3,2.3-2.2,4-2.2c2.6,0,4.7,2.1,4.7,4.7c0,0.5-0.1,0.9-0.2,1.3
		c11.9,4.7,25.5,7,43.2-0.3c1.4-0.6,2.6-1.1,3.8-1.7c-0.3-0.6-0.5-1.3-0.5-2c0-2.6,2.1-4.7,4.7-4.7c1.5,0,2.8,0.7,3.6,1.7
		c3-2.4,5.3-5,7.5-7.5c2.4-2.8,5-5.6,8.2-8c5.2-3.7,14.5-4.6,29.4-5.7c6.5-0.5,13.3-1,19-1.9c0.1-2.5,2.1-4.6,4.7-4.6
		c1.8,0,3.3,1,4.1,2.4c0.9-0.3,1.5-0.7,2-0.9l0-11.7C341.8,93.9,339.9,91.9,339.9,89.5z M200.6,118.6c-2.6,0-4.7-2.1-4.7-4.7
		c0-2.6,2.1-4.7,4.7-4.7c2.6,0,4.7,2.1,4.7,4.7C205.3,116.5,203.2,118.6,200.6,118.6z M237.9,139.7c-2.6,0-4.7-2.1-4.7-4.7
		c0-2.6,2.1-4.7,4.7-4.7c2.6,0,4.7,2.1,4.7,4.7C242.6,137.6,240.5,139.7,237.9,139.7z M285.6,112.9c-2.6,0-4.7-2.1-4.7-4.7
		c0-2.6,2.1-4.7,4.7-4.7c2.6,0,4.7,2.1,4.7,4.7C290.3,110.8,288.2,112.9,285.6,112.9z M305.9,86.3c0-2.6,2.1-4.7,4.7-4.7
		c2.6,0,4.7,2.1,4.7,4.7c0,2.6-2.1,4.7-4.7,4.7C308,91,305.9,88.9,305.9,86.3z M316.6,108.2c-2.6,0-4.7-2.1-4.7-4.7s2.1-4.7,4.7-4.7
		c2.6,0,4.7,2.1,4.7,4.7S319.2,108.2,316.6,108.2z"/>
	<path class="st3" d="M144.7,199.2l7.6,57.9l10,76.3l91.7-71.3c2.7-11.8,13.3-20.7,25.9-20.7c14.7,0,26.6,11.9,26.6,26.6
		c0,14.7-11.9,26.6-26.6,26.6c-0.2,0-0.4,0-0.5,0l0.3,0.4l-111.1,87.4l13.7,105h197.9l30.1-288.2H144.7z"/>
	<path class="st3" d="M183.3,495.4l1.4,10.8c0,0.3,0.1,0.5,0.1,0.8c0,2.3,2,4.4,4.3,4.4h184.8c2.4,0,4.3-2,4.3-4.4
		c0-0.2,0-0.4,0-0.6l1.1-11H183.3z"/>
	<path class="st3" d="M298.5,268c0-10.3-8.3-18.6-18.6-18.6c-10.3,0-18.6,8.3-18.6,18.6c0,10.3,8.3,18.6,18.6,18.6
		C290.2,286.6,298.5,278.3,298.5,268z"/>
	<path d="M203.4,147.3c9.1,4.3,19.7,8.1,32.2,8.1c8,0,16.8-1.6,26.6-5.6c12.7-5.2,18.7-11.9,23.5-17.4c2.2-2.5,4.1-4.6,6.3-6.2
		c2.7-1.9,14.5-2.8,23.2-3.4c17.6-1.3,34.2-2.5,39.9-11.1c0.6-1,1-2.1,1-3.3l-0.1-46.8c0.9-5.7-2.6-14.8-22.4-26.7
		c-16.9-10.3-25.3-12.1-40.9-9.2c-7.4,1.4-13,6.2-18.5,10.8c-4.8,4.1-9.4,8-15,9.6c-2.5,0.8-8.2,1.5-14.3,2.2
		c-22.1,2.8-52.3,6.6-60.1,22.9c-1.1,2.2-2.4,6.1-2.4,10.6c-0.2,0.5-0.2,1.1-0.2,1.7v42.7c0,0.9,0.2,1.8,0.6,2.6
		C183,129.4,188.5,140.4,203.4,147.3z M342.2,106.8c-0.8-1.5-2.3-2.4-4.1-2.4c-2.6,0-4.6,2-4.7,4.6c-5.7,0.9-12.4,1.4-19,1.9
		c-14.9,1.1-24.2,2-29.4,5.7c-3.3,2.4-5.8,5.2-8.2,8c-2.2,2.5-4.5,5.1-7.5,7.5c-0.9-1-2.2-1.7-3.6-1.7c-2.6,0-4.7,2.1-4.7,4.7
		c0,0.7,0.2,1.4,0.5,2c-1.2,0.6-2.4,1.2-3.8,1.7c-17.7,7.3-31.4,5-43.2,0.3c0.1-0.4,0.2-0.9,0.2-1.3c0-2.6-2.1-4.7-4.7-4.7
		c-1.7,0-3.1,0.9-4,2.2c-7-3.8-10.5-8.5-11.8-10.5V98.6c7.1,6.1,19.3,11,34.4,11.3c0,0.2-0.1,0.5-0.1,0.7c0,2.6,2.1,4.7,4.7,4.7
		c2.6,0,4.7-2.1,4.7-4.7c0-0.4,0-0.7-0.1-1c11.2-0.8,18.4-2.8,24-5.3c0.8,1.3,2.3,2.2,4,2.2c2.6,0,4.7-2.1,4.7-4.7
		c0-0.8-0.2-1.5-0.6-2.2c0.3-0.2,0.6-0.4,0.9-0.6c3.9-2.7,14.2-9.9,17.7-11.5c9.8-4.4,28.4-9.2,40.3-12.1c-0.7,0.8-1.1,1.8-1.1,3
		c0,2.6,2.1,4.7,4.7,4.7c2.6,0,4.7-2.1,4.7-4.7c0-1.9-1.1-3.5-2.8-4.3c2-0.5,3.5-0.8,4.5-1c2.1-0.5,3.8-1.2,5.2-2.1l0,14.1
		c-2.4,0.2-4.3,2.2-4.3,4.7c0,2.4,1.9,4.4,4.3,4.7l0,11.7C343.7,106.2,343.1,106.5,342.2,106.8z M195.5,76.8c0-0.1,0.1-0.2,0.1-0.2
		c4.9-10.5,34.8-14.2,50.8-16.2c7.2-0.9,12.8-1.6,16.3-2.7c8-2.4,14-7.5,19.3-12c4.7-4,8.7-7.4,13-8.2c12.4-2.4,18.2-1,32.5,7.6
		c10.2,6.2,14.2,10.6,15.8,13c0,0.1,0,0.1-0.1,0.2c-0.8,3.5-2.1,5.9-6.1,6.8c-6.1,1.4-37.5,8.5-51.9,15c-3.7,1.7-11.3,6.9-19,12.3
		c-5.7,4-12.2,8.5-32.6,9.5c-20.3,1-34.2-7.1-37.5-13.1c-0.1-0.5-0.2-0.9-0.5-1.4C193,81.9,195.4,76.9,195.5,76.8z"/>
	<circle cx="316.6" cy="103.5" r="4.7"/>
	<circle cx="310.6" cy="86.3" r="4.7"/>
	<circle cx="285.6" cy="108.2" r="4.7"/>
	<circle cx="200.6" cy="113.9" r="4.7"/>
	<circle cx="237.9" cy="135" r="4.7"/>
	<path d="M408.1,163.3H146.4c-9,0-16.3,7.4-16.3,16.4c0,0.3,0,0.5,0.1,0.8l10.2,78.2l10.9,83.3l-28.6,22.2c-2.5,2-3.1,5.5-1.3,8.1
		l17.5,25.3c0.9,1.4,2.4,2.3,4,2.5c0.3,0,0.6,0.1,0.9,0.1c1.3,0,2.6-0.4,3.7-1.3l10-7.9l15.2,116.4c0.2,8.8,7.5,16,16.3,16h184.8
		c8.9,0,16.1-7.2,16.3-16.1l34.2-327c0-0.2,0-0.4,0-0.6C424.4,170.7,417.1,163.3,408.1,163.3z M146.4,175.3h261.7
		c2.2,0,4.2,1.9,4.3,4.2l-1.2,11.7H143.7l-1.5-11.8C142.3,177.1,144.1,175.3,146.4,175.3z M145.2,385.5l-10.6-15.4l120.2-93.5
		c2,5.8,6,10.7,11.1,13.9L145.2,385.5z M261.3,268c0-10.3,8.3-18.6,18.6-18.6c10.3,0,18.6,8.3,18.6,18.6c0,10.3-8.3,18.6-18.6,18.6
		C269.6,286.6,261.3,278.3,261.3,268z M378.2,507c0,2.4-1.9,4.4-4.3,4.4H189.1c-2.3,0-4.3-2.1-4.3-4.4c0-0.3,0-0.5-0.1-0.8
		l-1.4-10.8h196l-1.1,11C378.2,506.6,378.2,506.8,378.2,507z M380.2,487.4H182.3l-13.7-105L279.7,295l-0.3-0.4c0.2,0,0.4,0,0.5,0
		c14.7,0,26.6-11.9,26.6-26.6c0-14.7-11.9-26.6-26.6-26.6c-12.6,0-23.2,8.9-25.9,20.7l-91.7,71.3l-10-76.3l-7.6-57.9h265.6
		L380.2,487.4z"/>
</g>
<g id="_x31_6">
</g>
<g id="_x31_7">
	<g id="Layer_19">
	</g>
	<g id="Layer_20">
	</g>
</g>
</svg>
