<?xml version="1.0" encoding="utf-8"?>
<!-- Generator: Adobe Illustrator 21.1.0, SVG Export Plug-In . SVG Version: 6.00 Build 0)  -->
<svg version="1.1" id="Layer_1" xmlns="http://www.w3.org/2000/svg" xmlns:xlink="http://www.w3.org/1999/xlink" x="0px" y="0px"
	 viewBox="0 0 550 550" style="enable-background:new 0 0 550 550;" xml:space="preserve">
<style type="text/css">
	.st0{display:none;}
	.st1{display:inline;}
	.st2{fill:none;stroke:#000000;stroke-width:12;stroke-linecap:round;stroke-linejoin:round;}
	.st3{fill:none;}
</style>
<g id="_x31_">
	<g class="st0">
		<g class="st1">
			<path class="st2" d="M-1715.9-458.7c-50.8-56.4-124.5-91.8-206.4-91.8c-153.4,0-277.8,124.4-277.8,277.8S-2075.7,5-1922.3,5
				c141.3,0,258-105.6,275.5-242.1"/>
			<g>
				<polygon points="-1678.2,-505.9 -1668.8,-386.6 -1776.8,-438.1 				"/>
			</g>
		</g>
	</g>
</g>
<g id="_x32_">
</g>
<g id="_x33_">
</g>
<g id="_x35_">
	<g id="Layer_21">
	</g>
</g>
<g id="_x37_">
</g>
<g id="_x38_">
</g>
<g id="_x39_">
</g>
<g>
	<rect x="256.1" y="25.5" class="st3" width="41.9" height="39.7"/>
	<rect x="226.3" y="77.2" class="st3" width="103.2" height="41.3"/>
	<path class="st3" d="M436.9,366.9c2.2,0,4,1.8,4,4s-1.8,4-4,4h-62.1v53h61.3c2.2,0,4,1.8,4,4s-1.8,4-4,4h-61.3v52.2h96.5V324
		c0-3.8-3.1-6.9-6.9-6.9h-89.6v49.8H436.9z"/>
	<path class="st3" d="M362.8,488.1V137.4c0-3.8-3.1-6.9-6.9-6.9H197.7c-3.8,0-6.9,3.1-6.9,6.9v350.7H362.8z M331.5,375.2H228.9
		c-2.2,0-4-1.8-4-4s1.8-4,4-4h102.6c2.2,0,4,1.8,4,4S333.7,375.2,331.5,375.2z M332,252.7H229.4c-2.2,0-4-1.8-4-4s1.8-4,4-4H332
		c2.2,0,4,1.8,4,4S334.2,252.7,332,252.7z M228.3,182.6h102.6c2.2,0,4,1.8,4,4s-1.8,4-4,4H228.3c-2.2,0-4-1.8-4-4
		S226.1,182.6,228.3,182.6z M228.3,305.7h102.6c2.2,0,4,1.8,4,4s-1.8,4-4,4H228.3c-2.2,0-4-1.8-4-4S226.1,305.7,228.3,305.7z
		 M227.8,428.2h102.5c2.2,0,4,1.8,4,4s-1.8,4-4,4H227.8c-2.2,0-4-1.8-4-4S225.6,428.2,227.8,428.2z"/>
	<rect x="47" y="500.1" class="st3" width="459" height="21.4"/>
	<path class="st3" d="M178.8,436.1h-66.5c-2.2,0-4-1.8-4-4s1.8-4,4-4h66.5v-53h-65.7c-2.2,0-4-1.8-4-4s1.8-4,4-4h65.7v-53.4h-66.1
		c-2.2,0-4-1.8-4-4s1.8-4,4-4h66.1v-50.3h-86c-3.8,0-6.9,3.1-6.9,6.9v225.8h92.9V436.1z"/>
	<path class="st3" d="M178.8,207.9h-56.2c-2.4,0-4.3,1.9-4.3,4.3v31.2h60.5V207.9z"/>
	<path d="M227.8,436.2h102.5c2.2,0,4-1.8,4-4s-1.8-4-4-4H227.8c-2.2,0-4,1.8-4,4S225.6,436.2,227.8,436.2z"/>
	<path d="M331.5,367.2H228.9c-2.2,0-4,1.8-4,4s1.8,4,4,4h102.6c2.2,0,4-1.8,4-4S333.7,367.2,331.5,367.2z"/>
	<path d="M228.3,313.7h102.6c2.2,0,4-1.8,4-4s-1.8-4-4-4H228.3c-2.2,0-4,1.8-4,4S226.1,313.7,228.3,313.7z"/>
	<path d="M332,244.7H229.4c-2.2,0-4,1.8-4,4s1.8,4,4,4H332c2.2,0,4-1.8,4-4S334.2,244.7,332,244.7z"/>
	<path d="M228.3,190.6h102.6c2.2,0,4-1.8,4-4s-1.8-4-4-4H228.3c-2.2,0-4,1.8-4,4S226.1,190.6,228.3,190.6z"/>
	<path d="M515,491.4c-2.1-2.1-4.9-3.3-7.9-3.3h-23.8V324c0-10.4-8.5-18.9-18.9-18.9h-89.6V137.4c0-10.4-8.5-18.9-18.9-18.9h-14.4
		v-43c0-5.7-4.6-10.3-10.3-10.3H310V23.8c0-5.7-4.6-10.3-10.3-10.3h-45.3c-5.7,0-10.3,4.6-10.3,10.3v41.4h-19.5
		c-5.7,0-10.3,4.6-10.3,10.3v43h-16.6c-10.4,0-18.9,8.5-18.9,18.9v58.5h-56.2c-9,0-16.3,7.3-16.3,16.3v31.2H92.8
		c-10.4,0-18.9,8.5-18.9,18.9v225.8H46c-6.1,0-11,4.9-11,11v23.4c0,6.1,4.9,11,11,11h461c6.1,0,11-4.9,11-11v-23.3
		C518.1,496.3,517,493.5,515,491.4z M464.4,317.1c3.8,0,6.9,3.1,6.9,6.9v164.1h-96.5v-52.2h61.3c2.2,0,4-1.8,4-4s-1.8-4-4-4h-61.3
		v-53h62.1c2.2,0,4-1.8,4-4s-1.8-4-4-4h-62.1v-49.8H464.4z M256.1,25.5H298v39.7h-41.9V25.5z M226.3,77.2h103.2v41.3H226.3V77.2z
		 M197.7,130.5h158.2c3.8,0,6.9,3.1,6.9,6.9v350.7h-172V137.4C190.8,133.6,193.9,130.5,197.7,130.5z M118.3,212.2
		c0-2.4,1.9-4.3,4.3-4.3h56.2v35.5h-60.5V212.2z M85.9,262.3c0-3.8,3.1-6.9,6.9-6.9h86v50.3h-66.1c-2.2,0-4,1.8-4,4s1.8,4,4,4h66.1
		v53.4h-65.7c-2.2,0-4,1.8-4,4s1.8,4,4,4h65.7v53h-66.5c-2.2,0-4,1.8-4,4s1.8,4,4,4h66.5v52H85.9V262.3z M506,521.5H47v-21.4h459
		V521.5z"/>
</g>
<g id="_x31_2">
</g>
<g id="_x31_3">
</g>
<g id="_x31_4">
</g>
<g id="_x31_5">
</g>
<g id="_x31_6">
</g>
<g id="_x31_7">
	<g id="Layer_19">
	</g>
	<g id="Layer_20">
	</g>
</g>
</svg>
