<svg data-name="Layer 1" id="Layer_1" viewbox="0 0 50 50" xmlns="http://www.w3.org/2000/svg">
	<defs>
		<style>
		.cls-1{fill:#000;}
		</style>
	</defs>
	<title>PIDclient</title>
	<!-- <circle cx="36.8" cy="12.4" r="4.1"></circle> -->
	<!-- <circle cx="13.2" cy="12.4" r="4.1"></circle> -->
	<!-- <path d="M0,0V50H50V0ZM8.5,42.3a.5.5,0,0,1-1,0V26.6a.5.5,0,0,1,1,0Zm1.82-23a5.36,5.36,0,0,1-2.55,1.9,4.06,4.06,0,0,0-2.51,1.72c-.2.66-.54,8.28-.7,11.94-.08,1.78-.14,3.15-.17,3.51a.5.5,0,0,1-.5.46h0a.5.5,0,0,1-.46-.54c0-.37.09-1.72.17-3.48.45-10.22.61-12,.8-12.34.34-.86,1.38-1.62,3.06-2.21a4.43,4.43,0,0,0,2-1.5.5.5,0,0,1,.84.54ZM8.1,12.4a5.1,5.1,0,1,1,5.1,5.1A5.11,5.11,0,0,1,8.1,12.4ZM20.5,42.3a.5.5,0,0,1-1,0V26.6a.5.5,0,0,1,1,0Zm1.51-23a5.6,5.6,0,0,1-2.53,1.78A4.06,4.06,0,0,0,17,22.79c-.17.73-.76,14.15-.76,15.51a.5.5,0,0,1-1,0c0-.89.58-15.13.83-15.86a3.64,3.64,0,0,1,1.8-1.74,5.32,5.32,0,0,1-1.73-1.41.5.5,0,0,1,.82-.57,4.69,4.69,0,0,0,2,1.4.57.57,0,0,1,.13,0l.08,0a4.69,4.69,0,0,0,2.06-1.42.5.5,0,0,1,.82.58ZM19.9,12.4A5.1,5.1,0,1,1,25,17.5,5.11,5.11,0,0,1,19.9,12.4ZM30.5,42.3a.5.5,0,0,1-1,0V26.6a.5.5,0,0,1,1,0Zm3.7-3.5a.5.5,0,0,1-.5-.5c0-1.36-.6-14.78-.78-15.56a4.12,4.12,0,0,0-2.49-1.67,4.85,4.85,0,0,1-2.56-1.8.5.5,0,1,1,.84-.54,4,4,0,0,0,2,1.39l.14.05a.8.8,0,0,1,.19-.07,4.68,4.68,0,0,0,2-1.4.5.5,0,0,1,.7-.12.5.5,0,0,1,.12.69,5.33,5.33,0,0,1-1.78,1.44,3.58,3.58,0,0,1,1.74,1.69c.25.76.84,15,.84,15.89A.5.5,0,0,1,34.2,38.8ZM31.7,12.4a5.1,5.1,0,1,1,5.1,5.1A5.11,5.11,0,0,1,31.7,12.4ZM42.5,42.3a.5.5,0,0,1-1,0V26.6a.5.5,0,0,1,1,0Zm3.6-3.5a.5.5,0,0,1-.5-.5c0-1.36-.6-14.78-.78-15.56a4.12,4.12,0,0,0-2.49-1.67,5.61,5.61,0,0,1-2.54-1.79.5.5,0,1,1,.82-.57,4.72,4.72,0,0,0,2.07,1.42c1.67.59,2.72,1.35,3.09,2.28.25.76.84,15,.84,15.89A.5.5,0,0,1,46.1,38.8Z"></path> -->
	<!-- <circle cx="25" cy="12.4" r="4.1"></circle> -->
	<path class="cls-1" d="M30.1,12.4A5.1,5.1,0,1,0,25,17.5,5.11,5.11,0,0,0,30.1,12.4ZM25,16.5a4.1,4.1,0,1,1,4.1-4.1A4.1,4.1,0,0,1,25,16.5Z"></path>
	<path class="cls-1" d="M21.19,18.71a4.69,4.69,0,0,1-2.06,1.42l-.08,0a.57.57,0,0,0-.13,0,4.69,4.69,0,0,1-2-1.4.5.5,0,0,0-.82.57,5.32,5.32,0,0,0,1.73,1.41A3.64,3.64,0,0,0,16,22.44c-.24.73-.83,15-.83,15.86a.5.5,0,0,0,1,0c0-1.36.6-14.78.76-15.51a4.06,4.06,0,0,1,2.51-1.72A5.6,5.6,0,0,0,22,19.29a.5.5,0,0,0-.82-.58Z"></path>
	<path class="cls-1" d="M32.12,20.72a5.33,5.33,0,0,0,1.78-1.44.5.5,0,0,0-.12-.69.5.5,0,0,0-.7.12,4.68,4.68,0,0,1-2,1.4.8.8,0,0,0-.19.07l-.14-.05a4,4,0,0,1-2-1.39.5.5,0,1,0-.84.54,4.85,4.85,0,0,0,2.56,1.8,4.12,4.12,0,0,1,2.49,1.67c.18.78.78,14.2.78,15.56a.5.5,0,0,0,1,0c0-.89-.58-15.12-.84-15.89A3.58,3.58,0,0,0,32.12,20.72Z"></path>
	<path class="cls-1" d="M18.3,12.4a5.1,5.1,0,1,0-5.1,5.1A5.11,5.11,0,0,0,18.3,12.4Zm-5.1,4.1a4.1,4.1,0,1,1,4.1-4.1A4.1,4.1,0,0,1,13.2,16.5Z"></path>
	<path class="cls-1" d="M10.17,18.58a.5.5,0,0,0-.69.15,4.43,4.43,0,0,1-2,1.5c-1.69.59-2.73,1.36-3.06,2.21-.2.33-.35,2.12-.8,12.34-.08,1.77-.14,3.12-.17,3.48a.5.5,0,0,0,.46.54h0a.5.5,0,0,0,.5-.46c0-.37.09-1.73.17-3.51.16-3.66.5-11.27.7-11.94a4.06,4.06,0,0,1,2.51-1.72,5.36,5.36,0,0,0,2.55-1.9A.5.5,0,0,0,10.17,18.58Z"></path>
	<path class="cls-1" d="M41.9,12.4a5.1,5.1,0,1,0-5.1,5.1A5.11,5.11,0,0,0,41.9,12.4Zm-5.1,4.1a4.1,4.1,0,1,1,4.1-4.1A4.1,4.1,0,0,1,36.8,16.5Z"></path>
	<path class="cls-1" d="M42.68,20.13a4.72,4.72,0,0,1-2.07-1.42.5.5,0,1,0-.82.57,5.61,5.61,0,0,0,2.54,1.79,4.12,4.12,0,0,1,2.49,1.67c.18.78.78,14.2.78,15.56a.5.5,0,0,0,1,0c0-.89-.58-15.13-.84-15.89C45.39,21.49,44.35,20.72,42.68,20.13Z"></path>
	<path class="cls-1" d="M20,26.1a.5.5,0,0,0-.5.5V42.3a.5.5,0,0,0,1,0V26.6A.5.5,0,0,0,20,26.1Z"></path>
	<path class="cls-1" d="M30,26.1a.5.5,0,0,0-.5.5V42.3a.5.5,0,0,0,1,0V26.6A.5.5,0,0,0,30,26.1Z"></path>
	<path class="cls-1" d="M42,26.1a.5.5,0,0,0-.5.5V42.3a.5.5,0,0,0,1,0V26.6A.5.5,0,0,0,42,26.1Z"></path>
	<path class="cls-1" d="M8,26.1a.5.5,0,0,0-.5.5V42.3a.5.5,0,0,0,1,0V26.6A.5.5,0,0,0,8,26.1Z"></path>
</svg>
