<svg id="Layer_1" data-name="Layer 1" xmlns="http://www.w3.org/2000/svg" viewBox="0 0 50 50"><defs><style>.cls-1{fill:#000;}</style></defs><title>PIDdashboard</title><g id="ikonka"><path class="cls-1" d="M43,42.8H7.1A3.8,3.8,0,0,1,3.3,39V11A3.8,3.8,0,0,1,7.1,7.2H42.9A3.9,3.9,0,0,1,46.8,11V39A3.8,3.8,0,0,1,43,42.8ZM7.1,9.2A1.8,1.8,0,0,0,5.3,11V39a1.8,1.8,0,0,0,1.8,1.8H43A1.8,1.8,0,0,0,44.8,39V11a1.88,1.88,0,0,0-1.9-1.8Z"/><circle class="cls-1" cx="16.2" cy="25.8" r="5.6"/><path class="cls-1" d="M41.5,13.7H8.5a1,1,0,0,1,0-2h33a1,1,0,0,1,0,2Z"/><path class="cls-1" d="M28.9,39h-.6a1.37,1.37,0,0,1-1.4-1.4V31.1a1.37,1.37,0,0,1,1.4-1.4h.6a1.37,1.37,0,0,1,1.4,1.4v6.5A1.43,1.43,0,0,1,28.9,39Z"/><path class="cls-1" d="M35,39h-.6A1.37,1.37,0,0,1,33,37.6V28.9a1.37,1.37,0,0,1,1.4-1.4H35a1.37,1.37,0,0,1,1.4,1.4v8.7A1.37,1.37,0,0,1,35,39Z"/><path class="cls-1" d="M41,39h-.6A1.37,1.37,0,0,1,39,37.6V26a1.37,1.37,0,0,1,1.4-1.4H41A1.37,1.37,0,0,1,42.4,26V37.6A1.43,1.43,0,0,1,41,39Z"/><path class="cls-1" d="M41.5,17.5H27.6a1,1,0,0,1,0-2H41.5a1,1,0,0,1,0,2Z"/><path class="cls-1" d="M23.8,17.5H8.5a1,1,0,0,1,0-2H23.8a1,1,0,1,1,0,2Z"/><path class="cls-1" d="M41.5,21H27.6a1,1,0,0,1,0-2H41.5a1,1,0,0,1,0,2Z"/><path class="cls-1" d="M23.8,35.7H8.5a1,1,0,0,1,0-2H23.8a1,1,0,1,1,0,2Z"/><path class="cls-1" d="M23.8,39H8.5a1,1,0,0,1,0-2H23.8a1,1,0,1,1,0,2Z"/></g></svg>
