<?xml version="1.0" encoding="utf-8"?>
<!-- Generator: Adobe Illustrator 21.1.0, SVG Export Plug-In . SVG Version: 6.00 Build 0)  -->
<svg version="1.1" id="Layer_1" xmlns="http://www.w3.org/2000/svg" xmlns:xlink="http://www.w3.org/1999/xlink" x="0px" y="0px"
	 viewBox="0 0 550 550" style="enable-background:new 0 0 550 550;" xml:space="preserve">
<style type="text/css">
	.st0{display:none;}
	.st1{display:inline;}
	.st2{fill:none;stroke:#000000;stroke-width:12;stroke-linecap:round;stroke-linejoin:round;}
	.st3{fill:none;}
</style>
<g id="_x31_">
	<g class="st0">
		<g class="st1">
			<path class="st2" d="M484.1-458.7c-50.8-56.4-124.5-91.8-206.4-91.8C124.3-550.6-0.1-426.2-0.1-272.8S124.3,5,277.7,5
				c141.3,0,258-105.6,275.5-242.1"/>
			<g>
				<polygon points="521.8,-505.9 531.2,-386.6 423.2,-438.1 				"/>
			</g>
		</g>
	</g>
</g>
<g id="_x32_">
</g>
<g id="_x33_">
</g>
<g id="_x35_">
	<g id="Layer_21">
	</g>
</g>
<g id="_x37_">
</g>
<g id="_x38_">
</g>
<g id="_x39_">
</g>
<g id="_x31_0">
</g>
<g>
	<rect x="260.6" y="22.3" class="st3" width="42.7" height="40.5"/>
	<path class="st3" d="M182.4,439h-67.5c-2.2,0-4-1.8-4-4s1.8-4,4-4h67.5v-53.9h-66.7c-2.2,0-4-1.8-4-4s1.8-4,4-4h66.7v-54.3h-67.1
		c-2.2,0-4-1.8-4-4s1.8-4,4-4h67.1v-51.2H95.1c-3.9,0-7.1,3.2-7.1,7.1v231.8h94.4V439z"/>
	<path class="st3" d="M182.4,207.4h-57.1c-2.5,0-4.5,2-4.5,4.5v31.7h61.6V207.4z"/>
	<rect x="230.4" y="74.8" class="st3" width="104.9" height="42"/>
	<path class="st3" d="M393.4,335.9c-54.7,0-99.2,44.5-99.2,99.2c0,54.7,44.5,99.2,99.2,99.2c54.7,0,99.2-44.5,99.2-99.2
		C492.6,380.4,448.1,335.9,393.4,335.9z M351.7,375.7c0-0.5,0.2-0.9,0.3-1.2l0.1-0.2c0.1-0.2,0.3-0.6,0.7-1c0.2-0.2,0.3-0.3,0.5-0.4
		c0,0,0.1-0.1,0.1-0.1l0.2-0.2l12.8-8.2c0.3-0.2,0.7-0.4,1.1-0.5c0,0,0.1,0,0.1-0.1l0.2-0.1c0.5-0.2,1-0.2,1.4-0.2h1.3
		c0.8,0,1.5,0,2.1,0.1c0.1,0,0.2,0,0.4,0.1c0.3,0,0.5,0.1,0.8,0.2c0.7,0.2,1.1,0.6,1.4,1.2c0.2,0.5,0.3,0.8,0.3,1.2V414h8.6
		c0.6,0,1,0.2,1.3,0.4c0.5,0.3,1,0.8,1.2,1.4c0.1,0.2,0.2,0.5,0.2,0.7l0.1,0.4c0.2,0.7,0.2,1.2,0.2,1.8c0,0.6,0,1.2-0.1,1.8
		c-0.1,0.5-0.3,0.9-0.4,1.2c-0.2,0.5-0.7,0.9-1.2,1.2c-0.3,0.1-0.7,0.4-1.3,0.4h-29.2c-0.3,0-0.9,0-1.5-0.5
		c-0.3-0.2-0.5-0.4-0.6-0.5c0,0-0.1-0.1-0.1-0.1c-0.5-0.5-0.7-1.1-0.8-1.6c-0.1-0.6-0.1-1.1-0.1-1.8c0-0.6,0-1.2,0.2-1.7
		c0.1-0.5,0.3-0.9,0.4-1.2c0.2-0.4,0.5-0.7,0.8-1l0.2-0.2l0.2-0.1c0.3-0.1,0.7-0.4,1.3-0.4H365v-38.5l-8.5,5.1
		c-0.5,0.3-1.2,0.6-1.8,0.7c-0.8,0.2-1.5-0.1-2.1-0.6c-0.5-0.5-0.7-1-0.8-1.6c-0.1-0.6-0.1-1.3-0.1-2
		C351.6,376.7,351.6,376.2,351.7,375.7z M387.4,494.8c0,0.6-0.2,1-0.4,1.3c-0.4,0.8-1.2,1.1-1.5,1.2c-0.3,0.1-0.7,0.2-1.3,0.3
		c-0.6,0.1-1.2,0.1-2,0.1c-0.8,0-1.4,0-2.1-0.1l-0.3-0.1c-0.3-0.1-0.7-0.1-1.2-0.4c-0.5-0.2-0.9-0.5-1-0.7c-0.5-0.5-0.6-1.2-0.6-1.7
		v-23.7c0-1.7-0.1-3-0.4-4.2c-0.2-1.1-0.6-2-1.2-3c-0.4-0.7-1-1.2-1.8-1.6c-0.9-0.4-1.8-0.6-2.8-0.6c-1.3,0-2.7,0.5-4.1,1.6
		c-1.6,1.2-3.2,2.8-4.9,4.9v26.7c0,0.6-0.2,1-0.4,1.3c-0.4,0.8-1.2,1.1-1.5,1.2c-0.3,0.1-0.7,0.2-1.3,0.3c-0.6,0.1-1.2,0.1-2,0.1
		s-1.3,0-2-0.1c-0.1,0-0.2,0-0.3-0.1c-0.4-0.1-0.8-0.1-1.2-0.4c-0.5-0.2-0.8-0.5-0.9-0.7c-0.4-0.4-0.6-1.2-0.6-1.7v-23.7
		c0-1.3-0.2-2.7-0.5-4.2c-0.2-1.1-0.6-2-1.2-3c-0.4-0.7-1-1.2-1.8-1.6c-0.9-0.4-1.7-0.6-2.7-0.6c-1.3,0-2.7,0.5-4.1,1.6
		c-1.6,1.2-3.2,2.8-4.9,4.9v26.7c0,0.6-0.2,1-0.4,1.3c-0.4,0.8-1.1,1-1.5,1.1c-0.3,0.1-0.7,0.2-1.3,0.3c-0.6,0.1-1.3,0.1-2.1,0.1
		c-0.8,0-1.5,0-2.1-0.1l-0.2,0c-0.3-0.1-0.7-0.1-1.2-0.4c-0.5-0.2-0.9-0.6-1-0.7l-0.2-0.2l-0.1-0.2c-0.1-0.3-0.4-0.7-0.4-1.3v-38.9
		c0-0.3,0-0.8,0.3-1.3c0.3-0.7,0.9-0.9,1.2-1.1l0.2-0.1c0.3-0.1,0.7-0.2,1.1-0.3l0.4,0c0.1,0,0.3,0,0.4,0c0.8-0.1,2-0.1,2.9,0
		c0.6,0,1.1,0.2,1.6,0.5c0.4,0.2,0.6,0.5,0.8,0.6l0.2,0.2l0.1,0.2c0.1,0.3,0.4,0.7,0.4,1.3v1.4c1.3-1.2,2.7-2.2,4.2-3
		c2.5-1.3,4.7-1.9,7-1.9c1.8,0,3.4,0.2,4.8,0.7c1.5,0.5,2.7,1,3.8,1.8c1.1,0.7,2,1.6,2.8,2.7c0.3,0.4,0.7,0.9,0.9,1.4
		c0.8-0.8,1.6-1.5,2.3-2.1c1.4-1.1,2.5-2,3.6-2.6c1.2-0.6,2.3-1.1,3.5-1.4c1-0.3,2.2-0.5,3.5-0.5c2.8,0,5.1,0.5,7,1.5
		c1.9,1,3.5,2.4,4.6,4c1.2,1.6,2,3.6,2.5,5.8c0.5,2.5,0.7,4.6,0.7,6.6v23.1h0.4V494.8z M407.6,494.8c0,0.6-0.2,1-0.4,1.3
		c-0.4,0.8-1.2,1-1.5,1.2c-0.3,0.1-0.7,0.2-1.3,0.3c-0.6,0.1-1.3,0.1-2.1,0.1c-0.8,0-1.5,0-2.1-0.1l-0.2,0c-0.3-0.1-0.7-0.1-1.2-0.4
		c-0.5-0.2-0.9-0.6-1-0.7l-0.2-0.2l-0.1-0.2c-0.1-0.3-0.4-0.7-0.4-1.3v-38.9c0-0.3,0-0.9,0.5-1.5c0.4-0.6,1.1-0.8,1.3-0.9
		c0.3-0.1,0.7-0.2,1.3-0.3c0.6-0.1,1.2-0.1,2-0.1c0.7,0,1.4,0,2.1,0.1l0.3,0.1c0.3,0.1,0.7,0.1,1.2,0.4c0.3,0.1,0.6,0.3,0.7,0.5
		l0.4,0.2l0.2,0.5c0.1,0.3,0.4,0.7,0.4,1.3V494.8z M406.9,447.3c-0.9,0.9-2.4,1.3-4.5,1.3c-2.1,0-3.5-0.4-4.5-1.3
		c-0.9-0.9-1.3-2.3-1.3-4.5c0-1.4,0.2-3.3,1.5-4.5c0.9-0.9,2.4-1.3,4.5-1.3c2.1,0,3.5,0.4,4.5,1.3c0.9,0.9,1.3,2.3,1.3,4.5
		C408.4,444.2,408.2,446.1,406.9,447.3z M404.1,423.5c-1.6-0.2-2.9-0.5-4.4-0.9l-0.6-0.2c-1-0.3-1.8-0.6-2.5-1
		c-0.6-0.2-1.5-0.6-2-1.1c-0.3-0.3-0.6-0.6-0.8-1c-0.1-0.3-0.4-0.7-0.4-1.3c0,0-0.1-0.2-0.1-0.4l-0.1-0.2v-1.5c0-0.5,0-1,0.1-1.5
		c0-0.5,0.2-1,0.3-1.3l0.1-0.2c0.2-0.4,0.5-0.7,0.7-0.9l0.2-0.2l0.2-0.1c0.2-0.1,0.6-0.4,1.2-0.4c0.7,0,1.2,0.3,2,0.7l0.2,0.1
		c0.5,0.3,1.2,0.7,2.1,1.1c0.9,0.4,2.1,0.7,3.6,1.1c1.4,0.4,3.1,0.5,5,0.5c1.9,0,3.5-0.2,4.9-0.6c1.5-0.5,2.7-1.1,3.7-1.9
		c1-0.9,1.8-1.9,2.3-3.1c0.6-1.3,0.9-2.9,0.9-4.8c0-1.5-0.2-3-0.7-4.2c-0.5-1.2-1.2-2-2.1-2.7c-1.1-0.9-2.4-1.4-3.8-1.7
		c-2-0.4-4-0.7-6.1-0.7c-1.7,0-3.1,0.1-4.3,0.3c-1.4,0.2-2.7,0.3-3.7,0.3c-1.7,0-2.5-0.7-2.9-1.2c-0.5-0.7-0.8-1.7-0.8-3.1v-22.8
		c0-0.5,0-2.1,1.1-3.2c0.5-0.5,1.4-1.1,3-1.1H425c0.6,0,1.2,0.3,1.4,0.4c0.6,0.3,1,0.8,1.2,1.5c0,0.1,0,0.1,0.1,0.2
		c0.1,0.2,0.3,0.6,0.3,1.1c0.1,0.5,0.1,1.1,0.1,1.6c0,1.4-0.2,2.3-0.6,3.1c-0.8,1.5-1.9,1.7-2.5,1.7h-18.5v12.5l1.5-0.1h3.5
		c3.1,0,6,0.4,8.5,1.2c2.7,0.9,4.7,2,6.4,3.5c1.7,1.6,3,3.5,3.9,5.7c0.9,2.1,1.3,4.4,1.3,7.1c0,3.2-0.5,6.1-1.6,8.6
		c-1.1,2.6-2.7,4.8-4.7,6.5c-1.9,1.7-4.2,3-7.1,4c-2.7,0.9-5.6,1.4-9,1.4C407.2,423.9,405.5,423.8,404.1,423.5z M454.3,494.8
		c0,0.6-0.2,1-0.4,1.3c-0.4,0.8-1.1,1-1.5,1.1c-0.3,0.1-0.7,0.2-1.3,0.3c-0.6,0.1-1.2,0.1-2,0.1c-0.8,0-1.4,0-2.1-0.1l-0.3-0.1
		c-0.3-0.1-0.7-0.1-1.2-0.4c-0.4-0.2-0.6-0.3-0.7-0.5c-0.6-0.4-0.9-1-0.9-1.9V472c0-1.9-0.2-3.6-0.5-5.1c-0.3-1.2-0.8-2.1-1.3-3
		c-0.6-0.8-1.1-1.3-2-1.7c-1-0.4-2-0.7-3.1-0.7c-1.5,0-3,0.5-4.5,1.6c-1.7,1.3-3.4,2.9-5,4.9v26.7c0,0.6-0.2,1-0.4,1.3
		c-0.4,0.8-1.2,1.1-1.5,1.2c-0.3,0.1-0.7,0.2-1.3,0.3c-0.6,0.1-1.3,0.1-2.1,0.1c-0.8,0-1.5,0-2.1-0.1l-0.2,0
		c-0.3-0.1-0.7-0.1-1.2-0.4c-0.5-0.2-0.9-0.6-1-0.7l-0.2-0.2l-0.1-0.2c-0.1-0.3-0.4-0.7-0.4-1.3v-38.9c0-0.3,0-0.8,0.3-1.3
		c0.3-0.6,0.9-0.9,1.2-1.1c0.3-0.2,0.8-0.3,1.3-0.4l0.4,0c0.1,0,0.3,0,0.4,0c0.8-0.1,2-0.1,2.9,0c0.6,0,1.1,0.2,1.6,0.5
		c0.4,0.2,0.6,0.5,0.8,0.6l0.2,0.2l0.1,0.2c0.1,0.3,0.4,0.7,0.4,1.3v1.5c1.4-1.2,2.8-2.2,4.4-3.1c2.5-1.3,5-1.9,7.3-1.9
		c2.9,0,5.3,0.5,7.3,1.5c1.9,0.9,3.5,2.3,4.8,3.9c1.3,1.7,2.1,3.6,2.7,5.8c0.5,2,0.7,4.4,0.7,7.5v22.3h0.2V494.8z"/>
	<path d="M510.9,494.5H496c-3.3,0-6,2.7-6,6s2.7,6,6,6h13.9v21.4h-45.2c-3.3,0-6,2.7-6,6s2.7,6,6,6h46.2c6.1,0,11-4.9,11-11v-23.4
		C521.9,499.4,517,494.5,510.9,494.5z"/>
	<path d="M322.5,527.9H50.8v-21.4h239.7c3.3,0,6-2.7,6-6s-2.7-6-6-6h-96.1V135.9c0-3.9,3.2-7.1,7.1-7.1H362c3.9,0,7.1,3.2,7.1,7.1
		v176.2c0,3.3,2.7,6,6,6s6-2.7,6-6v-23.9H472c3.9,0,7.1,3.2,7.1,7.1V349c0,3.3,2.7,6,6,6s6-2.7,6-6v-53.7c0-10.5-8.6-19.1-19.1-19.1
		h-90.9V135.9c0-10.5-8.6-19.1-19.1-19.1h-14.7V73.2c0-5.7-4.7-10.4-10.4-10.4h-21.6V20.7c0-5.7-4.7-10.4-10.4-10.4H259
		c-5.7,0-10.4,4.7-10.4,10.4v42.1h-19.8c-5.7,0-10.4,4.7-10.4,10.4v43.6h-16.9c-10.5,0-19.1,8.6-19.1,19.1v59.5h-57.1
		c-9.1,0-16.5,7.4-16.5,16.5v31.7H95.1c-10.5,0-19.1,8.6-19.1,19.1v231.8H49.8c-6.1,0-11,4.9-11,11v23.4c0,6.1,4.9,11,11,11h272.7
		c3.3,0,6-2.7,6-6S325.8,527.9,322.5,527.9z M260.6,22.3h42.7v40.5h-42.7V22.3z M230.4,74.8h104.9v42H230.4V74.8z M120.8,211.9
		c0-2.5,2-4.5,4.5-4.5h57.1v36.2h-61.6V211.9z M88,262.7c0-3.9,3.2-7.1,7.1-7.1h87.3v51.2h-67.1c-2.2,0-4,1.8-4,4s1.8,4,4,4h67.1
		v54.3h-66.7c-2.2,0-4,1.8-4,4s1.8,4,4,4h66.7V431h-67.5c-2.2,0-4,1.8-4,4s1.8,4,4,4h67.5v55.5H88V262.7z"/>
	<path d="M232,431.1c-2.2,0-4,1.8-4,4s1.8,4,4,4h40.1c2.2,0,4-1.8,4-4s-1.8-4-4-4H232z"/>
	<path d="M291.2,373.1c0-2.2-1.8-4-4-4h-54.1c-2.2,0-4,1.8-4,4s1.8,4,4,4h54.1C289.4,377.1,291.2,375.3,291.2,373.1z"/>
	<path d="M340.7,310.8c0-2.2-1.8-4-4-4H232.6c-2.2,0-4,1.8-4,4s1.8,4,4,4h104.1C338.9,314.8,340.7,313,340.7,310.8z"/>
	<path d="M337.8,244.9H233.7c-2.2,0-4,1.8-4,4s1.8,4,4,4h104.1c2.2,0,4-1.8,4-4S340,244.9,337.8,244.9z"/>
	<path d="M232.6,189.9h104.1c2.2,0,4-1.8,4-4s-1.8-4-4-4H232.6c-2.2,0-4,1.8-4,4S230.4,189.9,232.6,189.9z"/>
	<path d="M504.6,435.1c0-61.3-49.9-111.2-111.2-111.2c-61.3,0-111.2,49.9-111.2,111.2c0,61.3,49.9,111.2,111.2,111.2
		C454.7,546.3,504.6,496.4,504.6,435.1z M393.4,534.3c-54.7,0-99.2-44.5-99.2-99.2c0-54.7,44.5-99.2,99.2-99.2
		c54.7,0,99.2,44.5,99.2,99.2C492.6,489.8,448.1,534.3,393.4,534.3z"/>
	<path d="M352.5,380.8c0.6,0.6,1.4,0.8,2.1,0.6c0.7-0.1,1.3-0.4,1.8-0.7l8.5-5.1v38.5h-10.2c-0.5,0-1,0.2-1.3,0.4l-0.2,0.1l-0.2,0.2
		c-0.3,0.3-0.6,0.6-0.8,1c-0.1,0.3-0.3,0.7-0.4,1.2c-0.2,0.5-0.2,1.1-0.2,1.7c0,0.7,0,1.2,0.1,1.8c0.1,0.5,0.3,1.1,0.8,1.6
		c0,0,0.1,0.1,0.1,0.1c0.1,0.1,0.3,0.4,0.6,0.5c0.6,0.5,1.2,0.5,1.5,0.5h29.2c0.6,0,1-0.2,1.3-0.4c0.5-0.2,0.9-0.7,1.2-1.2
		c0.2-0.3,0.3-0.7,0.4-1.2c0.1-0.6,0.1-1.2,0.1-1.8c0-0.5-0.1-1.1-0.2-1.8l-0.1-0.4c-0.1-0.2-0.1-0.5-0.2-0.7
		c-0.2-0.6-0.7-1.1-1.2-1.4c-0.3-0.1-0.7-0.4-1.3-0.4h-8.6v-47.7c0-0.3,0-0.7-0.3-1.2c-0.3-0.6-0.7-0.9-1.4-1.2
		c-0.3-0.1-0.6-0.1-0.8-0.2c-0.1,0-0.3,0-0.4-0.1c-0.6-0.1-1.3-0.1-2.1-0.1h-1.3c-0.4,0-0.8,0-1.4,0.2l-0.2,0.1c0,0-0.1,0-0.1,0.1
		c-0.4,0.1-0.8,0.3-1.1,0.5l-12.8,8.2l-0.2,0.2c0,0-0.1,0.1-0.1,0.1c-0.2,0.1-0.3,0.2-0.5,0.4c-0.4,0.4-0.6,0.7-0.7,1l-0.1,0.2
		c-0.1,0.3-0.2,0.7-0.3,1.2c-0.1,0.5-0.1,1-0.1,1.5c0,0.7,0,1.4,0.1,2C351.9,379.7,352.1,380.3,352.5,380.8z"/>
	<path d="M425.3,418.5c2-1.7,3.6-3.8,4.7-6.5c1.1-2.5,1.6-5.4,1.6-8.6c0-2.6-0.4-5-1.3-7.1c-0.9-2.1-2.2-4-3.9-5.7
		c-1.7-1.5-3.7-2.6-6.4-3.5c-2.5-0.8-5.4-1.2-8.5-1.2H408l-1.5,0.1v-12.5H425c0.6,0,1.8-0.2,2.5-1.7c0.4-0.8,0.6-1.7,0.6-3.1
		c0-0.5,0-1.1-0.1-1.6c0-0.5-0.2-0.9-0.3-1.1c0,0,0-0.1-0.1-0.2c-0.2-0.6-0.7-1.2-1.2-1.5c-0.2-0.1-0.8-0.4-1.4-0.4h-24.8
		c-1.6,0-2.5,0.6-3,1.1c-1.1,1-1.1,2.6-1.1,3.2v22.8c0,1.4,0.3,2.4,0.8,3.1c0.4,0.5,1.2,1.2,2.9,1.2c1.1,0,2.4-0.1,3.7-0.3
		c1.1-0.2,2.5-0.3,4.3-0.3c2.1,0,4.1,0.2,6.1,0.7c1.5,0.3,2.7,0.9,3.8,1.7c0.9,0.7,1.6,1.6,2.1,2.7c0.5,1.2,0.7,2.6,0.7,4.2
		c0,2-0.3,3.5-0.9,4.8c-0.5,1.2-1.2,2.2-2.3,3.1c-1,0.8-2.2,1.5-3.7,1.9c-1.3,0.4-3,0.6-4.9,0.6c-2,0-3.6-0.2-5-0.5
		c-1.6-0.4-2.8-0.8-3.6-1.1c-0.9-0.4-1.6-0.7-2.1-1.1l-0.2-0.1c-0.8-0.4-1.3-0.7-2-0.7c-0.5,0-0.9,0.2-1.2,0.4l-0.2,0.1l-0.2,0.2
		c-0.2,0.2-0.5,0.5-0.7,0.9l-0.1,0.2c-0.1,0.3-0.2,0.7-0.3,1.3c-0.1,0.5-0.1,1-0.1,1.5v1.5l0.1,0.2c0.1,0.2,0.1,0.4,0.1,0.4
		c0,0.6,0.2,1,0.4,1.3c0.2,0.4,0.5,0.7,0.8,1c0.5,0.5,1.3,0.9,2,1.1c0.7,0.4,1.6,0.6,2.5,1l0.6,0.2c1.5,0.5,2.8,0.8,4.4,0.9
		c1.4,0.3,3.1,0.4,5.1,0.4c3.4,0,6.3-0.5,9-1.4C421.1,421.5,423.4,420.2,425.3,418.5z"/>
	<path d="M387,470.2c0-2-0.2-4.1-0.7-6.6c-0.4-2.1-1.3-4.1-2.5-5.8c-1.1-1.6-2.7-3-4.6-4c-1.9-1-4.2-1.5-7-1.5
		c-1.3,0-2.5,0.2-3.5,0.5c-1.2,0.3-2.3,0.8-3.5,1.4c-1.1,0.6-2.3,1.4-3.6,2.6c-0.7,0.6-1.5,1.3-2.3,2.1c-0.3-0.5-0.6-1-0.9-1.4
		c-0.8-1.1-1.8-2-2.8-2.7c-1.1-0.8-2.3-1.3-3.8-1.8c-1.3-0.4-3-0.7-4.8-0.7c-2.3,0-4.6,0.6-7,1.9c-1.4,0.8-2.8,1.8-4.2,3v-1.4
		c0-0.6-0.2-1-0.4-1.3l-0.1-0.2l-0.2-0.2c-0.1-0.1-0.4-0.4-0.8-0.6c-0.5-0.3-1-0.5-1.6-0.5c-0.9-0.2-2.2-0.1-2.9,0
		c-0.2,0-0.3,0-0.4,0l-0.4,0c-0.4,0.1-0.8,0.2-1.1,0.3l-0.2,0.1c-0.3,0.1-0.9,0.4-1.2,1.1c-0.3,0.5-0.3,1-0.3,1.3v38.9
		c0,0.6,0.2,1,0.4,1.3l0.1,0.2l0.2,0.2c0.1,0.1,0.5,0.5,1,0.7c0.4,0.2,0.8,0.3,1.2,0.4l0.2,0c0.6,0.1,1.3,0.1,2.1,0.1
		c0.8,0,1.4,0,2.1-0.1c0.6-0.1,1-0.2,1.3-0.3c0.3-0.1,1.1-0.4,1.5-1.1c0.1-0.3,0.4-0.7,0.4-1.3v-26.7c1.7-2.1,3.3-3.7,4.9-4.9
		c1.4-1.1,2.8-1.6,4.1-1.6c1,0,1.9,0.2,2.7,0.6c0.8,0.4,1.4,0.9,1.8,1.6c0.6,1,1,2,1.2,3c0.3,1.5,0.5,2.8,0.5,4.2v23.7
		c0,0.5,0.2,1.2,0.6,1.7c0.1,0.1,0.4,0.4,0.9,0.7c0.4,0.3,0.9,0.3,1.2,0.4c0.1,0,0.2,0,0.3,0.1c0.6,0.1,1.2,0.1,2,0.1s1.3,0,2-0.1
		c0.6-0.1,1-0.2,1.3-0.3c0.3-0.1,1.1-0.4,1.5-1.2c0.1-0.3,0.4-0.7,0.4-1.3v-26.7c1.7-2.1,3.3-3.7,4.9-4.9c1.4-1.1,2.8-1.6,4.1-1.6
		c1.1,0,1.9,0.2,2.8,0.6c0.8,0.4,1.4,0.9,1.8,1.6c0.6,1,1,2,1.2,3c0.3,1.2,0.4,2.5,0.4,4.2v23.7c0,0.5,0.2,1.2,0.6,1.7
		c0.1,0.1,0.5,0.5,1,0.7c0.4,0.2,0.8,0.3,1.2,0.4l0.3,0.1c0.6,0.1,1.3,0.1,2.1,0.1c0.8,0,1.3,0,2-0.1c0.6-0.1,1-0.2,1.3-0.3
		c0.3-0.1,1.1-0.4,1.5-1.2c0.1-0.3,0.4-0.7,0.4-1.3v-1.5H387V470.2z"/>
	<path d="M402.6,437c-2.1,0-3.6,0.4-4.5,1.3c-1.3,1.2-1.5,3.1-1.5,4.5c0,2.1,0.4,3.5,1.3,4.5c0.9,0.9,2.3,1.3,4.5,1.3
		c2.1,0,3.6-0.4,4.5-1.3c1.3-1.2,1.5-3.1,1.5-4.5c0-2.1-0.4-3.5-1.3-4.5C406.1,437.4,404.7,437,402.6,437z"/>
	<path d="M407,454.2l-0.4-0.2c-0.1-0.1-0.4-0.3-0.7-0.5c-0.4-0.2-0.8-0.3-1.2-0.4l-0.3-0.1c-0.6-0.1-1.3-0.1-2.1-0.1
		c-0.8,0-1.3,0-2,0.1c-0.6,0.1-1,0.2-1.3,0.3c-0.3,0.1-0.9,0.3-1.3,0.9c-0.5,0.6-0.5,1.2-0.5,1.5v38.9c0,0.6,0.2,1,0.4,1.3l0.1,0.2
		l0.2,0.2c0.1,0.1,0.5,0.5,1,0.7c0.4,0.2,0.8,0.3,1.2,0.4l0.2,0c0.6,0.1,1.3,0.1,2.1,0.1c0.7,0,1.4,0,2.1-0.1c0.6-0.1,1-0.2,1.3-0.3
		c0.3-0.1,1.1-0.4,1.5-1.2c0.1-0.3,0.4-0.7,0.4-1.3v-38.9c0-0.6-0.2-1-0.4-1.3L407,454.2z"/>
	<path d="M454.1,471c0-3.1-0.2-5.4-0.7-7.5c-0.5-2.2-1.4-4-2.7-5.8c-1.3-1.7-2.9-3-4.8-3.9c-2-1-4.3-1.5-7.3-1.5
		c-2.4,0-4.8,0.6-7.3,1.9c-1.5,0.8-3,1.9-4.4,3.1v-1.5c0-0.6-0.2-1-0.4-1.3l-0.1-0.2l-0.2-0.2c-0.1-0.1-0.4-0.4-0.8-0.6
		c-0.5-0.3-1-0.5-1.6-0.5c-0.9-0.2-2.2-0.1-2.9,0c-0.2,0-0.3,0-0.4,0l-0.4,0c-0.5,0.1-0.9,0.2-1.3,0.4c-0.3,0.1-0.9,0.4-1.2,1.1
		c-0.3,0.5-0.3,1-0.3,1.3v38.9c0,0.6,0.2,1,0.4,1.3l0.1,0.2l0.2,0.2c0.1,0.1,0.5,0.5,1,0.7c0.4,0.2,0.8,0.3,1.2,0.4l0.2,0
		c0.6,0.1,1.3,0.1,2.1,0.1c0.8,0,1.4,0,2.1-0.1c0.6-0.1,1-0.2,1.3-0.3c0.3-0.1,1.1-0.4,1.5-1.2c0.1-0.3,0.4-0.7,0.4-1.3v-26.7
		c1.6-2,3.2-3.6,5-4.9c1.5-1.1,3-1.6,4.5-1.6c1.1,0,2.1,0.2,3.1,0.7c0.8,0.4,1.4,0.9,2,1.7c0.5,0.9,1,1.8,1.3,3
		c0.3,1.4,0.5,3.2,0.5,5.1v22.8c0,0.9,0.3,1.5,0.9,1.9c0.1,0.1,0.4,0.3,0.7,0.5c0.4,0.2,0.8,0.3,1.2,0.4l0.3,0.1
		c0.6,0.1,1.3,0.1,2.1,0.1c0.8,0,1.3,0,2-0.1c0.6-0.1,1-0.2,1.3-0.3c0.3-0.1,1.1-0.4,1.5-1.1c0.1-0.3,0.4-0.7,0.4-1.3v-1.5h-0.2V471
		z"/>
</g>
<g id="_x31_2">
</g>
<g id="_x31_3">
</g>
<g id="_x31_4">
</g>
<g id="_x31_5">
</g>
<g id="_x31_6">
</g>
<g id="_x31_7">
	<g id="Layer_19">
	</g>
	<g id="Layer_20">
	</g>
</g>
</svg>
