<svg data-name="Layer 1" id="Layer_1" viewbox="0 0 50 50" xmlns="http://www.w3.org/2000/svg">
  <defs>
    <style>
    .cls-1{fill:none;}.cls-2{isolation:isolate;}.cls-3{fill:#000;}
    </style>
  </defs>
  <title>PIDfinance</title>
  <g data-name="Vrstva 2" id="Vrstva_2">
    <!-- <rect class="cls-1" height="23.5" width="33" x="2.2" y="13.2"></rect> -->
    <g class="cls-2">
      <path class="cls-3" d="M22.65,28.14H18.86a5.48,5.48,0,0,0,.87,3.21,2.91,2.91,0,0,0,2.46,1.05A5.39,5.39,0,0,0,24.45,32L25,35.51a12.42,12.42,0,0,1-3.23.42,6.74,6.74,0,0,1-5.19-2.07,8.4,8.4,0,0,1-2-5.73h-2V25.91h2V24.1h-2V21.88h2a8.59,8.59,0,0,1,2.21-5.71,7,7,0,0,1,5.26-2,11,11,0,0,1,2.93.45l-.53,3.58a5.36,5.36,0,0,0-2.17-.47,3,3,0,0,0-2.38,1,5.26,5.26,0,0,0-1,3.2h3.77V24.1H18.86v1.81h3.79Z"></path>
    </g>
    <!-- <path class="cls-1" d="M36.8,25A15.8,15.8,0,1,0,21,40.8,15.82,15.82,0,0,0,36.8,25Z"></path>
    <path class="cls-1" d="M29.18,9.21a17.77,17.77,0,0,1,0,31.58,15.79,15.79,0,0,0,0-31.58Z"></path> -->
    <path class="cls-3" d="M29,7.2a18.17,18.17,0,0,0-4,.48,17.8,17.8,0,1,0,0,34.65,18.22,18.22,0,0,0,4,.47A17.8,17.8,0,1,0,29,7.2ZM5.2,25A15.8,15.8,0,1,1,21,40.8,15.82,15.82,0,0,1,5.2,25Zm24,15.79a17.77,17.77,0,0,0,0-31.58,15.79,15.79,0,0,1,0,31.58Z"></path>
  </g>
</svg>
