<svg id="Layer_1" data-name="Layer 1" xmlns="http://www.w3.org/2000/svg" viewBox="0 0 50 50">
  <defs><style>.cls-1{fill:#000;}</style></defs>
  <title>PIDgarage</title>
  <!-- <rect x="14.4" y="38.3" width="21.3" height="2.2"/><rect x="14.4" y="29.2" width="21.3" height="2.6"/> -->
  <!-- <path d="M0,0V50H50V0ZM46.8,40.6a2.06,2.06,0,0,1-2,2.2H5.3a2,2,0,0,1-2-2.2v-1h.2V23.7a3.3,3.3,0,0,1,1.2-2.6l19-14.2a2.5,2.5,0,0,1,2.9,0l19,14.2a3.43,3.43,0,0,1,1.2,2.6Z"/> -->
  <!-- <rect x="14.4" y="33.8" width="21.3" height="2.5"/> -->
  <!-- <path d="M25.4,8.5a.49.49,0,0,0-.55,0L5.9,22.7a1.36,1.36,0,0,0-.4,1V40.85h6.9V28.2a1,1,0,0,1,1-1H36.7a1,1,0,0,1,1,1V40.81h7.1s0-.07,0-.2V23.7a1.47,1.47,0,0,0-.4-1Z"/> -->
  <path class="cls-1" d="M45.6,21.1,26.6,6.9a2.5,2.5,0,0,0-2.9,0L4.7,21.1a3.3,3.3,0,0,0-1.2,2.6V39.6H3.3v1a2,2,0,0,0,2,2.2H44.8a2.06,2.06,0,0,0,2-2.2V23.7A3.43,3.43,0,0,0,45.6,21.1ZM14.4,38.3H35.7v2.2H14.4Zm21.3-6.5H14.4V29.2H35.7Zm-21.3,2H35.7v2.5H14.4Zm30.4,6.8c0,.13,0,.19,0,.2H37.7V28.2a1,1,0,0,0-1-1H13.4a1,1,0,0,0-1,1V40.84H5.5V23.7a1.36,1.36,0,0,1,.4-1l19-14.17a.49.49,0,0,1,.55,0l19,14.2a1.47,1.47,0,0,1,.4,1Z"/>
</svg>
