<svg id="Layer_1" data-name="Layer 1" xmlns="http://www.w3.org/2000/svg" viewBox="0 0 50 50">
  <defs>
    <style>.cls-1{fill:#000;}</style>
  </defs>
  <title>PIDgaragesetup</title>
  <!-- <polygon points="12.8 28.2 29.79 28.2 29.4 27.3 30.1 26.6 30.1 26.4 12.8 26.4 12.8 28.2"/> -->
  <!-- <path d="M10.8,25.4a1,1,0,0,1,1-1H31.1a1,1,0,0,1,1,1V26l1.9.72c.2-.1.5-.2.7-.3l1.2-2.8h1.7V21.7a1,1,0,0,0-.28-.69L21.5,9.2a.21.21,0,0,0-.22,0L5.5,21a.92.92,0,0,0-.3.7v14h5.6Z"/> -->
  <!-- <path d="M0,0V50H50V0ZM46.8,34.2l-2.9,1.2a4.88,4.88,0,0,1-.3.7L44.8,39l-1.7,1.7-2.9-1.2c-.2.1-.5.2-.7.3l-1.2,2.9H35.9l-1.2-2.8c-.2-.1-.5-.2-.7-.3l-2.8,1.2-1.7-1.7L30,37.7H5a1.85,1.85,0,0,1-1.8-2v-14a2.89,2.89,0,0,1,1.12-2.31L20.1,7.6a2.22,2.22,0,0,1,2.58,0L38.5,19.4a3,3,0,0,1,1.1,2.3v4.74a5.38,5.38,0,0,1,.6.26l2.9-1.2,1.7,1.7-1.2,2.9a4.87,4.87,0,0,0,.3.7L46.8,32Z"/> -->
  <!-- <polygon points="27.5 33.9 12.8 33.9 12.8 35.4 29.83 35.4 27.5 34.4 27.5 33.9"/> -->
  <!-- <path d="M42.3,32.3l-.3-.8c-.1-.1-.1-.3-.2-.4l-.4-.8.3-.8.5-1.4-1.3.5-.8.3-.8-.4c-.2-.1-.3-.1-.5-.2L38,28l-.3-.8-.6-1.3-.5,1.3-.3.8-.9.3c-.2.1-.3.1-.5.2l-.8.4-.8-.3L32,28.1l.5,1.5.3.8-.4.8c-.1.1-.1.3-.2.5l-.3.8-.8.3-1.3.6,1.3.5.8.3.3.8c.1.2.1.3.2.5l.4.8-.3.8L32,38.4l1.3-.6.8-.3.8.4c.1.1.3.1.6.2l.8.3.3.8.6,1.3.5-1.3.3-.8.8-.3c.2-.1.4-.1.4-.2l.8-.4.8.3,1.4.5L41.7,37l-.3-.8.4-.8c.1-.2.1-.3.2-.5l.2-.8.8-.3,1.4-.6-1.3-.6Z"/> -->
  <!-- <path d="M30.56,30.2H12.8v1.7H27.73l2.57-1.1C30.39,30.63,30.47,30.39,30.56,30.2Z"/> -->
  <path class="cls-1" d="M43.6,30.1l1.2-2.9-1.7-1.7-2.9,1.2a5.38,5.38,0,0,0-.6-.26V21.7a3,3,0,0,0-1.1-2.3L22.68,7.59a2.22,2.22,0,0,0-2.58,0L4.32,19.39A2.89,2.89,0,0,0,3.2,21.7v14a1.85,1.85,0,0,0,1.8,2H30l-.55,1.4,1.7,1.7L34,39.6c.2.1.5.2.7.3l1.2,2.8h2.4l1.2-2.9c.2-.1.5-.2.7-.3l2.9,1.2L44.8,39l-1.2-2.9a4.88,4.88,0,0,0,.3-.7l2.9-1.2V32l-2.9-1.2A4.87,4.87,0,0,1,43.6,30.1ZM5.2,21.7a.92.92,0,0,1,.3-.7L21.28,9.21a.21.21,0,0,1,.22,0L37.32,21a1,1,0,0,1,.28.69v1.9H35.9l-1.2,2.8c-.2.1-.5.2-.7.3L32.1,26V25.4a1,1,0,0,0-1-1H11.8a1,1,0,0,0-1,1V35.7H5.2Zm24.9,4.9-.7.7.39.9h-17V26.4H30.1ZM12.8,35.4V33.9H27.5v.5l2.33,1Zm14.93-3.5H12.8V30.2H30.56c-.09.19-.17.43-.26.6ZM43,33.8l-.8.3-.2.8c-.1.2-.1.3-.2.5l-.4.8.3.8.5,1.3-1.4-.5-.8-.3-.8.4c0,.1-.2.1-.4.2l-.8.3-.3.8-.5,1.3-.6-1.3-.3-.8-.8-.3c-.3-.1-.5-.1-.6-.2l-.8-.4-.8.3-1.3.6.5-1.3.3-.8-.4-.8c-.1-.2-.1-.3-.2-.5l-.3-.8-.8-.3-1.3-.5,1.3-.6.8-.3.3-.8c.1-.2.1-.4.2-.5l.4-.8-.3-.8L32,28.1l1.3.5.8.3.8-.4c.2-.1.3-.1.5-.2l.9-.3.3-.8.5-1.3.6,1.3.3.8.8.3c.2.1.3.1.5.2l.8.4.8-.3,1.3-.5-.5,1.4-.3.8.4.8c.1.1.1.3.2.4l.3.8.8.3,1.3.6Z"/>
</svg>
