<?xml version="1.0" encoding="utf-8"?>
<!-- Generator: Adobe Illustrator 22.0.1, SVG Export Plug-In . SVG Version: 6.00 Build 0)  -->
<svg version="1.1" id="Layer_1" xmlns="http://www.w3.org/2000/svg" xmlns:xlink="http://www.w3.org/1999/xlink" x="0px" y="0px"
	 viewBox="0 0 50 50" style="enable-background:new 0 0 50 50;" xml:space="preserve">
<path d="M45.5,21l-19-15.3c-0.6-0.5-1.7-1-2.8,0L4.5,21c-0.1,0.1-1.3,1.2-1.3,3.1v18.3c0,1.2,0.7,2.6,2,2.6h15.3h9.2h15.2
	c0.9,0,2-0.9,2-2.6V24C46.8,23.9,46.7,22.1,45.5,21z M28.6,42.2h-7V29.4h7V42.2z M44.7,42.2H30.7V27.9c0-0.7-0.5-1.4-1-1.4h-9.2
	c-0.6,0-1,0.6-1,1.4v14.3H5.3V24c0-0.4,0.4-0.7,0.3-0.7l0,0L24.8,8c0.2-0.2,0.5,0,0.6,0l19,15.3c0.4,0.2,0.4,0.7,0.4,0.7V42.2z"/>
</svg>
