<?xml version="1.0" encoding="utf-8"?>
<!-- Generator: Adobe Illustrator 21.1.0, SVG Export Plug-In . SVG Version: 6.00 Build 0)  -->
<svg version="1.1" id="Layer_1" xmlns="http://www.w3.org/2000/svg" xmlns:xlink="http://www.w3.org/1999/xlink" x="0px" y="0px"
	 viewBox="0 0 550 550" style="enable-background:new 0 0 550 550;" xml:space="preserve">
<style type="text/css">
	.st0{fill:none;}
	.st1{fill:#1C1C1B;}
</style>
<g id="Layer_19">
</g>
<g>
	<polygon class="st0" points="185,252.3 185,295.2 205.9,278.4 	"/>
	<path class="st0" d="M434.9,192.6c-8.3,0-15.1-0.4-19.7-0.8c-0.9,2.7-1.4,5.5-1.4,7.8c0,13.3,10.9,24.2,24.2,24.2
		c13.9,0,24.2-12.8,24.2-24.2c0-2.8-0.8-5.3-1.9-8.1C454.5,192,444.8,192.6,434.9,192.6z"/>
	<path class="st0" d="M465.2,183.1v-6.4h-55.4v6.4l0,0c0.5,0.1,10.2,1.5,25.1,1.5C450.1,184.6,465.2,183.1,465.2,183.1z"/>
	<rect x="361.1" y="71.5" transform="matrix(0.7797 -0.6262 0.6262 0.7797 17.899 256.865)" class="st0" width="25.6" height="63"/>
	<rect x="395" y="44.7" transform="matrix(0.7797 -0.6262 0.6262 0.7797 42.0023 271.8306)" class="st0" width="24.6" height="63"/>
	<path class="st0" d="M480.2,280.8l-68.1,72.7c2.1,1.5,4.3,3.1,6.3,4.6l2.2,1.5l14.3,118.2h0.8h6.3h0.7L457,359.6l2.2-1.5
		c8.3-5.9,18-13.2,21.3-16c0.3-7.3,0-35.5-0.1-51.3C480.3,287.2,480.3,283.8,480.2,280.8z"/>
	<path class="st0" d="M409.8,168.7h55.4h6.6c0.5-0.6,1-1.1,1.2-1.5c-1.2-2-8-5.6-10.3-6.8c-1-0.5-1.8-1-2.5-1.3
		c-4.2-2.4-14.2-5.5-19.5-6.3c-1.4-0.2-4.7-0.2-6.2,0c-5.3,0.9-15.4,4-19.4,6.3c-0.7,0.4-1.6,0.8-2.5,1.3c-2.3,1.2-8.8,4.6-10.3,6.8
		c0.3,0.4,0.8,0.9,1.3,1.5H409.8z"/>
	<path class="st0" d="M397.1,328.5c0,6.1,0,11,0.1,13.6c1.6,1.4,4.7,3.9,8.5,6.7l74.3-79.4c-0.8-6.8-4.1-12.2-9.5-15.4L397.1,328.5z
		"/>
	<rect x="326.6" y="98" transform="matrix(0.7797 -0.6262 0.6262 0.7797 -6.0031 242.0246)" class="st0" width="28.5" height="63"/>
	<polygon class="st0" points="217.8,268.8 237.7,252.8 198.3,203.7 185,214.4 185,228 	"/>
	<path class="st0" d="M173,500.9V167c0-3-2.7-5.4-6-5.4H72.1c-3.3,0-6,2.4-6,5.4v333.9H173z M92.8,205.5c0-8.8,7.2-16,16-16h19.5
		c8.8,0,16,7.2,16,16V225c0,8.8-7.2,16-16,16h-19.5c-8.8,0-16-7.2-16-16V205.5z"/>
	<path class="st0" d="M108.8,233h19.5c4.4,0,8-3.6,8-8v-19.5c0-4.4-3.6-8-8-8h-19.5c-4.4,0-8,3.6-8,8V225
		C100.8,229.4,104.4,233,108.8,233z"/>
	
		<rect x="292.7" y="125.4" transform="matrix(0.7797 -0.6262 0.6262 0.7797 -30.66 226.7149)" class="st0" width="28.3" height="63"/>
	<path class="st0" d="M462.3,250.8c-8-1.8-18.7-2.2-22.8-2.2c-5.5,0-21,0.6-28.7,3.5c-8.7,3.3-13.4,10.5-13.4,20.5
		c0,3.5-0.1,10.3-0.1,18.2c-0.1,7.2-0.1,17-0.2,26.3L462.3,250.8z"/>
	<rect x="57" y="512.9" class="st0" width="459" height="21.4"/>
	
		<rect x="257.5" y="153.1" transform="matrix(0.7797 -0.6262 0.6262 0.7797 -55.6114 211.2225)" class="st0" width="29.6" height="63"/>
	
		<rect x="227.2" y="179.6" transform="matrix(0.7797 -0.6262 0.6262 0.7797 -79.4392 196.428)" class="st0" width="24.3" height="63"/>
	<path class="st0" d="M448.5,83.5l17.4-14c0.4-0.3,0.5-0.7,0.5-0.9c0-0.2,0-0.6-0.3-1l-37.7-47c-0.3-0.4-0.7-0.5-0.9-0.5
		c-0.3,0-0.6,0-1,0.3l-17.5,14L448.5,83.5z"/>
	<polygon class="st1" points="375.4,57.8 374.3,58.6 419.7,115.1 410.4,122.6 410.9,123.2 421.3,114.9 	"/>
	<path d="M108.8,241h19.5c8.8,0,16-7.2,16-16v-19.5c0-8.8-7.2-16-16-16h-19.5c-8.8,0-16,7.2-16,16V225C92.8,233.8,100,241,108.8,241
		z M100.8,205.5c0-4.4,3.6-8,8-8h19.5c4.4,0,8,3.6,8,8V225c0,4.4-3.6,8-8,8h-19.5c-4.4,0-8-3.6-8-8V205.5z"/>
	<path d="M525,504.2c-2.1-2.1-4.9-3.3-7.9-3.3H185V309.8l0.4,0.4L473.5,78.9c2.8-2.3,4.5-5.5,4.9-9c0.4-3.6-0.7-7-2.9-9.8l-37.7-47
		c-2.3-2.8-5.5-4.5-9-4.9c-3.6-0.4-7,0.7-9.8,2.9L185,199v-32c0-9.6-8.1-17.4-18-17.4H72.1c-9.9,0-18,7.8-18,17.4v334.1
		c-5.2,0.9-9.1,5.4-9.1,10.8v23.4c0,6.1,4.9,11,11,11h461c6.1,0,11-4.9,11-11V512C528.1,509.1,527,506.3,525,504.2z M185,295.2
		v-42.9l20.9,26.1L185,295.2z M436.6,93.1l-19.2,15.4l-39.5-49.1L397.1,44L436.6,93.1z M403.7,119.5l-20,16l-39.5-49.1l20-16.1
		L403.7,119.5z M371.8,145.2L349.5,163l-39.5-49.1L332.3,96L371.8,145.2z M337.6,172.6l-22.1,17.7l-39.5-49.1l22.1-17.7L337.6,172.6
		z M303.6,199.9l-23.1,18.5l-39.4-49.1l23.1-18.5L303.6,199.9z M268.6,228l-19,15.2l-39.4-49.1l19-15.2L268.6,228z M426.5,20.4
		c0.4-0.3,0.8-0.3,1-0.3c0.3,0,0.6,0.1,0.9,0.5l37.7,47c0.3,0.4,0.3,0.8,0.3,1c0,0.3-0.1,0.6-0.5,0.9l-17.4,14L409,34.4L426.5,20.4z
		 M198.3,203.7l39.4,49.1l-19.9,16L185,228v-13.6L198.3,203.7z M72.1,161.6H167c3.3,0,6,2.4,6,5.4v333.9H66.1V167
		C66.1,164,68.8,161.6,72.1,161.6z M516,534.3H57v-21.4h459V534.3z"/>
	<path d="M439.7,236.6L439.7,236.6C439.7,236.6,439.7,236.6,439.7,236.6c-0.2,0-0.2,0-0.3,0v0c-2.5,0-21.9,0.1-32.9,4.3
		c-13.3,5-21.2,16.9-21.2,31.7c0,3.5-0.1,10.3-0.1,18.1c-0.4,53.3-0.1,54.1,0.4,55.8c0.6,1.9,1.3,3.8,23.7,19.9l14.9,123.5h11.4h6.3
		h11.3l14.9-123.5c22.4-16,23-18,23.7-19.8c0.6-1.7,0.8-2.5,0.4-55.8c-0.1-7.9-0.1-14.7-0.1-18.1c0-14.9-7.9-26.7-21.2-31.7
		C460.1,236.8,442.2,236.6,439.7,236.6z M397.4,272.6c0-9.9,4.8-17.2,13.4-20.5c7.8-2.9,23.2-3.5,28.7-3.5c4.1,0,14.8,0.4,22.8,2.2
		l-65.2,66.3c0-9.2,0.1-19,0.2-26.3C397.3,282.9,397.4,276.1,397.4,272.6z M480.4,342.1c-3.3,2.9-13,10.1-21.3,16l-2.2,1.5
		l-14.3,118.2H442h-6.3h-0.8l-14.3-118.2l-2.2-1.5c-2.1-1.5-4.2-3-6.3-4.6l68.1-72.7c0,3,0,6.4,0.1,10
		C480.4,306.6,480.6,334.8,480.4,342.1z M480,269.4l-74.3,79.4c-3.8-2.8-6.9-5.3-8.5-6.7c-0.1-2.5-0.1-7.5-0.1-13.6l73.4-74.6
		C475.9,257.2,479.2,262.5,480,269.4z"/>
	<path d="M466.4,153.3c-0.9-0.5-1.7-0.9-2.3-1.2c-5.5-3.1-16.8-6.4-22.1-7.3c-2.2-0.4-6.5-0.4-8.8,0c-5.4,0.9-16.8,4.2-22.1,7.3
		c-0.6,0.4-1.4,0.8-2.3,1.2c-7.5,3.9-13.8,7.6-14.7,13l0,0.1c-0.5,3.2,2.2,7,7.8,11.5v5.2v6.8l3.4,0.5c-0.8,2.9-1.4,6.1-1.4,9.2
		c0,18.9,15.3,34.2,34.2,34.2c18.2,0,34.2-16,34.2-34.2c0-3.4-0.7-6.3-1.6-9l2.6-0.3v-7.2v-4.9l0.2-0.2c3.1-2.4,8.3-7,7.6-11.6
		C480.2,161,473.9,157.3,466.4,153.3z M412.5,160.4c0.9-0.5,1.8-0.9,2.5-1.3c4.1-2.3,14.1-5.4,19.4-6.3c1.5-0.2,4.8-0.2,6.2,0
		c5.3,0.9,15.3,4,19.5,6.3c0.7,0.4,1.6,0.8,2.5,1.3c2.3,1.2,9.1,4.8,10.3,6.8c-0.2,0.4-0.7,0.9-1.2,1.5h-6.6h-55.4h-6.3
		c-0.6-0.6-1-1.1-1.3-1.5C403.7,165,410.2,161.6,412.5,160.4z M409.8,183.1L409.8,183.1l0-6.4h55.4v6.4c0,0-15.1,1.5-30.3,1.5
		C420,184.6,410.3,183.2,409.8,183.1z M438,223.8c-13.3,0-24.2-10.9-24.2-24.2c0-2.3,0.5-5.1,1.4-7.8c4.6,0.4,11.4,0.8,19.7,0.8
		c9.9,0,19.6-0.6,25.4-1.1c1.1,2.8,1.9,5.3,1.9,8.1C462.2,211,451.9,223.8,438,223.8z"/>
</g>
</svg>
