<?xml version="1.0" encoding="utf-8"?>
<!-- Generator: Adobe Illustrator 21.1.0, SVG Export Plug-In . SVG Version: 6.00 Build 0)  -->
<svg version="1.1" id="Layer_1" xmlns="http://www.w3.org/2000/svg" xmlns:xlink="http://www.w3.org/1999/xlink" x="0px" y="0px"
	 viewBox="0 0 550 550" style="enable-background:new 0 0 550 550;" xml:space="preserve">
<style type="text/css">
	.st0{fill:none;}
	.st1{fill:#1D1D1B;}
</style>
<g>
	
		<rect x="351.8" y="71.7" transform="matrix(0.7796 -0.6263 0.6263 0.7796 15.7459 251.2819)" class="st0" width="26.1" height="63.1"/>
	
		<rect x="217.8" y="179.7" transform="matrix(0.7796 -0.6263 0.6263 0.7796 -81.5424 190.8731)" class="st0" width="25.3" height="63.1"/>
	
		<rect x="248.1" y="153.3" transform="matrix(0.7796 -0.6263 0.6263 0.7796 -57.7062 205.6725)" class="st0" width="30.6" height="63.1"/>
	
		<rect x="384" y="45.3" transform="matrix(0.7796 -0.6263 0.6263 0.7796 39.5082 266.0351)" class="st0" width="27.5" height="63.1"/>
	<path class="st0" d="M439.4,83.9l17.8-14.3c0.4-0.3,0.5-0.8,0.5-1c0-0.2,0-0.6-0.3-0.9l-0.1-0.1l-37.8-47c-0.3-0.4-0.8-0.5-1-0.5
		c-0.2,0-0.6,0-0.9,0.3l-0.1,0.1l-17.7,14.2L439.4,83.9z"/>
	<polygon class="st0" points="178,258.9 178,293.9 195.1,280.1 	"/>
	<path class="st0" d="M335.7,215.1c-0.8-0.2-1.6-0.3-2.4-0.3c-5.6,0-10.6,3.9-11.8,9.5l-45.7,218.4c-1.3,6.5,2.8,12.8,9.3,14.2
		l119.5,25c0.8,0.2,1.6,0.3,2.4,0.3c5.6,0,10.6-3.9,11.8-9.5l45.7-218.4c1.3-6.5-2.8-12.8-9.3-14.2L335.7,215.1z M373.5,461.9
		c-0.4,1.9-2.1,3.2-3.9,3.2c-0.3,0-0.5,0-0.8-0.1l-47-9.8c-2.2-0.5-3.6-2.6-3.1-4.7c0.5-2.2,2.6-3.6,4.7-3.1l47,9.8
		C372.6,457.6,374,459.8,373.5,461.9z M454,260.8l-38.7,184.9c-1,4.3-4.7,7.2-8.9,7.2c-0.6,0-1.1-0.1-1.7-0.2L296.2,430
		c-4.9-1.1-7.9-5.7-7-10.5l38.7-184.9c1.1-4.9,5.9-8.1,10.8-7L447,250.3C451.9,251.4,454.9,256,454,260.8z"/>
	
		<rect x="283.2" y="125.5" transform="matrix(0.7796 -0.6263 0.6263 0.7796 -32.7182 221.1871)" class="st0" width="29.4" height="63.1"/>
	
		<rect x="317.3" y="98.1" transform="matrix(0.7796 -0.6263 0.6263 0.7796 -8.0224 236.5279)" class="st0" width="29.5" height="63.1"/>
	<path class="st0" d="M445.3,258.1l-108.4-22.7c-0.1,0-0.1,0-0.2,0c-0.5,0-0.9,0.4-1,0.9L297,421c-0.1,0.5,0.3,1,0.9,1.2l108.5,22.7
		c0.5,0.1,1-0.3,1.2-0.9l38.7-184.8C446.3,258.8,445.9,258.2,445.3,258.1z"/>
	<path class="st0" d="M166,164.7c0-3.3-2.7-6-6-6H65c-3.3,0-6,2.7-6,6v336.2h107V164.7z M137.7,222c0,8.8-7.2,16-16,16h-19.5
		c-8.8,0-16-7.2-16-16v-19.5c0-8.8,7.2-16,16-16h19.5c8.8,0,16,7.2,16,16V222z"/>
	<rect x="47" y="512.9" class="st0" width="459" height="21.4"/>
	<polygon class="st0" points="206.3,271.1 229.2,252.8 189.6,203.6 178,212.9 178,236 	"/>
	<path class="st0" d="M121.7,194.5h-19.5c-4.4,0-8,3.6-8,8V222c0,4.4,3.6,8,8,8h19.5c4.4,0,8-3.6,8-8v-19.5
		C129.7,198.1,126.1,194.5,121.7,194.5z"/>
	<path d="M121.7,186.5h-19.5c-8.8,0-16,7.2-16,16V222c0,8.8,7.2,16,16,16h19.5c8.8,0,16-7.2,16-16v-19.5
		C137.7,193.7,130.5,186.5,121.7,186.5z M129.7,222c0,4.4-3.6,8-8,8h-19.5c-4.4,0-8-3.6-8-8v-19.5c0-4.4,3.6-8,8-8h19.5
		c4.4,0,8,3.6,8,8V222z"/>
	<path d="M338.1,203.3c-1.5-0.3-3.2-0.5-4.8-0.5c-11.3,0-21.2,8-23.5,19.1L264,440.3c-1.3,6.3-0.1,12.7,3.4,18
		c3.5,5.4,8.9,9.1,15.2,10.4l119.5,25c1.6,0.3,3.3,0.5,4.9,0.5c11.3,0,21.2-8,23.5-19.1l45.7-218.4c1.3-6.3,0.1-12.7-3.4-18
		c-3.5-5.3-8.9-9.1-15.2-10.4L338.1,203.3z M464.5,254.3l-45.7,218.4c-1.2,5.6-6.2,9.5-11.8,9.5c-0.8,0-1.6-0.1-2.4-0.3l-119.5-25
		c-6.5-1.4-10.6-7.7-9.3-14.2l45.7-218.4c1.2-5.6,6.2-9.5,11.8-9.5c0.8,0,1.6,0.1,2.4,0.3l119.5,25
		C461.7,241.5,465.8,247.8,464.5,254.3z"/>
	<path d="M447,250.3l-108.4-22.7c-4.8-1.1-9.7,2-10.8,7l-38.7,184.9c-0.9,4.8,2.2,9.5,7,10.5l108.6,22.7c0.6,0.1,1.1,0.2,1.7,0.2
		c4.2,0,7.9-2.9,8.9-7.2L454,260.8C454.9,256,451.9,251.4,447,250.3z M407.5,444c-0.1,0.6-0.7,0.9-1.2,0.9l-108.5-22.7
		c-0.6-0.1-0.9-0.7-0.9-1.2l38.7-184.8c0.1-0.5,0.6-0.9,1-0.9c0.1,0,0.1,0,0.2,0l108.4,22.7c0.6,0.1,0.9,0.7,0.9,1.2L407.5,444z"/>
	<path d="M370.4,457.2l-47-9.8c-2.2-0.5-4.3,0.9-4.7,3.1c-0.5,2.2,0.9,4.3,3.1,4.7l47,9.8c0.3,0.1,0.5,0.1,0.8,0.1
		c1.9,0,3.5-1.3,3.9-3.2C374,459.8,372.6,457.6,370.4,457.2z"/>
	<path class="st1" d="M394.8,119.7l4.1,5.1l11.9-9.6l-4.1-5.1l-39.5-49.2l-3.6-4.5L351.7,66l3.6,4.5L394.8,119.7z M363.5,57.1
		l46.6,58l-11.1,9l-46.6-58L363.5,57.1z"/>
	<rect x="374.1" y="53.4" transform="matrix(0.7796 -0.6263 0.6263 0.7796 27.3076 258.7373)" width="14.3" height="74.4"/>
	<path d="M515,504.2c-2.1-2.1-4.9-3.3-7.9-3.3H178V309.3L464.7,79c2.8-2.3,4.6-5.6,4.9-9.2c0.3-3.5-0.7-7-3-9.7l-37.8-47
		c-2.3-2.8-5.6-4.6-9.2-4.9c-3.5-0.3-7,0.7-9.7,3L178,197.5v-32.8c0-9.9-8.1-18-18-18H65c-9.9,0-18,8.1-18,18v336.2h-1
		c-6.1,0-11,4.9-11,11v23.4c0,6.1,4.9,11,11,11h461c6.1,0,11-4.9,11-11V512C518.1,509.1,517,506.3,515,504.2z M178,258.9l17.1,21.3
		L178,293.9V258.9z M329.1,172.5l-22.9,18.4l-39.5-49.2l22.9-18.4L329.1,172.5z M300.8,114.3l23-18.5l39.5,49.2l-23,18.5
		L300.8,114.3z M295,199.8L271.2,219l-39.5-49.2l23.8-19.2L295,199.8z M260,228l-19.7,15.9l-39.5-49.2l19.7-15.9L260,228z
		 M417.6,20.5L417.6,20.5c0.4-0.3,0.7-0.4,1-0.3c0.2,0,0.7,0.1,1,0.5l37.8,47l0.1,0.1c0.3,0.3,0.3,0.6,0.3,0.9c0,0.2-0.1,0.7-0.5,1
		l-17.8,14.3l-39.5-49.2L417.6,20.5z M363.6,56.4l3.6,4.5l21.5-17.2l39.5,49.2l-21.5,17.2l4.1,5.1l-11.9,9.6l-4.1-5.1L374.5,136
		l-39.5-49.2l20.4-16.4l-3.6-4.5L363.6,56.4z M189.6,203.6l39.5,49.2l-22.9,18.4L178,236v-23L189.6,203.6z M59,164.7
		c0-3.3,2.7-6,6-6h95c3.3,0,6,2.7,6,6v336.2H59V164.7z M506,534.3H47v-21.4h459V534.3z"/>
</g>
</svg>
