<?xml version="1.0" encoding="utf-8"?>
<!-- Generator: Adobe Illustrator 21.1.0, SVG Export Plug-In . SVG Version: 6.00 Build 0)  -->
<svg version="1.1" id="Layer_1" xmlns="http://www.w3.org/2000/svg" xmlns:xlink="http://www.w3.org/1999/xlink" x="0px" y="0px"
	 viewBox="0 0 550 550" style="enable-background:new 0 0 550 550;" xml:space="preserve">
<style type="text/css">
	.st0{display:none;}
	.st1{display:inline;}
	.st2{fill:none;stroke:#000000;stroke-width:12;stroke-linecap:round;stroke-linejoin:round;}
	.st3{fill:none;}
</style>
<g id="_x31_">
	<g class="st0">
		<g class="st1">
			<path class="st2" d="M-1165.9-1009.4c-50.8-56.4-124.5-91.8-206.4-91.8c-153.4,0-277.8,124.4-277.8,277.8
				s124.4,277.8,277.8,277.8c141.3,0,258-105.6,275.5-242.1"/>
			<g>
				<polygon points="-1128.2,-1056.6 -1118.8,-937.3 -1226.8,-988.8 				"/>
			</g>
		</g>
	</g>
</g>
<g id="_x32_">
</g>
<g id="_x33_">
</g>
<g id="_x35_">
	<g id="Layer_21">
	</g>
</g>
<g id="_x37_">
</g>
<g id="_x38_">
</g>
<g id="_x39_">
</g>
<g id="_x31_0">
</g>
<g id="_x31_1">
</g>
<g id="_x31_2">
</g>
<g id="_x31_3">
</g>
<g id="_x31_4">
</g>
<g id="_x31_5">
</g>
<g id="_x31_6">
</g>
<g>
	<path class="st3" d="M229.4,55.8h5.5h86.8h2.6v0h4.1c2.6-2.4,5-5.2,5.7-6.6c-1.1-2.2-6.6-5.9-16.4-11c-1.5-0.8-2.8-1.5-3.9-2.1
		c-6.8-3.8-22.8-8.7-30.7-9.9l-0.1,0c-2.2-0.4-7.4-0.4-9.7,0l-0.1,0c-7.9,1.2-23.9,6.1-30.7,9.9c-1.1,0.6-2.5,1.3-3.9,2.1
		c-3.6,1.9-14.2,7.4-16.2,10.8C223.6,50.5,226.3,53.3,229.4,55.8z"/>
	<path class="st3" d="M322.4,172c-14.9-4.5-38.1-4.7-40.8-4.7c-1.3,0-31.3,0-46.3,5.6c-14.8,5.6-23.3,18.4-23.3,35.3
		c0,5.4-0.1,16.1-0.2,28.4c-0.1,13.9-0.2,32.1-0.3,48.1L322.4,172z"/>
	<path class="st3" d="M234.9,73.8L234.9,73.8c0.9,0.1,16.1,2.4,39.3,2.4c23.9,0,47.5-2.4,47.5-2.4v-10h-86.8V73.8z"/>
	<path class="st3" d="M314.6,82.5c-9,0.7-24.5,1.7-40.3,1.7c-13.8,0-24.7-0.8-31.8-1.5c-2.4,5.5-3.8,11.8-3.8,16.9
		c0,22.2,18,40.2,40.2,40.2c23,0,40.2-21.2,40.2-40.2c0-5.7-2-10.8-4.3-16.6C314.7,82.9,314.7,82.7,314.6,82.5z"/>
	<path class="st3" d="M348.4,208.1c0-0.1,0-0.2,0-0.3L230.7,333.5c5.1,3.8,10.6,7.8,15.8,11.4l2.2,1.5L271.3,533h3.9h10.1h3.9
		l22.6-186.7l2.2-1.5c14.2-10.1,30.7-22.4,34.7-26.3c0.5-8.9,0.2-54.4-0.1-82.1C348.5,224.1,348.4,213.5,348.4,208.1z"/>
	<path class="st3" d="M347.1,197.5c-2.4-9.7-8.2-17.4-16.8-22.2L211.5,296.1c0,10.7,0.1,19.2,0.3,22.5c1.9,1.8,6.6,5.6,12.5,10
		L347.1,197.5z"/>
	<path d="M360.6,236.3c-0.1-12.3-0.2-22.8-0.2-28.2c0-21.8-11.6-39.2-31-46.4c-16.6-6.2-44.2-6.4-47.8-6.4c-2.3,0-33.5,0-50.5,6.4
		c-19.5,7.3-31.1,24.7-31.1,46.5c0,5.4-0.1,16-0.2,28.3c-0.6,75.4-0.3,83.9,0.5,86.4c0.6,1.9,1.7,5,37.1,30.3L260.7,545h14.5h10.1
		h14.5L323,353.1c35.4-25.1,36.4-28.4,37.1-30.3C360.9,320.3,361.2,311.8,360.6,236.3z M212,208.2c0-16.9,8.5-29.7,23.3-35.3
		c15-5.6,45-5.6,46.3-5.6c2.6,0,25.8,0.1,40.8,4.7L211.5,284.7c0-15.9,0.2-34.2,0.3-48.1C211.9,224.3,212,213.6,212,208.2z
		 M211.5,296.1l118.8-120.8c8.6,4.7,14.4,12.5,16.8,22.2L224.3,328.6c-5.9-4.5-10.6-8.2-12.5-10
		C211.6,315.3,211.5,306.8,211.5,296.1z M348.6,318.5c-4,3.9-20.5,16.2-34.7,26.3l-2.2,1.5L289.2,533h-3.9h-10.1h-3.9l-22.7-186.6
		l-2.2-1.5c-5.2-3.7-10.7-7.7-15.8-11.4l117.7-125.6c0,0.1,0,0.2,0,0.3c0,5.4,0.1,16,0.2,28.3C348.8,264.2,349.1,309.6,348.6,318.5z
		"/>
	<path d="M224.5,67.2l0.7,0.5l1.7,0.6v5.5v6.8l4.3,0.7c-2,5.5-3.5,11.9-3.5,18.3c0,28.2,23,51.2,51.2,51.2
		c27.3,0,51.2-23.9,51.2-51.2c0-6.8-1.9-12.6-4.1-18.1l3.8-0.4v-7.2v-6.1h3.1l1.7-1.4c5.8-5,12.5-12.2,11.5-18.6
		c-1.4-8.4-11.6-14.4-22.8-20.3c-1.4-0.7-2.6-1.4-3.6-1.9c-8.1-4.6-25.6-9.9-34.7-11.3c-3.6-0.6-10-0.6-13.6,0
		c-9.1,1.4-26.5,6.7-34.7,11.3c-1,0.6-2.2,1.2-3.6,1.9c-9,4.7-21.4,11.2-22.8,20.3C209.5,53.1,214.3,59.6,224.5,67.2z M321.7,73.8
		c0,0-23.6,2.4-47.5,2.4c-23.2,0-38.4-2.3-39.3-2.4l0,0v-10h86.8V73.8z M278.9,139.8c-22.2,0-40.2-18-40.2-40.2
		c0-5.1,1.5-11.3,3.8-16.9c7.1,0.7,18,1.5,31.8,1.5c15.8,0,31.2-1,40.3-1.7c0.1,0.2,0.1,0.4,0.2,0.5c2.3,5.8,4.3,10.8,4.3,16.6
		C319.1,118.6,301.9,139.8,278.9,139.8z M238.7,38.1c1.5-0.8,2.8-1.5,3.9-2.1c6.8-3.8,22.8-8.7,30.7-9.9l0.1,0
		c2.2-0.4,7.4-0.4,9.7,0l0.1,0c7.9,1.2,23.9,6.1,30.7,9.9c1.1,0.6,2.4,1.3,3.9,2.1c9.7,5.1,15.2,8.8,16.4,11
		c-0.7,1.5-3.1,4.2-5.7,6.6h-4.1v0h-2.6h-86.8h-5.5c-3.1-2.5-5.9-5.3-6.9-6.9C224.5,45.6,235.1,40,238.7,38.1z"/>
</g>
</svg>
