<?xml version="1.0" encoding="utf-8"?>
<!-- Generator: Adobe Illustrator 21.1.0, SVG Export Plug-In . SVG Version: 6.00 Build 0)  -->
<svg version="1.1" id="Layer_1" xmlns="http://www.w3.org/2000/svg" xmlns:xlink="http://www.w3.org/1999/xlink" x="0px" y="0px"
	 viewBox="0 0 550 550" style="enable-background:new 0 0 550 550;" xml:space="preserve">
<style type="text/css">
	.st0{display:none;}
	.st1{display:inline;}
	.st2{fill:none;stroke:#000000;stroke-width:12;stroke-linecap:round;stroke-linejoin:round;}
	.st3{fill:none;}
</style>
<g id="_x31_">
	<g class="st0">
		<g class="st1">
			<path class="st2" d="M-1165.9-458.7c-50.8-56.4-124.5-91.8-206.4-91.8c-153.4,0-277.8,124.4-277.8,277.8S-1525.7,5-1372.3,5
				c141.3,0,258-105.6,275.5-242.1"/>
			<g>
				<polygon points="-1128.2,-505.9 -1118.8,-386.6 -1226.8,-438.1 				"/>
			</g>
		</g>
	</g>
</g>
<g id="_x32_">
</g>
<g id="_x33_">
</g>
<g id="_x35_">
	<g id="Layer_21">
	</g>
</g>
<g id="_x37_">
</g>
<g id="_x38_">
</g>
<g id="_x31_0">
</g>
<g>
	<path class="st3" d="M226.6,284.6h-3.9c-5,0-9-4-9-9v-27.4h-42.1v27.4c0,5-4,9-9,9h-3.9v204.3h67.9V284.6z"/>
	<rect x="238.6" y="284.6" class="st3" width="74.3" height="203.5"/>
	<path class="st3" d="M329.7,275.6v-27.4h-108v27.4c0,0.6,0.5,1,1,1h106C329.3,276.6,329.7,276.1,329.7,275.6z"/>
	<path class="st3" d="M163.6,275.6v-27.4h-108v27.4c0,0.6,0.5,1,1,1h106C163.2,276.6,163.6,276.1,163.6,275.6z"/>
	<rect x="72.4" y="284.6" class="st3" width="74.3" height="203.4"/>
	<rect x="47.1" y="500.9" class="st3" width="459" height="21.4"/>
	<path class="st3" d="M514.5,205.4L275.7,95.5l-237,109.9c-0.3,0.2-0.7,0.3-1,0.5c-0.7,0.4-1.6,0.8-2.1,1.1v28.7
		c0,0.3,0.2,0.5,0.5,0.5h481c0.3,0,0.5-0.2,0.5-0.5v-28.6c-0.5-0.4-1.5-0.9-2.3-1.3L514.5,205.4z"/>
	<rect x="404.3" y="284.6" class="st3" width="74.3" height="203.5"/>
	<path class="st3" d="M387.5,275.6c0,0.6,0.5,1,1,1h106c0.6,0,1-0.5,1-1v-27.4h-108V275.6z"/>
	<path class="st3" d="M388.5,284.6c-5,0-9-4-9-9v-27.4h-41.8v27.4c0,5-4,9-9,9h-3.8v204.3h67.4V284.6H388.5z"/>
	<path d="M529.6,206.3c-0.2-6.7-5.4-9.4-8.8-11.2l-0.9-0.5c-0.1-0.1-0.2-0.1-0.3-0.1L278.2,83.4c-1.6-0.7-3.4-0.7-5,0L33.6,194.6
		c-0.1,0-0.1,0.1-0.2,0.1c-0.3,0.2-0.7,0.3-1,0.5c-3.3,1.6-8.8,4.4-8.8,11.3v29.2c0,6.9,5.6,12.5,12.5,12.5h11.5v27.4c0,5,4,9,9,9
		h3.8v204.3H46.1c-6.1,0-11,4.9-11,11v23.4c0,6.1,4.9,11,11,11h461c6.1,0,11-4.9,11-11v-23.4c0-6.1-4.9-11-11-11h-16.5V284.6h3.9
		c5,0,9-4,9-9v-27.4h13.6c6.9,0,12.5-5.6,12.5-12.5v-29.2C529.6,206.4,529.6,206.4,529.6,206.3z M55.6,275.6v-27.4h108v27.4
		c0,0.5-0.4,1-1,1h-106C56.1,276.6,55.6,276.2,55.6,275.6z M146.7,284.6V488H72.4V284.6H146.7z M158.7,284.6h3.9c5,0,9-4,9-9v-27.4
		h42.1v27.4c0,5,4,9,9,9h3.9v204.3h-67.9V284.6z M238.6,488.1V284.6h74.3v203.5H238.6z M222.7,276.6c-0.5,0-1-0.4-1-1v-27.4h108
		v27.4c0,0.5-0.4,1-1,1H222.7z M506.1,522.3h-459v-21.4h459V522.3z M324.9,488.9V284.6h3.8c5,0,9-4,9-9v-27.4h41.8v27.4c0,5,4,9,9,9
		h3.8v204.3H324.9z M478.6,488.1h-74.3V284.6h74.3V488.1z M495.5,275.6c0,0.5-0.4,1-1,1h-106c-0.5,0-1-0.4-1-1v-27.4h108V275.6z
		 M517.6,235.7c0,0.3-0.2,0.5-0.5,0.5h-481c-0.3,0-0.5-0.2-0.5-0.5V207c0.5-0.3,1.4-0.8,2.1-1.1c0.3-0.2,0.7-0.3,1-0.5l237-109.9
		l238.7,109.9l0.9,0.4c0.8,0.4,1.7,0.9,2.3,1.3V235.7z"/>
</g>
<g id="_x31_2">
</g>
<g id="_x31_3">
</g>
<g id="_x31_4">
</g>
<g id="_x31_5">
</g>
<g id="_x31_6">
</g>
<g id="_x31_7">
	<g id="Layer_19">
	</g>
	<g id="Layer_20">
	</g>
</g>
</svg>
