<svg id="Layer_1" data-name="Layer 1" xmlns="http://www.w3.org/2000/svg" viewBox="0 0 50 50">
  <defs>
    <style>.cls-1{fill:#000;}</style>
  </defs>
  <title>PIDinvoices</title>
  <!-- <path d="M26.5,14.5H7.1a1.8,1.8,0,0,0-1.8,1.8V39a1.8,1.8,0,0,0,1.8,1.8H26.5A1.87,1.87,0,0,0,28.3,39V16.3A1.8,1.8,0,0,0,26.5,14.5ZM8.2,27.1H9.7a.5.5,0,0,1,0,1H8.2a.5.5,0,1,1,0-1Zm-.5-4.5a.5.5,0,0,1,.5-.5h3a.5.5,0,1,1,0,1h-3A.5.5,0,0,1,7.7,22.6Zm.5,9.5h3a.5.5,0,0,1,0,1h-3a.5.5,0,0,1,0-1Zm17.1,6H8.2a.5.5,0,0,1,0-1H25.3a.5.5,0,0,1,0,1ZM12,27V25.51h1.35a5.75,5.75,0,0,1,1.48-3.82,4.7,4.7,0,0,1,3.52-1.36,7.35,7.35,0,0,1,2,.3L20,23a3.6,3.6,0,0,0-1.46-.31,2,2,0,0,0-1.59.66,3.52,3.52,0,0,0-.67,2.14h2.52V27H16.25v1.21h2.54V29.7H16.25a3.67,3.67,0,0,0,.58,2.15,2,2,0,0,0,1.65.7,3.61,3.61,0,0,0,1.51-.3l.35,2.38a8.3,8.3,0,0,1-2.16.28,4.51,4.51,0,0,1-3.47-1.38,5.62,5.62,0,0,1-1.34-3.83H12V28.21h1.34V27ZM25.3,33.1H22.6a.5.5,0,1,1,0-1h2.7a.5.5,0,0,1,0,1Zm0-5h-4a.5.5,0,0,1,0-1h4a.5.5,0,0,1,0,1Zm0-5H22.6a.5.5,0,0,1,0-1h2.7a.5.5,0,0,1,0,1Zm0-5H8.2a.5.5,0,1,1,0-1H25.3a.5.5,0,0,1,0,1Z"/> -->
  <!-- <path d="M42.9,9.2H23.5A1.8,1.8,0,0,0,21.7,11v1.5h2.54a.5.5,0,0,1,.46-.7H41.8a.5.5,0,0,1,0,1H28a3.81,3.81,0,0,1,2.32,3.5v.5H41.8a.5.5,0,0,1,0,1H30.3v4H41.8a.5.5,0,0,1,0,1H30.3v4H41.8a.5.5,0,0,1,0,1H30.3v4H41.8a.5.5,0,1,1,0,1H30.3v2.7H42.9a1.8,1.8,0,0,0,1.8-1.8V11A1.8,1.8,0,0,0,42.9,9.2Z"/> -->
  <!-- <path d="M0,0V50H50V0ZM46.7,33.7a3.8,3.8,0,0,1-3.8,3.8H30.3V39a3.85,3.85,0,0,1-3.8,3.8H7.1A3.8,3.8,0,0,1,3.3,39V16.3a3.8,3.8,0,0,1,3.8-3.8H19.7V11a3.8,3.8,0,0,1,3.8-3.8H42.9A3.8,3.8,0,0,1,46.7,11Z"/> -->
  <path class="cls-1" d="M25.3,37.1H8.2a.5.5,0,0,0,0,1H25.3a.5.5,0,0,0,0-1Z"/>
  <path class="cls-1" d="M25.3,22.1H22.6a.5.5,0,0,0,0,1h2.7a.5.5,0,0,0,0-1Z"/>
  <path class="cls-1" d="M25.3,32.1H22.6a.5.5,0,1,0,0,1h2.7a.5.5,0,0,0,0-1Z"/>
  <path class="cls-1" d="M25.3,27.1h-4a.5.5,0,0,0,0,1h4a.5.5,0,0,0,0-1Z"/>
  <path class="cls-1" d="M25.3,17.1H8.2a.5.5,0,1,0,0,1H25.3a.5.5,0,0,0,0-1Z"/>
  <path class="cls-1" d="M8.2,23.1h3a.5.5,0,1,0,0-1h-3a.5.5,0,1,0,0,1Z"/>
  <path class="cls-1" d="M8.2,28.1H9.7a.5.5,0,0,0,0-1H8.2a.5.5,0,1,0,0,1Z"/>
  <path class="cls-1" d="M8.2,33.1h3a.5.5,0,0,0,0-1h-3a.5.5,0,0,0,0,1Z"/>
  <path class="cls-1" d="M12,28.21V29.7h1.34a5.62,5.62,0,0,0,1.34,3.83,4.51,4.51,0,0,0,3.47,1.38,8.3,8.3,0,0,0,2.16-.28L20,32.25a3.61,3.61,0,0,1-1.51.3,2,2,0,0,1-1.65-.7,3.67,3.67,0,0,1-.58-2.15h2.54V28.21H16.25V27h2.54V25.51H16.27a3.52,3.52,0,0,1,.67-2.14,2,2,0,0,1,1.59-.66A3.6,3.6,0,0,1,20,23l.35-2.39a7.35,7.35,0,0,0-2-.3,4.7,4.7,0,0,0-3.52,1.36,5.75,5.75,0,0,0-1.48,3.82H12V27h1.34v1.21Z"/>
  <path class="cls-1" d="M42.9,7.2H23.5A3.8,3.8,0,0,0,19.7,11v1.5H7.1a3.8,3.8,0,0,0-3.8,3.8V39a3.8,3.8,0,0,0,3.8,3.8H26.5A3.85,3.85,0,0,0,30.3,39V37.5H42.9a3.8,3.8,0,0,0,3.8-3.8V11A3.8,3.8,0,0,0,42.9,7.2ZM28.3,39a1.87,1.87,0,0,1-1.8,1.8H7.1A1.8,1.8,0,0,1,5.3,39V16.3a1.8,1.8,0,0,1,1.8-1.8H26.5a1.8,1.8,0,0,1,1.8,1.8Zm16.4-5.3a1.8,1.8,0,0,1-1.8,1.8H30.3V32.8H41.8a.5.5,0,1,0,0-1H30.3v-4H41.8a.5.5,0,0,0,0-1H30.3v-4H41.8a.5.5,0,0,0,0-1H30.3v-4H41.8a.5.5,0,0,0,0-1H30.3v-.5A3.81,3.81,0,0,0,28,12.8H41.8a.5.5,0,0,0,0-1H24.7a.5.5,0,0,0-.46.7H21.7V11a1.8,1.8,0,0,1,1.8-1.8H42.9A1.8,1.8,0,0,1,44.7,11Z"/>
</svg>
