<svg id="Layer_1" data-name="Layer 1" xmlns="http://www.w3.org/2000/svg" viewBox="0 0 56.4 50">
  <defs><style>.cls-1{fill:none;}.cls-2{isolation:isolate;}.cls-3{fill:#000;}</style></defs>
  <title>PIDissues</title>
  <g id="Vrstva_2" data-name="Vrstva 2">
    <!-- <rect class="cls-1" y="10.7" width="44.7" height="28.6"/> -->
    <g class="cls-2">
      <g class="cls-2">
        <path class="cls-3" d="M7.78,29.81a12.76,12.76,0,0,1,.48-3.91A7.5,7.5,0,0,1,10,23.13a10.9,10.9,0,0,0,1.76-2.39,4.37,4.37,0,0,0,.44-1.88q0-2.94-1.9-2.94a1.67,1.67,0,0,0-1.41.81,3.94,3.94,0,0,0-.6,2.18h-5a7.29,7.29,0,0,1,1.91-5.29,6.83,6.83,0,0,1,5.07-1.88,6.85,6.85,0,0,1,5.08,1.82,6.9,6.9,0,0,1,1.81,5.09A8.13,8.13,0,0,1,15,24L13.5,25.61a5.36,5.36,0,0,0-1,1.78,8.71,8.71,0,0,0-.33,2.42Zm-.46,5.38A2.6,2.6,0,0,1,10,32.48a2.6,2.6,0,0,1,2.72,2.71A2.69,2.69,0,0,1,12,37.13a2.62,2.62,0,0,1-2,.77,2.59,2.59,0,0,1-2-.77A2.69,2.69,0,0,1,7.33,35.19Z" transform="translate(6.4)"/>
      </g>
      <g class="cls-2">
        <path class="cls-3" d="M22.33,35.28a2.61,2.61,0,0,1,2.72-2.72,2.62,2.62,0,0,1,2,.76,2.67,2.67,0,0,1,.76,2,2.72,2.72,0,1,1-5.43,0Zm4.8-5.47H23l-.58-17.72h5.29Z" transform="translate(6.4)"/>
      </g>
    </g>
    <polygon class="cls-3" points="38.8 29.8 43.6 32.6 53.2 11.9 44.7 37.9 38.8 29.8"/>
  </g>
</svg>
