<svg id="Layer_1" data-name="Layer 1" xmlns="http://www.w3.org/2000/svg" viewBox="0 0 50 50"><defs><style>.cls-1{fill:#000;}</style></defs><title>PIDmarketing</title><g id="Vrstva_2" data-name="Vrstva 2"><path class="cls-1" d="M10.76,42.9A2,2,0,0,1,8.7,41L8.1,29.19l-3.2-.31a2.07,2.07,0,0,1-1.7-2l.1-8.31a2.07,2.07,0,0,1,1.7-2l.13,0c2.81-.19,11.95-1,13.22-1.19a107.36,107.36,0,0,0,12.07-4.34,1.81,1.81,0,0,1,1.74.12,2,2,0,0,1,.94,1.71V32.6a2,2,0,0,1-.89,1.66,2,2,0,0,1-1.9.16l-.82-.36a78.73,78.73,0,0,0-8.71-3.48c-.94-.19-3.88-.58-5.53-.67h0a.35.35,0,0,0,0,.1L16,40.52a2.2,2.2,0,0,1-1.7,2.16l-.14,0-3.4.2Zm-.06-2h0ZM8.3,27.21a1.88,1.88,0,0,1,1.8,1.89l.6,11.78,3.23-.17A.22.22,0,0,0,14,40.6l-.8-10.52a2.2,2.2,0,0,1,.73-1.74,1.89,1.89,0,0,1,1.47-.43c1.76.11,4.75.51,5.79.71a76.07,76.07,0,0,1,9.1,3.61l.81.36V13c-1.23.51-9.07,3.71-12.39,4.42-1.38.21-10.35,1-13.35,1.21l-.06,0-.1,8.28h0s0,0,.06,0l3,.29Zm-.12,2h0Zm-.08,0ZM5.29,18.63h0Zm26-5.74h0Z"/><path class="cls-1" d="M37,11.5a.5.5,0,0,1-.25-.93l5.5-3.2a.5.5,0,1,1,.5.86l-5.5,3.2A.5.5,0,0,1,37,11.5Z"/><path class="cls-1" d="M39.3,17.4a.5.5,0,0,1-.13-1l6.4-1.7a.5.5,0,1,1,.26,1l-6.4,1.7Z"/><path class="cls-1" d="M46.6,23.8h0l-6.7-.2a.5.5,0,1,1,0-1l6.7.2a.5.5,0,0,1,0,1Z"/><path class="cls-1" d="M45.5,31.7l-.12,0-6.2-1.6a.5.5,0,1,1,.25-1l6.2,1.6a.5.5,0,0,1-.12,1Z"/><path class="cls-1" d="M42.4,39.2a.5.5,0,0,1-.26-.08l-5.5-3.4a.5.5,0,0,1,.53-.85l5.5,3.4a.5.5,0,0,1-.26.92Z"/></g></svg>
