<svg id="Layer_1" data-name="Layer 1" xmlns="http://www.w3.org/2000/svg" viewBox="0 0 43.6 39.9">
  <defs><style>.cls-1{fill:none;}</style></defs>
  <title>flglhjgamfjedihd</title>
  <path d="M40.3,17.6H9.9a1,1,0,0,1,0-2H40.3a1,1,0,0,1,0,2Z" transform="translate(-3.2 -8.1)"/>
  <path d="M40.5,25.1H9.9a1,1,0,0,1,0-2H40.5a1,1,0,0,1,0,2Z" transform="translate(-3.2 -8.1)"/>
  <path d="M40.5,32.6H9.9a1,1,0,0,1,0-2H40.5a1,1,0,0,1,0,2Z" transform="translate(-3.2 -8.1)"/>
  <!-- <path class="cls-1" d="M42.8,10.1H7.2a1.93,1.93,0,0,0-2,1.9V35a2,2,0,0,0,2,1.9h4.5v0a.92.92,0,0,1,.17,0,1,1,0,0,1,.82,1.15l-1,6.14,7.33-7a1,1,0,0,1,.69-.27H42.8a1.93,1.93,0,0,0,2-1.9V12A2,2,0,0,0,42.8,10.1Z" transform="translate(-3.2 -8.1)"/> -->
  <path d="M42.8,8.1H7.2a3.91,3.91,0,0,0-4,3.9V35a4,4,0,0,0,4,3.9h3.32L9.21,46.84a1,1,0,0,0,1.68.88L20.1,38.9H42.8a3.91,3.91,0,0,0,4-3.9V12A4,4,0,0,0,42.8,8.1Zm2,26.9a1.93,1.93,0,0,1-2,1.9H19.7a1,1,0,0,0-.69.27l-7.33,7,1-6.14a1,1,0,0,0-.82-1.15.92.92,0,0,0-.17,0v0H7.2a2,2,0,0,1-2-1.9V12a1.93,1.93,0,0,1,2-1.9H42.8a2,2,0,0,1,2,1.9Z" transform="translate(-3.2 -8.1)"/>
</svg>
