<?xml version="1.0" encoding="utf-8"?>
<!-- Generator: Adobe Illustrator 21.1.0, SVG Export Plug-In . SVG Version: 6.00 Build 0)  -->
<svg version="1.1" id="Layer_1" xmlns="http://www.w3.org/2000/svg" xmlns:xlink="http://www.w3.org/1999/xlink" x="0px" y="0px"
	 viewBox="0 0 550 550" style="enable-background:new 0 0 550 550;" xml:space="preserve">
<style type="text/css">
	.st0{fill:none;}
</style>
<g id="_x31_">
	<g>
		<polygon class="st0" points="267,302 267,243.4 231.7,302 		"/>
		<path d="M197.6,338.5c0.3,0,0.4-0.1,0.5-0.1c0,0,0.1-0.2,0.2-0.3c0.2-0.3,0.2-0.5,0.3-0.8c0.1-0.5,0.2-1.1,0.2-1.7
			c0-0.5-0.1-0.9-0.2-1.3c-0.1-0.3-0.3-0.7-0.4-0.9l-0.1-0.2c0,0-0.1-0.1-0.1-0.1c-0.1-0.1-0.2-0.1-0.4-0.1h-56.4l23.9-25.1
			c6.3-6.6,11.4-12.5,15.1-17.5c3.7-4.9,6.5-9.5,8.5-13.7c1.9-4,3.2-7.8,3.7-11.2c0.6-3.5,0.9-7,0.9-10.5c0-3.8-0.6-7.2-1.8-10.4
			c-1.2-3.2-3-6.1-5.5-8.6c-2.3-2.4-5.4-4.4-9.1-5.9c-3.8-1.5-8.1-2.3-13.1-2.3c-2.9,0-5.9,0.4-8.8,1c-2.8,0.7-5.5,1.5-7.8,2.5
			c-2.3,0.9-4.3,1.9-5.8,2.8c-1.7,1.1-2.7,1.8-3.2,2.2c-0.5,0.4-0.8,0.8-0.9,0.9c0,0.1-0.1,0.1-0.1,0.2c-0.1,0.1-0.2,0.3-0.2,0.4
			l-0.2,0.4c0,0.1,0,0.2,0,0.3c0,0.2-0.1,0.3-0.1,0.5c-0.1,0.3-0.1,0.9-0.1,1.3c0,0.6,0,1.2,0.1,1.7c0,0.2,0.1,0.6,0.2,0.8
			c0,0,0,0,0,0c0.2-0.1,0.7-0.3,2-1.1c1.4-0.9,3.1-2,5.6-3.5c2.4-1.4,5.1-2.6,8-3.6c3.1-1.1,6.6-1.6,10.6-1.6c3.6,0,6.9,0.6,9.8,1.9
			c2.9,1.2,5.3,2.9,7.2,5c1.9,2,3.4,4.4,4.4,7.3c1,2.8,1.5,5.7,1.5,8.7c0,3.3-0.3,6.4-0.8,9.3c-0.5,3.2-1.7,6.9-3.7,11
			c-1.8,3.9-4.5,8.3-8,13.2c-3.4,4.8-8,10.2-14,16.5l-23.1,24.4c-0.3,0.4-0.7,0.8-0.9,1.2c-0.2,0.4-0.4,0.6-0.5,1
			c-0.1,0.4-0.2,0.8-0.3,1.3c-0.1,0.4-0.1,1-0.1,1.7c0,1,0.1,1.5,0.2,1.7c0.1,0.3,0.2,0.5,0.4,0.8c0.1,0.1,0.3,0.2,0.4,0.3
			c0.3,0.1,0.5,0.2,0.8,0.2H197.6z"/>
		<path d="M293.8,306h-16.3v-76c-0.2-0.1-0.4-0.2-0.8-0.3c-0.5-0.1-1.3-0.3-2.2-0.4c-1.1-0.1-2.2-0.2-3.4-0.2c-1.1,0-2.2,0-3,0.1
			c-0.8,0.1-1.5,0.2-2.1,0.3c-0.5,0.1-0.9,0.3-1.1,0.5c-0.2,0.2-0.5,0.4-0.6,0.6l-43.7,72.3c-0.3,0.6-0.6,1.1-0.9,1.6
			c-0.2,0.3-0.3,0.6-0.4,0.9c0,0.2-0.1,0.5-0.1,0.8c0,0.3-0.1,0.5-0.1,0.8c-0.1,0.4-0.1,1-0.1,1.7c0,0.8,0.1,1.4,0.2,1.9
			c0,0.2,0.1,0.3,0.1,0.3c0.1,0.1,0.2,0.2,0.2,0.2c0.1,0,0.5,0.1,0.8,0.1H271v27.5c0.3,0.1,0.6,0.2,0.9,0.2c0.6,0.1,1.3,0.2,2.2,0.2
			c1,0,1.7-0.1,2.3-0.2c0.2,0,0.8-0.1,1-0.2c0,0,0.1,0,0.1,0v-27.5h16.3c0.1,0,0.4,0,0.7-0.4c0.3-0.6,0.5-1.4,0.5-2.2
			c0-1.3-0.3-2-0.4-2.3C294.4,306.1,294.1,306,293.8,306z M271,306h-46.3l43-71.5h3.3V306z"/>
		<path d="M365.2,216L365.2,216c0.1-0.1,0.1-0.3,0.1-0.5c0,0,0,0,0,0c-0.2-0.1-0.6-0.3-0.9-0.4c-0.5-0.1-1-0.2-1.7-0.2
			c-0.8,0-1.5,0-2,0.1c-0.3,0.1-0.7,0.2-0.9,0.3c-0.2,0.2-0.4,0.3-0.5,0.5c-0.1,0.2-0.3,0.6-0.5,1l0,0.1L305.4,361l0,0.1
			c-0.1,0.2-0.1,0.4-0.1,0.4l0,0c0.2,0.1,0.5,0.2,0.9,0.3c0.5,0.1,1.1,0.2,1.8,0.2c0.7,0,1.4,0,1.9-0.1c0.3-0.1,0.7-0.2,0.9-0.3
			c0.2-0.2,0.4-0.3,0.5-0.5c0.1-0.2,0.3-0.6,0.5-1l0-0.1L365.2,216z"/>
		<path d="M446.1,239c0.1-0.4,0.3-0.9,0.4-1.3c0.1-0.2,0.2-0.5,0.2-0.7c0.2-0.5,0.3-1,0.4-1.5l0.1-0.3c0.1-0.2,0.1-0.5,0.1-0.8
			c0-0.2,0.1-0.5,0.1-0.7c0.1-0.4,0.1-1.1,0.1-1.7c0-0.6,0-1.2-0.1-1.6c-0.1-0.3-0.2-0.6-0.3-0.8c-0.1-0.1-0.1-0.2-0.3-0.2
			c-0.3-0.1-0.6-0.2-1.2-0.2h-65.1c-0.3,0-0.4,0-0.5,0.1c-0.1,0-0.2,0.2-0.3,0.3c-0.2,0.3-0.3,0.5-0.3,0.6c-0.1,0.6-0.2,1-0.2,1.7
			c0,1.1,0.2,1.8,0.5,2.3l0.1,0.1c0.1,0.2,0.4,0.4,0.7,0.4h61l-45.6,103c-0.2,0.4-0.3,0.7-0.4,0.9c0.1,0,0.2,0.1,0.3,0.1
			c0.2,0.1,0.9,0.2,2.5,0.2c1,0,1.9,0,2.6-0.1c0.5-0.1,1.1-0.2,1.4-0.4c0.1-0.1,0.3-0.2,0.4-0.3l0.2-0.2c0.1-0.1,0.3-0.5,0.6-1.1
			L446.1,239z"/>
		<path d="M201.5,331.1c-0.4-0.7-1-1.2-1.8-1.6c-0.7-0.3-1.4-0.5-2.2-0.5h-47l17.5-18.3c6.4-6.7,11.6-12.7,15.5-17.9
			c3.8-5.1,6.8-9.9,8.9-14.3c2.1-4.3,3.4-8.5,4.1-12.2c0.6-3.7,0.9-7.4,0.9-11.1c0-4.2-0.7-8.2-2-11.8c-1.4-3.7-3.5-7-6.3-10
			c-2.7-2.8-6.2-5.1-10.5-6.9c-4.3-1.7-9.1-2.5-14.6-2.5c-3.2,0-6.5,0.4-9.8,1.2c-3,0.7-5.9,1.7-8.4,2.7c-2.5,1-4.6,2.1-6.4,3.2
			c-1.6,1-2.8,1.8-3.6,2.6c-0.9,0.8-1.4,1.4-1.7,1.8l-0.3,0.5c-0.2,0.3-0.3,0.6-0.5,1.1c-0.2,0.5-0.3,0.9-0.3,1.3c0,0.1,0,0.2,0,0.2
			c-0.2,0.6-0.2,1.4-0.2,2.2c0,0.8,0,1.6,0.1,2.4c0.1,0.6,0.3,1.3,0.6,1.9l0.1,0.2c0.2,0.4,0.6,0.9,1.3,1.4c0.6,0.4,1.4,0.6,2.1,0.6
			c1.3,0,2.7-0.7,4.3-1.8c1.3-0.9,3-1.9,5.4-3.3c2.1-1.2,4.7-2.3,7.3-3.2c2.7-0.9,5.8-1.4,9.2-1.4c3,0,5.8,0.5,8.2,1.5
			c2.4,1,4.3,2.3,5.8,4c1.6,1.7,2.7,3.6,3.6,5.9c0.9,2.4,1.3,4.8,1.3,7.3c0,3.1-0.2,5.9-0.8,8.6c-0.5,2.9-1.5,6.2-3.3,10
			c-1.7,3.7-4.3,7.9-7.6,12.6c-3.3,4.6-7.7,9.9-13.6,16.1l-23.2,24.5l-0.1,0.1c-0.4,0.5-0.9,1.1-1.3,1.7c-0.4,0.6-0.6,1.1-0.8,1.7
			l-0.1,0.3c-0.1,0.5-0.2,1-0.3,1.7c-0.1,0.8-0.1,1.5-0.1,2.3c0,1.1,0.1,2.1,0.4,2.9c0.2,0.7,0.6,1.4,1.1,2.1l0.2,0.2
			c0.5,0.5,1.2,1,1.9,1.2c0.7,0.3,1.5,0.4,2.2,0.4h61.1c0.8,0,1.6-0.2,2.3-0.5c0.8-0.4,1.3-1.1,1.7-1.6l0.1-0.2
			c0.4-0.7,0.7-1.5,0.9-2.3c0.1-0.7,0.2-1.5,0.2-2.3c0-0.9-0.1-1.7-0.4-2.5C202.2,332.4,201.9,331.7,201.5,331.1z M135.3,338.1
			c-0.2-0.3-0.3-0.5-0.4-0.8c-0.1-0.2-0.2-0.7-0.2-1.7c0-0.7,0-1.2,0.1-1.7c0.1-0.5,0.2-0.9,0.3-1.3c0.1-0.3,0.3-0.6,0.5-1
			c0.2-0.4,0.5-0.8,0.9-1.2l23.1-24.4c6-6.3,10.6-11.7,14-16.5c3.5-4.9,6.1-9.3,8-13.2c2-4.1,3.2-7.7,3.7-11
			c0.6-2.9,0.8-5.9,0.8-9.3c0-3-0.5-5.9-1.5-8.7c-1-2.8-2.5-5.2-4.4-7.3c-1.9-2.1-4.3-3.8-7.2-5c-2.9-1.2-6.2-1.9-9.8-1.9
			c-3.9,0-7.5,0.5-10.6,1.6c-2.8,1-5.6,2.2-8,3.6c-2.5,1.5-4.2,2.5-5.6,3.5c-1.3,0.9-1.8,1.1-2,1.1c0,0,0,0,0,0
			c-0.1-0.2-0.1-0.5-0.2-0.8c-0.1-0.4-0.1-1.1-0.1-1.7c0-0.4,0-1,0.1-1.3c0-0.2,0.1-0.4,0.1-0.5c0-0.1,0-0.2,0-0.3l0.2-0.4
			c0-0.1,0.1-0.2,0.2-0.4c0-0.1,0.1-0.1,0.1-0.2c0.1-0.2,0.4-0.5,0.9-0.9c0.5-0.4,1.4-1.1,3.2-2.2c1.6-1,3.5-1.9,5.8-2.8
			c2.3-1,5-1.8,7.8-2.5c3-0.7,6-1,8.8-1c5.1,0,9.4,0.7,13.1,2.3c3.7,1.5,6.8,3.5,9.1,5.9c2.4,2.5,4.3,5.4,5.5,8.6
			c1.2,3.2,1.8,6.6,1.8,10.4c0,3.5-0.3,7-0.9,10.5c-0.6,3.4-1.8,7.2-3.7,11.2c-2,4.2-4.8,8.8-8.5,13.7c-3.7,5-8.8,10.9-15.1,17.5
			L141.1,333h56.4c0.2,0,0.3,0,0.4,0.1c0.1,0,0.1,0.1,0.1,0.1l0.1,0.2c0.1,0.2,0.3,0.6,0.4,0.9c0.1,0.4,0.2,0.8,0.2,1.3
			c0,0.6-0.1,1.2-0.2,1.7c0,0.3-0.1,0.5-0.3,0.8c-0.1,0.1-0.2,0.3-0.2,0.3c-0.1,0-0.2,0.1-0.5,0.1h-61.1c-0.2,0-0.5-0.1-0.8-0.2
			C135.6,338.3,135.4,338.2,135.3,338.1z"/>
		<path d="M297.7,303.8c-1-1.2-2.4-1.8-3.9-1.8h-12.3v-72.4c0-1-0.5-2-1.4-2.7c-0.7-0.5-1.4-0.9-2.3-1.1c-1-0.3-2-0.5-3-0.6
			c-1.2-0.1-2.4-0.2-3.8-0.2c-1.2,0-2.4,0-3.4,0.1c-0.9,0.1-1.9,0.2-2.7,0.5c-0.9,0.3-1.7,0.7-2.4,1.1c-0.6,0.4-1.1,0.9-1.5,1.5
			l-43.9,72.7l-0.1,0.1c-0.3,0.5-0.5,1-0.8,1.5c-0.4,0.7-0.7,1.4-0.9,2.2c0,0.3-0.1,0.6-0.1,0.8c-0.1,0.3-0.1,0.6-0.2,0.9
			c-0.1,0.8-0.1,1.5-0.1,2.3c0,1,0.1,1.8,0.2,2.5c0.2,0.9,0.6,1.8,1.3,2.5c0.4,0.4,1.1,1,2,1.2c0.7,0.2,1.3,0.3,1.9,0.3H267v23.6
			c0,0.7,0.2,1.3,0.3,1.6c0.4,1.1,1.4,1.6,1.8,1.9l0.4,0.2c0.1,0,0.2,0.1,0.3,0.1c0.4,0.1,0.9,0.3,1.5,0.4c0.8,0.1,1.7,0.2,2.8,0.2
			c1.2,0,2.1-0.1,2.9-0.2c0.9-0.1,1.6-0.3,2.2-0.6c0.5-0.3,1.2-0.7,1.7-1.4c0.4-0.6,0.6-1.4,0.6-2.1v-23.6h12.3c1.6,0,3-0.7,4-2.1
			l0.1-0.2c0.7-1.3,1.1-2.7,1.1-4.3c0-1.8-0.4-3.4-1.1-4.6L297.7,303.8z M294.5,310.8c-0.3,0.4-0.6,0.4-0.7,0.4h-16.3v27.5
			c0,0-0.1,0-0.1,0c-0.2,0.1-0.8,0.2-1,0.2c-0.6,0.1-1.3,0.2-2.3,0.2c-0.9,0-1.6-0.1-2.2-0.2c-0.3,0-0.6-0.1-0.9-0.2v-27.5h-50.6
			c-0.4,0-0.8-0.1-0.8-0.1c0,0-0.1-0.1-0.2-0.2c0,0-0.1-0.1-0.1-0.3c-0.1-0.5-0.2-1.1-0.2-1.9c0-0.7,0-1.2,0.1-1.7
			c0-0.3,0.1-0.6,0.1-0.8c0.1-0.3,0.1-0.6,0.1-0.8c0.1-0.3,0.2-0.6,0.4-0.9c0.3-0.5,0.6-1,0.9-1.6l43.7-72.3
			c0.2-0.2,0.4-0.5,0.6-0.6c0.2-0.1,0.6-0.3,1.1-0.5c0.6-0.2,1.3-0.2,2.1-0.3c0.8-0.1,1.9-0.1,3-0.1c1.2,0,2.3,0.1,3.4,0.2
			c0.9,0.1,1.7,0.3,2.2,0.4c0.3,0.1,0.6,0.2,0.8,0.3v76h16.3c0.3,0,0.6,0.1,0.8,0.3c0.2,0.3,0.4,1,0.4,2.3
			C295,309.4,294.8,310.2,294.5,310.8z"/>
		<path d="M224.7,306H271v-71.5h-3.3L224.7,306z M267,302h-35.3l35.3-58.6V302z"/>
		<path d="M367.7,212.3L367.7,212.3c-0.7-0.5-1.4-0.8-2.2-1c-0.9-0.3-1.8-0.4-2.8-0.4c-1,0-1.9,0-2.6,0.1c-0.8,0.1-1.5,0.4-2.2,0.7
			l-0.3,0.2c-0.5,0.3-1,0.8-1.5,1.4c-0.5,0.6-0.8,1.4-1.1,2.3l-53.2,143.8c-0.4,0.9-0.6,1.8-0.5,2.7c0.1,1,0.6,1.9,1.5,2.6
			c0.7,0.5,1.5,0.8,2.3,1c0.9,0.2,1.8,0.4,2.9,0.4c0.9,0,1.8,0,2.5-0.1c0.8-0.1,1.6-0.4,2.2-0.7l0.3-0.2c0.5-0.3,1-0.8,1.5-1.4
			c0.5-0.6,0.8-1.4,1.1-2.3l53.3-143.8c0.4-0.9,0.5-1.9,0.3-2.9C369,213.7,368.5,212.9,367.7,212.3z M311.2,361.3
			c-0.1,0.1-0.3,0.3-0.5,0.5c-0.2,0.1-0.6,0.2-0.9,0.3c-0.4,0.1-1.2,0.1-1.9,0.1c-0.6,0-1.2-0.1-1.8-0.2c-0.4-0.1-0.7-0.2-0.9-0.3
			l0,0c0,0,0-0.2,0.1-0.4l0-0.1l53.3-144.1l0-0.1c0.1-0.5,0.3-0.9,0.5-1c0.1-0.1,0.3-0.3,0.5-0.5c0.2-0.1,0.6-0.2,0.9-0.3
			c0.4-0.1,1.2-0.1,2-0.1c0.7,0,1.2,0.1,1.7,0.2c0.3,0.1,0.6,0.2,0.9,0.4c0,0,0,0,0,0c0.1,0.3,0,0.4,0,0.4l0,0.1l-53.4,144.1l0,0.1
			C311.5,360.7,311.3,361.1,311.2,361.3z"/>
		<path d="M451.5,229.7l-0.1-0.3c-0.2-0.7-0.5-1.4-1-2.1c-0.5-0.7-1.2-1.2-2.1-1.6c-0.8-0.3-1.6-0.4-2.6-0.4h-65.1
			c-0.9,0-1.6,0.2-2.3,0.5c-0.8,0.4-1.4,1.1-1.7,1.5c-0.6,0.8-0.9,1.6-1.1,2.4c-0.1,0.6-0.2,1.4-0.2,2.3c0,1.9,0.4,3.3,1.1,4.4
			c0.9,1.5,2.4,2.4,4.1,2.4h54.8l-43.2,97.4c-0.3,0.7-0.6,1.4-0.7,2.1c-0.2,1,0,2.2,0.7,2.9c0.7,0.8,1.6,1.2,2.5,1.4
			c0.9,0.3,2.1,0.4,3.6,0.4c1.1,0,2.1,0,3.1-0.1c0.8-0.1,1.7-0.3,2.4-0.6c0.8-0.3,1.5-0.9,2.1-1.5c0.6-0.6,1-1.4,1.3-2.2l42.7-98
			l0.1-0.2c0.1-0.4,0.3-0.8,0.4-1.1c0.1-0.3,0.2-0.5,0.3-0.8c0.2-0.6,0.4-1.3,0.5-2c0.2-0.5,0.2-1,0.3-1.5c0-0.2,0-0.3,0.1-0.5
			c0.1-0.8,0.1-1.6,0.1-2.3C451.6,231.2,451.6,230.4,451.5,229.7z M402.7,338.2c-0.1,0.1-0.3,0.3-0.4,0.3c-0.3,0.1-0.9,0.3-1.4,0.4
			c-0.7,0.1-1.5,0.1-2.6,0.1c-1.6,0-2.4-0.2-2.5-0.2c-0.1,0-0.2-0.1-0.3-0.1c0.1-0.2,0.2-0.5,0.4-0.9l45.6-103h-61
			c-0.3,0-0.5-0.1-0.7-0.4l-0.1-0.1c-0.3-0.5-0.5-1.2-0.5-2.3c0-0.6,0.1-1.1,0.2-1.7c0-0.2,0.1-0.4,0.3-0.6c0.1-0.1,0.2-0.3,0.3-0.3
			c0.1,0,0.2-0.1,0.5-0.1h65.1c0.5,0,0.9,0.1,1.2,0.2c0.2,0.1,0.3,0.2,0.3,0.2c0.1,0.2,0.2,0.5,0.3,0.8c0.1,0.4,0.1,1,0.1,1.6
			c0,0.6,0,1.2-0.1,1.7c0,0.2-0.1,0.5-0.1,0.7c0,0.3-0.1,0.6-0.1,0.8l-0.1,0.3c-0.1,0.5-0.3,1-0.4,1.5c-0.1,0.2-0.2,0.4-0.2,0.7
			c-0.2,0.4-0.3,0.8-0.4,1.3l-42.7,97.9c-0.2,0.6-0.4,0.9-0.6,1.1L402.7,338.2z"/>
	</g>
	<g>
		<path d="M288.5,523.7c-65.3,0-126.7-25.4-172.8-71.6C69.5,406,44.1,344.6,44.1,279.3s25.4-126.7,71.6-172.8
			c46.2-46.2,107.5-71.6,172.8-71.6c62.6,0,122.2,23.7,167.7,66.6c0.7,0.7,1.5,1.4,2.3,2.3l22.1-22.4c1.6-1.6,4-2.2,6.1-1.5
			c2.2,0.7,3.7,2.6,4.1,4.8l12.8,88c0.3,1.7-0.3,3.5-1.4,4.8c-1.2,1.3-2.9,2.1-4.6,2.1l-86.5-0.9c-2.3,0-4.4-1.4-5.4-3.4
			c-1-2.1-0.7-4.5,0.7-6.3l25-31.2c-37.4-37.9-88.9-59.6-142.1-59.6c-109.8,0-199.2,89.4-199.2,199.3
			c0,109.9,89.4,199.3,199.3,199.3c65.9,0,127.5-32.6,164.7-87.1c1.7-2.4,4.9-3.3,7.5-2l30.3,14.5c1.6,0.7,2.7,2.1,3.2,3.8
			c0.5,1.7,0.2,3.4-0.7,4.9C449.3,481.5,372.3,523.7,288.5,523.7z M288.5,46.9c-128.1,0-232.4,104.3-232.4,232.4
			c0,128.1,104.3,232.4,232.4,232.4c77.4,0,148.7-37.9,192.2-101.7l-19.5-9.3c-39.7,55.3-103.5,88.1-171.7,88.1
			c-56.4,0-109.5-22-149.4-61.9s-61.9-93-61.9-149.4c0-56.5,22-109.5,61.8-149.4c39.9-39.9,92.9-61.9,149.4-61.9
			c29.8,0,58.6,6.1,85.6,18.1c26.1,11.6,49.3,28.1,68.9,49c2,2.2,2.2,5.5,0.3,7.9l-20.6,25.7l67.2,0.7l-10.1-69.1l-17.8,18.1
			c-1.1,1.1-2.7,1.8-4.3,1.8c0,0,0,0,0,0c-1.6,0-3.1-0.6-4.2-1.8c-1.8-1.8-4.5-4.5-6.4-6.3C404.7,69.4,348,46.9,288.5,46.9z"/>
	</g>
</g>
<g id="_x32_">
</g>
<g id="_x33_">
</g>
<g id="_x35_">
	<g id="Layer_21">
	</g>
</g>
<g id="_x37_">
</g>
<g id="_x38_">
</g>
<g id="_x39_">
</g>
<g id="_x31_0">
</g>
<g id="_x31_1">
</g>
<g id="_x31_2">
</g>
<g id="_x31_3">
</g>
<g id="_x31_4">
</g>
<g id="_x31_5">
</g>
<g id="_x31_6">
</g>
<g id="_x31_7">
	<g id="Layer_19">
	</g>
	<g id="Layer_20">
	</g>
</g>
</svg>
