<?xml version="1.0" encoding="utf-8"?>
<!-- Generator: Adobe Illustrator 21.1.0, SVG Export Plug-In . SVG Version: 6.00 Build 0)  -->
<svg version="1.1" id="Layer_1" xmlns="http://www.w3.org/2000/svg" xmlns:xlink="http://www.w3.org/1999/xlink" x="0px" y="0px"
	 viewBox="0 0 550 550" style="enable-background:new 0 0 550 550;" xml:space="preserve">
<style type="text/css">
	.st0{display:none;}
	.st1{display:inline;}
	.st2{fill:none;stroke:#000000;stroke-width:12;stroke-linecap:round;stroke-linejoin:round;}
	.st3{fill:none;}
</style>
<g id="_x31_">
	<g class="st0">
		<g class="st1">
			<path class="st2" d="M-65.9,91.3C-116.7,34.9-190.4-0.6-272.3-0.6c-153.4,0-277.8,124.4-277.8,277.8S-425.7,555-272.3,555
				c141.3,0,258-105.6,275.5-242.1"/>
			<g>
				<polygon points="-28.2,44.1 -18.8,163.4 -126.8,111.9 				"/>
			</g>
		</g>
	</g>
</g>
<g id="_x33_">
</g>
<g id="_x35_">
	<g id="Layer_21">
	</g>
</g>
<g id="_x37_">
</g>
<g id="_x38_">
</g>
<g id="_x39_">
</g>
<g id="_x31_0">
</g>
<g id="_x31_2">
</g>
<g id="_x31_3">
</g>
<g id="_x31_4">
</g>
<g id="_x31_5">
</g>
<g id="_x31_6">
</g>
<g id="Layer_19">
</g>
<g>
	<path class="st3" d="M306.3,86.1c-9,0.7-24.5,1.7-40.3,1.7c-13.8,0-24.8-0.8-31.8-1.5c-2.3,5.5-3.8,11.7-3.8,16.8
		c0,22.2,18,40.2,40.2,40.2c23,0,40.2-21.2,40.2-40.2c0-5.7-2-10.8-4.3-16.6C306.4,86.4,306.4,86.2,306.3,86.1z"/>
	<path class="st3" d="M340.4,233.5c-0.1-6.7-0.3-14.4-0.3-21.8c0-16.9-8.5-29.7-23.2-35.2c-14.5-5.4-40.4-5.6-43.5-5.6v0
		c0,0,0,0-0.1,0c0,0,0,0,0,0c0,0-0.1,0-0.1,0c0,0-0.1,0-0.1,0v0c-3.3,0-31.6,0.2-46,5.6c-14.8,5.5-23.2,18.4-23.2,35.2
		c0,7.4-0.2,15-0.3,21.8c-0.1,4.7-0.2,9.7-0.2,13.7h137.3C340.6,243.2,340.5,238.2,340.4,233.5z"/>
	<polygon class="st3" points="251.8,418.2 267.5,418.2 267.5,391.4 	"/>
	<path class="st3" d="M226.6,77.3l0.3,0.2c2.2,0.3,17,2.4,39,2.4c23.9,0,47.5-2.4,47.5-2.4v-10h-86.8V77.3z"/>
	<path class="st3" d="M221.2,59.4h5.4h86.8h2.7v0h4.1c2.6-2.4,5-5.2,5.7-6.6c-1.1-2.2-6.6-5.9-16.4-11c-1.5-0.8-2.8-1.5-3.9-2.1
		c-6.8-3.8-22.8-8.7-30.7-9.9l-0.1,0c-2.2-0.4-7.4-0.4-9.7,0l-0.1,0c-7.9,1.2-23.9,6.1-30.7,9.9c-1.1,0.6-2.5,1.3-3.9,2.1
		c-3.6,1.9-14.2,7.4-16.2,10.8C215.4,54.1,218.2,56.9,221.2,59.4z"/>
	<rect x="73.4" y="259.2" class="st3" width="403.6" height="22.2"/>
	<path class="st3" d="M135.4,517.4c0,6.1,5,11.1,11.1,11.1h264.2c6.1,0,11.1-5,11.1-11.1v-224H135.4V517.4z M279.1,306
		c56.8,0,103.1,46.3,103.1,103.1s-46.3,103.1-103.1,103.1c-56.8,0-103.1-46.3-103.1-103.1S222.3,306,279.1,306z"/>
	<path class="st3" d="M279.1,504.2c52.4,0,95.1-42.7,95.1-95.1S331.5,314,279.1,314c-52.4,0-95.1,42.7-95.1,95.1
		S226.7,504.2,279.1,504.2z M321,385.2c0.1-0.4,0.2-0.7,0.3-1c0.1-0.4,0.4-0.7,0.8-0.9c0.2-0.1,0.5-0.3,0.9-0.3h31
		c0.4,0,0.8,0,1.2,0.1c0.3,0.1,0.7,0.3,1,0.7c0.2,0.3,0.4,0.8,0.4,1.2c0.1,0.6,0.1,1.1,0.1,1.7c0,0.5,0,1-0.1,1.4
		c0,0.2-0.1,0.3-0.1,0.5c0,0.2-0.1,0.5-0.1,0.6c0,0.2-0.1,0.3-0.1,0.5c0,0.2-0.1,0.3-0.1,0.5c-0.1,0.2-0.1,0.4-0.2,0.6
		c-0.1,0.2-0.1,0.3-0.2,0.5l-19.1,44.1c-0.1,0.3-0.3,0.7-0.6,1c-0.3,0.3-0.6,0.5-1,0.6c-0.7,0.2-1.3,0.2-2.1,0.3
		c-0.3,0-0.7,0.1-1.1,0.1c-0.9,0-1.8,0-2.3-0.1c-0.6-0.1-1-0.2-1.4-0.5c-0.3-0.3-0.4-0.6-0.4-1.1c0-0.4,0.1-0.8,0.4-1.2l19.7-44.2
		H323c-0.5,0-1.1-0.2-1.6-1c-0.3-0.5-0.5-1.3-0.5-2.6C320.9,386.2,320.9,385.6,321,385.2z M284.8,445.9l24.8-67.9
		c0.1-0.3,0.2-0.5,0.3-0.7c0,0,0.1-0.1,0.1-0.1l0.1-0.1c0.2-0.2,0.5-0.5,0.9-0.6c0.3-0.1,0.7-0.2,1.2-0.2c0.2,0,0.3,0,0.5,0
		c0.3,0,0.6-0.1,1-0.1c0.7,0,1.3,0,1.8,0.1c0.5,0.1,1,0.2,1.3,0.5c0.2,0.2,0.5,0.5,0.6,0.9c0.2,0.5,0,0.9-0.1,1.2l-24.9,68
		c-0.1,0.3-0.2,0.6-0.3,0.7c0,0-0.1,0.1-0.1,0.1l-0.1,0.1c-0.2,0.2-0.5,0.5-0.9,0.6c-0.3,0.1-0.6,0.2-1.1,0.2
		c-0.4,0.1-1,0.1-1.6,0.1c-0.7,0-1.4,0-1.8-0.1c-0.5-0.1-0.9-0.2-1.2-0.5c-0.2-0.2-0.5-0.5-0.6-0.9
		C284.5,446.8,284.6,446.3,284.8,445.9z M244,420c0-0.4,0.1-0.8,0.2-1.3c0-0.1,0.1-0.3,0.1-0.5c0.1-0.2,0.1-0.4,0.2-0.5
		c0.1-0.2,0.2-0.5,0.3-0.7c0.1-0.1,0.1-0.2,0.2-0.4l18.9-32.2c0.1-0.3,0.4-0.5,0.8-0.8c0.4-0.2,0.7-0.4,1.2-0.5
		c0.4-0.1,0.9-0.2,1.6-0.2c0.3,0,0.5,0,0.8,0c0.4,0,0.8-0.1,1.4-0.1c0.9,0,1.7,0,2.5,0.1c0.7,0.1,1.2,0.2,1.7,0.3
		c0.3,0.1,0.6,0.2,0.8,0.3c0.1,0.1,0.2,0.1,0.3,0.1l0.1,0l0.1,0.1c0.3,0.3,0.4,0.6,0.4,1v33.4h5.5c0.7,0,1.1,0.3,1.5,0.9
		c0.3,0.8,0.5,1.6,0.5,2.5c0,1.1-0.1,1.8-0.5,2.4c-0.4,0.7-1,1-1.5,1h-5.5v10.7c0,0.3-0.1,0.6-0.3,0.8c-0.2,0.4-0.5,0.5-0.9,0.7
		c-0.3,0.1-0.7,0.2-1.3,0.2c-0.5,0.1-1,0.1-1.7,0.1s-1.2,0-1.8-0.1c-0.2,0-0.4-0.1-0.5-0.1c-0.2,0-0.4-0.1-0.6-0.1
		c-0.2-0.1-0.7-0.2-0.8-0.7c-0.1-0.2-0.1-0.5-0.1-0.8V425h-21.2c-0.4,0-0.7,0-1-0.2c-0.2-0.1-0.5-0.3-0.8-0.7
		c-0.2-0.2-0.4-0.7-0.5-1.1c-0.1-0.5-0.1-1-0.1-1.7V420z M205.7,437.2c-0.4-0.1-0.7-0.4-0.9-0.6c-0.2-0.2-0.5-0.6-0.6-1.1
		c-0.1-0.5-0.1-1-0.1-1.6c0-0.5,0-1,0.1-1.5c0-0.5,0.1-0.9,0.3-1.3c0.1-0.3,0.3-0.7,0.5-1c0.1-0.2,0.3-0.4,0.4-0.6
		c0.1-0.1,0.3-0.3,0.4-0.5l10.6-10.9c2.4-2.5,4.4-4.8,5.9-6.8c1.4-1.9,2.5-3.7,3.3-5.4c0.7-1.5,1.2-2.9,1.6-4.4
		c0.3-1.1,0.4-2.4,0.4-3.7c0-1.1-0.2-2.2-0.6-3.1c-0.3-1-0.9-1.8-1.6-2.7c-0.6-0.7-1.4-1.2-2.6-1.8c-1-0.4-2.2-0.7-3.7-0.7
		c-1.8,0-3.3,0.2-4.4,0.7c-1.4,0.5-2.6,1-3.6,1.5c-0.7,0.3-1.3,0.7-1.8,1c-0.3,0.2-0.5,0.3-0.8,0.5c-0.7,0.5-1.3,0.8-1.7,0.8
		c-0.3,0-0.6-0.1-0.8-0.3c-0.3-0.2-0.4-0.5-0.6-0.7c-0.1-0.3-0.2-0.8-0.3-1.2c-0.1-0.4-0.1-1-0.1-1.6v-1.1c0-0.2,0-0.4,0.1-0.6
		c0-0.1,0-0.2,0-0.2v-0.1l0.4-0.7c0.1-0.3,0.4-0.5,0.8-0.9c0.3-0.3,0.9-0.7,1.7-1.2c0.8-0.5,1.9-1,3.1-1.5c1.1-0.5,2.6-0.9,4.1-1.2
		c1.7-0.3,3.2-0.5,4.7-0.5c2.6,0,4.8,0.4,6.9,1.1c2,0.7,3.6,1.8,5,3.1c1.4,1.4,2.3,2.8,2.9,4.6c0.6,1.8,0.9,3.5,0.9,5.5
		c0,1.6-0.2,3.3-0.5,5.2c-0.3,1.8-1,3.7-1.9,5.6c-0.9,1.9-2.3,3.9-4.2,6.6c-1.8,2.4-4.3,5.1-7.3,8.3l-7.6,8h21.9
		c0.3,0,0.6,0.1,0.8,0.3c0.4,0.2,0.6,0.5,0.8,0.9c0.1,0.2,0.2,0.5,0.3,0.8c0.3,0.4,0.3,0.9,0.3,1.4c0,0.5,0,1-0.1,1.4
		c-0.1,0.4-0.2,0.7-0.3,1c-0.1,0.4-0.4,0.7-0.8,0.9c-0.2,0.1-0.5,0.3-0.9,0.3h-29.3C206.5,437.3,206.1,437.3,205.7,437.2z"/>
	<path d="M237.1,437c0.3-0.2,0.6-0.5,0.8-0.9c0.1-0.3,0.2-0.6,0.3-1c0.1-0.5,0.1-0.9,0.1-1.4c0-0.5,0-1.1-0.3-1.4
		c-0.1-0.3-0.2-0.7-0.3-0.8c-0.1-0.4-0.4-0.7-0.8-0.9c-0.2-0.1-0.5-0.3-0.8-0.3h-21.9l7.6-8c3.1-3.3,5.5-5.9,7.3-8.3
		c2-2.7,3.3-4.7,4.2-6.6c1-2,1.6-3.8,1.9-5.6c0.3-1.9,0.5-3.6,0.5-5.2c0-1.9-0.3-3.7-0.9-5.5c-0.6-1.8-1.5-3.2-2.9-4.6
		c-1.3-1.3-3-2.4-5-3.1c-2.1-0.8-4.3-1.1-6.9-1.1c-1.5,0-3,0.2-4.7,0.5c-1.5,0.3-2.9,0.8-4.1,1.2c-1.2,0.5-2.3,1-3.1,1.5
		c-0.8,0.5-1.4,0.9-1.7,1.2c-0.5,0.4-0.7,0.6-0.8,0.9l-0.4,0.7v0.1c0,0.1,0,0.1,0,0.2c0,0.2-0.1,0.4-0.1,0.6v1.1
		c0,0.6,0,1.1,0.1,1.6c0,0.4,0.1,0.9,0.3,1.2c0.1,0.2,0.3,0.5,0.6,0.7c0.2,0.2,0.5,0.3,0.8,0.3c0.5,0,1.1-0.3,1.7-0.8
		c0.2-0.1,0.5-0.3,0.8-0.5c0.5-0.3,1.2-0.7,1.8-1c1-0.5,2.2-1,3.6-1.5c1.1-0.4,2.6-0.7,4.4-0.7c1.5,0,2.7,0.2,3.7,0.7
		c1.2,0.6,2.1,1.1,2.6,1.8c0.8,0.9,1.3,1.7,1.6,2.7c0.4,0.9,0.6,2,0.6,3.1c0,1.3-0.1,2.6-0.4,3.7c-0.3,1.5-0.8,2.9-1.6,4.4
		c-0.8,1.7-1.9,3.5-3.3,5.4c-1.5,2-3.4,4.2-5.9,6.8l-10.6,10.9c-0.1,0.2-0.3,0.3-0.4,0.5c-0.2,0.2-0.3,0.4-0.4,0.6
		c-0.2,0.3-0.4,0.6-0.5,1c-0.2,0.3-0.3,0.8-0.3,1.3c-0.1,0.4-0.1,1-0.1,1.5c0,0.6,0,1.2,0.1,1.6c0.1,0.6,0.4,0.9,0.6,1.1
		c0.2,0.2,0.5,0.5,0.9,0.6c0.4,0.1,0.7,0.1,1.2,0.1h29.3C236.6,437.3,236.9,437.2,237.1,437z"/>
	<path d="M244.6,424.2c0.3,0.4,0.6,0.6,0.8,0.7c0.3,0.2,0.7,0.2,1,0.2h21.2v10.7c0,0.3,0,0.6,0.1,0.8c0.1,0.4,0.6,0.6,0.8,0.7
		c0.2,0.1,0.4,0.1,0.6,0.1c0.1,0,0.3,0,0.5,0.1c0.5,0.1,1.1,0.1,1.8,0.1s1.2,0,1.7-0.1c0.6,0,0.9-0.1,1.3-0.2
		c0.4-0.1,0.7-0.3,0.9-0.7c0.1-0.2,0.3-0.5,0.3-0.8V425h5.5c0.6,0,1.1-0.4,1.5-1c0.3-0.5,0.5-1.3,0.5-2.4c0-0.9-0.1-1.7-0.5-2.5
		c-0.4-0.7-0.9-0.9-1.5-0.9h-5.5v-33.4c0-0.3-0.2-0.7-0.4-1l-0.1-0.1l-0.1,0c-0.1,0-0.2-0.1-0.3-0.1c-0.2-0.1-0.4-0.2-0.8-0.3
		c-0.5-0.1-1-0.2-1.7-0.3c-0.7-0.1-1.5-0.1-2.5-0.1c-0.5,0-1,0-1.4,0.1c-0.3,0-0.6,0-0.8,0c-0.7,0-1.3,0.1-1.6,0.2
		c-0.4,0.1-0.8,0.2-1.2,0.5c-0.4,0.3-0.6,0.5-0.8,0.8l-18.9,32.2c-0.1,0.1-0.1,0.3-0.2,0.4c-0.1,0.2-0.3,0.5-0.3,0.7
		c-0.1,0.2-0.1,0.3-0.2,0.5c0,0.2-0.1,0.3-0.1,0.5c-0.1,0.4-0.2,0.9-0.2,1.3v1.4c0,0.7,0,1.3,0.1,1.7
		C244.2,423.5,244.3,423.9,244.6,424.2z M251.8,418.2l15.7-26.8v26.8H251.8z"/>
	<path d="M285.2,448.1c0.3,0.3,0.7,0.4,1.2,0.5c0.5,0.1,1.1,0.1,1.8,0.1c0.6,0,1.1,0,1.6-0.1c0.5,0,0.8-0.1,1.1-0.2
		c0.4-0.1,0.7-0.4,0.9-0.6l0.1-0.1c0,0,0.1-0.1,0.1-0.1c0.1-0.2,0.3-0.4,0.3-0.7l24.9-68c0.1-0.3,0.3-0.8,0.1-1.2
		c-0.1-0.4-0.4-0.7-0.6-0.9c-0.3-0.3-0.8-0.4-1.3-0.5c-0.5-0.1-1.1-0.1-1.8-0.1c-0.3,0-0.7,0-1,0.1c-0.2,0-0.4,0-0.5,0
		c-0.5,0-0.8,0.1-1.2,0.2c-0.4,0.1-0.7,0.4-0.9,0.6l-0.1,0.1c0,0-0.1,0.1-0.1,0.1c-0.1,0.2-0.3,0.4-0.3,0.7l-24.8,67.9
		c-0.3,0.4-0.4,0.9-0.2,1.3C284.8,447.6,285,447.8,285.2,448.1z"/>
	<path d="M323,390.3h24.7L328,434.5c-0.3,0.4-0.4,0.8-0.4,1.2c0,0.4,0.1,0.7,0.4,1.1c0.3,0.3,0.8,0.4,1.4,0.5
		c0.5,0.1,1.4,0.1,2.3,0.1c0.4,0,0.8,0,1.1-0.1c0.8-0.1,1.4,0,2.1-0.3c0.4-0.1,0.7-0.3,1-0.6c0.3-0.3,0.5-0.6,0.6-1l19.1-44.1
		c0-0.2,0.1-0.3,0.2-0.5c0.1-0.2,0.2-0.4,0.2-0.6c0-0.2,0.1-0.4,0.1-0.5c0.1-0.2,0.1-0.4,0.1-0.5c0.1-0.2,0.1-0.4,0.1-0.6
		c0-0.2,0-0.3,0.1-0.5c0.1-0.5,0.1-0.9,0.1-1.4c0-0.6,0-1.1-0.1-1.7c0-0.4-0.2-0.9-0.4-1.2c-0.3-0.4-0.6-0.6-1-0.7
		c-0.4-0.1-0.7-0.1-1.2-0.1h-31c-0.4,0-0.7,0.1-0.9,0.3c-0.3,0.2-0.6,0.5-0.8,0.9c-0.1,0.3-0.2,0.6-0.3,1c-0.1,0.5-0.1,1-0.1,1.5
		c0,1.2,0.1,2,0.5,2.6C321.9,390.1,322.5,390.3,323,390.3z"/>
	<path d="M279.1,512.2c56.8,0,103.1-46.3,103.1-103.1S335.9,306,279.1,306C222.3,306,176,352.3,176,409.1S222.3,512.2,279.1,512.2z
		 M279.1,314c52.4,0,95.1,42.7,95.1,95.1s-42.7,95.1-95.1,95.1c-52.4,0-95.1-42.7-95.1-95.1S226.7,314,279.1,314z"/>
	<path d="M486,250.5c-2.1-2.1-4.9-3.3-7.9-3.3H352.6c0-3.5-0.1-8-0.2-14c-0.1-6.7-0.3-14.2-0.3-21.5c0-21.8-11.6-39.2-31-46.4
		c-16.7-6.2-44.5-6.4-47.8-6.4c-2.8,0-33.6,0-50.5,6.4c-19.4,7.3-31,24.6-31,46.4c0,7.3-0.1,14.9-0.3,21.5c-0.1,5.9-0.2,10.5-0.2,14
		H72.4c-6.1,0-11,4.9-11,11v24.2c0,6.1,4.9,11,11,11h51v224c0,12.7,10.4,23.1,23.1,23.1h264.2c12.7,0,23.1-10.4,23.1-23.1v-224H478
		c6.1,0,11-4.9,11-11v-24.1C489.1,255.4,488,252.6,486,250.5z M203.5,233.5c0.1-6.7,0.3-14.4,0.3-21.8c0-16.8,8.5-29.6,23.2-35.2
		c14.4-5.4,42.8-5.6,46-5.6v0c0,0,0,0,0.1,0c0,0,0.1,0,0.1,0c0,0,0,0,0,0c0.1,0,0.1,0,0.1,0v0c3.1,0,29,0.2,43.5,5.6
		c14.7,5.5,23.2,18.3,23.2,35.2c0,7.4,0.2,15,0.3,21.8c0.1,4.7,0.2,9.7,0.2,13.7H203.3C203.3,243.2,203.4,238.2,203.5,233.5z
		 M421.8,517.4c0,6.1-5,11.1-11.1,11.1H146.5c-6.1,0-11.1-5-11.1-11.1v-224h286.4V517.4z M477,281.4H73.4v-22.2H477V281.4z"/>
	<path d="M216.3,70.8l0.7,0.5l1.6,0.6v5.5v6.8l4.3,0.7c-2,5.4-3.5,11.9-3.5,18.2c0,28.2,23,51.2,51.2,51.2
		c27.3,0,51.2-23.9,51.2-51.2c0-6.8-1.9-12.5-4.1-18l3.8-0.4v-7.2v-6.1h3.2l1.7-1.4c5.8-5,12.5-12.2,11.5-18.6
		c-1.4-8.4-11.6-14.4-22.8-20.3c-1.4-0.7-2.6-1.4-3.6-1.9c-8.1-4.6-25.6-9.9-34.7-11.3c-3.6-0.6-10-0.6-13.6,0
		c-9.1,1.4-26.5,6.7-34.7,11.3c-1,0.6-2.2,1.2-3.6,1.9c-9,4.7-21.4,11.2-22.8,20.3C201.3,56.7,206.1,63.2,216.3,70.8z M313.4,77.4
		c0,0-23.6,2.4-47.5,2.4c-22,0-36.8-2-39-2.4l-0.3-0.2v-9.9h86.8V77.4z M270.6,143.3c-22.2,0-40.2-18-40.2-40.2
		c0-5.1,1.4-11.3,3.8-16.8c7.1,0.7,18,1.5,31.8,1.5c15.8,0,31.3-1,40.3-1.7c0.1,0.1,0.1,0.3,0.2,0.4c2.3,5.8,4.3,10.8,4.3,16.6
		C310.8,122.1,293.6,143.3,270.6,143.3z M230.5,41.7c1.5-0.8,2.8-1.5,3.9-2.1c6.8-3.8,22.8-8.7,30.7-9.9l0.1,0
		c2.2-0.4,7.4-0.4,9.7,0l0.1,0c7.9,1.2,23.9,6.1,30.7,9.9c1.1,0.6,2.4,1.3,3.9,2.1c9.7,5.1,15.2,8.8,16.4,11
		c-0.7,1.5-3.1,4.2-5.7,6.6h-4.1v0h-2.7h-86.8h-5.4c-3.1-2.5-5.9-5.3-6.9-6.9C216.3,49.2,226.9,43.6,230.5,41.7z"/>
</g>
</svg>
