<?xml version="1.0" encoding="utf-8"?>
<!-- Generator: Adobe Illustrator 22.0.1, SVG Export Plug-In . SVG Version: 6.00 Build 0)  -->
<svg version="1.1" id="Layer_1" xmlns="http://www.w3.org/2000/svg" xmlns:xlink="http://www.w3.org/1999/xlink" x="0px" y="0px"
	 viewBox="0 0 50 50" style="enable-background:new 0 0 50 50;" xml:space="preserve">
<g>
	<path d="M9.9,14.6h30.4c0.6,0,1-0.4,1-1s-0.4-1-1-1H9.9c-0.6,0-1,0.4-1,1S9.3,14.6,9.9,14.6z"/>
	<path d="M40.5,20.1H9.9c-0.6,0-1,0.4-1,1s0.4,1,1,1h30.6c0.6,0,1-0.4,1-1S41.1,20.1,40.5,20.1z"/>
	<path d="M40.5,27.6H9.9c-0.6,0-1,0.4-1,1s0.4,1,1,1h30.6c0.6,0,1-0.4,1-1S41.1,27.6,40.5,27.6z"/>
	<path d="M42.8,5.1H7.2c-2.2,0-4,1.7-4,3.9v23c0,2.1,1.8,3.9,4,3.9h3.3l-1.3,7.9c-0.1,0.4,0.1,0.8,0.5,1C9.9,45,10,45,10.2,45
		c0.3,0,0.5-0.1,0.7-0.3l9.2-8.8h22.7c2.2,0,4-1.7,4-3.9V9C46.8,6.9,45,5.1,42.8,5.1z M44.8,32c0,1.1-0.9,1.9-2,1.9H19.7v0
		c-0.2,0-0.5,0.1-0.7,0.3l-7.3,7l1-6.1c0.1-0.5-0.3-1.1-0.8-1.1c-0.1,0-0.1,0-0.2,0v0H7.2c-1.1,0-2-0.9-2-1.9V9c0-1.1,0.9-1.9,2-1.9
		h35.6c1.1,0,2,0.9,2,1.9V32z"/>
</g>
</svg>
