<svg id="Layer_1" data-name="Layer 1" xmlns="http://www.w3.org/2000/svg" viewBox="0 0 50 50.1">
  <defs><style>.cls-1{fill:#000;}</style></defs>
  <title>PIDoccupancy</title>
  <!-- <path d="M0-.1V50H50V-.1ZM33.6,4.4a1,1,0,1,1,2,0V9.8a1,1,0,1,1-2,0Zm-6.4,0a1,1,0,0,1,2,0V9.8a1,1,0,1,1-2,0Zm-.6,10.7H41.1a1,1,0,0,1,0,2H26.6a1,1,0,0,1,0-2ZM16.2,29.9a1,1,0,0,1,0-2h9.4a1,1,0,1,1,0,2Zm2.2,5.4a1,1,0,0,1-1,1H8.6a1,1,0,0,1,0-2h8.8A1,1,0,0,1,18.4,35.3ZM8.6,23.5a1,1,0,0,1,0-2H32.8a1,1,0,0,1,0,2ZM20.8,4.4a1,1,0,0,1,2,0V9.8a1,1,0,1,1-2,0Zm-6.4,0a1,1,0,0,1,2,0V9.8a1,1,0,1,1-2,0Zm3.2,38.5H7.4a3.93,3.93,0,0,1-4.2-3.7V11A3.93,3.93,0,0,1,7.4,7.3H9.5a1,1,0,0,1,0,2H7.4A2,2,0,0,0,5.2,11V39.2a2,2,0,0,0,2.2,1.7H17.6a1,1,0,0,1,0,2Zm28.1.7H43.83a2.92,2.92,0,0,1-5.47,0h-7.8a2.91,2.91,0,0,1-5.53,0H23s-1.4-12,9.2-12.1c7,0,7.7,5.7,7.7,5.7s3,.4,4.4,1.8C46,40.7,45.7,43.6,45.7,43.6Zm1.1-11.2a1,1,0,1,1-2,0V10.9a2,2,0,0,0-2.2-1.7H40.5a1,1,0,0,1,0-2h2.1a3.93,3.93,0,0,1,4.2,3.7Z" transform="translate(0 0.1)"/> -->
  <path class="cls-1" d="M8.6,34.3a1,1,0,0,0,0,2h8.8a1,1,0,0,0,0-2Z" transform="translate(0 0.1)"/>
  <path class="cls-1" d="M33.8,22.5a1,1,0,0,0-1-1H8.6a1,1,0,0,0,0,2H32.8A1,1,0,0,0,33.8,22.5Z" transform="translate(0 0.1)"/>
  <path class="cls-1" d="M26.6,28.9a1,1,0,0,0-1-1H16.2a1,1,0,0,0,0,2h9.4A1,1,0,0,0,26.6,28.9Z" transform="translate(0 0.1)"/>
  <path class="cls-1" d="M26.6,17.1H41.1a1,1,0,0,0,0-2H26.6a1,1,0,0,0,0,2Z" transform="translate(0 0.1)"/>
  <path class="cls-1" d="M39.9,37.2s-.7-5.7-7.7-5.7C21.6,31.6,23,43.6,23,43.6h2a2.91,2.91,0,0,0,5.53,0h7.8a2.92,2.92,0,0,0,5.47,0H45.7s.3-2.9-1.4-4.6C42.9,37.6,39.9,37.2,39.9,37.2Z" transform="translate(0 0.1)"/>
  <path class="cls-1" d="M15.4,10.8a1,1,0,0,0,1-1V4.4a1,1,0,0,0-2,0V9.8A1,1,0,0,0,15.4,10.8Z" transform="translate(0 0.1)"/>
  <path class="cls-1" d="M28.2,10.8a1,1,0,0,0,1-1V4.4a1,1,0,0,0-2,0V9.8A1,1,0,0,0,28.2,10.8Z" transform="translate(0 0.1)"/>
  <path class="cls-1" d="M21.8,10.8a1,1,0,0,0,1-1V4.4a1,1,0,0,0-2,0V9.8A1,1,0,0,0,21.8,10.8Z" transform="translate(0 0.1)"/>
  <path class="cls-1" d="M34.6,10.8a1,1,0,0,0,1-1V4.4a1,1,0,1,0-2,0V9.8A1,1,0,0,0,34.6,10.8Z" transform="translate(0 0.1)"/>
  <path class="cls-1" d="M17.6,40.9H7.4a2,2,0,0,1-2.2-1.7V11A2,2,0,0,1,7.4,9.3H9.5a1,1,0,0,0,0-2H7.4A3.93,3.93,0,0,0,3.2,11V39.2a3.93,3.93,0,0,0,4.2,3.7H17.6a1,1,0,0,0,0-2Z" transform="translate(0 0.1)"/>
  <path class="cls-1" d="M42.6,7.2H40.5a1,1,0,0,0,0,2h2.1a2,2,0,0,1,2.2,1.7V32.4a1,1,0,1,0,2,0V10.9A3.93,3.93,0,0,0,42.6,7.2Z" transform="translate(0 0.1)"/>
</svg>
