<?xml version="1.0" encoding="utf-8"?>
<!-- Generator: Adobe Illustrator 22.0.1, SVG Export Plug-In . SVG Version: 6.00 Build 0)  -->
<svg version="1.1" id="Layer_1" xmlns="http://www.w3.org/2000/svg" xmlns:xlink="http://www.w3.org/1999/xlink" x="0px" y="0px"
	 viewBox="0 0 502 502" style="enable-background:new 0 0 502 502;" xml:space="preserve">
<style type="text/css">
	.st0{fill:#000;}
</style>
<g>
	<path class="st0" d="M472.3,126.3v132.8V392H251H29.8V259.1V126.3H251H472.3 M472.3,96.3H251H29.8c-8.3,0-15.8,3.3-21.2,8.8
		c-5.4,5.4-8.8,12.9-8.8,21.2v132.8V392c0,8.3,3.3,15.8,8.8,21.2c5.4,5.4,12.9,8.8,21.2,8.8H251h221.3c8.3,0,15.8-3.4,21.2-8.8
		c5.4-5.4,8.8-12.9,8.8-21.2V259.1V126.3c0-8.3-3.4-15.8-8.8-21.2C488.1,99.7,480.6,96.3,472.3,96.3L472.3,96.3L472.3,96.3z"/>
</g>
<g>
	<polygon class="st0" points="13.3,164.5 252.2,164.5 491.2,164.5 491.2,200.9 491.2,237.4 252.2,237.4 13.3,237.4 13.3,200.9 	"/>
</g>
<path class="st0" d="M218.4,338.4h-16.3h-16.3c-3.3,0-6.3,1.4-8.5,3.5c-2.2,2.2-3.5,5.2-3.5,8.5v2.4v2.4c0,3.3,1.4,6.3,3.5,8.5
	c2.2,2.2,5.2,3.5,8.5,3.5h16.3h16.3c3.3,0,6.3-1.4,8.5-3.5c2.2-2.2,3.5-5.2,3.5-8.5v-2.4v-2.4c0-3.3-1.4-6.3-3.5-8.5
	C224.7,339.8,221.7,338.4,218.4,338.4z"/>
<path class="st0" d="M291,338.4h-16.3h-16.3c-3.3,0-6.3,1.4-8.5,3.5c-2.2,2.2-3.5,5.2-3.5,8.5v2.4v2.4c0,3.3,1.4,6.3,3.5,8.5
	c2.2,2.2,5.2,3.5,8.5,3.5h16.3H291c3.3,0,6.3-1.4,8.5-3.5c2.2-2.2,3.5-5.2,3.5-8.5v-2.4v-2.4c0-3.3-1.4-6.3-3.6-8.5
	S294.3,338.4,291,338.4z"/>
<path class="st0" d="M365,338.4h-16.3h-16.3c-3.3,0-6.3,1.4-8.5,3.5c-2.2,2.2-3.5,5.2-3.5,8.5v2.4v2.4c0,3.3,1.4,6.3,3.5,8.5
	c2.2,2.2,5.2,3.5,8.5,3.5h16.3H365c3.3,0,6.3-1.4,8.5-3.5c2.2-2.2,3.5-5.2,3.5-8.5v-2.4v-2.4c0-3.3-1.4-6.3-3.5-8.5
	C371.3,339.8,368.3,338.4,365,338.4z"/>
<path class="st0" d="M435.1,338.4h-16.3h-16.3c-3.3,0-6.3,1.4-8.5,3.5s-3.5,5.2-3.5,8.5v2.4v2.4c0,3.3,1.4,6.3,3.5,8.5
	s5.2,3.5,8.5,3.5h16.3h16.3c3.3,0,6.3-1.4,8.5-3.5s3.5-5.2,3.5-8.5v-2.4v-2.4c0-3.3-1.3-6.3-3.5-8.5
	C441.5,339.8,438.5,338.4,435.1,338.4z"/>
</svg>
