<?xml version="1.0" encoding="utf-8"?>
<!-- Generator: Adobe Illustrator 22.0.1, SVG Export Plug-In . SVG Version: 6.00 Build 0)  -->
<svg version="1.1" id="Layer_1" xmlns="http://www.w3.org/2000/svg" xmlns:xlink="http://www.w3.org/1999/xlink" x="0px" y="0px"
	 viewBox="0 0 500 500" style="enable-background:new 0 0 500 500;" xml:space="preserve">
<style type="text/css">
	.st0{fill:#000;}
</style>
<g>
	<path class="st0" d="M409.1,86.4L17.6,121.1c-3.3,0.2-5.7,3.2-5.3,6.4l4,45.4c0.2,3.3,3.2,5.7,6.4,5.3l391.4-34.8
		c3.3-0.2,5.7-3.2,5.3-6.4l-4-45.4C415.2,88.4,412.3,86,409.1,86.4z"/>
</g>
<g>
	<path class="st0" d="M233.9,254.8H124.6c-5.6,0-10.1,4.5-10.1,10.1l0,0c0,5.6,4.5,10.1,10.1,10.1h109.3c5.6,0,10.1-4.5,10.1-10.1
		l0,0C244,259.3,239.5,254.8,233.9,254.8z"/>
</g>
<g>
	<path class="st0" d="M233.9,298H124.6c-5.6,0-10.1,4.5-10.1,10.1l0,0c0,5.6,4.5,10.1,10.1,10.1h109.3c5.6,0,10.1-4.5,10.1-10.1l0,0
		C244,302.5,239.5,298,233.9,298z"/>
</g>
<g>
	<path class="st0" d="M148.4,376.4h-23.8c-5.6,0-10.1,4.5-10.1,10.1l0,0c0,5.6,4.5,10.1,10.1,10.1h23.8c5.6,0,10.1-4.5,10.1-10.1
		l0,0C158.5,380.9,153.9,376.4,148.4,376.4z"/>
</g>
<g>
	<path class="st0" d="M204.8,376.4H181c-5.6,0-10.1,4.5-10.1,10.1l0,0c0,5.6,4.5,10.1,10.1,10.1h23.8c5.6,0,10.1-4.5,10.1-10.1l0,0
		C214.9,380.9,210.4,376.4,204.8,376.4z"/>
</g>
<g>
	<path class="st0" d="M262.4,376.4h-23.8c-5.6,0-10.1,4.5-10.1,10.1l0,0c0,5.6,4.5,10.1,10.1,10.1h23.8c5.6,0,10.1-4.5,10.1-10.1
		l0,0C272.5,380.9,268,376.4,262.4,376.4z"/>
</g>
<g>
	<path class="st0" d="M318.8,376.4h-23.8c-5.6,0-10.1,4.5-10.1,10.1l0,0c0,5.6,4.5,10.1,10.1,10.1h23.8c5.6,0,10.1-4.5,10.1-10.1
		l0,0C328.9,380.9,324.4,376.4,318.8,376.4z"/>
</g>
<g>
	<path class="st0" d="M412.7,333.2c-27.2,0-49.3-22.1-49.3-49.3s22.1-49.3,49.3-49.3c27.2,0,49.3,22.1,49.3,49.3
		S439.9,333.2,412.7,333.2z M412.7,246.5c-20.7,0-37.4,16.7-37.4,37.4s16.7,37.4,37.4,37.4s37.4-16.7,37.4-37.4
		S433.3,246.5,412.7,246.5z"/>
</g>
<g>
	<path class="st0" d="M357.4,333.2c-27.2,0-49.3-22.1-49.3-49.3s22.1-49.3,49.3-49.3c12.5,0,24.4,4.6,33.5,13.1l-8.1,8.7
		c-6.9-6.4-16-10-25.4-10c-20.7,0-37.4,16.7-37.4,37.4s16.7,37.4,37.4,37.4c9.6,0,18.9-3.7,25.9-10.5l8.2,8.6
		C382.3,328.4,370.1,333.2,357.4,333.2z"/>
</g>
<g>
	<path class="st0" d="M476.6,454.2h-382c-10.1,0-18.4-8.3-18.4-18.4V202.7c0-10.1,8.3-18.4,18.4-18.4h382c10.1,0,18.4,8.3,18.4,18.4
		v233.1C495,445.9,486.7,454.2,476.6,454.2z M94.6,202.1c-0.4,0-0.6,0.2-0.6,0.6v233.1c0,0.4,0.2,0.6,0.6,0.6h382
		c0.4,0,0.6-0.2,0.6-0.6V202.7c0-0.4-0.2-0.6-0.6-0.6H94.6z"/>
</g>
<g>
	<path class="st0" d="M42.9,337.5c-4.3,0-8.4-1.5-11.8-4.3c-3.8-3.2-6.1-7.6-6.5-12.5L3.9,88.5C3.4,83.7,5,78.8,8.2,75.1
		c3.2-3.8,7.6-6.1,12.5-6.5l380.5-33.9c10.1-1,19.1,6.5,20,16.7l11,138.7l-17.8,1.4L403.4,52.9c0-0.2-0.4-0.5-0.6-0.5L22.3,86.3
		c-0.2,0-0.4,0.1-0.5,0.2c-0.1,0.2-0.1,0.4-0.1,0.4l20.7,232.2c0,0.2,0.1,0.4,0.2,0.5c0.2,0.1,0.4,0.1,0.4,0.1l32.7-2.9l1.5,17.7
		l-32.7,2.9C44.1,337.5,43.5,337.5,42.9,337.5z"/>
</g>
</svg>
