<?xml version="1.0" encoding="utf-8"?>
<!-- Generator: Adobe Illustrator 22.0.1, SVG Export Plug-In . SVG Version: 6.00 Build 0)  -->
<svg version="1.1" id="Layer_1" xmlns="http://www.w3.org/2000/svg" xmlns:xlink="http://www.w3.org/1999/xlink" x="0px" y="0px"
	 viewBox="0 0 500 392" style="enable-background:new 0 0 500 392;" xml:space="preserve">
<style type="text/css">
	.st0{fill:#000;}
</style>
<g>
	<path class="st0" d="M384,64.2L54.4,93.4c-2.8,0.2-4.8,2.7-4.5,5.4l3.4,38.2c0.2,2.8,2.7,4.8,5.4,4.5l329.5-29.3
		c2.8-0.2,4.8-2.7,4.5-5.4l-3.4-38.2C389.1,65.9,386.7,63.9,384,64.2z"/>
</g>
<g>
	<path class="st0" d="M236.5,206h-92c-4.7,0-8.5,3.8-8.5,8.5l0,0c0,4.7,3.8,8.5,8.5,8.5h92c4.7,0,8.5-3.8,8.5-8.5l0,0
		C245,209.8,241.2,206,236.5,206z"/>
</g>
<g>
	<path class="st0" d="M236.5,242.3h-92c-4.7,0-8.5,3.8-8.5,8.5l0,0c0,4.7,3.8,8.5,8.5,8.5h92c4.7,0,8.5-3.8,8.5-8.5l0,0
		C245,246.1,241.2,242.3,236.5,242.3z"/>
</g>
<g>
	<path class="st0" d="M164.5,308.3h-20c-4.7,0-8.5,3.8-8.5,8.5l0,0c0,4.7,3.8,8.5,8.5,8.5h20c4.7,0,8.5-3.8,8.5-8.5l0,0
		C173,312.1,169.2,308.3,164.5,308.3z"/>
</g>
<g>
	<path class="st0" d="M212,308.3h-20c-4.7,0-8.5,3.8-8.5,8.5l0,0c0,4.7,3.8,8.5,8.5,8.5h20c4.7,0,8.5-3.8,8.5-8.5l0,0
		C220.5,312.1,216.7,308.3,212,308.3z"/>
</g>
<g>
	<path class="st0" d="M260.5,308.3h-20c-4.7,0-8.5,3.8-8.5,8.5l0,0c0,4.7,3.8,8.5,8.5,8.5h20c4.7,0,8.5-3.8,8.5-8.5l0,0
		C269,312.1,265.2,308.3,260.5,308.3z"/>
</g>
<g>
	<path class="st0" d="M308,308.3h-20c-4.7,0-8.5,3.8-8.5,8.5l0,0c0,4.7,3.8,8.5,8.5,8.5h20c4.7,0,8.5-3.8,8.5-8.5l0,0
		C316.5,312.1,312.7,308.3,308,308.3z"/>
</g>
<g>
	<path class="st0" d="M387,272c-22.9,0-41.5-18.6-41.5-41.5S364.1,189,387,189s41.5,18.6,41.5,41.5S409.9,272,387,272z M387,199
		c-17.4,0-31.5,14.1-31.5,31.5S369.6,262,387,262s31.5-14.1,31.5-31.5S404.4,199,387,199z"/>
</g>
<g>
	<path class="st0" d="M340.5,272c-22.9,0-41.5-18.6-41.5-41.5s18.6-41.5,41.5-41.5c10.5,0,20.5,3.9,28.2,11l-6.8,7.3
		c-5.8-5.4-13.5-8.4-21.4-8.4c-17.4,0-31.5,14.1-31.5,31.5s14.1,31.5,31.5,31.5c8.1,0,15.9-3.1,21.8-8.8l6.9,7.2
		C361.4,267.9,351.2,272,340.5,272z"/>
</g>
<g>
	<path class="st0" d="M440.8,373.8H119.2c-8.5,0-15.5-7-15.5-15.5V162.1c0-8.5,7-15.5,15.5-15.5h321.6c8.5,0,15.5,7,15.5,15.5v196.2
		C456.3,366.8,449.3,373.8,440.8,373.8z M119.2,161.6c-0.3,0-0.5,0.2-0.5,0.5v196.2c0,0.3,0.2,0.5,0.5,0.5h321.6
		c0.3,0,0.5-0.2,0.5-0.5V162.1c0-0.3-0.2-0.5-0.5-0.5H119.2z"/>
</g>
<g>
	<path class="st0" d="M75.7,275.6c-3.6,0-7.1-1.3-9.9-3.6c-3.2-2.7-5.1-6.4-5.5-10.5L42.9,66c-0.4-4.1,0.9-8.2,3.6-11.3
		c2.7-3.2,6.4-5.1,10.5-5.5l320.3-28.5c8.5-0.8,16.1,5.5,16.8,14.1l9.3,116.8l-15,1.2L379.2,36c0-0.2-0.3-0.4-0.5-0.4L58.4,64.1
		c-0.2,0-0.3,0.1-0.4,0.2c-0.1,0.2-0.1,0.3-0.1,0.3l17.4,195.5c0,0.2,0.1,0.3,0.2,0.4c0.2,0.1,0.3,0.1,0.3,0.1l27.5-2.4l1.3,14.9
		l-27.5,2.4C76.7,275.6,76.2,275.6,75.7,275.6z"/>
</g>
</svg>
