<?xml version="1.0" encoding="utf-8"?>
<!-- Generator: Adobe Illustrator 22.0.1, SVG Export Plug-In . SVG Version: 6.00 Build 0)  -->
<svg version="1.1" id="Layer_1" xmlns="http://www.w3.org/2000/svg" xmlns:xlink="http://www.w3.org/1999/xlink" x="0px" y="0px"
	 viewBox="0 0 50 50" style="enable-background:new 0 0 50 50;" xml:space="preserve">
<g>
	<g>
		<path d="M42.3,26.3h4.3c0.7,0,1.3-0.6,1.3-1.3V12c0-0.7-0.6-1.3-1.3-1.3H35v-3C35,4.6,32.5,2,29.3,2s-5.7,2.6-5.7,5.7v3H12
			c-0.7,0-1.3,0.6-1.3,1.3v11.6h-3c-3.1,0-5.7,2.6-5.7,5.7S4.6,35,7.7,35h3v11.6c0,0.7,0.6,1.3,1.3,1.3h13c0.7,0,1.3-0.6,1.3-1.3
			v-4.3c0-1.6,1.3-3,3-3c1.6,0,3,1.3,3,3v4.3c0,0.7,0.6,1.3,1.3,1.3h13c0.7,0,1.3-0.6,1.3-1.3v-13c0-0.7-0.6-1.3-1.3-1.3h-4.3
			c-1.6,0-3-1.3-3-3C39.3,27.7,40.7,26.3,42.3,26.3z M42.3,35h3v10.3H35v-3c0-3.1-2.6-5.7-5.7-5.7s-5.7,2.6-5.7,5.7v3H13.4V33.7
			c0-0.7-0.6-1.3-1.3-1.3H7.7c-1.6,0-3-1.3-3-3s1.3-3,3-3H12c0.7,0,1.3-0.6,1.3-1.3V13.4H25c0.7,0,1.3-0.6,1.3-1.3V7.7
			c0-1.6,1.3-3,3-3c1.6,0,3,1.3,3,3V12c0,0.7,0.6,1.3,1.3,1.3h11.6v10.3h-3c-3.1,0-5.7,2.6-5.7,5.7S39.2,35,42.3,35z"/>
	</g>
</g>
</svg>
