<svg id="Layer_1" data-name="Layer 1" xmlns="http://www.w3.org/2000/svg" viewBox="0 0 50 50"><defs><style>.cls-1{fill:#000;}</style></defs><title>PIDprofile</title><path class="cls-1" d="M25,28.9A10.8,10.8,0,1,1,35.7,18.1,10.76,10.76,0,0,1,25,28.9ZM25,9.3a8.8,8.8,0,1,0,8.7,8.8A8.76,8.76,0,0,0,25,9.3Z"/><path class="cls-1" d="M4.1,42.7H4a1,1,0,0,1-.9-1.09A14.42,14.42,0,0,1,5,35.65c.89-1.4,3.09-2.46,6.92-3.33a10.52,10.52,0,0,0,4.82-2.14,1,1,0,0,1,1.41,1.42,12.11,12.11,0,0,1-5.8,2.67c-4.19,1-5.35,1.95-5.66,2.45l-.14.18A14,14,0,0,0,5.1,41.8,1,1,0,0,1,4.1,42.7Z"/><path class="cls-1" d="M45.8,42.7a1,1,0,0,1-1-.9,15.79,15.79,0,0,0-1.28-5l-.08-.11c-.32-.51-1.48-1.5-5.67-2.46A12.09,12.09,0,0,1,32,31.61a1,1,0,1,1,1.41-1.41,10.52,10.52,0,0,0,4.8,2.13c3.86.88,6.06,1.94,6.94,3.35h0a16.08,16.08,0,0,1,1.65,5.93,1,1,0,0,1-.9,1.09Z"/></svg>
