<svg id="Layer_1" data-name="Layer 1" xmlns="http://www.w3.org/2000/svg" viewBox="0 0 50 50">
  <defs><style>.cls-1{fill:#000;}</style></defs>
  <title>PIDreservations</title>
  <!-- <path d="M0,0V50H50V0ZM39.7,13.9v4.3a.68.68,0,0,1-.7.7H34.7a.68.68,0,0,1-.7-.7V13.9a.68.68,0,0,1,.7-.7H39A.68.68,0,0,1,39.7,13.9Zm0,9.5v4.3a.68.68,0,0,1-.7.7H34.7a.68.68,0,0,1-.7-.7V23.4a.68.68,0,0,1,.7-.7H39A.68.68,0,0,1,39.7,23.4ZM33.6,4.3a1,1,0,0,1,2,0V9.8a1,1,0,1,1-2,0Zm-6.4,0a1,1,0,1,1,2,0V9.8a1,1,0,1,1-2,0Zm-.1,8.9a.68.68,0,0,1,.7.7v4.3a.75.75,0,0,1-.7.7H22.8a.68.68,0,0,1-.7-.7V13.9a.68.68,0,0,1,.7-.7ZM14.4,4.3a1,1,0,1,1,2,0V9.8a1,1,0,1,1-2,0Zm.9,8.9a.68.68,0,0,1,.7.7v4.3a.77.77,0,0,1-.8.7H11a.68.68,0,0,1-.7-.7V13.9a.68.68,0,0,1,.7-.7Zm-.1,15.2H11a.68.68,0,0,1-.7-.7V23.4a.68.68,0,0,1,.7-.7h4.3a.68.68,0,0,1,.7.7v4.3A.77.77,0,0,1,15.2,28.4ZM16,33v4.3a.86.86,0,0,1-.8.7H11a.68.68,0,0,1-.7-.7V33a.68.68,0,0,1,.7-.7h4.3A.68.68,0,0,1,16,33Zm1.6,9.8H7.4a3.93,3.93,0,0,1-4.2-3.7V10.9A3.93,3.93,0,0,1,7.4,7.2H9.5a1,1,0,0,1,0,2H7.4a2,2,0,0,0-2.2,1.7V39.1a2,2,0,0,0,2.2,1.7H17.6a1,1,0,1,1,0,2Zm3.2-33V4.3a1,1,0,1,1,2,0V9.8a1,1,0,1,1-2,0Zm1.3,17.9V23.4a.68.68,0,0,1,.7-.7h4.3a.68.68,0,0,1,.7.7v4.3a.75.75,0,0,1-.7.7H22.8A.68.68,0,0,1,22.1,27.7ZM45.7,43.6H43.83a2.92,2.92,0,0,1-5.47,0h-7.8a2.91,2.91,0,0,1-5.53,0H23s-1.4-12,9.2-12.1c7,0,7.7,5.7,7.7,5.7s3,.4,4.4,1.8C46,40.7,45.7,43.6,45.7,43.6Zm1.1-11.2a1,1,0,1,1-2,0V10.9a2,2,0,0,0-2.2-1.7H40.5a1,1,0,0,1,0-2h2.1a3.93,3.93,0,0,1,4.2,3.7Z"/> -->
  <path class="cls-1" d="M15.4,10.8a1,1,0,0,0,1-1V4.3a1,1,0,1,0-2,0V9.8A1,1,0,0,0,15.4,10.8Z"/>
  <path class="cls-1" d="M28.2,10.8a1,1,0,0,0,1-1V4.3a1,1,0,1,0-2,0V9.8A1,1,0,0,0,28.2,10.8Z"/>
  <path class="cls-1" d="M22.8,9.8V4.3a1,1,0,1,0-2,0V9.8a1,1,0,1,0,2,0Z"/>
  <path class="cls-1" d="M34.6,10.8a1,1,0,0,0,1-1V4.3a1,1,0,0,0-2,0V9.8A1,1,0,0,0,34.6,10.8Z"/>
  <path class="cls-1" d="M17.6,40.8H7.4a2,2,0,0,1-2.2-1.7V10.9A2,2,0,0,1,7.4,9.2H9.5a1,1,0,0,0,0-2H7.4a3.93,3.93,0,0,0-4.2,3.7V39.1a3.93,3.93,0,0,0,4.2,3.7H17.6a1,1,0,1,0,0-2Z"/>
  <path class="cls-1" d="M42.6,7.2H40.5a1,1,0,0,0,0,2h2.1a2,2,0,0,1,2.2,1.7V32.4a1,1,0,1,0,2,0V10.9A3.93,3.93,0,0,0,42.6,7.2Z"/>
  <path class="cls-1" d="M39.9,37.2s-.7-5.7-7.7-5.7C21.6,31.6,23,43.6,23,43.6h2a2.91,2.91,0,0,0,5.53,0h7.8a2.92,2.92,0,0,0,5.47,0H45.7s.3-2.9-1.4-4.6C42.9,37.6,39.9,37.2,39.9,37.2Z"/>
  <path class="cls-1" d="M10.3,13.9v4.3a.68.68,0,0,0,.7.7h4.2a.77.77,0,0,0,.8-.7V13.9a.68.68,0,0,0-.7-.7H11A.68.68,0,0,0,10.3,13.9Z"/>
  <path class="cls-1" d="M27.8,27.7V23.4a.68.68,0,0,0-.7-.7H22.8a.68.68,0,0,0-.7.7v4.3a.68.68,0,0,0,.7.7h4.3A.75.75,0,0,0,27.8,27.7Z"/>
  <path class="cls-1" d="M16,23.4a.68.68,0,0,0-.7-.7H11a.68.68,0,0,0-.7.7v4.3a.68.68,0,0,0,.7.7h4.2a.77.77,0,0,0,.8-.7Z"/>
  <rect class="cls-1" x="34" y="13.2" width="5.7" height="5.7" rx="0.7" ry="0.7"/>
  <path class="cls-1" d="M22.1,13.9v4.3a.68.68,0,0,0,.7.7h4.3a.75.75,0,0,0,.7-.7V13.9a.68.68,0,0,0-.7-.7H22.8A.68.68,0,0,0,22.1,13.9Z"/>
  <rect class="cls-1" x="34" y="22.7" width="5.7" height="5.7" rx="0.7" ry="0.7"/>
  <path class="cls-1" d="M11,32.3a.68.68,0,0,0-.7.7v4.3a.68.68,0,0,0,.7.7h4.2a.86.86,0,0,0,.8-.7V33a.68.68,0,0,0-.7-.7Z"/>
</svg>
