<svg id="Layer_1" data-name="Layer 1" xmlns="http://www.w3.org/2000/svg" viewBox="0 0 50 50.1"><defs><style>.cls-1{fill:#000;}</style></defs><title>PIDsettings</title>
  <!-- <path d="M20.5,23.9l.4-1c-1.9-3.9-1.7-4.1-1.3-4.5l2.2-2.2a.73.73,0,0,1,.6-.2,1.41,1.41,0,0,1,.37.05A13.07,13.07,0,0,0,23.9,14.9l-.6-1.5H20.6c-.2,0-.3-.1-.5-.2l-1-1a.76.76,0,0,1-.2-.5V9l-1.5-.6-1.9,1.9a.76.76,0,0,1-.5.2H13.6a.52.52,0,0,1-.4-.2c-.7-.7-1.6-1.6-2-1.9l-1.6.8c0,.5,0,1.7.1,2.7a.76.76,0,0,1-.2.5l-1,1a.76.76,0,0,1-.5.2H5.2l-.6,1.5c.4.4,1.2,1.2,2,1.9a.76.76,0,0,1,.2.5v1.4c0,.2-.1.3-.2.5-.7.7-1.6,1.5-1.9,1.9l.6,1.5H8c.2,0,.3.1.5.2l1,1a.76.76,0,0,1,.2.5,17.73,17.73,0,0,0,.1,2.4l1.5.6,1.9-1.9a.76.76,0,0,1,.5-.2h1.4a.52.52,0,0,1,.4.2l.8.79V26.3C16.3,25.7,16.3,25.5,20.5,23.9Zm-7.7-2.1a4,4,0,1,1,5.3-2.1A4.17,4.17,0,0,1,12.8,21.8Z" transform="translate(0 0.1)"/> -->
  <!-- <path d="M15.4,15.5a2.83,2.83,0,0,0-3.7,1.4,2.76,2.76,0,0,0,1.5,3.6,2.83,2.83,0,0,0,3.7-1.4A2.79,2.79,0,0,0,15.4,15.5Z" transform="translate(0 0.1)"/> -->
  <!-- <path d="M0-.1V50H50V-.1ZM46.6,29.4c0,.6,0,.8-4.2,2.4l-.4,1c1.9,3.9,1.7,4.1,1.3,4.5l-2.2,2.2a.73.73,0,0,1-.6.2c-.2,0-.6,0-4-1.5l-1.1.4c-1.4,4.2-1.6,4.2-2.2,4.2H30c-.6,0-.8,0-2.4-4.1l-1.1-.4c-3.4,1.5-3.8,1.5-4,1.5a.71.71,0,0,1-.6-.3l-2.2-2.2c-.4-.4-.6-.6,1.2-4.6l-.4-1c-4.2-1.5-4.2-1.7-4.2-2.3v-1c-.34-.33-.84-.83-1.6-1.64h-.9c-2.2,2.4-2.3,2.3-2.8,2.1l-2-1c-.4-.2-.5-.2-.5-3.5l-.6-.6c-2.8.1-3,0-3.2-.1a.78.78,0,0,1-.4-.4l-.9-2.2c-.2-.4-.2-.5,2.2-2.8v-.8c-2.4-2.2-2.4-2.4-2.2-2.8l.9-2.1c.2-.4.2-.5,3.6-.4l.6-.6c-.2-3.3,0-3.3.4-3.5L11,7.3a.45.45,0,0,1,.5,0c.1,0,.4.2,2.4,2.2h.9c2.2-2.4,2.4-2.3,2.8-2.1l2.2.9c.4.2.5.2.5,3.5l.6.6c2.8-.1,3,0,3.2.1a.78.78,0,0,1,.4.4l.9,2.2c0,.17,0,.28-1.15,1.44.54.2,1.23.48,2.15.86l1.1-.4c1.5-4.1,1.7-4.1,2.3-4.1H33c.6,0,.8,0,2.4,4.1l1.1.4c3.4-1.5,3.8-1.5,3.9-1.5a1.07,1.07,0,0,1,.6.2l2.2,2.2c.4.4.6.6-1.2,4.6l.4,1.1c4.2,1.5,4.2,1.7,4.2,2.3Z" transform="translate(0 0.1)"/> -->
  <!-- <path d="M31.5,24.2a3.71,3.71,0,0,0-3.8,3.7,3.78,3.78,0,0,0,3.8,3.7,3.71,3.71,0,0,0,3.8-3.7A3.78,3.78,0,0,0,31.5,24.2Z" transform="translate(0 0.1)"/> -->
  <!-- <path d="M41,25l-.7-1.7a.85.85,0,0,1,0-.7c.5-1.2,1.1-2.7,1.4-3.3l-1.6-1.5c-.7.2-2.1.9-3.4,1.4a.85.85,0,0,1-.7,0l-1.8-.7a1.2,1.2,0,0,1-.5-.5c-.5-1.2-1.1-2.7-1.4-3.3H30.1A24.8,24.8,0,0,1,29,18a1.2,1.2,0,0,1-.5.5l-1.8.7a.85.85,0,0,1-.7,0c-1.3-.5-2.8-1.1-3.4-1.4L21,19.3c.3.7.9,2.1,1.5,3.3a.85.85,0,0,1,0,.7L21.8,25a1.2,1.2,0,0,1-.5.5c-1.3.5-2.8,1.1-3.4,1.4V29a36,36,0,0,0,3.4,1.3,1.2,1.2,0,0,1,.5.5l.7,1.7a.85.85,0,0,1,0,.7c-.5,1.2-1.1,2.7-1.4,3.3L22.7,38c.7-.2,2.1-.9,3.4-1.4a.85.85,0,0,1,.7,0l1.8.7a1.2,1.2,0,0,1,.5.5,32.54,32.54,0,0,0,1.3,3.3h2.2a32.54,32.54,0,0,0,1.3-3.3,1.2,1.2,0,0,1,.5-.5l1.8-.7a.64.64,0,0,1,.6,0c1.3.5,2.8,1.1,3.4,1.4l1.6-1.5a27.42,27.42,0,0,0-1.5-3.3.85.85,0,0,1,0-.7l.7-1.7a1.2,1.2,0,0,1,.5-.5c1.3-.5,2.8-1.1,3.4-1.4V26.8a36,36,0,0,0-3.4-1.3A.82.82,0,0,1,41,25Zm-9.5,8.2A5.46,5.46,0,0,1,26,27.8a5.4,5.4,0,0,1,5.5-5.4,5.4,5.4,0,1,1,0,10.8Z" transform="translate(0 0.1)"/> -->
  <path class="cls-1" d="M18.1,19.7a4.08,4.08,0,1,0-5.3,2.1A4.17,4.17,0,0,0,18.1,19.7Zm-1.2-.6a2.83,2.83,0,0,1-3.7,1.4,2.76,2.76,0,0,1-1.5-3.6,2.83,2.83,0,0,1,3.7-1.4A2.79,2.79,0,0,1,16.9,19.1Z" transform="translate(0 0.1)"/>
  <path class="cls-1" d="M31.5,22.4A5.4,5.4,0,0,0,26,27.8a5.5,5.5,0,1,0,5.5-5.4Zm0,9.2a3.78,3.78,0,0,1-3.8-3.7,3.71,3.71,0,0,1,3.8-3.7,3.78,3.78,0,0,1,3.8,3.7A3.71,3.71,0,0,1,31.5,31.6Z" transform="translate(0 0.1)"/>
  <path class="cls-1" d="M42.4,24,42,22.9c1.8-4,1.6-4.2,1.2-4.6L41,16.1a1.07,1.07,0,0,0-.6-.2c-.1,0-.5,0-3.9,1.5L35.4,17c-1.6-4.1-1.8-4.1-2.4-4.1H29.8c-.6,0-.8,0-2.3,4.1l-1.1.4c-.92-.38-1.62-.65-2.15-.86,1.14-1.16,1.15-1.28,1.15-1.44l-.9-2.2a.78.78,0,0,0-.4-.4c-.2-.1-.4-.2-3.2-.1l-.6-.6c0-3.3-.1-3.3-.5-3.5l-2.2-.9c-.4-.2-.6-.3-2.8,2.1h-.9c-2-2-2.3-2.2-2.4-2.2a.45.45,0,0,0-.5,0l-2.1.8c-.4.2-.6.2-.4,3.5l-.6.6c-3.4-.1-3.4,0-3.6.4l-.9,2.1c-.2.4-.2.6,2.2,2.8v.8c-2.4,2.3-2.4,2.4-2.2,2.8l.9,2.2a.78.78,0,0,0,.4.4c.2.1.4.2,3.2.1l.6.6c0,3.3.1,3.3.5,3.5l2,1c.5.2.6.3,2.8-2.1h.9c.76.81,1.26,1.31,1.6,1.64v1c0,.6,0,.8,4.2,2.3l.4,1c-1.8,4-1.6,4.2-1.2,4.6l2.2,2.2a.71.71,0,0,0,.6.3c.2,0,.6,0,4-1.5l1.1.4c1.6,4.1,1.8,4.1,2.4,4.1h3.2c.6,0,.8,0,2.2-4.2l1.1-.4c3.4,1.5,3.8,1.5,4,1.5a.73.73,0,0,0,.6-.2l2.2-2.2c.4-.4.6-.6-1.3-4.5l.4-1c4.2-1.6,4.2-1.8,4.2-2.4V26.3C46.6,25.7,46.6,25.5,42.4,24ZM15.5,25.6a.52.52,0,0,0-.4-.2H13.7a.76.76,0,0,0-.5.2l-1.9,1.9-1.5-.6a17.73,17.73,0,0,1-.1-2.4.76.76,0,0,0-.2-.5l-1-1c-.2-.1-.3-.2-.5-.2H5.3l-.6-1.5c.3-.4,1.2-1.2,1.9-1.9.1-.2.2-.3.2-.5V17.5a.76.76,0,0,0-.2-.5c-.8-.7-1.6-1.5-2-1.9l.6-1.5H8a.76.76,0,0,0,.5-.2l1-1a.76.76,0,0,0,.2-.5c-.1-1-.1-2.2-.1-2.7l1.6-.8c.4.3,1.3,1.2,2,1.9a.52.52,0,0,0,.4.2H15a.76.76,0,0,0,.5-.2l1.9-1.9,1.5.6v2.7a.76.76,0,0,0,.2.5l1,1c.2.1.3.2.5.2h2.7l.6,1.5a13.07,13.07,0,0,1-1.13,1.15A1.41,1.41,0,0,0,22.4,16a.73.73,0,0,0-.6.2l-2.2,2.2c-.4.4-.6.6,1.3,4.5l-.4,1c-4.2,1.6-4.2,1.8-4.2,2.4v.09Zm29.4,3.3c-.6.3-2.1.9-3.4,1.4a1.2,1.2,0,0,0-.5.5l-.7,1.7a.85.85,0,0,0,0,.7,27.42,27.42,0,0,1,1.5,3.3L40.2,38c-.6-.3-2.1-.9-3.4-1.4a.64.64,0,0,0-.6,0l-1.8.7a1.2,1.2,0,0,0-.5.5,32.54,32.54,0,0,1-1.3,3.3H30.4a32.54,32.54,0,0,1-1.3-3.3,1.2,1.2,0,0,0-.5-.5l-1.8-.7a.85.85,0,0,0-.7,0c-1.3.5-2.7,1.2-3.4,1.4l-1.6-1.5c.3-.6.9-2.1,1.4-3.3a.85.85,0,0,0,0-.7l-.7-1.7a1.2,1.2,0,0,0-.5-.5A36,36,0,0,1,17.9,29V26.9c.6-.3,2.1-.9,3.4-1.4a1.2,1.2,0,0,0,.5-.5l.7-1.7a.85.85,0,0,0,0-.7c-.6-1.2-1.2-2.6-1.5-3.3l1.6-1.5c.6.3,2.1.9,3.4,1.4a.85.85,0,0,0,.7,0l1.8-.7A1.2,1.2,0,0,0,29,18a24.8,24.8,0,0,0,1.1-3.3h2.2c.3.6.9,2.1,1.4,3.3a1.2,1.2,0,0,0,.5.5l1.8.7a.85.85,0,0,0,.7,0c1.3-.5,2.7-1.2,3.4-1.4l1.6,1.5c-.3.6-.9,2.1-1.4,3.3a.85.85,0,0,0,0,.7L41,25a.82.82,0,0,0,.5.5,36,36,0,0,1,3.4,1.3Z" transform="translate(0 0.1)"/>
</svg>
