<?xml version="1.0" encoding="utf-8"?>
<!-- Generator: Adobe Illustrator 21.1.0, SVG Export Plug-In . SVG Version: 6.00 Build 0)  -->
<svg version="1.1" id="Layer_1" xmlns="http://www.w3.org/2000/svg" xmlns:xlink="http://www.w3.org/1999/xlink" x="0px" y="0px"
	 viewBox="0 0 550 550" style="enable-background:new 0 0 550 550;" xml:space="preserve">
<style type="text/css">
	.st0{display:none;}
	.st1{display:inline;}
	.st2{fill:none;stroke:#000000;stroke-width:12;stroke-linecap:round;stroke-linejoin:round;}
	.st3{fill:none;}
</style>
<g id="_x31_">
	<g class="st0">
		<g class="st1">
			<path class="st2" d="M-65.9-458.7c-50.8-56.4-124.5-91.8-206.4-91.8c-153.4,0-277.8,124.4-277.8,277.8S-425.7,5-272.3,5
				C-131,5-14.3-100.6,3.2-237.1"/>
			<g>
				<polygon points="-28.2,-505.9 -18.8,-386.6 -126.8,-438.1 				"/>
			</g>
		</g>
	</g>
</g>
<g id="_x32_">
</g>
<g id="_x33_">
</g>
<g id="_x35_">
	<g id="Layer_21">
	</g>
</g>
<g id="_x37_">
</g>
<g id="_x39_">
</g>
<g id="_x31_0">
</g>
<g>
	<path class="st3" d="M367,308.5c-20.3,0-36.8,16.5-36.8,36.8s16.5,36.8,36.8,36.8s36.8-16.5,36.8-36.8S387.3,308.5,367,308.5z
		 M367,367.8c-12.4,0-22.5-10.1-22.5-22.5s10.1-22.5,22.5-22.5s22.5,10.1,22.5,22.5S379.4,367.8,367,367.8z"/>
	<path class="st3" d="M398,266.9c0.7,1,1.5,1.5,2.6,1.7c14.2,2.3,35.7,0.6,47.1-0.6c-17.7-14.8-30.2-16.8-42.4-17.4
		c-2.2-0.1-5.6-0.2-9.4-0.2C395.3,256.2,395.5,263.5,398,266.9z"/>
	<path class="st3" d="M199,242.5l153.2-0.1c-6.6-4.2-14.4-9.4-22.8-15.1c-31.9-21.5-75.6-50.9-100.9-53.8
		c-7.6-0.8-18.3-1.2-29.5-1.2V242.5z"/>
	<path class="st3" d="M367,330.8c-8,0-14.5,6.5-14.5,14.5s6.5,14.5,14.5,14.5s14.5-6.5,14.5-14.5S375,330.8,367,330.8z"/>
	<path class="st3" d="M122.1,308.5c-20.3,0-36.8,16.5-36.8,36.8s16.5,36.8,36.8,36.8s36.8-16.5,36.8-36.8S142.4,308.5,122.1,308.5z
		 M122.1,367.8c-12.4,0-22.5-10.1-22.5-22.5s10.1-22.5,22.5-22.5s22.5,10.1,22.5,22.5S134.5,367.8,122.1,367.8z"/>
	<path class="st3" d="M122.1,330.8c-8,0-14.5,6.5-14.5,14.5s6.5,14.5,14.5,14.5s14.5-6.5,14.5-14.5S130.1,330.8,122.1,330.8z"/>
	<path class="st3" d="M459.9,418.9c0,2.2-1.8,4-4,4H55.1c-2.2,0-4-1.8-4-4v-15.7l-30.9,25.3l30.9,26.4v-14.4c0-2.2,1.8-4,4-4h400.8
		c2.2,0,4,1.8,4,4v14.4l30.9-26.4l-30.9-25.3V418.9z"/>
	<path class="st3" d="M514.3,366.5V191.8c0-2.2,1.8-4,4-4h15.5l-26.5-30.9L482,187.8h16.7c2.2,0,4,1.8,4,4v174.7c0,2.2-1.8,4-4,4
		h-16.8l25.3,31l26.5-31h-15.5C516.1,370.5,514.3,368.7,514.3,366.5z"/>
	<path class="st3" d="M191,242.5v-70.1c-22.2,0.2-43.8,1.2-44.1,1.2c-0.1,0-0.2,0-0.3,0c-46.6,0-91.6,49.7-107.4,69L191,242.5z"/>
	<path class="st3" d="M43.4,349.2c4.7,1.4,18.4,1.6,30.1,1.4c-0.2-1.7-0.3-3.5-0.3-5.3c0-26.9,21.9-48.8,48.8-48.8
		c26.9,0,48.8,21.9,48.8,48.8c0,1.6-0.1,3.1-0.2,4.6h147.7c-0.1-1.5-0.2-3-0.2-4.6c0-26.9,21.9-48.8,48.8-48.8s48.8,21.9,48.8,48.8
		c0,1.3-0.1,2.6-0.2,3.9h27.2c15.6,0,25.7-16.9,27.1-23.6c3.4-16.3-2.9-37.6-14.5-50.4c-4.2,0.6-21,2.6-37.3,2.6
		c-6.6,0-13.2-0.3-18.8-1.3c-3.2-0.5-5.9-2.3-7.9-5c-4-5.7-4.1-15.1-3.6-21.2c-9.8,0-19.5,0.1-19.7,0.1l0-0.1L33,250.6
		c-2,2.8-18.1,25.8-14.3,57.6C21.3,331.2,29.7,345,43.4,349.2z"/>
	<path d="M367,322.8c-12.4,0-22.5,10.1-22.5,22.5s10.1,22.5,22.5,22.5s22.5-10.1,22.5-22.5S379.4,322.8,367,322.8z M367,359.8
		c-8,0-14.5-6.5-14.5-14.5s6.5-14.5,14.5-14.5s14.5,6.5,14.5,14.5S375,359.8,367,359.8z"/>
	<path d="M122.1,322.8c-12.4,0-22.5,10.1-22.5,22.5s10.1,22.5,22.5,22.5s22.5-10.1,22.5-22.5S134.5,322.8,122.1,322.8z M122.1,359.8
		c-8,0-14.5-6.5-14.5-14.5s6.5-14.5,14.5-14.5s14.5,6.5,14.5,14.5S130.1,359.8,122.1,359.8z"/>
	<path d="M40,360.6c5.3,1.6,15.9,2,25.6,2c4,0,7.8-0.1,10.9-0.2c7,18.4,24.8,31.6,45.7,31.6c21.1,0,39.1-13.4,45.9-32.2h153.1
		c6.8,18.8,24.8,32.2,45.9,32.2c21.3,0,39.5-13.8,46.1-32.9h29.7c22.4,0,36.6-22,38.9-33.2c4.5-21.5-4.4-49.2-20.8-64.3
		c-23.4-21.6-40-24.2-55-25.1c-8.6-0.5-31.6-0.2-36.9-0.1c-7.6-4.1-19.4-12-32.9-21.1c-34.8-23.4-78.1-52.6-106.3-55.7
		c-25-2.8-79.5-0.2-83.4,0C83.3,161.7,26.8,238.7,23.7,243c-1.7,2.2-21.4,28.5-17,66.6C10,337.8,21.2,355,40,360.6z M122.1,382.1
		c-20.3,0-36.8-16.5-36.8-36.8s16.5-36.8,36.8-36.8s36.8,16.5,36.8,36.8S142.4,382.1,122.1,382.1z M367,382.1
		c-20.3,0-36.8-16.5-36.8-36.8s16.5-36.8,36.8-36.8s36.8,16.5,36.8,36.8S387.3,382.1,367,382.1z M447.6,268
		c-11.3,1.2-32.9,2.9-47.1,0.6c-1.1-0.2-1.9-0.7-2.6-1.7c-2.4-3.4-2.6-10.8-2.1-16.6c3.8,0,7.2,0.1,9.4,0.2
		C417.4,251.3,429.9,253.2,447.6,268z M329.4,227.3c8.4,5.7,16.2,10.9,22.8,15.1L199,242.5v-70.1c11.2,0,21.9,0.4,29.5,1.2
		C253.8,176.4,297.5,205.8,329.4,227.3z M146.6,173.6c0.1,0,0.2,0,0.3,0c0.3,0,21.9-1.1,44.1-1.2v70.1l-151.8,0.1
		C55,223.3,100,173.6,146.6,173.6z M33,250.6l335.2-0.2l0,0.1c0.2,0,9.9-0.1,19.7-0.1c-0.5,6.1-0.5,15.4,3.6,21.2
		c1.9,2.8,4.6,4.5,7.9,5c5.6,0.9,12.2,1.3,18.8,1.3c16.3,0,33.1-2.1,37.3-2.6c11.7,12.8,18,34.1,14.5,50.4
		c-1.4,6.7-11.5,23.6-27.1,23.6h-27.2c0.1-1.3,0.2-2.6,0.2-3.9c0-26.9-21.9-48.8-48.8-48.8s-48.8,21.9-48.8,48.8
		c0,1.6,0.1,3.1,0.2,4.6H170.7c0.1-1.5,0.2-3,0.2-4.6c0-26.9-21.9-48.8-48.8-48.8c-26.9,0-48.8,21.9-48.8,48.8
		c0,1.8,0.1,3.5,0.3,5.3c-11.7,0.2-25.4,0-30.1-1.4c-13.8-4.2-22.1-17.9-24.8-41C14.9,276.4,31,253.4,33,250.6z"/>
	<path d="M458.4,391.6c-1.2-1-2.8-1.2-4.2-0.5c-1.4,0.7-2.3,2.1-2.3,3.6v20.2H59.1v-20.2c0-1.5-0.9-3-2.3-3.6
		c-1.4-0.7-3.1-0.5-4.2,0.5l-41.1,33.7c-0.9,0.8-1.5,1.9-1.5,3c0,1.2,0.5,2.3,1.4,3.1l41.1,35.2c1.2,1,2.9,1.3,4.3,0.6
		c1.4-0.7,2.3-2.1,2.3-3.6v-19.1h392.8v19.1c0,1.6,0.9,3,2.3,3.6c0.5,0.2,1.1,0.4,1.7,0.4c0.9,0,1.9-0.3,2.6-1l41.1-35.2
		c0.9-0.8,1.4-1.9,1.4-3.1c0-1.2-0.5-2.3-1.5-3L458.4,391.6z M459.9,454.9v-14.4c0-2.2-1.8-4-4-4H55.1c-2.2,0-4,1.8-4,4v14.4
		l-30.9-26.4l30.9-25.3v15.7c0,2.2,1.8,4,4,4h400.8c2.2,0,4-1.8,4-4v-15.7l30.9,25.3L459.9,454.9z"/>
	<path d="M546.1,364.8c-0.7-1.4-2.1-2.3-3.6-2.3h-20.2V195.8h20.2c1.6,0,3-0.9,3.6-2.3c0.7-1.4,0.4-3.1-0.6-4.3l-35.3-41.1
		c-0.8-0.9-1.9-1.4-3.1-1.4c-1.2,0-2.3,0.5-3,1.5l-33.7,41.1c-1,1.2-1.2,2.8-0.5,4.2c0.7,1.4,2.1,2.3,3.6,2.3h21.2v166.7h-21.2
		c-1.5,0-3,0.9-3.6,2.3c-0.7,1.4-0.5,3,0.5,4.2l33.7,41.2c0.7,0.9,1.9,1.5,3,1.5c0,0,0,0,0,0c1.2,0,2.3-0.5,3-1.4l35.3-41.2
		C546.6,367.9,546.8,366.2,546.1,364.8z M507.3,401.5l-25.3-31h16.8c2.2,0,4-1.8,4-4V191.8c0-2.2-1.8-4-4-4H482l25.3-30.9l26.5,30.9
		h-15.5c-2.2,0-4,1.8-4,4v174.7c0,2.2,1.8,4,4,4h15.5L507.3,401.5z"/>
</g>
<g id="_x31_2">
</g>
<g id="_x31_3">
</g>
<g id="_x31_4">
</g>
<g id="_x31_5">
</g>
<g id="_x31_6">
</g>
<g id="_x31_7">
	<g id="Layer_19">
	</g>
	<g id="Layer_20">
	</g>
</g>
</svg>
