<?xml version="1.0" encoding="utf-8"?>
<!-- Generator: Adobe Illustrator 21.1.0, SVG Export Plug-In . SVG Version: 6.00 Build 0)  -->
<svg version="1.1" id="Layer_1" xmlns="http://www.w3.org/2000/svg" xmlns:xlink="http://www.w3.org/1999/xlink" x="0px" y="0px"
	 viewBox="0 0 550 550" style="enable-background:new 0 0 550 550;" xml:space="preserve">
<style type="text/css">
	.st0{display:none;}
	.st1{display:inline;}
	.st2{fill:none;stroke:#000000;stroke-width:12;stroke-linecap:round;stroke-linejoin:round;}
	.st3{fill:none;}
</style>
<g id="_x31_">
	<g class="st0">
		<g class="st1">
			<path class="st2" d="M-65.9-1009.4c-50.8-56.4-124.5-91.8-206.4-91.8c-153.4,0-277.8,124.4-277.8,277.8s124.4,277.8,277.8,277.8
				c141.3,0,258-105.6,275.5-242.1"/>
			<g>
				<polygon points="-28.2,-1056.6 -18.8,-937.3 -126.8,-988.8 				"/>
			</g>
		</g>
	</g>
</g>
<g id="_x32_">
</g>
<g id="_x33_">
</g>
<g id="_x35_">
	<g id="Layer_21">
	</g>
</g>
<g id="_x37_">
</g>
<g id="_x38_">
</g>
<g id="_x39_">
</g>
<g id="_x31_0">
</g>
<g id="_x31_1">
</g>
<g id="_x31_2">
</g>
<g>
	<path class="st3" d="M413,407.8V192.5V177c0-7.8-6.3-14.1-14.1-14.1H141.8c-7.8,0-14.1,6.3-14.1,14.1v13.9v216.9H413z M221.3,378
		c0,6.1-4.9,11-11,11h-48.7c-6.1,0-11-4.9-11-11v-20.5c0-6.1,4.9-11,11-11h48.7c6.1,0,11,4.9,11,11V378z M393.2,378
		c0,6.1-4.9,11-11,11h-48.7c-6.1,0-11-4.9-11-11v-20.5c0-6.1,4.9-11,11-11h48.7c6.1,0,11,4.9,11,11V378z M148.6,201.7
		c0-7.2,5.8-13,13-13H383c7.2,0,13,5.8,13,13v114.6c0,7.2-5.8,13-13,13H161.6c-7.2,0-13-5.8-13-13V201.7z"/>
	<path class="st3" d="M210.3,354.5h-48.7c-1.7,0-3,1.3-3,3V378c0,1.7,1.3,3,3,3h48.7c1.7,0,3-1.3,3-3v-20.5
		C213.3,355.8,212,354.5,210.3,354.5z"/>
	<path class="st3" d="M161.6,317.3H383c0.5,0,1-0.4,1-1V201.7c0-0.6-0.4-1-1-1H161.6c-0.6,0-1,0.4-1,1v114.6
		C160.6,316.9,161,317.3,161.6,317.3z"/>
	<path class="st3" d="M382.2,354.5h-48.7c-1.7,0-3,1.3-3,3V378c0,1.7,1.3,3,3,3h48.7c1.7,0,3-1.3,3-3v-20.5
		C385.2,355.8,383.9,354.5,382.2,354.5z"/>
	<polygon class="st3" points="354.1,93.1 270.1,39.7 186,93.1 270,147.7 	"/>
	<path class="st3" d="M413,424v-5.4v-2.8H127.7v4.4v3.8c0,7.2,6.5,13.3,14.1,13.3h257.1C406.7,437.3,413,431.3,413,424z"/>
	<path class="st3" d="M340.2,449.3l7.3,10.8c0.8,1.2,0.9,2.8,0.2,4.1s-2.1,2.1-3.5,2.1h-47.9h-53.9h-47.9c-1.5,0-2.8-0.8-3.5-2.1
		c-0.7-1.3-0.6-2.9,0.2-4.1l7.3-10.8h-20.3L115.4,533l29.2-0.1l14.2-20c0.8-1.1,2-1.7,3.3-1.7h103.2h8.1h103.3
		c1.3,0,2.5,0.6,3.3,1.7l14.1,20l29.2,0.1l-62.8-83.7H340.2z M372,502.2c-0.7,1.3-2.1,2.1-3.5,2.1h-96.6h-5.1h-96.6
		c-1.5,0-2.8-0.8-3.5-2.1c-0.7-1.3-0.6-2.9,0.2-4.1l11.4-16.8c0.1-0.1,0.1-0.2,0.2-0.3c0.1-0.3,0.3-0.6,0.4-0.8l3.6-5
		c0.8-1,2-1.7,3.2-1.7h68.3h30.5h68.3c1.3,0,2.5,0.6,3.2,1.7l3.6,5c0.2,0.3,0.3,0.5,0.5,0.8c0.1,0.1,0.1,0.2,0.2,0.3l11.4,16.8
		C372.6,499.3,372.7,500.9,372,502.2z"/>
	<path class="st3" d="M353.4,485c0-0.1-0.1-0.1-0.1-0.1l-2.4-3.3h-66.3h-30.5h-66.3l-2.4,3.3c0,0.1-0.1,0.1-0.1,0.1
		c-0.1,0.3-0.2,0.5-0.4,0.8l-7.2,10.6h89.1h5.1H361l-7.2-10.6C353.6,485.5,353.5,485.2,353.4,485z"/>
	<polygon class="st3" points="202,458.3 242.4,458.3 296.3,458.3 336.7,458.3 330.5,449.3 208.2,449.3 	"/>
	<path d="M161.6,329.3H383c7.2,0,13-5.8,13-13V201.7c0-7.2-5.8-13-13-13H161.6c-7.2,0-13,5.8-13,13v114.6
		C148.6,323.5,154.4,329.3,161.6,329.3z M160.6,201.7c0-0.6,0.4-1,1-1H383c0.6,0,1,0.4,1,1v114.6c0,0.6-0.5,1-1,1H161.6
		c-0.6,0-1-0.4-1-1V201.7z"/>
	<path d="M210.3,346.5h-48.7c-6.1,0-11,4.9-11,11V378c0,6.1,4.9,11,11,11h48.7c6.1,0,11-4.9,11-11v-20.5
		C221.3,351.4,216.4,346.5,210.3,346.5z M213.3,378c0,1.7-1.3,3-3,3h-48.7c-1.7,0-3-1.3-3-3v-20.5c0-1.7,1.3-3,3-3h48.7
		c1.7,0,3,1.3,3,3V378z"/>
	<path d="M382.2,346.5h-48.7c-6.1,0-11,4.9-11,11V378c0,6.1,4.9,11,11,11h48.7c6.1,0,11-4.9,11-11v-20.5
		C393.2,351.4,388.3,346.5,382.2,346.5z M385.2,378c0,1.7-1.3,3-3,3h-48.7c-1.7,0-3-1.3-3-3v-20.5c0-1.7,1.3-3,3-3h48.7
		c1.7,0,3,1.3,3,3V378z"/>
	<path d="M434.5,534.6l-64-85.3h28.4c14.4,0,26.1-11.3,26.1-25.3v-5.4V192.5V177c0-14.4-11.7-26.1-26.1-26.1H287.2L368.5,98
		c1.7-1.1,2.7-3,2.7-5.1s-1.1-3.9-2.8-5l-98-62.2l-0.4,0.6l-0.4-0.6l-98,62.2c-1.7,1.1-2.8,3-2.8,5c0,2,1,3.9,2.7,5.1l81.3,52.9
		H141.8c-14.4,0-26.1,11.7-26.1,26.1v13.9v229.3v3.8c0,14,11.7,25.3,26.1,25.3h26.4l-64,85.3c-0.9,1.2-1.1,2.8-0.4,4.2
		c0.7,1.4,2.1,2.2,3.6,2.2c0,0,0,0,0,0l39.3-0.2c1.3,0,2.5-0.6,3.2-1.7l14.2-20h101.1h8.1h101.2l14.1,20c0.7,1.1,2,1.7,3.2,1.7
		l39.3,0.2c0,0,0,0,0,0c1.5,0,2.9-0.9,3.6-2.2C435.6,537.4,435.4,535.8,434.5,534.6z M270.1,39.7l84.1,53.3L270,147.7L186,93.1
		L270.1,39.7z M127.7,177c0-7.8,6.3-14.1,14.1-14.1h257.1c7.8,0,14.1,6.3,14.1,14.1v15.5v215.3H127.7V190.9V177z M127.7,424v-3.8
		v-4.4H413v2.8v5.4c0,7.3-6.3,13.3-14.1,13.3H141.8C134.2,437.3,127.7,431.2,127.7,424z M336.7,458.3h-40.4h-53.9H202l6.1-9h122.4
		L336.7,458.3z M394.1,532.8l-14.1-20c-0.8-1.1-2-1.7-3.3-1.7H273.4h-8.1H162.1c-1.3,0-2.5,0.6-3.3,1.7l-14.2,20l-29.2,0.1
		l62.8-83.7h20.3l-7.3,10.8c-0.8,1.2-0.9,2.8-0.2,4.1c0.7,1.3,2.1,2.1,3.5,2.1h47.9h53.9h47.9c1.5,0,2.8-0.8,3.5-2.1
		s0.6-2.9-0.2-4.1l-7.3-10.8h20.3l62.8,83.7L394.1,532.8z"/>
	<path d="M360.4,481.3c-0.1-0.1-0.1-0.2-0.2-0.3c-0.1-0.3-0.3-0.6-0.5-0.8l-3.6-5c-0.8-1-2-1.7-3.2-1.7h-68.3h-30.5h-68.3
		c-1.3,0-2.5,0.6-3.2,1.7l-3.6,5c-0.2,0.3-0.3,0.5-0.4,0.8c-0.1,0.1-0.2,0.2-0.2,0.3l-11.4,16.8c-0.8,1.2-0.9,2.8-0.2,4.1
		c0.7,1.3,2.1,2.1,3.5,2.1h96.6h5.1h96.6c1.5,0,2.8-0.8,3.5-2.1s0.6-2.9-0.2-4.1L360.4,481.3z M271.9,496.3h-5.1h-89.1l7.2-10.6
		c0.2-0.2,0.3-0.5,0.4-0.8c0-0.1,0.1-0.1,0.1-0.1l2.4-3.3h66.3h30.5h66.3l2.4,3.3c0,0.1,0.1,0.1,0.1,0.1c0.1,0.3,0.2,0.5,0.4,0.8
		l7.2,10.6H271.9z"/>
</g>
<g id="_x31_4">
</g>
<g id="_x31_5">
</g>
<g id="_x31_6">
</g>
<g id="_x31_7">
	<g id="Layer_19">
	</g>
	<g id="Layer_20">
	</g>
</g>
</svg>
