<?xml version="1.0" encoding="utf-8"?>
<!-- Generator: Adobe Illustrator 21.1.0, SVG Export Plug-In . SVG Version: 6.00 Build 0)  -->
<svg version="1.1" id="Layer_1" xmlns="http://www.w3.org/2000/svg" xmlns:xlink="http://www.w3.org/1999/xlink" x="0px" y="0px"
	 viewBox="0 0 550 550" style="enable-background:new 0 0 550 550;" xml:space="preserve">
<style type="text/css">
	.st0{display:none;}
	.st1{display:inline;}
	.st2{fill:none;stroke:#000000;stroke-width:12;stroke-linecap:round;stroke-linejoin:round;}
	.st3{fill:none;}
</style>
<g id="_x31_">
	<g class="st0">
		<g class="st1">
			<path class="st2" d="M-615.9-1009.4c-50.8-56.4-124.5-91.8-206.4-91.8c-153.4,0-277.8,124.4-277.8,277.8s124.4,277.8,277.8,277.8
				c141.3,0,258-105.6,275.5-242.1"/>
			<g>
				<polygon points="-578.2,-1056.6 -568.8,-937.3 -676.8,-988.8 				"/>
			</g>
		</g>
	</g>
</g>
<g id="_x32_">
</g>
<g id="_x33_">
</g>
<g id="_x35_">
	<g id="Layer_21">
	</g>
</g>
<g id="_x37_">
</g>
<g id="_x38_">
</g>
<g id="_x39_">
</g>
<g id="_x31_0">
</g>
<g id="_x31_1">
</g>
<g id="_x31_2">
</g>
<g id="_x31_3">
</g>
<g>
	<path class="st3" d="M367.1,116.2c23.4,0,40.9-21.6,40.9-40.9c0-22.6-18.3-40.9-40.9-40.9c-22.6,0-40.9,18.3-40.9,40.9
		C326.2,97.9,344.5,116.2,367.1,116.2z"/>
	<path class="st3" d="M256.4,186.8c0-17.3-8.8-30.6-24-36.4c-14.8-5.7-41.3-5.8-44.7-5.8v0h-0.4c-3.6,0-32.5,0.2-47.3,5.8
		c-15.3,5.7-24,19-24,36.4c0,5.6-0.1,16.6-0.2,29.2c-0.2,28.5-0.6,75.1,0,84.2c4.1,4,21,16.7,35.7,27.1l2.2,1.5l23.2,191.8h4.2h14.6
		l23.2-191.8l2.2-1.5c14.7-10.4,31.6-23.1,35.7-27c0.5-9,0.2-55.8,0-84.3C256.5,203.3,256.4,192.4,256.4,186.8z"/>
	<path class="st3" d="M186.5,116.2c23.4,0,40.9-21.6,40.9-40.9c0-22.6-18.3-40.9-40.9-40.9s-40.9,18.3-40.9,40.9
		C145.6,97.9,163.9,116.2,186.5,116.2z"/>
	<path class="st3" d="M417.8,298.9c0-0.1,0-0.1,0-0.2c0.6-17.8,2.3-93.5,1.4-111.6c-1.4-29.4-8.5-32.6-16-36.1
		c-0.5-0.3-1.1-0.5-1.6-0.8c-11-5.3-29-5.6-33.8-5.6c0,0-0.1,0-0.1,0c-0.1,0-0.3,0-0.4,0h-0.9c-0.1,0-0.3,0-0.4,0
		c-4.7,0-22.8,0.3-33.9,5.6c-0.5,0.3-1.1,0.5-1.6,0.8c-7.5,3.5-14.5,6.7-16,36.1c-0.9,17.9,0.7,91.5,1.4,111.6
		c0.1,2.5,0.1,3-34.4,64.3c-2.9,5.2-5.8,10.2-8,14.2c12,0.3,33.9,0.6,54,0.7c3,0,5.5,2.2,5.9,5.2l19.4,137.6h10h18.1L400.3,383
		c0.4-3,2.9-5.2,5.9-5.2c20-0.1,42-0.3,54-0.7c-2.8-5-6.7-11.9-10.4-18.5C417.8,301.8,417.8,301.3,417.8,298.9z"/>
	<path d="M268.1,304.4c0.8-2.4,1-11.1,0.5-88.6c-0.1-12.6-0.2-23.5-0.2-29c0-22.2-11.9-40-31.8-47.6c-16.4-6.3-43.4-6.6-48.6-6.6
		c-0.4,0-0.6,0-0.8,0c-4.4,0-34.6,0.2-51.5,6.6c-19.9,7.5-31.8,25.3-31.8,47.6c0,5.6-0.1,16.5-0.2,29.1c-0.6,77.4-0.3,86.1,0.5,88.5
		c0.6,1.9,1.7,5.2,38.1,31.1l23.8,197h40l23.8-197C266.5,309.7,267.5,306.4,268.1,304.4z M256.6,300.3c-4,4-21,16.7-35.7,27
		l-2.2,1.5l-23.2,191.8H181h-4.2l-23.2-191.8l-2.2-1.5c-14.7-10.4-31.6-23.1-35.7-27.1c-0.5-9.1-0.2-55.7,0-84.2
		c0.1-12.7,0.2-23.6,0.2-29.2c0-17.4,8.8-30.6,24-36.4c14.8-5.6,43.7-5.8,47.3-5.8h0.4v0c3.4,0,29.9,0.1,44.7,5.8
		c15.3,5.8,24,19.1,24,36.4c0,5.6,0.1,16.5,0.2,29.1C256.8,244.5,257.1,291.3,256.6,300.3z"/>
	<path d="M186.5,128.2c28.2,0,52.9-24.7,52.9-52.9c0-29.2-23.7-52.9-52.9-52.9s-52.9,23.7-52.9,52.9
		C133.6,104.5,157.3,128.2,186.5,128.2z M186.5,34.4c22.6,0,40.9,18.3,40.9,40.9c0,19.3-17.5,40.9-40.9,40.9
		c-22.6,0-40.9-18.3-40.9-40.9C145.6,52.7,163.9,34.4,186.5,34.4z"/>
	<path d="M474.1,377.5c-0.8-1.4-1.9-3.4-3.2-5.8c-2.7-4.9-6.5-11.6-10.7-19c-10.4-18.5-27.5-48.8-30.4-54.9
		c0.6-18.4,2.3-92.5,1.4-111.3c-1.6-33.9-11.3-41.1-22.9-46.4c-0.5-0.2-1-0.5-1.5-0.7c-14.3-6.8-36-6.8-39.9-6.8
		c-4,0-25.7,0-39.9,6.8c-0.5,0.2-1,0.5-1.5,0.7c-11.6,5.4-21.3,12.6-22.9,46.4c-0.9,18.7,0.8,92.7,1.4,111.4
		c-3.1,6.5-22.3,40.5-32.8,59.2c-3.6,6.4-6.8,12-9,16c-1.1,2-2.1,3.7-2.7,4.8c-1.3,2.4-2.3,4.2-1.3,6.8c0.8,2,2.5,3.4,4.5,3.7
		c5.1,0.9,43.7,1.2,59.6,1.3l19.4,137.7c0.4,3,3,5.2,5.9,5.2h38.5c3,0,5.5-2.2,5.9-5.2l19.4-137.7c16-0.1,54.5-0.4,59.6-1.3
		c0.1,0,0.3-0.1,0.4-0.1c1.8-0.5,3.3-1.7,4.1-3.4C476.7,382.2,475.7,380.4,474.1,377.5z M406.2,377.8c-3,0-5.5,2.2-5.9,5.2
		l-19.4,137.6h-18.1h-10L333.4,383c-0.4-3-2.9-5.2-5.9-5.2c-20-0.1-42-0.3-54-0.7c2.2-4,5.1-9,8-14.2c34.5-61.2,34.5-61.7,34.4-64.3
		c-0.7-20.1-2.3-93.7-1.4-111.6c1.4-29.4,8.5-32.6,16-36.1c0.5-0.3,1.1-0.5,1.6-0.8c11.1-5.3,29.2-5.6,33.9-5.6c0.1,0,0.3,0,0.4,0
		h0.9c0.1,0,0.3,0,0.4,0c0,0,0.1,0,0.1,0c4.9,0,22.8,0.4,33.8,5.6c0.5,0.3,1.1,0.5,1.6,0.8c7.5,3.5,14.5,6.7,16,36.1
		c0.9,18.1-0.8,93.8-1.4,111.6c0,0.1,0,0.1,0,0.2c0,2.4,0,2.9,32,59.7c3.8,6.7,7.6,13.5,10.4,18.5
		C448.2,377.5,426.2,377.7,406.2,377.8z"/>
	<path d="M367.1,128.2c28.2,0,52.9-24.7,52.9-52.9c0-29.2-23.7-52.9-52.9-52.9s-52.9,23.7-52.9,52.9
		C314.2,104.5,337.9,128.2,367.1,128.2z M367.1,34.4c22.6,0,40.9,18.3,40.9,40.9c0,19.3-17.5,40.9-40.9,40.9
		c-22.6,0-40.9-18.3-40.9-40.9C326.2,52.7,344.5,34.4,367.1,34.4z"/>
</g>
<g id="_x31_5">
</g>
<g id="_x31_6">
</g>
<g id="_x31_7">
	<g id="Layer_19">
	</g>
	<g id="Layer_20">
	</g>
</g>
</svg>
