<svg xmlns="http://www.w3.org/2000/svg" viewBox="0 0 579.5 85.43"><title>PID_logo_words_web</title><path d="M331.58,100.29A16.78,16.78,0,1,1,348.3,117,16.77,16.77,0,0,1,331.58,100.29Z" transform="translate(-60.25 -57.28)"/><path d="M81.66,107.72H75.14A1.23,1.23,0,0,0,74,108.86v29.2a2.84,2.84,0,0,1-2.86,2.87h-8a2.84,2.84,0,0,1-2.86-2.87V61.11a2.84,2.84,0,0,1,2.86-2.87H81.66C98,58.24,101.93,68.55,101.93,83S98,107.72,81.66,107.72ZM80.52,69.58H75.14A1.23,1.23,0,0,0,74,70.73V95.12a1.23,1.23,0,0,0,1.15,1.14h5.38c6.87,0,7.9-4.35,7.9-13.39S87.39,69.58,80.52,69.58Z" transform="translate(-60.25 -57.28)"/><path d="M105,140.93a2.48,2.48,0,0,1-2.41-2.87l13.52-76.95a3.43,3.43,0,0,1,3.32-2.87H129.8a3.43,3.43,0,0,1,3.32,2.87l13.51,77a2.48,2.48,0,0,1-2.4,2.87h-7.45a3.43,3.43,0,0,1-3.32-2.87l-1.83-13.17a1.25,1.25,0,0,0-1.26-1.14H118.81a1.18,1.18,0,0,0-1.26,1.14l-2,13.17a3.31,3.31,0,0,1-3.21,2.87Zm19.93-62c-.12-.23-.35-.23-.35,0l-4.81,31.84a1,1,0,0,0,.92,1.14h7.9a1.05,1.05,0,0,0,1-1.14Z" transform="translate(-60.25 -57.28)"/><path d="M195.87,138.18a2.15,2.15,0,0,1-2.06,2.75h-7.67a3.82,3.82,0,0,1-3.67-2.75l-8.24-30.46a1.58,1.58,0,0,0-1.49-1.15h-2.63a1.23,1.23,0,0,0-1.15,1.15v30.34a2.84,2.84,0,0,1-2.86,2.87h-8a2.84,2.84,0,0,1-2.86-2.87V61.11a2.84,2.84,0,0,1,2.86-2.87h18.55c16,0,19.24,10.65,19.24,24.74,0,12.94-2.63,17.86-8.93,21.19a1.27,1.27,0,0,0-.69,1.6ZM169,94.43a1.24,1.24,0,0,0,1.15,1.15h4.23c6.19,0,8-2.87,8-12.94s-1.83-12.94-8-12.94h-4.23A1.23,1.23,0,0,0,169,70.84Z" transform="translate(-60.25 -57.28)"/><path d="M215,58.24a2.84,2.84,0,0,1,2.86,2.87V92a.25.25,0,0,0,.46.11l12.94-31.26a4.39,4.39,0,0,1,4-2.64H243a1.86,1.86,0,0,1,1.72,2.64L232,90.2a3.46,3.46,0,0,0-.11,2.17l14.31,45.81a2.15,2.15,0,0,1-2.06,2.75h-8.25a3.81,3.81,0,0,1-3.66-2.75l-9.16-32.75a.42.42,0,0,0-.8-.12l-4,8.59a6.67,6.67,0,0,0-.46,2.18v22a2.84,2.84,0,0,1-2.86,2.87h-7.91a2.84,2.84,0,0,1-2.86-2.87V61.11a2.84,2.84,0,0,1,2.86-2.87Z" transform="translate(-60.25 -57.28)"/><path d="M265.46,58.24a2.84,2.84,0,0,1,2.86,2.87v77a2.84,2.84,0,0,1-2.86,2.87h-7.9a2.84,2.84,0,0,1-2.87-2.87V61.11a2.84,2.84,0,0,1,2.87-2.87Z" transform="translate(-60.25 -57.28)"/><path d="M319.66,67.63a2.84,2.84,0,0,1-2.86,2.87H306.49a1.23,1.23,0,0,0-1.14,1.14v66.42a2.84,2.84,0,0,1-2.87,2.87h-7.9a2.84,2.84,0,0,1-2.86-2.87V71.64a1.23,1.23,0,0,0-1.15-1.14H280a2.84,2.84,0,0,1-2.87-2.87V61.11A2.84,2.84,0,0,1,280,58.24H316.8a2.84,2.84,0,0,1,2.86,2.87Z" transform="translate(-60.25 -57.28)"/><path d="M422.17,118.59c0,12.94-5.5,22.34-21.65,22.34H383.8a2.84,2.84,0,0,1-2.86-2.87V61.11a2.84,2.84,0,0,1,2.86-2.87h16.72c16.15,0,21.65,9.39,21.65,22.33ZM395.71,69.92a1.24,1.24,0,0,0-1.14,1.15v57a1.24,1.24,0,0,0,1.14,1.15h4.35c6.65,0,8.36-3.21,8.36-9.74V79.66c0-6.53-1.71-9.74-8.36-9.74Z" transform="translate(-60.25 -57.28)"/><path d="M444.2,58.24a2.84,2.84,0,0,1,2.86,2.87v77a2.84,2.84,0,0,1-2.86,2.87h-7.9a2.83,2.83,0,0,1-2.86-2.87V61.11a2.83,2.83,0,0,1,2.86-2.87Z" transform="translate(-60.25 -57.28)"/><path d="M499.45,138.18a2.15,2.15,0,0,1-2.06,2.75h-7.67a3.8,3.8,0,0,1-3.66-2.75l-8.25-30.46a1.58,1.58,0,0,0-1.49-1.15h-2.63a1.24,1.24,0,0,0-1.15,1.15v30.34a2.84,2.84,0,0,1-2.86,2.87h-8a2.84,2.84,0,0,1-2.86-2.87V61.11a2.84,2.84,0,0,1,2.86-2.87h18.56c16,0,19.23,10.65,19.23,24.74,0,12.94-2.63,17.86-8.93,21.19a1.28,1.28,0,0,0-.69,1.6ZM472.54,94.43a1.24,1.24,0,0,0,1.15,1.15h4.23c6.19,0,8-2.87,8-12.94s-1.83-12.94-8-12.94h-4.23a1.24,1.24,0,0,0-1.15,1.14Z" transform="translate(-60.25 -57.28)"/><path d="M523.61,70.27a1.23,1.23,0,0,0-1.14,1.14V91.23a1.23,1.23,0,0,0,1.14,1.14h12a2.83,2.83,0,0,1,2.86,2.86v5.84a2.84,2.84,0,0,1-2.86,2.87h-12a1.23,1.23,0,0,0-1.14,1.14v22.45a1.23,1.23,0,0,0,1.14,1.14h18.67a2.83,2.83,0,0,1,2.86,2.86v6.53a2.84,2.84,0,0,1-2.86,2.87H511.7a2.84,2.84,0,0,1-2.86-2.87V61.11a2.84,2.84,0,0,1,2.86-2.87h29.66a2.84,2.84,0,0,1,2.87,2.87v6.3a2.84,2.84,0,0,1-2.87,2.86Z" transform="translate(-60.25 -57.28)"/><path d="M591.81,86.6A2.83,2.83,0,0,1,589,89.46h-7.56a2.84,2.84,0,0,1-2.87-2.86V77c0-4.58-1.83-7.56-6.52-7.56-5.16,0-7.22,3-7.22,7.91v45.35c0,5,2.06,7.9,7.22,7.9,4.69,0,6.52-3,6.52-7.56V112.48a2.84,2.84,0,0,1,2.87-2.86H589a2.83,2.83,0,0,1,2.86,2.86v10.2c0,12.25-7.56,20-19.93,20S551,134.7,551,122.33V77.67c0-12.37,8.36-20.39,20.84-20.39s19.93,7.79,19.93,20Z" transform="translate(-60.25 -57.28)"/><path d="M639.75,67.63a2.84,2.84,0,0,1-2.86,2.87H626.58a1.23,1.23,0,0,0-1.14,1.14v66.42a2.84,2.84,0,0,1-2.87,2.87h-7.9a2.84,2.84,0,0,1-2.86-2.87V71.64a1.23,1.23,0,0,0-1.15-1.14H600.13a2.84,2.84,0,0,1-2.87-2.87V61.11a2.84,2.84,0,0,1,2.87-2.87h36.76a2.84,2.84,0,0,1,2.86,2.87Z" transform="translate(-60.25 -57.28)"/></svg>