<?xml version="1.0" encoding="utf-8"?>
<!-- Generator: Adobe Illustrator 23.0.2, SVG Export Plug-In . SVG Version: 6.00 Build 0)  -->
<svg version="1.1" id="Layer_1" xmlns="http://www.w3.org/2000/svg" xmlns:xlink="http://www.w3.org/1999/xlink" x="0px" y="0px"
	 viewBox="0 0 1000 1000" style="enable-background:new 0 0 1000 1000;" xml:space="preserve">
<style type="text/css">
	.st0{clip-path:url(#SVGID_2_);}
	.st1{clip-path:url(#SVGID_4_);fill:#FFFFFF;}
	.st2{clip-path:url(#SVGID_4_);}
</style>
<g>
	<g>
		<defs>
			<rect id="SVGID_1_" x="153" y="153" width="694" height="694"/>
		</defs>
		<clipPath id="SVGID_2_">
			<use xlink:href="#SVGID_1_"  style="overflow:visible;"/>
		</clipPath>
		<g class="st0">
			<defs>
				<rect id="SVGID_3_" x="153" y="153" width="694" height="694"/>
			</defs>
			<clipPath id="SVGID_4_">
				<use xlink:href="#SVGID_3_"  style="overflow:visible;"/>
			</clipPath>
			<path class="st1" d="M476.7,686.4c0-3,3-6.1,6.1-6.1h34.6c86.7,0,107.4-54.6,107.4-131V476c0-76.4-20.6-131-107.4-131h-98.3
				c-8.5,0-15.2,6.7-15.2,15.2v73.4v334.2V799c23.2,7.5,47.6,12.3,72.8,14.1v-45.4V686.4z M476.7,613.1v-72.8v-55.8v-66.1v-7.2
				c0-3,3-6.1,6.1-6.1h28.5c17.1,0,27.3,5.2,33.4,15.5c6.9,11.6,8.5,29.8,8.5,54.9v73.4c0,25.9-1.6,44.5-8.9,56.2
				c-6.1,9.9-16.3,14.8-33,14.8h-28.5c-3,0-6.1-3-6.1-6.1V613.1z"/>
			<path class="st2" d="M500,185.8c-173.5,0-314.2,140.7-314.2,314.2c0,140,91.6,258.5,218.1,299.1v-31.4V433.5v-73.4
				c0-8.5,6.7-15.2,15.2-15.2h98.3c86.7,0,107.4,54.6,107.4,131v73.4c0,76.4-20.6,131-107.4,131h-34.6c-3,0-6.1,3-6.1,6.1v81.3v45.5
				c7.7,0.6,15.5,1,23.3,1c173.5,0,314.2-140.7,314.2-314.2S673.5,185.8,500,185.8"/>
			<path class="st2" d="M482.8,619.7h28.5c16.7,0,26.8-4.9,33-14.8c7.2-11.7,8.9-30.2,8.9-56.2v-73.4c0-25.1-1.6-43.3-8.5-54.9
				c-6.1-10.3-16.3-15.5-33.4-15.5h-28.5c-3,0-6.1,3-6.1,6.1v7.2v66.1v55.8V613v0.6C476.7,616.6,479.7,619.7,482.8,619.7"/>
		</g>
	</g>
</g>
</svg>
