<?xml version="1.0" encoding="utf-8"?>
<!-- Generator: Adobe Illustrator 20.0.0, SVG Export Plug-In . SVG Version: 6.00 Build 0)  -->
<svg version="1.1" xmlns="http://www.w3.org/2000/svg" xmlns:xlink="http://www.w3.org/1999/xlink" x="0px" y="0px" width="1000px"
	 height="261px" viewBox="0 0 1000 261" style="enable-background:new 0 0 1000 261;" xml:space="preserve">
<style type="text/css">
	.st0{fill:#FFFFFF;}
</style>
<g id="Layer_2">
	<rect width="1000" height="261"/>
</g>
<g id="Layer_1">
	<g>
		<path class="st0" d="M181.1,97.4c0,2.8-0.3,5.7-0.9,8.7c-0.6,3-1.6,6-3,8.9c-1.4,2.9-3.2,5.6-5.4,8.2c-2.2,2.6-4.9,4.9-8.1,6.9
			c-3.2,2-6.9,3.6-11.1,4.8c-4.2,1.2-9.2,1.7-14.8,1.7h-10l-6.2,30.7c-0.1,0.5-0.3,0.9-0.7,1.3c-0.4,0.4-1,0.7-1.9,1
			c-0.8,0.2-1.9,0.4-3.2,0.6c-1.3,0.1-2.9,0.2-4.8,0.2c-1.8,0-3.4-0.1-4.6-0.2c-1.2-0.1-2.2-0.3-2.9-0.6c-0.7-0.2-1.2-0.6-1.4-0.9
			c-0.2-0.4-0.3-0.8-0.1-1.4l17.3-86.5c0.4-2.3,1.4-4.1,2.9-5.2c1.5-1.2,3.3-1.7,5.5-1.7h21c2.6,0,4.9,0.1,6.9,0.3
			c2,0.2,4,0.5,6,0.9c3,0.6,5.7,1.5,8.1,2.7c2.4,1.2,4.4,2.8,6.1,4.6c1.7,1.9,3,4,3.9,6.5C180.7,91.4,181.1,94.3,181.1,97.4z
			 M160.6,99.6c0-2.4-0.6-4.4-1.7-6.2c-1.1-1.7-2.9-2.9-5.3-3.6c-1-0.3-2.2-0.6-3.5-0.7c-1.3-0.1-2.7-0.2-4.3-0.2h-8.6l-6.4,32.6
			h8.9c2.8,0,5.2-0.3,7.2-1c2-0.7,3.8-1.5,5.3-2.6c1.5-1.1,2.8-2.4,3.9-3.9c1.1-1.5,1.9-3,2.6-4.7c0.7-1.6,1.2-3.3,1.4-4.9
			C160.4,102.8,160.6,101.2,160.6,99.6z"/>
		<path class="st0" d="M241.4,167.5c-0.2,1-1,1.8-2.3,2.2c-1.4,0.4-3.6,0.7-6.6,0.7c-1.5,0-2.8,0-3.7-0.1c-1-0.1-1.7-0.3-2.3-0.5
			c-0.6-0.2-1-0.5-1.2-0.9c-0.2-0.4-0.2-0.8-0.1-1.4l2.1-10.6c-0.7,1.6-1.9,3.3-3.6,5c-1.6,1.8-3.6,3.4-5.8,4.8
			c-2.2,1.4-4.7,2.6-7.4,3.6c-2.7,0.9-5.5,1.4-8.4,1.4c-4,0-7.2-0.7-9.9-2.1c-2.6-1.4-4.7-3.3-6.3-5.6c-1.6-2.4-2.7-5-3.4-8.1
			s-1-6.2-1-9.5c0-3.1,0.3-6.5,0.9-10.2c0.6-3.7,1.5-7.4,2.7-11c1.2-3.7,2.8-7.2,4.8-10.6c1.9-3.4,4.2-6.4,6.9-9
			c2.7-2.6,5.8-4.7,9.3-6.3c3.5-1.6,7.4-2.3,11.8-2.3c4.1,0,7.7,0.9,10.9,2.6c3.2,1.7,5.9,4.2,8.3,7.5l1.2-5.9c0.2-1,1-1.8,2.3-2.2
			c1.4-0.4,3.6-0.7,6.6-0.7c1.5,0,2.7,0.1,3.7,0.2c1,0.1,1.8,0.3,2.3,0.5c0.6,0.2,1,0.5,1.2,0.9c0.2,0.4,0.2,0.8,0.1,1.3
			L241.4,167.5z M232.2,121c-1.7-2.7-3.7-4.8-5.8-6.1c-2.1-1.4-4.5-2-7.3-2c-2.1,0-4,0.5-5.7,1.5c-1.7,1-3.3,2.3-4.6,4
			c-1.3,1.7-2.5,3.6-3.5,5.8c-1,2.2-1.9,4.4-2.5,6.8c-0.7,2.4-1.2,4.7-1.5,7.1c-0.3,2.4-0.5,4.6-0.5,6.6c0,1.5,0.1,2.9,0.3,4.2
			s0.6,2.5,1.2,3.6c0.6,1,1.4,1.9,2.4,2.5c1,0.6,2.3,0.9,3.8,0.9c2.2,0,4.4-0.7,6.7-2c2.3-1.3,4.4-3.1,6.4-5.3
			c2-2.3,3.7-4.9,5.2-7.9c1.5-3,2.6-6.2,3.3-9.6L232.2,121z"/>
		<path class="st0" d="M314.9,100.2c0,0.3,0,1-0.1,1.9c-0.1,0.9-0.2,1.9-0.4,3.1c-0.2,1.2-0.4,2.4-0.7,3.7c-0.3,1.3-0.6,2.4-1,3.5
			c-0.4,1.1-0.8,2-1.3,2.7c-0.5,0.7-1,1-1.5,1c-0.4,0-0.9-0.1-1.3-0.3c-0.4-0.2-0.9-0.3-1.5-0.5c-0.5-0.2-1.1-0.3-1.8-0.5
			c-0.6-0.2-1.4-0.3-2.2-0.3c-1.7,0-3.5,0.6-5.4,1.9c-1.9,1.3-3.7,3-5.5,5.1c-1.7,2.1-3.3,4.6-4.6,7.3c-1.4,2.8-2.3,5.7-2.9,8.8
			l-5.9,29.8c-0.1,0.5-0.3,0.9-0.7,1.3s-0.9,0.7-1.7,0.9c-0.8,0.2-1.8,0.4-3,0.6c-1.2,0.1-2.7,0.2-4.5,0.2c-1.8,0-3.3-0.1-4.5-0.2
			c-1.2-0.1-2.1-0.3-2.7-0.6c-0.7-0.2-1.1-0.6-1.3-0.9c-0.2-0.4-0.2-0.8-0.1-1.3l13.2-66.3c0.1-0.5,0.3-0.9,0.7-1.3
			c0.3-0.4,0.9-0.7,1.5-0.9s1.5-0.4,2.6-0.5c1.1-0.1,2.3-0.2,3.8-0.2c1.5,0,2.8,0.1,3.7,0.2c1,0.1,1.7,0.3,2.3,0.5
			c0.5,0.2,0.9,0.5,1.1,0.9c0.2,0.4,0.2,0.8,0.1,1.3l-2.1,10.5c1.2-2.1,2.6-4.1,4.1-5.9c1.6-1.8,3.2-3.3,5-4.6
			c1.8-1.3,3.6-2.3,5.5-3.1c1.9-0.7,3.7-1.1,5.6-1.1c0.7,0,1.5,0,2.3,0.1c0.8,0.1,1.5,0.2,2.2,0.4c0.7,0.1,1.3,0.3,1.8,0.6
			s0.9,0.5,1.2,0.7C314.8,99.1,314.9,99.5,314.9,100.2z"/>
		<path class="st0" d="M384.5,100.9c0,0.8-0.3,1.7-1,2.8c-0.7,1.1-1.8,2.4-3.3,4l-23.4,22l15.2,31.9c0.5,1.2,0.8,2.2,1,3.1
			c0.2,0.9,0.3,1.6,0.3,2.1c0,0.6-0.2,1.1-0.5,1.6c-0.3,0.4-0.9,0.8-1.6,1.1c-0.8,0.3-1.8,0.5-3.1,0.6c-1.3,0.1-3,0.2-4.9,0.2
			c-2,0-3.6,0-4.8-0.1c-1.2-0.1-2.2-0.3-2.8-0.5c-0.7-0.2-1.2-0.6-1.5-1c-0.3-0.4-0.6-0.9-0.7-1.5l-15.7-34.9l-7,35
			c-0.1,0.5-0.4,0.9-0.8,1.3s-0.9,0.7-1.7,0.9c-0.8,0.2-1.8,0.4-3,0.6c-1.2,0.1-2.7,0.2-4.5,0.2c-1.8,0-3.3-0.1-4.5-0.2
			c-1.2-0.1-2.1-0.3-2.7-0.5c-0.6-0.2-1.1-0.5-1.3-0.9s-0.3-0.8-0.2-1.3l19.6-97.7c0.1-0.5,0.3-0.9,0.7-1.3c0.3-0.4,0.9-0.7,1.7-1
			c0.8-0.3,1.8-0.5,3-0.6c1.2-0.1,2.7-0.2,4.6-0.2c1.8,0,3.3,0.1,4.5,0.2c1.2,0.1,2.1,0.4,2.7,0.6c0.6,0.3,1.1,0.6,1.3,1
			c0.2,0.4,0.2,0.8,0.1,1.3l-11.6,58.1l24.8-26.5c0.5-0.6,1-1.1,1.6-1.5c0.6-0.4,1.3-0.8,2.2-1c0.9-0.2,2-0.4,3.2-0.5
			c1.3-0.1,2.8-0.1,4.7-0.1c1.8,0,3.4,0,4.6,0.1c1.2,0.1,2.2,0.3,2.9,0.5c0.7,0.2,1.2,0.5,1.4,0.9
			C384.4,100.1,384.5,100.5,384.5,100.9z"/>
		<path class="st0" d="M410.8,121.1c0,1.1-0.1,2.3-0.3,3.5c-0.2,1.3-0.5,2.5-0.9,3.7c-0.4,1.2-0.8,2.4-1.3,3.5
			c-0.5,1.1-1.1,2-1.8,2.7c-1,1-2.4,1.8-4.1,2.2c-1.7,0.4-3.5,0.6-5.4,0.6c-1.8,0-3.3-0.1-4.5-0.4c-1.2-0.3-2.2-0.7-2.9-1.3
			c-0.7-0.6-1.2-1.3-1.5-2.1c-0.3-0.8-0.4-1.8-0.4-2.9c0-1,0.1-2.1,0.3-3.4c0.2-1.3,0.5-2.5,0.9-3.8c0.4-1.3,0.8-2.5,1.3-3.5
			c0.5-1.1,1.1-1.9,1.7-2.5c0.9-0.9,2.1-1.6,3.6-2.2c1.5-0.5,3.5-0.8,6.1-0.8c1.8,0,3.3,0.1,4.5,0.4c1.2,0.3,2.2,0.7,2.9,1.3
			c0.7,0.6,1.2,1.3,1.5,2.1C410.6,119,410.8,120,410.8,121.1z"/>
		<path class="st0" d="M438.2,167.4c-0.1,0.5-0.3,0.9-0.7,1.3s-0.9,0.7-1.7,0.9c-0.8,0.2-1.8,0.4-3,0.6c-1.2,0.1-2.7,0.2-4.5,0.2
			c-1.8,0-3.3-0.1-4.5-0.2c-1.2-0.1-2.1-0.3-2.7-0.6c-0.7-0.2-1.1-0.6-1.3-0.9c-0.2-0.4-0.2-0.8-0.1-1.3l13.1-66.1
			c0.1-0.5,0.3-0.9,0.7-1.3s0.9-0.7,1.7-1c0.8-0.3,1.8-0.5,3-0.6c1.2-0.1,2.7-0.2,4.6-0.2c1.8,0,3.3,0.1,4.5,0.2
			c1.2,0.1,2.1,0.4,2.7,0.6c0.7,0.3,1.1,0.6,1.3,1c0.2,0.4,0.2,0.8,0.1,1.3L438.2,167.4z M457.4,78.9c-0.3,1.8-0.8,3.4-1.4,4.6
			c-0.6,1.3-1.4,2.3-2.4,3c-1,0.8-2.2,1.3-3.6,1.6c-1.4,0.3-3.2,0.5-5.3,0.5c-2.1,0-3.8-0.2-5.1-0.5c-1.3-0.3-2.3-0.9-3-1.6
			c-0.7-0.8-1.1-1.8-1.2-3c-0.1-1.3,0-2.8,0.4-4.6c0.3-1.8,0.8-3.3,1.4-4.5c0.6-1.2,1.4-2.3,2.4-3c1-0.8,2.2-1.4,3.6-1.7
			c1.4-0.3,3.2-0.5,5.3-0.5c2.1,0,3.8,0.2,5.1,0.5c1.3,0.3,2.3,0.9,3,1.7c0.7,0.8,1,1.8,1.1,3C457.8,75.6,457.7,77.2,457.4,78.9z"/>
		<path class="st0" d="M508.5,101.9c0,0.5,0,1.1-0.1,1.9c-0.1,0.8-0.2,1.6-0.4,2.5s-0.4,1.8-0.7,2.7s-0.6,1.7-1,2.4
			c-0.4,0.7-0.8,1.3-1.3,1.8c-0.5,0.5-1,0.7-1.5,0.7H489l-6.2,31.1c-0.1,0.7-0.3,1.6-0.4,2.6c-0.1,1-0.2,1.8-0.2,2.5
			c0,2,0.5,3.4,1.4,4.3c0.9,0.9,2.4,1.4,4.5,1.4c1.2,0,2.2-0.1,3-0.3c0.8-0.2,1.6-0.4,2.2-0.6c0.6-0.2,1.2-0.4,1.6-0.6
			c0.4-0.2,0.9-0.3,1.3-0.3s0.7,0.2,1,0.6s0.4,1,0.4,1.8c0,0.9-0.1,2-0.3,3.2s-0.5,2.3-0.8,3.5c-0.3,1.1-0.7,2.1-1.1,3
			c-0.4,0.9-0.8,1.6-1.3,2s-1.1,0.9-2,1.3c-0.9,0.4-1.9,0.7-3.2,1c-1.2,0.3-2.5,0.5-3.9,0.7c-1.4,0.2-2.8,0.3-4.2,0.3
			c-3,0-5.6-0.3-7.8-0.9s-4.1-1.6-5.7-2.9c-1.5-1.3-2.7-3-3.5-5.1c-0.8-2.1-1.2-4.6-1.2-7.6c0-0.5,0-1.2,0.1-1.9
			c0-0.7,0.1-1.5,0.3-2.3c0.1-0.8,0.2-1.6,0.4-2.4s0.3-1.5,0.4-2.2l6.5-32.3h-8c-0.6,0-1.1-0.2-1.4-0.6c-0.3-0.4-0.4-1.2-0.4-2.4
			c0-0.8,0.1-1.9,0.3-3.3c0.2-1.4,0.5-2.7,0.9-4c0.4-1.3,0.9-2.4,1.6-3.4c0.6-0.9,1.4-1.4,2.3-1.4h7.9l3-14.8
			c0.1-0.5,0.3-0.9,0.7-1.3c0.4-0.4,0.9-0.7,1.7-1c0.8-0.3,1.8-0.5,3-0.6c1.2-0.1,2.7-0.2,4.6-0.2c1.8,0,3.3,0.1,4.5,0.2
			c1.2,0.1,2.1,0.3,2.7,0.6c0.6,0.3,1.1,0.6,1.3,1c0.2,0.4,0.3,0.8,0.2,1.3l-3,14.8h14.3c0.8,0,1.4,0.3,1.7,0.8
			C508.3,100,508.5,100.8,508.5,101.9z"/>
		<path class="st0" d="M537.8,121.1c0,1.1-0.1,2.3-0.3,3.5c-0.2,1.3-0.5,2.5-0.9,3.7c-0.4,1.2-0.8,2.4-1.3,3.5
			c-0.5,1.1-1.1,2-1.8,2.7c-1,1-2.4,1.8-4.1,2.2c-1.7,0.4-3.5,0.6-5.4,0.6c-1.8,0-3.3-0.1-4.5-0.4c-1.2-0.3-2.2-0.7-2.9-1.3
			c-0.7-0.6-1.2-1.3-1.5-2.1c-0.3-0.8-0.4-1.8-0.4-2.9c0-1,0.1-2.1,0.3-3.4c0.2-1.3,0.5-2.5,0.9-3.8c0.4-1.3,0.8-2.5,1.3-3.5
			c0.5-1.1,1.1-1.9,1.7-2.5c0.9-0.9,2.1-1.6,3.6-2.2c1.5-0.5,3.5-0.8,6.1-0.8c1.8,0,3.3,0.1,4.5,0.4c1.2,0.3,2.2,0.7,2.9,1.3
			c0.7,0.6,1.2,1.3,1.5,2.1C537.7,119,537.8,120,537.8,121.1z"/>
		<path class="st0" d="M609.9,167.5c-0.2,1-1,1.8-2.3,2.2c-1.4,0.4-3.6,0.7-6.6,0.7c-1.5,0-2.8,0-3.7-0.1c-1-0.1-1.7-0.3-2.3-0.5
			s-1-0.5-1.2-0.9c-0.2-0.4-0.2-0.8-0.1-1.4l2-10.6c-0.7,1.6-1.9,3.3-3.6,5c-1.6,1.8-3.6,3.4-5.8,4.8c-2.2,1.5-4.7,2.6-7.4,3.6
			s-5.5,1.4-8.4,1.4c-2.8,0-5.3-0.4-7.4-1.1s-3.9-1.7-5.4-2.9s-2.8-2.7-3.7-4.4c-1-1.7-1.8-3.5-2.4-5.3s-1-3.8-1.3-5.8
			c-0.2-2-0.4-4-0.4-5.9c0-3.2,0.3-6.7,0.9-10.4c0.6-3.7,1.5-7.3,2.8-11c1.3-3.6,2.9-7.1,4.8-10.5c1.9-3.4,4.2-6.3,6.9-8.9
			c2.7-2.6,5.8-4.6,9.3-6.2c3.5-1.5,7.4-2.3,11.8-2.3c1.9,0,3.8,0.2,5.5,0.6c1.8,0.4,3.4,1,4.8,1.7c1.5,0.7,2.8,1.6,4,2.6
			c1.2,1,2.2,2,3,3.1l7.1-35c0.1-0.5,0.3-0.9,0.7-1.3c0.3-0.4,0.9-0.7,1.7-1c0.8-0.3,1.8-0.5,3-0.6c1.2-0.1,2.7-0.2,4.6-0.2
			c1.8,0,3.3,0.1,4.5,0.2c1.2,0.1,2.1,0.4,2.7,0.6c0.6,0.3,1.1,0.6,1.3,1c0.2,0.4,0.2,0.8,0.1,1.3L609.9,167.5z M600.6,121.1
			c-1.7-2.7-3.6-4.8-5.8-6.2c-2.1-1.4-4.5-2.1-7.3-2.1c-2,0-3.9,0.5-5.6,1.4c-1.7,1-3.2,2.3-4.6,3.9c-1.4,1.6-2.5,3.5-3.6,5.6
			c-1,2.2-1.9,4.4-2.5,6.8c-0.7,2.4-1.2,4.8-1.5,7.1c-0.3,2.4-0.5,4.6-0.5,6.8c0,3.8,0.6,6.6,1.9,8.5c1.2,1.9,3.2,2.9,5.9,2.9
			c2.2,0,4.4-0.7,6.7-2c2.3-1.3,4.4-3.1,6.4-5.3c2-2.2,3.7-4.8,5.2-7.8c1.5-3,2.6-6.2,3.3-9.6L600.6,121.1z"/>
		<path class="st0" d="M647.2,167.4c-0.1,0.5-0.3,0.9-0.7,1.3s-0.9,0.7-1.7,0.9c-0.8,0.2-1.8,0.4-3,0.6c-1.2,0.1-2.7,0.2-4.5,0.2
			c-1.8,0-3.3-0.1-4.5-0.2c-1.2-0.1-2.1-0.3-2.7-0.6c-0.7-0.2-1.1-0.6-1.3-0.9c-0.2-0.4-0.2-0.8-0.1-1.3l13.1-66.1
			c0.1-0.5,0.3-0.9,0.7-1.3s0.9-0.7,1.7-1c0.8-0.3,1.8-0.5,3-0.6c1.2-0.1,2.7-0.2,4.6-0.2c1.8,0,3.3,0.1,4.5,0.2
			c1.2,0.1,2.1,0.4,2.7,0.6c0.7,0.3,1.1,0.6,1.3,1c0.2,0.4,0.2,0.8,0.1,1.3L647.2,167.4z M666.3,78.9c-0.3,1.8-0.8,3.4-1.4,4.6
			c-0.6,1.3-1.4,2.3-2.4,3c-1,0.8-2.2,1.3-3.6,1.6c-1.4,0.3-3.2,0.5-5.3,0.5c-2.1,0-3.8-0.2-5.1-0.5c-1.3-0.3-2.3-0.9-3-1.6
			c-0.7-0.8-1.1-1.8-1.2-3c-0.1-1.3,0-2.8,0.4-4.6c0.3-1.8,0.8-3.3,1.4-4.5c0.6-1.2,1.4-2.3,2.4-3c1-0.8,2.2-1.4,3.6-1.7
			c1.4-0.3,3.2-0.5,5.3-0.5c2.1,0,3.8,0.2,5.1,0.5c1.3,0.3,2.3,0.9,3,1.7c0.7,0.8,1,1.8,1.1,3C666.8,75.6,666.7,77.2,666.3,78.9z"/>
		<path class="st0" d="M720.4,100.2c0,0.3,0,1-0.1,1.9c-0.1,0.9-0.2,1.9-0.4,3.1c-0.2,1.2-0.4,2.4-0.7,3.7c-0.3,1.3-0.6,2.4-1,3.5
			c-0.4,1.1-0.8,2-1.3,2.7c-0.5,0.7-1,1-1.5,1c-0.4,0-0.9-0.1-1.3-0.3c-0.4-0.2-0.9-0.3-1.5-0.5c-0.5-0.2-1.1-0.3-1.8-0.5
			c-0.6-0.2-1.4-0.3-2.2-0.3c-1.7,0-3.5,0.6-5.4,1.9c-1.9,1.3-3.7,3-5.5,5.1c-1.7,2.1-3.3,4.6-4.6,7.3c-1.4,2.8-2.3,5.7-2.9,8.8
			l-5.9,29.8c-0.1,0.5-0.3,0.9-0.7,1.3s-0.9,0.7-1.7,0.9c-0.8,0.2-1.8,0.4-3,0.6c-1.2,0.1-2.7,0.2-4.5,0.2c-1.8,0-3.3-0.1-4.5-0.2
			c-1.2-0.1-2.1-0.3-2.7-0.6c-0.7-0.2-1.1-0.6-1.3-0.9c-0.2-0.4-0.2-0.8-0.1-1.3l13.2-66.3c0.1-0.5,0.3-0.9,0.7-1.3
			c0.3-0.4,0.9-0.7,1.5-0.9c0.7-0.2,1.5-0.4,2.6-0.5c1.1-0.1,2.3-0.2,3.8-0.2c1.5,0,2.8,0.1,3.7,0.2c1,0.1,1.7,0.3,2.3,0.5
			c0.5,0.2,0.9,0.5,1.1,0.9c0.2,0.4,0.2,0.8,0.1,1.3l-2.1,10.5c1.2-2.1,2.6-4.1,4.1-5.9c1.6-1.8,3.2-3.3,5-4.6
			c1.8-1.3,3.6-2.3,5.5-3.1s3.7-1.1,5.6-1.1c0.7,0,1.5,0,2.3,0.1c0.8,0.1,1.5,0.2,2.2,0.4s1.3,0.3,1.8,0.6c0.5,0.2,0.9,0.5,1.2,0.7
			C720.2,99.1,720.4,99.5,720.4,100.2z"/>
		<path class="st0" d="M786.7,115.8c0,3.6-0.8,6.8-2.4,9.6c-1.6,2.8-4.1,5.3-7.5,7.3c-3.4,2.1-7.7,3.6-12.9,4.7
			c-5.2,1.1-11.4,1.6-18.7,1.6h-6.8c-0.2,1.1-0.3,2.3-0.4,3.4c-0.1,1.1-0.1,2.1-0.1,3.1c0,4,1,7,3.1,9.1c2.1,2,5.4,3,10,3
			c3.3,0,6.2-0.2,8.8-0.7c2.6-0.5,4.9-1,6.8-1.6c2-0.6,3.6-1.1,4.9-1.6c1.3-0.5,2.2-0.7,2.8-0.7s1,0.2,1.3,0.5
			c0.2,0.3,0.4,0.9,0.4,1.6c0,0.8-0.1,1.8-0.2,2.9c-0.1,1.1-0.4,2.2-0.6,3.2c-0.3,1.1-0.6,2.1-1,3c-0.4,0.9-0.9,1.7-1.4,2.2
			c-0.6,0.6-1.7,1.2-3.3,1.8c-1.6,0.6-3.5,1.1-5.7,1.6c-2.2,0.5-4.7,0.9-7.5,1.2c-2.8,0.3-5.6,0.5-8.5,0.5c-4.8,0-8.9-0.5-12.4-1.5
			c-3.5-1-6.5-2.5-8.9-4.5c-2.4-2-4.2-4.6-5.3-7.8s-1.8-6.9-1.8-11.2c0-3.3,0.3-6.9,0.9-10.7c0.6-3.8,1.6-7.5,3-11.2
			c1.4-3.7,3.2-7.2,5.3-10.6c2.2-3.4,4.8-6.3,7.9-8.9c3.1-2.5,6.7-4.6,10.7-6.1c4.1-1.5,8.7-2.3,13.9-2.3c4.5,0,8.4,0.5,11.6,1.6
			c3.2,1.1,5.9,2.5,8,4.2c2.1,1.8,3.6,3.8,4.6,6C786.2,111.1,786.7,113.4,786.7,115.8z M768.4,117.2c0-2-0.8-3.6-2.3-4.9
			c-1.6-1.3-3.8-2-6.8-2c-2.5,0-4.7,0.4-6.6,1.3c-2,0.9-3.7,2.1-5.2,3.6c-1.5,1.5-2.8,3.3-3.8,5.3c-1.1,2.1-1.9,4.2-2.6,6.6h6.2
			c4,0,7.3-0.3,9.9-0.8c2.7-0.5,4.8-1.2,6.5-2.1s2.8-1.9,3.6-3.2C768,119.8,768.4,118.5,768.4,117.2z"/>
		<path class="st0" d="M852.1,105.6c0,1.1-0.1,2.4-0.4,3.9c-0.3,1.4-0.6,2.8-1.1,4.1c-0.4,1.3-1,2.4-1.7,3.2
			c-0.7,0.9-1.4,1.3-2.2,1.3c-0.7,0-1.5-0.3-2.2-0.9c-0.7-0.6-1.5-1.3-2.6-2c-1-0.7-2.3-1.4-3.8-2c-1.5-0.6-3.5-0.9-5.9-0.9
			c-2.6,0-4.9,0.6-6.9,1.7c-2,1.1-3.8,2.6-5.3,4.4c-1.5,1.8-2.8,3.9-3.7,6.2c-1,2.3-1.8,4.6-2.4,7c-0.6,2.4-1.1,4.6-1.4,6.8
			c-0.3,2.2-0.4,4-0.4,5.6c0,4,0.9,7.1,2.6,9.1c1.8,2.1,4.5,3.1,8.3,3.1c2.8,0,5.1-0.4,7.1-1.1c2-0.7,3.7-1.5,5.1-2.4
			c1.4-0.9,2.6-1.6,3.6-2.3c1-0.7,1.9-1,2.8-1c0.5,0,0.9,0.2,1.1,0.7s0.3,1.1,0.3,1.9c0,0.8-0.1,1.9-0.3,3.2
			c-0.2,1.3-0.5,2.5-0.8,3.8c-0.3,1.3-0.7,2.5-1.1,3.6c-0.4,1.1-1,2-1.6,2.6c-0.7,0.6-1.7,1.4-3.2,2.2c-1.4,0.8-3.1,1.5-5,2.2
			c-1.9,0.6-3.9,1.2-6.1,1.6c-2.2,0.4-4.5,0.6-6.9,0.6c-8.5,0-14.8-2.1-19-6.4c-4.2-4.3-6.3-10.6-6.3-19c0-3,0.3-6.3,0.9-9.9
			c0.6-3.6,1.5-7.2,2.8-10.9c1.3-3.6,3-7.2,5-10.6c2.1-3.4,4.6-6.4,7.5-9.1c3-2.6,6.4-4.7,10.3-6.3c3.9-1.6,8.4-2.4,13.5-2.4
			c2,0,3.9,0.1,5.8,0.4s3.6,0.7,5.2,1.2c1.6,0.5,3,1.1,4.2,1.8c1.2,0.7,2.1,1.3,2.7,1.9c0.6,0.6,1,1.1,1.2,1.5
			C852,104.4,852.1,104.9,852.1,105.6z"/>
		<path class="st0" d="M907,101.9c0,0.5,0,1.1-0.1,1.9c-0.1,0.8-0.2,1.6-0.4,2.5c-0.2,0.9-0.4,1.8-0.7,2.7s-0.6,1.7-1,2.4
			c-0.4,0.7-0.8,1.3-1.3,1.8c-0.5,0.5-1,0.7-1.5,0.7h-14.5l-6.2,31.1c-0.1,0.7-0.3,1.6-0.4,2.6c-0.1,1-0.2,1.8-0.2,2.5
			c0,2,0.5,3.4,1.4,4.3c0.9,0.9,2.4,1.4,4.5,1.4c1.2,0,2.2-0.1,3-0.3c0.8-0.2,1.6-0.4,2.2-0.6c0.6-0.2,1.2-0.4,1.6-0.6
			c0.4-0.2,0.9-0.3,1.3-0.3c0.4,0,0.7,0.2,1,0.6c0.3,0.4,0.4,1,0.4,1.8c0,0.9-0.1,2-0.3,3.2c-0.2,1.2-0.5,2.3-0.8,3.5
			c-0.3,1.1-0.7,2.1-1.1,3c-0.4,0.9-0.8,1.6-1.3,2s-1.1,0.9-2,1.3c-0.9,0.4-1.9,0.7-3.2,1c-1.2,0.3-2.5,0.5-3.9,0.7
			c-1.4,0.2-2.8,0.3-4.2,0.3c-3,0-5.6-0.3-7.8-0.9c-2.3-0.6-4.1-1.6-5.7-2.9c-1.5-1.3-2.7-3-3.5-5.1c-0.8-2.1-1.2-4.6-1.2-7.6
			c0-0.5,0-1.2,0.1-1.9c0-0.7,0.1-1.5,0.3-2.3c0.1-0.8,0.2-1.6,0.4-2.4c0.1-0.8,0.3-1.5,0.4-2.2l6.5-32.3h-8c-0.6,0-1.1-0.2-1.4-0.6
			c-0.3-0.4-0.4-1.2-0.4-2.4c0-0.8,0.1-1.9,0.3-3.3c0.2-1.4,0.5-2.7,0.9-4c0.4-1.3,0.9-2.4,1.6-3.4c0.6-0.9,1.4-1.4,2.3-1.4h7.9
			l3-14.8c0.1-0.5,0.3-0.9,0.7-1.3c0.4-0.4,0.9-0.7,1.7-1c0.8-0.3,1.8-0.5,3-0.6c1.2-0.1,2.7-0.2,4.6-0.2c1.8,0,3.3,0.1,4.5,0.2
			c1.2,0.1,2.1,0.3,2.7,0.6c0.6,0.3,1.1,0.6,1.3,1c0.2,0.4,0.3,0.8,0.2,1.3l-3,14.8h14.3c0.8,0,1.4,0.3,1.7,0.8
			C906.9,100,907,100.8,907,101.9z"/>
	</g>
</g>
</svg>
