<?xml version="1.0" encoding="utf-8"?>
<!-- Generator: Adobe Illustrator 20.0.0, SVG Export Plug-In . SVG Version: 6.00 Build 0)  -->
<svg version="1.1" id="Vrstva_1" xmlns="http://www.w3.org/2000/svg" xmlns:xlink="http://www.w3.org/1999/xlink" x="0px" y="0px"
	 width="900px" height="2500px" viewBox="0 0 900 2500" style="enable-background:new 0 0 900 2500;" xml:space="preserve">
<style type="text/css">
	.st0{fill:#4E4D4D;stroke:#4E4D4D;stroke-width:2;stroke-miterlimit:10;}
	.st1{fill:#FFFFFF;}
	.st2{fill:#E7E6E6;}
	.st3{fill:#8EC045;}
	.st4{fill:#CDCCCC;}
	.st5{fill:none;stroke:#000000;stroke-width:2.5;stroke-miterlimit:10;}
	.st6{fill:none;stroke:#000000;stroke-width:7.5;stroke-miterlimit:10;}
</style>
<g id="Gfills_1_">
	<rect class="st0" width="900" height="2500"/>
	<rect x="112.7" y="210.1" class="st1" width="661.6" height="2089.9"/>
</g>
<g id="Gcontrol">
	<rect id="Place401" x="562.3" y="544.6" class="st2" width="204.6" height="104.3"/>
	<rect id="Place402" x="562.3" y="651.4" class="st2" width="204.6" height="107.7"/>
	<rect id="Place403" x="562.3" y="761.6" class="st2" width="204.6" height="107"/>
	<rect id="Place404" x="562.3" y="871.1" class="st2" width="204.6" height="107"/>
	<rect id="Place405" x="562.3" y="980.6" class="st2" width="204.6" height="108"/>
	<rect id="Place406" x="562.3" y="1091.1" class="st2" width="204.6" height="107"/>
	<rect id="Place407" x="562.3" y="1200.6" class="st2" width="204.6" height="194.3"/>
	<rect id="Place408" x="120.2" y="217.6" class="st2" width="206.8" height="102.4"/>
	<rect id="Place409" x="120.2" y="322.4" class="st2" width="206.8" height="107.7"/>
	<rect id="Place410" x="120.2" y="432.6" class="st2" width="206.8" height="106.9"/>
	<rect id="Place411" x="120.2" y="542" class="st2" width="206.8" height="108.2"/>
	<rect id="Place412" x="120.2" y="652.7" class="st2" width="206.8" height="106.7"/>
	<rect id="Place413" x="120.2" y="761.8" class="st2" width="206.8" height="107"/>
	<rect id="Place414" x="120" y="871.3" class="st2" width="206.8" height="107"/>
	<rect id="Place415" x="120" y="980.8" class="st2" width="206.8" height="108"/>
	<rect id="Place416" x="120.2" y="1091.3" class="st2" width="206.8" height="107"/>
	<rect id="Place417" x="120" y="1200.8" class="st2" width="206.8" height="106.8"/>
	<rect id="Place418" x="120" y="1310.1" class="st2" width="206.8" height="107.2"/>
	<rect id="Place420" x="129.4" y="1580.6" transform="matrix(0.8668 -0.4986 0.4986 0.8668 -783.7427 329.6945)" class="st2" width="191.9" height="102.9"/>
	<rect id="Place421" x="129.5" y="1699.8" transform="matrix(0.8668 -0.4986 0.4986 0.8668 -842.4794 344.9015)" class="st2" width="189.9" height="99.6"/>
	<rect id="Place422" x="130" y="1814" transform="matrix(0.8668 -0.4986 0.4986 0.8668 -899.4282 360.9723)" class="st2" width="192.1" height="100.5"/>
	<rect id="Place423" x="129.3" y="1930.7" transform="matrix(0.8668 -0.4986 0.4986 0.8668 -958.3013 376.3397)" class="st2" width="192.2" height="102.9"/>
	<rect id="Place425" x="120.2" y="2189.3" class="st2" width="206.8" height="103.2"/>
	<rect id="Place426" x="593.5" y="2188.9" class="st2" width="173.4" height="103.6"/>
	<rect id="Place424" x="120.2" y="2078.5" class="st2" width="206.8" height="106.7"/>
	<rect id="Place419" x="127.9" y="1460" transform="matrix(0.8668 -0.4986 0.4986 0.8668 -723.8371 312.9039)" class="st2" width="191.9" height="102.9"/>
</g>
<g id="Exit">
	<circle id="Exit_1_" class="st3" cx="506.9" cy="1465" r="46.5"/>
</g>
<g id="Level-1">
	<circle class="st4" cx="660.1" cy="1938.4" r="46.5"/>
</g>
<g id="Level-1_1_">
	<circle class="st4" cx="664.6" cy="296.1" r="46.5"/>
</g>
<g id="Gwalls">
	<rect x="261.8" y="756.8" width="65.2" height="7.5"/>
	<rect x="261.1" y="2071.2" width="65.9" height="7.5"/>
	<rect x="261.8" y="975.8" width="65.2" height="7.5"/>
	<rect x="261.8" y="1195.8" width="65.2" height="7.5"/>
	<rect x="562.3" y="756.6" width="65.2" height="7.5"/>
	<rect x="562.3" y="537.1" width="204.6" height="7.5"/>
	<rect x="112.7" y="210.1" width="661.6" height="7.5"/>
	<rect x="562.3" y="648.9" width="204.6" height="2.5"/>
	<rect x="562.3" y="759.1" width="204.6" height="2.5"/>
	<rect x="562.3" y="868.6" width="204.6" height="2.5"/>
	<rect x="562.3" y="978.1" width="204.6" height="2.5"/>
	<rect x="562.3" y="1088.6" width="204.6" height="2.5"/>
	<rect x="562.3" y="1198.1" width="204.6" height="2.5"/>
	<rect x="119.8" y="650.2" width="207.2" height="2.5"/>
	<rect x="119.8" y="539.5" width="207.2" height="2.5"/>
	<rect x="119.8" y="430.1" width="207.2" height="2.5"/>
	<rect x="119.8" y="319.9" width="207.2" height="2.5"/>
	<rect x="119.8" y="759.4" width="207.2" height="2.5"/>
	<rect x="119.8" y="868.9" width="207.2" height="2.5"/>
	<rect x="119.8" y="978.4" width="207.2" height="2.5"/>
	<rect x="119.8" y="1088.9" width="207.2" height="2.5"/>
	<rect x="119.8" y="1198.4" width="207.2" height="2.5"/>
	<rect x="120.2" y="1307.7" width="206.8" height="2.5"/>
	<rect x="120.2" y="2186.8" width="206.8" height="2.5"/>
	<rect x="120.2" y="2076.2" width="206.8" height="2.5"/>
	<rect x="120.2" y="1417.3" width="206.8" height="2.5"/>
	<rect x="641.8" y="1460.1" width="68.8" height="2.5"/>
	<rect x="710.5" y="1402.4" width="2.5" height="118"/>
	<rect x="700.4" y="1402.4" width="2.5" height="118"/>
	<rect x="691" y="1402.4" width="2.5" height="118"/>
	<rect x="680.9" y="1402.4" width="2.5" height="118"/>
	<rect x="670.9" y="1402.4" width="2.5" height="118"/>
	<rect x="660.8" y="1402.3" width="2.5" height="118"/>
	<rect x="649.5" y="1402.4" width="2.5" height="118"/>
	<rect x="639.3" y="1402.3" width="2.5" height="118"/>
	<rect x="564.9" y="1546.9" width="2.5" height="37"/>
	<rect x="564.8" y="1630.9" width="2.5" height="37"/>
	<rect x="564.8" y="1715.9" width="2.5" height="37"/>
	<rect x="505" y="1778" width="34.6" height="2.5"/>
	<rect x="564.9" y="1548.5" width="2.5" height="37"/>
	<rect x="495.2" y="1522.8" width="37" height="2.5"/>
	<rect x="568.9" y="373.6" width="205.5" height="25.2"/>
	<rect x="562.3" y="2016.7" width="212.1" height="25.2"/>
	<rect x="261.7" y="427.6" width="40.5" height="7.5"/>
	<rect x="261.7" y="537" width="40.5" height="7.5"/>
	<rect x="562.3" y="975.6" width="65.2" height="7.5"/>
	<rect x="562.3" y="1195.6" width="65.2" height="7.5"/>
	<rect x="234.8" y="1414.8" width="65.2" height="7.5"/>
	<rect x="276.5" y="1646.4" transform="matrix(0.866 -0.5 0.5 0.866 -785.3218 369.4564)" width="40.5" height="7.5"/>
	<rect x="277.9" y="1877" transform="matrix(0.866 -0.5 0.5 0.866 -900.4313 401.053)" width="40.5" height="7.5"/>
	<rect x="562.3" y="1394.9" width="204.6" height="7.5"/>
	<rect x="664.6" y="1527.9" width="7.5" height="247.7"/>
	<rect x="766.8" y="537.1" width="7.5" height="990.8"/>
	<rect x="766.8" y="2181.4" width="7.5" height="118.6"/>
	<rect x="562.4" y="1402.4" width="7.5" height="145.9"/>
	<rect x="480.7" y="1520.3" width="7.5" height="262.9"/>
	<rect x="562.3" y="1584.5" width="7.5" height="46.5"/>
	<rect x="562.3" y="1667.9" width="7.5" height="48"/>
	<rect x="562.3" y="1752.9" width="7.5" height="22.6"/>
	<rect x="488.2" y="1775.5" width="16.8" height="7.5"/>
	<rect x="562.1" y="1853.4" width="212.3" height="7.5"/>
	<rect x="593.5" y="2181.4" width="173.4" height="7.5"/>
	<rect x="593.5" y="2292.5" width="173.4" height="7.5"/>
	<rect x="112.7" y="217.5" width="7.5" height="2082.6"/>
	<rect x="112.4" y="2292.5" width="317.5" height="7.5"/>
	<rect x="539.6" y="1775.5" width="234.8" height="7.5"/>
	<rect x="562.3" y="1604.5" width="102.3" height="7.5"/>
	<rect x="562.3" y="1690" width="102.3" height="7.5"/>
	<rect x="639.3" y="1520.4" width="127.6" height="7.5"/>
	<rect x="480.7" y="1520.4" width="14.5" height="7.5"/>
	<rect x="532.2" y="1520.4" width="30.1" height="7.5"/>
	<rect x="576" y="1621.3" class="st5" width="67.8" height="59"/>
	<rect x="576" y="1707" class="st5" width="67.8" height="59"/>
	<path class="st6" d="M484.4,1783c0,40.9,34.8,74.1,77.9,74.1"/>
	<rect x="546.5" y="226.9" width="227.9" height="2.5"/>
	<path class="st5" d="M528.9,217.6c0,5.8,7.9,10.6,17.6,10.6"/>
	<rect x="587.5" y="362.3" width="186.8" height="2.5"/>
	<path class="st5" d="M570.1,374c0-5.8,7.9-10.6,17.6-10.6"/>
	<rect x="561.2" y="1869.5" width="213.2" height="2.5"/>
	<rect x="581" y="2004.8" width="193.4" height="2.5"/>
	<path class="st5" d="M563.5,2016.7c0-5.8,7.9-10.6,17.6-10.6"/>
	<path class="st5" d="M470.2,1779.3c0,50.6,40.8,91.5,91.2,91.5"/>
	<path class="st5" d="M470.2,1779.3c0-11.8,4.7-21.3,10.5-21.3"/>
	<rect x="734.5" y="1345.5" width="32.4" height="49.4"/>
	<rect x="150.1" y="2026.8" transform="matrix(0.866 -0.5 0.5 0.866 -980.7188 396.0467)" width="197.2" height="2.5"/>
	<rect x="102" y="1920.9" transform="matrix(0.866 -0.5 0.5 0.866 -930.7416 370.7292)" width="248.9" height="2.5"/>
	<rect x="99.1" y="1806.3" transform="matrix(0.866 -0.5 0.5 0.866 -873.8325 353.9276)" width="248.9" height="2.5"/>
	<rect x="102" y="1689.5" transform="matrix(0.866 -0.5 0.5 0.866 -815.0472 339.7299)" width="248.9" height="2.5"/>
	<rect x="102" y="1570.4" transform="matrix(0.866 -0.5 0.5 0.866 -755.4987 323.7744)" width="248.9" height="2.5"/>
	<rect x="103.5" y="1466.7" transform="matrix(0.866 -0.5 0.5 0.866 -707.1943 296.6567)" width="193" height="2.5"/>
</g>
</svg>
