<?xml version="1.0" encoding="utf-8"?>
<!-- Generator: Adobe Illustrator 20.0.0, SVG Export Plug-In . SVG Version: 6.00 Build 0)  -->
<svg version="1.1" id="Layer_1" xmlns="http://www.w3.org/2000/svg" xmlns:xlink="http://www.w3.org/1999/xlink" x="0px" y="0px"
	 width="900px" height="1350px" viewBox="0 0 900 1350" style="enable-background:new 0 0 900 1350;" xml:space="preserve">
<style type="text/css">
	.st0{fill:#808080;}
	.st1{fill:#FF0000;}
	.st2{fill:#E6E6E6;}
	.st3{fill:none;stroke:#000000;stroke-width:0.25;stroke-miterlimit:10;}
	.st4{fill:#CCCCCC;}
	.st5{fill:none;stroke:#000000;stroke-width:3;stroke-miterlimit:10;}
	.st6{fill:none;stroke:#000000;stroke-miterlimit:10;}
	.st7{fill:#8CC63F;}
	.st8{fill:#B3B3B3;stroke:#B3B3B3;stroke-miterlimit:10;}
</style>
<g id="IMGback">
	<polyline class="st0" points="857.6,1079.1 816.9,146.4 59,127.1 63.2,1114.8 0,1118.5 0,0 900,0 900,1076.4 857.9,1079.5 	"/>
</g>
<g id="Gcontrol">
	<polygon id="Gate" class="st1" points="835.5,1073.7 693.9,1080.2 694.1,1085.9 835.7,1080.2 	"/>
	<rect id="Place16" x="454.5" y="534.2" class="st2" width="169.9" height="85.9"/>
	<rect id="Place15" x="454.5" y="620" class="st2" width="169.9" height="85.9"/>
	<rect id="Place14" x="454.5" y="705.9" class="st2" width="169.9" height="85.9"/>
	<rect id="Place13" x="454.5" y="790.9" class="st2" width="169.9" height="100"/>
	<rect id="Place12" x="80.2" y="766.4" class="st2" width="172.3" height="124.9"/>
	<rect id="Place11" x="80.2" y="680.5" class="st2" width="172.3" height="86.5"/>
	<rect id="Place10" x="80" y="595" class="st2" width="172.3" height="86.5"/>
	<rect id="Place09" x="80" y="509.1" class="st2" width="172.3" height="86.5"/>
	<rect id="Place08" x="80" y="423.5" class="st2" width="172.3" height="86.5"/>
	<rect id="Place07" x="80.2" y="329.2" class="st2" width="172.3" height="94.9"/>
	<polygon id="Place06" class="st2" points="364.5,154.4 372.3,334 252.6,329.2 244.5,150.2 	"/>
	<polygon id="Place05" class="st2" points="459.5,335.8 372.3,334 364.5,154.4 449.7,156.5 	"/>
	<polygon id="Place04" class="st2" points="544.2,337.7 459.5,335.8 449.7,156.5 536.2,158.5 	"/>
	<polygon id="Place03" class="st2" points="628.9,339.8 544.2,337.7 536.2,158.5 621.4,160.5 	"/>
	<polygon id="Place02" class="st2" points="628.9,339.8 621.4,160.5 706.7,162.5 714.7,342 	"/>
	<polygon id="Place01" class="st2" points="805,164.8 813.6,343.7 714.7,342 706.7,162.5 	"/>
	<polygon id="LevelBounds" class="st3" points="857.9,1079.5 816.9,146.4 59,127.1 63.9,1114.9 	"/>
</g>
<g id="Ggraphic">
	<g id="Gfills">
		<polygon class="st4" points="244.5,150.2 252.6,329.2 74.8,329.2 74.8,144.1 		"/>
		<path class="st4" d="M623.9,890.3h62.9c0,0-2.4-81.6-6.7-110.1c-4.2-28.4-28.8-87.9-36.5-120.1c-19-80.2-19.1-126-19.1-126
			L623.9,890.3z"/>
	</g>
	<g id="GspaceDIVIDER">
		<line class="st5" x1="706.7" y1="162.5" x2="715.3" y2="342"/>
		<line class="st5" x1="621.4" y1="160.5" x2="629.4" y2="339.8"/>
		<line class="st5" x1="536.2" y1="158.5" x2="544.8" y2="337.7"/>
		<line class="st5" x1="449.7" y1="156.5" x2="458.9" y2="335.8"/>
		<line class="st5" x1="364.5" y1="154.4" x2="373" y2="334"/>
		<polyline class="st5" points="79.6,329.8 252.6,329.8 245.1,150.4 		"/>
		<line class="st5" x1="252.6" y1="424.1" x2="79.6" y2="424.1"/>
		<line class="st5" x1="252.6" y1="510" x2="79.6" y2="510"/>
		<line class="st5" x1="252.6" y1="595.9" x2="79.6" y2="595.9"/>
		<line class="st5" x1="252.6" y1="680.5" x2="79.6" y2="680.5"/>
		<line class="st5" x1="252.6" y1="766.4" x2="79.6" y2="766.4"/>
		<path class="st5" d="M454.5,793"/>
		<polyline class="st5" points="454.5,534.2 624.5,534.2 624.5,890.3 		"/>
		<line class="st5" x1="625.1" y1="620" x2="454.5" y2="620"/>
		<line class="st5" x1="625.1" y1="704.7" x2="454.5" y2="704.7"/>
		<line class="st5" x1="625.1" y1="791.8" x2="454.5" y2="791.8"/>
		<path class="st5" d="M624.5,534.2c0,0,5,77.9,23,138.5c13.5,45.7,24.6,74.3,32.7,107.6c10.3,42.3,6.7,110.1,6.7,110.1"/>
	</g>
	<g id="Gwalls_1_">
		<polygon points="694.1,1085.7 691.2,1008.9 686.8,1008.9 680.7,906.1 688,906.1 688.2,890.3 395.3,890.3 395.3,877 379.6,877 
			379.6,891.5 242.9,892.4 242.9,875.8 222.3,875.8 222.3,891.5 79.6,890.7 79.6,147.8 805,164.5 821,500.9 813.7,500.9 
			814.6,518.8 825.1,519.1 839.5,877.8 832.7,878.2 833,890.6 825.8,890.7 826.1,906.5 833.9,906.1 839.7,1058.7 834.9,1059.3 
			835.7,1080.2 858.2,1079.5 817.1,146.6 59.1,127.2 63.9,1114.7 		"/>
		<polygon class="st6" points="694.1,1085.9 691.2,1009.5 686.8,1009.5 680.7,906.7 688,906.7 688.2,890.9 395.9,890.9 395.9,877.6 
			380.2,877.6 380.2,891.5 243.5,892.4 243.5,876.4 223,876.4 223,891.5 80.2,890.7 80.2,147.8 805.3,164.8 821,501.5 813.7,501.5 
			814.6,519.1 825.1,519.3 839.5,877.9 832.7,878.2 833,890.6 825.8,890.7 826.1,906.5 833.9,906.1 839.7,1058.7 834.9,1059.3 
			835.7,1080.2 858.2,1079.5 817.1,146.6 59.1,127.2 63.9,1114.9 		"/>
		<polygon points="694.1,1085.7 691.2,1008.9 686.8,1008.9 680.7,906.1 688,906.1 688.2,890.3 395.3,890.3 395.3,877 379.6,877 
			379.6,891.5 242.9,892.4 242.9,875.8 222.3,875.8 222.3,891.5 79.6,890.7 79.6,147.8 805,164.5 821,500.9 813.7,500.9 
			814.6,518.8 825.1,519.1 839.5,877.8 832.7,878.2 833,890.6 825.8,890.7 826.1,906.5 833.9,906.1 839.7,1058.7 834.9,1059.3 
			835.7,1080.2 858.2,1079.5 817.1,146.6 59.1,127.2 63.9,1114.7 		"/>
	</g>
</g>
<g id="Exit">
	<circle id="Exit_1_" class="st7" cx="764.8" cy="1023.3" r="37.7"/>
</g>
<g id="IMGback_1_">
	<polyline id="Outside" class="st8" points="858.2,1079.5 900,1076.4 900,1350 0,1350 0,1118.5 858.2,1079.5 	"/>
</g>
</svg>
