<?xml version="1.0" encoding="utf-8"?>
<!-- Generator: Adobe Illustrator 21.0.2, SVG Export Plug-In . SVG Version: 6.00 Build 0)  -->
<svg version="1.1" xmlns="http://www.w3.org/2000/svg" xmlns:xlink="http://www.w3.org/1999/xlink" x="0px" y="0px"
	 viewBox="0 0 708.7 566.9" style="enable-background:new 0 0 708.7 566.9;" xml:space="preserve">
<style type="text/css">
	.st0{fill:#4F4E4E;}
	.st1{fill:#B5B4B4;}
	.st2{fill:#E8E6E6;}
	.st3{fill:none;stroke:#000000;stroke-width:0.25;stroke-linecap:square;stroke-miterlimit:10;}
	.st4{fill:#8FC047;}
	.st5{fill:#CECCCC;}
	.st6{fill:none;stroke:#B8B7B7;stroke-width:4.164348e-02;stroke-linecap:square;stroke-miterlimit:10;}
	.st7{fill:none;stroke:#000000;stroke-width:0.1;stroke-miterlimit:10;}
</style>
<g id="Gfills">
	<polygon class="st0" points="0,0 708.7,0 708.7,566.9 0,566.9 132.4,517.4 621,509.1 601.8,241.1 546.1,245.7 530.1,52.4 83,72.1 
		132.4,517.4 0,566.9 	"/>
	<polygon class="st1" points="86.6,75.4 142.5,72.4 144.3,110.3 90.8,116.4 	"/>
	<polygon class="st1" points="182.3,363.4 218,359.4 221.1,387.4 219.6,387.6 221.2,402 187,405.7 	"/>
	<polygon class="st1" points="132,487.4 166.2,483.7 166.7,513.9 166,513.9 135,514.4 	"/>
	
		<rect x="116.2" y="321.1" transform="matrix(0.9939 -0.1104 0.1104 0.9939 -37.2531 15.5966)" class="st1" width="12.1" height="46.1"/>
	<polygon class="st1" points="127.3,320.9 141.2,319.3 142.2,328 142.6,329.6 144.5,329.3 148.3,363.1 132.2,364.8 	"/>
	<polygon class="st1" points="302.9,379.4 248.4,385.5 247.3,385.2 236.1,386.4 234.7,387.5 221.3,388.9 222.9,403.1 236.4,402.9 
		238,403.7 249.3,403.5 250.9,407.8 306,406.8 	"/>
	<polygon class="st1" points="242,146.4 233.9,146.7 235.4,179.9 242.1,179.6 242.1,177.2 243.4,177.1 	"/>
	<path class="st1" d="M233.1,143.9c0,0-64.2,2.8-64.1,2.8c0,0-1.4,2.5-1.4,2.5l7.8,69.8l18.3-0.2l41.7-4.3l2.1-2.7l-2.6-31.9
		L233.1,143.9z"/>
	<polygon class="st1" points="430.8,134.4 416.9,135.1 418.2,166.6 450.9,165.2 449.6,134.7 432.8,135.4 	"/>
	<polygon class="st1" points="451.1,133.5 456.7,133.3 456.7,134.2 460.1,134.1 460,130.3 466.5,130 468,129.4 488.9,128.5 
		490.9,133.9 491.3,143.5 492.2,147.2 494.1,166.9 469.8,168 468.2,168 452.6,168.7 451.7,147.8 451.1,134.5 	"/>
	<polygon class="st1" points="448,170.8 493,168.8 494.8,190.1 492.7,194.8 467.7,196.9 451.7,198.2 449,193.9 	"/>
	<polygon class="st1" points="577.1,246.1 599,244.3 601.1,273.1 584.1,274.5 583.4,267.1 578.9,267.4 	"/>
	<polygon class="st1" points="601.4,277.2 580.6,278.9 588.3,371.4 608.1,369.8 	"/>
	<polygon class="st1" points="215.2,291.9 242.6,288.8 293.8,284.5 295.1,284.9 380.7,277.9 455.3,271.7 456.5,271 500.9,267.4 
		501.1,267.4 502.5,283.2 500.2,285.3 459.3,288.7 455.5,289 320,300.2 314.8,300.7 297.9,302.1 294.9,303.2 248.6,306.7 245.5,307 
		217.3,310.2 	"/>
	<polygon class="st1" points="586.1,367 571.5,368.2 575.8,420.5 592.9,419.1 593.1,421.7 611.7,420.1 608.2,371.6 586.9,373.4 	"/>
	<polygon class="st1" points="498.3,403.6 494.8,361.4 522,359.1 507.8,331.8 504.1,331.8 478.8,333.9 442.4,336.9 416.2,339.2 
		371.5,342.9 325,346.7 303,348.5 300.8,350.2 307,407.2 448,404.8 446.4,385 447.5,383.5 460.7,382.5 462.2,383.8 464,404.1 	"/>
	<polygon class="st1" points="570,369.2 561.6,369.9 561.5,369 555.9,369.4 556.5,376.2 554.3,376.4 557.9,419.6 559.9,421 
		574.2,419.8 	"/>
	<polyline class="st1" points="611.8,420.8 557.8,425.3 560.6,458.4 560.6,459.1 549.8,460 553.7,507.3 617.9,506.2 611.8,420.8 	
		"/>
</g>
<g id="Gcontrol">
	<polygon id="Place1" class="st2" points="577.5,267.8 544.6,270.5 542.9,248.8 575.8,246.1 	"/>
	<polygon id="Place2" class="st2" points="579.8,294.7 546.9,297.4 545.6,282.5 578.5,279.7 	"/>
	<polygon id="Place3" class="st2" points="581,309.5 548.1,312.3 546.9,297.4 579.7,294.6 	"/>
	<polygon id="Place4" class="st2" points="582.3,325.4 549.3,328.1 548.1,312.3 580.9,309.6 	"/>
	<polygon id="Place5" class="st2" points="583.7,342.1 550.8,344.8 549.4,328 582.3,325.4 	"/>
	<polygon id="Place6" class="st2" points="584.9,357 552,359.8 550.7,344.9 583.6,342.1 	"/>
	
		<rect id="Place7" x="494.3" y="404.6" transform="matrix(0.9999 -1.687535e-02 1.687535e-02 0.9999 -7.0347 8.5295)" class="st2" width="15.1" height="33"/>
	
		<rect id="Place8" x="477.8" y="404.9" transform="matrix(0.9999 -1.701364e-02 1.701364e-02 0.9999 -7.099 8.3175)" class="st2" width="15" height="33"/>
	
		<rect id="Place9" x="439.1" y="406" transform="matrix(0.9999 -1.701364e-02 1.701364e-02 0.9999 -7.1236 7.6595)" class="st2" width="15" height="33"/>
	
		<rect id="Place10" x="424.2" y="406.2" transform="matrix(0.9999 -1.701364e-02 1.701364e-02 0.9999 -7.1301 7.4053)" class="st2" width="15" height="33"/>
	
		<rect id="Place11" x="409.2" y="406.5" transform="matrix(0.9999 -1.701364e-02 1.701364e-02 0.9999 -7.1366 7.151)" class="st2" width="15" height="33"/>
	
		<rect id="Place12" x="391.8" y="406.8" transform="matrix(0.9999 -1.701364e-02 1.701364e-02 0.9999 -7.1445 6.8545)" class="st2" width="15" height="33"/>
	
		<rect id="Place13" x="376.8" y="407.1" transform="matrix(0.9999 -1.701364e-02 1.701364e-02 0.9999 -7.151 6.6003)" class="st2" width="15" height="33"/>
	
		<rect id="Place14" x="361.9" y="407.3" transform="matrix(0.9999 -1.701364e-02 1.701364e-02 0.9999 -7.1576 6.3455)" class="st2" width="15" height="33"/>
	
		<rect id="Place15" x="345.5" y="407.3" transform="matrix(0.9999 -1.701364e-02 1.701364e-02 0.9999 -7.1588 6.0663)" class="st2" width="15" height="33"/>
	
		<rect id="Place16" x="330.5" y="407.5" transform="matrix(0.9999 -1.701364e-02 1.701364e-02 0.9999 -7.1653 5.8115)" class="st2" width="15" height="33"/>
	
		<rect id="Place17" x="315.5" y="407.8" transform="matrix(0.9999 -1.701364e-02 1.701364e-02 0.9999 -7.1718 5.5567)" class="st2" width="15" height="33"/>
	
		<rect id="Place18" x="299" y="408.4" transform="matrix(0.9999 -1.701364e-02 1.701364e-02 0.9999 -7.184 5.2755)" class="st2" width="15" height="33"/>
	
		<rect id="Place19" x="284" y="408.6" transform="matrix(0.9999 -1.701364e-02 1.701364e-02 0.9999 -7.191 5.0212)" class="st2" width="15" height="33"/>
	
		<rect id="Place20" x="269.1" y="408.9" transform="matrix(0.9999 -1.701364e-02 1.701364e-02 0.9999 -7.1975 4.767)" class="st2" width="15" height="33"/>
	
		<rect id="Place21" x="251.6" y="409.2" transform="matrix(0.9999 -1.701364e-02 1.701364e-02 0.9999 -7.2055 4.4699)" class="st2" width="15" height="33"/>
	
		<rect id="Place22" x="221.7" y="409.7" transform="matrix(0.9999 -1.701364e-02 1.701364e-02 0.9999 -7.2185 3.9615)" class="st2" width="15" height="33"/>
	
		<rect id="Place23" x="204.6" y="410" transform="matrix(0.9999 -1.701364e-02 1.701364e-02 0.9999 -7.2258 3.6698)" class="st2" width="15" height="33"/>
	<polygon id="Place24" class="st2" points="549.4,507.5 534.4,507.6 534,474.6 549,474.4 	"/>
	<polygon id="Place25" class="st2" points="534.5,507.7 519.5,507.8 519.1,474.8 534,474.6 	"/>
	
		<rect id="Place26" x="502.4" y="474.7" transform="matrix(0.9999 -1.701364e-02 1.701364e-02 0.9999 -8.283 8.7467)" class="st2" width="15" height="33"/>
	
		<rect id="Place27" x="487.5" y="474.9" transform="matrix(0.9999 -1.701364e-02 1.701364e-02 0.9999 -8.2895 8.4919)" class="st2" width="15" height="33"/>
	
		<rect id="Place28" x="472.5" y="475.2" transform="matrix(0.9999 -1.701364e-02 1.701364e-02 0.9999 -8.296 8.2377)" class="st2" width="15" height="33"/>
	
		<rect id="Place29" x="456.6" y="475.5" transform="matrix(0.9999 -1.701364e-02 1.701364e-02 0.9999 -8.3037 7.9677)" class="st2" width="15" height="33"/>
	
		<rect id="Place30" x="440.1" y="475.8" transform="matrix(0.9999 -1.701364e-02 1.701364e-02 0.9999 -8.3105 7.6869)" class="st2" width="15" height="33"/>
	
		<rect id="Place31" x="425.2" y="476" transform="matrix(0.9999 -1.701364e-02 1.701364e-02 0.9999 -8.317 7.4322)" class="st2" width="15" height="33"/>
	
		<rect id="Place32" x="410.2" y="476.3" transform="matrix(0.9999 -1.701364e-02 1.701364e-02 0.9999 -8.3235 7.1779)" class="st2" width="15" height="33"/>
	
		<rect id="Place33" x="393.4" y="476.6" transform="matrix(0.9999 -1.701364e-02 1.701364e-02 0.9999 -8.3308 6.8917)" class="st2" width="15" height="33"/>
	
		<rect id="Place34" x="378.4" y="476.8" transform="matrix(0.9999 -1.701364e-02 1.701364e-02 0.9999 -8.3378 6.6375)" class="st2" width="15" height="33"/>
	
		<rect id="Place35" x="363.5" y="477.1" transform="matrix(0.9999 -1.701364e-02 1.701364e-02 0.9999 -8.3443 6.3833)" class="st2" width="15" height="33"/>
	
		<rect id="Place36" x="346.7" y="477.4" transform="matrix(0.9999 -1.701364e-02 1.701364e-02 0.9999 -8.3511 6.097)" class="st2" width="15" height="33"/>
	
		<rect id="Place37" x="331.7" y="477.6" transform="matrix(0.9999 -1.701364e-02 1.701364e-02 0.9999 -8.3576 5.8428)" class="st2" width="15" height="33"/>
	
		<rect id="Place38" x="316.8" y="477.9" transform="matrix(0.9999 -1.701364e-02 1.701364e-02 0.9999 -8.3641 5.5886)" class="st2" width="15" height="33"/>
	
		<rect id="Place39" x="300" y="478.2" transform="matrix(0.9999 -1.701364e-02 1.701364e-02 0.9999 -8.3719 5.3024)" class="st2" width="15" height="33"/>
	
		<rect id="Place40" x="285" y="478.4" transform="matrix(0.9999 -1.701364e-02 1.701364e-02 0.9999 -8.3784 5.0481)" class="st2" width="15" height="33"/>
	
		<rect id="Place41" x="270.1" y="478.7" transform="matrix(0.9999 -1.701364e-02 1.701364e-02 0.9999 -8.3849 4.7939)" class="st2" width="15" height="33"/>
	
		<rect id="Place42" x="253.2" y="478.9" transform="matrix(0.9999 -1.701364e-02 1.701364e-02 0.9999 -8.3917 4.5077)" class="st2" width="15" height="33"/>
	
		<rect id="Place43" x="238.3" y="479.2" transform="matrix(0.9999 -1.701364e-02 1.701364e-02 0.9999 -8.3982 4.2534)" class="st2" width="15" height="33"/>
	
		<rect id="Place44" x="223.4" y="479.5" transform="matrix(0.9999 -1.701364e-02 1.701364e-02 0.9999 -8.4047 3.9992)" class="st2" width="15" height="33"/>
	
		<rect id="Place45" x="206.5" y="479.8" transform="matrix(0.9999 -1.701364e-02 1.701364e-02 0.9999 -8.4126 3.713)" class="st2" width="15" height="33"/>
	
		<rect id="Place46" x="191.6" y="480" transform="matrix(0.9999 -1.701364e-02 1.701364e-02 0.9999 -8.4191 3.4588)" class="st2" width="15" height="33"/>
	
		<rect id="Place47" x="176.6" y="480.3" transform="matrix(0.9999 -1.701364e-02 1.701364e-02 0.9999 -8.4256 3.2045)" class="st2" width="15" height="33"/>
	
		<rect id="Place48" x="130.9" y="464.6" transform="matrix(0.9935 -0.1138 0.1138 0.9935 -52.9686 19.8522)" class="st2" width="33" height="18.5"/>
	<polygon id="Place49" class="st2" points="162.8,462.8 130,466.6 127.9,448.6 160.7,444.9 	"/>
	<polygon id="Place50" class="st2" points="160.7,444.9 127.9,448.5 125.9,430.1 158.8,426.4 	"/>
	
		<rect id="Place51" x="122.1" y="389.9" transform="matrix(0.9939 -0.11 0.11 0.9939 -42.8611 17.6524)" class="st2" width="33" height="14.9"/>
	
		<rect id="Place52" x="120.5" y="375" transform="matrix(0.9939 -0.11 0.11 0.9939 -41.2348 17.3835)" class="st2" width="33" height="14.9"/>
	
		<rect id="Place53" x="221.8" y="347.6" transform="matrix(0.9938 -0.1109 0.1109 0.9938 -38.9567 27.6629)" class="st2" width="14.9" height="33"/>
	
		<rect id="Place54" x="236.7" y="345.9" transform="matrix(0.9938 -0.1109 0.1109 0.9938 -38.6812 29.3026)" class="st2" width="14.9" height="33"/>
	
		<rect id="Place55" x="255.8" y="343.8" transform="matrix(0.9938 -0.1109 0.1109 0.9938 -38.3228 31.4162)" class="st2" width="14.9" height="33"/>
	
		<rect id="Place56" x="270.7" y="342.2" transform="matrix(0.9938 -0.1109 0.1109 0.9938 -38.0544 33.0564)" class="st2" width="14.9" height="33"/>
	
		<rect id="Place57_1_" x="285.6" y="340.6" transform="matrix(0.9938 -0.1109 0.1109 0.9938 -37.784 34.696)" class="st2" width="14.9" height="33"/>
	<polygon id="Place58_1_" class="st2" points="330,332.5 297.1,335.2 295.8,320.3 328.7,317.6 	"/>
	<polygon id="Place59" class="st2" points="328.8,317.6 295.8,320.4 294.6,305.5 327.5,302.7 	"/>
	
		<rect id="Place60" x="112.8" y="303.4" transform="matrix(0.9939 -0.11 0.11 0.9939 -33.4081 16.1116)" class="st2" width="33" height="14.9"/>
	
		<rect id="Place61" x="111.2" y="288.6" transform="matrix(0.9939 -0.11 0.11 0.9939 -31.7819 15.8391)" class="st2" width="33" height="14.9"/>
	
		<rect id="Place62" x="109.5" y="273.7" transform="matrix(0.9939 -0.11 0.11 0.9939 -30.1592 15.5668)" class="st2" width="33" height="14.9"/>
	
		<rect id="Place63" x="107.7" y="257" transform="matrix(0.9939 -0.11 0.11 0.9939 -28.331 15.2621)" class="st2" width="33" height="14.9"/>
	
		<rect id="Place64" x="106" y="242.1" transform="matrix(0.9939 -0.11 0.11 0.9939 -26.7083 14.9898)" class="st2" width="33" height="14.9"/>
	
		<rect id="Place65" x="104.4" y="227.3" transform="matrix(0.9939 -0.11 0.11 0.9939 -25.0821 14.7173)" class="st2" width="33" height="14.9"/>
	
		<rect id="Place66" x="102.5" y="210.6" transform="matrix(0.9939 -0.11 0.11 0.9939 -23.2574 14.4128)" class="st2" width="33" height="14.9"/>
	
		<rect id="Place67" x="100.9" y="195.7" transform="matrix(0.9939 -0.11 0.11 0.9939 -21.6312 14.1403)" class="st2" width="33" height="14.9"/>
	
		<rect id="Place68" x="99.2" y="180.8" transform="matrix(0.9939 -0.11 0.11 0.9939 -20.005 13.8678)" class="st2" width="33" height="14.9"/>
	<polygon id="Place69" class="st2" points="131.1,177.2 98.5,180.8 96.9,165.9 129.4,162.3 	"/>
	
		<rect id="Place70" x="95.7" y="149.2" transform="matrix(0.9939 -0.11 0.11 0.9939 -16.5541 13.2908)" class="st2" width="33" height="14.9"/>
	
		<rect id="Place71" x="94" y="134.4" transform="matrix(0.9939 -0.11 0.11 0.9939 -14.9314 13.0185)" class="st2" width="33" height="14.9"/>
	
		<rect id="Place72" x="92.2" y="117.6" transform="matrix(0.9939 -0.11 0.11 0.9939 -13.0962 12.7134)" class="st2" width="33" height="14.9"/>
	
		<rect id="Place73" x="181.2" y="286.6" transform="matrix(0.9939 -0.11 0.11 0.9939 -31.1402 23.5232)" class="st2" width="33" height="14.9"/>
	
		<rect id="Place74" x="179.5" y="271.7" transform="matrix(0.9939 -0.11 0.11 0.9939 -29.5177 23.2474)" class="st2" width="33" height="14.9"/>
	<polygon id="Place75" class="st2" points="229,289.1 214.2,290.8 210.5,258 225.4,256.3 	"/>
	<polygon id="Place76" class="st2" points="243.9,287.5 229.1,289.2 225.4,256.4 240.3,254.7 	"/>
	
		<rect id="Place77" x="245.1" y="253.8" transform="matrix(0.9967 -8.091047e-02 8.091047e-02 0.9967 -21.0404 21.3245)" class="st2" width="15" height="33"/>
	
		<rect id="Place78" x="260" y="252.5" transform="matrix(0.9967 -8.091047e-02 8.091047e-02 0.9967 -20.8936 22.5272)" class="st2" width="15" height="33"/>
	
		<rect id="Place79" x="274.9" y="251.3" transform="matrix(0.9967 -8.091047e-02 8.091047e-02 0.9967 -20.7468 23.7272)" class="st2" width="15" height="33"/>
	
		<rect id="Place80" x="298.1" y="249.7" transform="matrix(0.9967 -8.091047e-02 8.091047e-02 0.9967 -20.5368 25.5962)" class="st2" width="15" height="33"/>
	
		<rect id="Place81" x="313" y="248.5" transform="matrix(0.9967 -8.091047e-02 8.091047e-02 0.9967 -20.3901 26.7963)" class="st2" width="15" height="33"/>
	
		<rect id="Place82" x="327.9" y="247.3" transform="matrix(0.9967 -8.091047e-02 8.091047e-02 0.9967 -20.2458 27.9991)" class="st2" width="15" height="33"/>
	<polygon id="Place83" class="st2" points="365.7,277.6 345,279.3 342.3,246.4 363,244.7 	"/>
	<polygon id="Place84" class="st2" points="381.5,276.2 365.7,277.6 363,244.7 378.9,243.3 	"/>
	
		<rect id="Place85" x="380.2" y="242.6" transform="matrix(0.9967 -8.091047e-02 8.091047e-02 0.9967 -19.698 32.2147)" class="st2" width="15" height="33"/>
	<polygon id="Place86" class="st2" points="412.2,273.7 396.4,275 393.8,242.1 409.5,240.8 	"/>
	<polygon id="Place87" class="st2" points="426.9,272.5 412.2,273.7 409.5,240.8 424.2,239.6 	"/>
	<polygon id="Place88" class="st2" points="441.5,271.3 426.8,272.5 424.1,239.6 438.8,238.4 	"/>
	<polygon id="Place89" class="st2" points="455.7,270.1 441.1,271.3 438.4,238.4 453.1,237.1 	"/>
	<polygon id="Place90" class="st2" points="471,268.8 455.7,270.1 453,237.1 468.2,235.9 	"/>
	<polygon id="Place91" class="st2" points="485.3,267.6 470.9,268.8 468.2,235.9 482.5,234.7 	"/>
	<polygon id="Place92" class="st2" points="500.5,266.4 485.2,267.6 482.5,234.7 497.7,233.5 	"/>
	
		<rect id="Place93" x="238" y="184.4" transform="matrix(0.9967 -8.091047e-02 8.091047e-02 0.9967 -15.4498 20.5169)" class="st2" width="15" height="33"/>
	
		<rect id="Place94" x="252.9" y="183.2" transform="matrix(0.9967 -8.091047e-02 8.091047e-02 0.9967 -15.3056 21.7197)" class="st2" width="15" height="33"/>
	
		<rect id="Place95" x="267.8" y="181.7" transform="matrix(0.9967 -8.075177e-02 8.075177e-02 0.9967 -15.0981 23.1505)" class="st2" width="21.8" height="33"/>
	
		<rect id="Place96" x="294.1" y="179.7" transform="matrix(0.9967 -8.091047e-02 8.091047e-02 0.9967 -14.8869 25.0419)" class="st2" width="15" height="33"/>
	
		<rect id="Place97" x="309" y="178.5" transform="matrix(0.9967 -8.091047e-02 8.091047e-02 0.9967 -14.7401 26.2445)" class="st2" width="15" height="33"/>
	
		<rect id="Place98" x="323.9" y="177.3" transform="matrix(0.9967 -8.091047e-02 8.091047e-02 0.9967 -14.5934 27.4446)" class="st2" width="15" height="33"/>
	
		<rect id="Place99" x="341.5" y="175.9" transform="matrix(0.9967 -8.091047e-02 8.091047e-02 0.9967 -14.422 28.871)" class="st2" width="15" height="33"/>
	
		<rect id="Place100" x="359.6" y="174.3" transform="matrix(0.9967 -8.091047e-02 8.091047e-02 0.9967 -14.2339 30.325)" class="st2" width="15" height="33"/>
	
		<rect id="Place101" x="374.5" y="173.1" transform="matrix(0.9967 -8.091047e-02 8.091047e-02 0.9967 -14.0898 31.5252)" class="st2" width="15" height="33"/>
	
		<rect id="Place102" x="389.4" y="171.9" transform="matrix(0.9967 -8.091047e-02 8.091047e-02 0.9967 -13.9429 32.7279)" class="st2" width="15" height="33"/>
	
		<rect id="Place103" x="406.4" y="170.7" transform="matrix(0.9967 -8.091047e-02 8.091047e-02 0.9967 -13.7944 34.1009)" class="st2" width="15" height="33"/>
	
		<rect id="Place104" x="423.4" y="168.9" transform="matrix(0.9964 -8.471803e-02 8.471803e-02 0.9964 -14.1518 37.4601)" class="st2" width="21.8" height="33.1"/>
	<polygon id="Place105" class="st2" points="260.2,173.9 245.2,174.6 243.7,141.6 258.7,140.9 	"/>
	<polygon id="Place106" class="st2" points="275.1,173.3 260.1,173.9 258.7,140.9 273.6,140.3 	"/>
	<polygon id="Place107" class="st2" points="290.1,172.6 275.1,173.2 273.6,140.2 288.6,139.6 	"/>
	<polygon id="Place108" class="st2" points="311.6,171.6 296.6,172.3 295.2,139.3 310.2,138.6 	"/>
	<polygon id="Place109" class="st2" points="326.5,171 311.6,171.6 310.1,138.6 325.1,138 	"/>
	<polygon id="Place110" class="st2" points="341.5,170.5 326.5,171.1 325.1,138.1 340,137.5 	"/>
	<polygon id="Place111" class="st2" points="359.8,169.5 344.8,170.2 343.3,137.2 358.3,136.5 	"/>
	<polygon id="Place112" class="st2" points="374.7,169 359.7,169.7 358.3,136.7 373.2,136 	"/>
	<polygon id="Place113" class="st2" points="389.6,168.4 374.7,169 373.2,136 388.2,135.4 	"/>
	<polygon id="Place114" class="st2" points="415.2,167.1 393.4,168.1 391.9,135.1 413.7,134.1 	"/>
	<polygon id="Place115" class="st2" points="163.1,107.4 148.1,108.1 146.7,75.1 161.6,74.4 	"/>
	<polygon id="Place116" class="st2" points="187.6,106.3 165.9,107.3 164.4,74.3 186.2,73.3 	"/>
	<polygon id="Place117" class="st2" points="207.3,105.4 192.3,106.1 190.8,73.1 205.8,72.4 	"/>
	<polygon id="Place118" class="st2" points="222.2,104.8 207.2,105.4 205.8,72.4 220.7,71.8 	"/>
	<polygon id="Place119" class="st2" points="237.2,104.2 222.2,104.8 220.7,71.8 235.7,71.2 	"/>
	<polygon id="Place120" class="st2" points="257.1,103.3 242.1,103.9 240.6,70.9 255.6,70.3 	"/>
	<polygon id="Place121" class="st2" points="272,102.6 257,103.3 255.6,70.3 270.5,69.6 	"/>
	<polygon id="Place122" class="st2" points="287,101.9 272,102.6 270.5,69.6 285.5,68.9 	"/>
	<polygon id="Place123" class="st2" points="306.8,101.1 291.9,101.8 290.4,68.7 305.4,68.1 	"/>
	<polygon id="Place124" class="st2" points="321.8,100.4 306.8,101.1 305.4,68 320.4,67.4 	"/>
	<polygon id="Place125" class="st2" points="336.7,99.8 321.8,100.4 320.3,67.4 335.3,66.8 	"/>
	<polygon id="Place126" class="st2" points="356.7,98.9 341.7,99.5 340.2,66.5 355.2,65.9 	"/>
	<polygon id="Place127" class="st2" points="371.6,98.2 356.6,98.9 355.1,65.9 370.1,65.2 	"/>
	<polygon id="Place128" class="st2" points="386.5,97.7 371.6,98.4 370.1,65.4 385.1,64.7 	"/>
	<polygon id="Place129" class="st2" points="406.5,96.7 391.5,97.4 390,64.4 405,63.7 	"/>
	<polygon id="Place130" class="st2" points="421.4,96.1 406.4,96.7 404.9,63.7 419.9,63.1 	"/>
	<polygon id="Place131" class="st2" points="436.3,95.4 421.4,96 419.9,63 434.9,62.4 	"/>
	<polygon id="Place132" class="st2" points="456.2,94.7 441.2,95.3 439.8,62.3 454.7,61.7 	"/>
	<polygon id="Place133" class="st2" points="471.2,93.9 456.2,94.5 454.8,61.5 469.7,60.8 	"/>
	<polygon id="Place134" class="st2" points="486.1,93.2 471.1,93.9 469.7,60.8 484.7,60.2 	"/>
	<polygon id="Place135" class="st2" points="504.8,92.4 489.8,93 488.3,60 503.3,59.4 	"/>
	<polygon id="Place136" class="st2" points="526.4,91.4 504.6,92.4 503.2,59.4 525,58.4 	"/>
	<polygon id="Place137" class="st2" points="512.3,179 497.4,180.3 494.7,147.4 509.6,146.1 	"/>
	<polygon id="Place138" class="st2" points="520,271.7 505.1,273 502.3,240.1 517.2,238.8 	"/>
</g>
<g id="GPlacedivider">
	<polygon class="st3" points="138.1,240.3 139.8,255.2 106.9,258.9 105.3,244 138.1,240.3 	"/>
	<polygon class="st3" points="139.8,255.2 141.4,270.1 108.6,273.7 106.9,258.9 139.8,255.2 	"/>
	<polygon class="st3" points="136.5,225.5 138.1,240.3 105.3,244 103.6,229.1 136.5,225.5 	"/>
	<polygon class="st3" points="131.3,179 132.9,193.9 100.1,197.5 98.5,182.7 131.3,179 	"/>
	<polygon class="st3" points="132.9,193.9 134.6,208.8 101.8,212.4 100.1,197.5 132.9,193.9 	"/>
	<polygon class="st3" points="126.1,132.6 127.8,147.4 95,151.1 93.3,136.2 126.1,132.6 	"/>
	<polygon class="st3" points="124.3,115.8 125.9,130.7 93.1,134.3 91.5,119.5 124.3,115.8 	"/>
	<polygon class="st3" points="134.6,208.8 136.3,223.6 103.4,227.3 101.8,212.4 134.6,208.8 	"/>
	<polygon class="st3" points="141.6,271.9 143.3,286.8 110.5,290.4 108.8,275.6 141.6,271.9 	"/>
	<polygon class="st3" points="144.9,301.6 146.6,316.5 113.8,320.2 112.1,305.3 144.9,301.6 	"/>
	<polygon class="st3" points="129.4,162.3 131.1,177.2 98.5,180.8 96.9,165.9 129.4,162.3 	"/>
	<polygon class="st3" points="127.8,147.4 129.4,162.3 96.6,166 95,151.1 127.8,147.4 	"/>
	<polygon class="st3" points="143.3,286.8 144.9,301.6 112.1,305.3 110.5,290.4 143.3,286.8 	"/>
	<polygon class="st3" points="205.8,72.4 220.8,71.8 222.2,104.8 207.3,105.4 205.8,72.4 	"/>
	<polygon class="st3" points="164.4,74.3 186.2,73.3 187.6,106.3 165.9,107.3 164.4,74.3 	"/>
	<polygon class="st3" points="240.7,70.9 255.6,70.3 257,103.3 242.1,103.9 240.7,70.9 	"/>
	<polygon class="st3" points="190.9,73.1 205.8,72.4 207.3,105.4 192.3,106.1 190.9,73.1 	"/>
	<polygon class="st3" points="146.7,75.1 161.6,74.4 163.1,107.4 148.1,108.1 146.7,75.1 	"/>
	<polygon class="st3" points="243.8,141.6 258.7,140.9 260.2,173.9 245.2,174.6 243.8,141.6 	"/>
	<polygon class="st3" points="258.7,140.9 273.7,140.2 275.1,173.2 260.2,173.9 258.7,140.9 	"/>
	<polygon class="st3" points="273.7,140.2 288.6,139.6 290,172.6 275.1,173.2 273.7,140.2 	"/>
	<polygon class="st3" points="220.8,71.8 235.7,71.2 237.1,104.2 222.2,104.8 220.8,71.8 	"/>
	<polygon class="st3" points="270.5,69.6 285.5,68.9 286.9,101.9 272,102.6 270.5,69.6 	"/>
	<polygon class="st3" points="255.6,70.3 270.5,69.6 272,102.6 257,103.3 255.6,70.3 	"/>
	<polygon class="st3" points="307.7,179.2 322.5,178 325.2,210.8 310.3,212 307.7,179.2 	"/>
	<polygon class="st3" points="305.4,68.1 320.3,67.4 321.8,100.4 306.8,101.1 305.4,68.1 	"/>
	<polygon class="st3" points="373.2,173.8 388.1,172.5 390.7,205.5 375.8,206.7 373.2,173.8 	"/>
	<polygon class="st3" points="373.2,135.9 388.2,135.2 389.6,168.2 374.7,168.8 373.2,135.9 	"/>
	<polygon class="st3" points="358.3,175 373.2,173.8 375.8,206.7 360.9,207.8 358.3,175 	"/>
	<polygon class="st3" points="320.3,67.4 335.2,66.8 336.7,99.8 321.8,100.4 320.3,67.4 	"/>
	<polygon class="st3" points="295.2,139.3 310.1,138.6 311.6,171.6 296.7,172.3 295.2,139.3 	"/>
	<polygon class="st3" points="358.3,136.5 373.2,135.9 374.7,168.8 359.8,169.5 358.3,136.5 	"/>
	<polygon class="st3" points="290.4,68.7 305.4,68.1 306.8,101.1 291.9,101.8 290.4,68.7 	"/>
	<polygon class="st3" points="236.6,185 251.6,183.8 254.2,216.8 239.3,218 236.6,185 	"/>
	<polygon class="st3" points="340.3,176.5 355.2,175.3 357.8,208.2 342.9,209.4 340.3,176.5 	"/>
	<polygon class="st3" points="370.1,65.2 385.1,64.6 386.5,97.5 371.6,98.2 370.1,65.2 	"/>
	<polygon class="st3" points="388.1,172.5 403,171.3 405.7,204.3 390.7,205.5 388.1,172.5 	"/>
	<polygon class="st3" points="266.5,182.7 288.2,180.9 290.9,213.8 269.1,215.5 266.5,182.7 	"/>
	<polygon class="st3" points="292.8,180.4 307.7,179.2 310.3,212 295.4,213.3 292.8,180.4 	"/>
	<polygon class="st3" points="340.3,66.6 355.2,65.9 356.6,98.9 341.7,99.5 340.3,66.6 	"/>
	<polygon class="st3" points="322.5,178 337.5,176.7 340.1,209.7 325.2,210.8 322.5,178 	"/>
	<polygon class="st3" points="251.6,183.8 266.5,182.7 269.1,215.5 254.2,216.8 251.6,183.8 	"/>
	<polygon class="st3" points="325.1,138 340,137.4 341.5,170.3 326.5,171 325.1,138 	"/>
	<polygon class="st3" points="343.3,137.2 358.3,136.5 359.8,169.5 344.8,170.2 343.3,137.2 	"/>
	<polygon class="st3" points="355.2,65.9 370.1,65.2 371.6,98.2 356.6,98.9 355.2,65.9 	"/>
	<polygon class="st3" points="310.1,138.6 325.1,138 326.5,171 311.6,171.6 310.1,138.6 	"/>
	<polygon class="st3" points="548,312.2 546.9,297.4 579.8,294.7 581,309.6 548,312.2 	"/>
	<polygon class="st3" points="327.5,302.7 328.8,317.6 295.8,320.4 294.6,305.5 327.5,302.7 	"/>
	<polygon class="st3" points="132.1,485 130,466.6 162.8,462.8 164.9,481.2 132.1,485 	"/>
	<polygon class="st3" points="546.9,297.4 545.7,282.5 578.6,279.8 579.8,294.7 546.9,297.4 	"/>
	<polygon class="st3" points="328.8,317.6 330,332.5 297.1,335.2 295.8,320.4 328.8,317.6 	"/>
	<polygon class="st3" points="552,359.7 550.8,344.8 583.7,342.2 584.9,357.1 552,359.7 	"/>
	<polygon class="st3" points="254,344.7 269,343 272.6,375.9 257.7,377.5 254,344.7 	"/>
	<polygon class="st3" points="130,466.6 127.9,448.7 160.7,444.9 162.8,462.8 130,466.6 	"/>
	<polygon class="st3" points="220,348.5 234.9,346.9 238.5,379.7 223.6,381.3 220,348.5 	"/>
	<polygon class="st3" points="123,406.6 121.3,391.7 154.2,388.1 155.8,403 123,406.6 	"/>
	<polygon class="st3" points="121.3,391.7 119.8,376.9 152.6,373.2 154.2,388.1 121.3,391.7 	"/>
	<polygon class="st3" points="127.9,448.7 125.9,430.1 158.8,426.4 160.7,444.9 127.9,448.7 	"/>
	<polygon class="st3" points="544.6,270.5 542.9,248.7 575.8,246.1 577.5,267.8 544.6,270.5 	"/>
	<polygon class="st3" points="269,343 283.8,341.5 287.4,374.3 272.6,375.9 269,343 	"/>
	<polygon class="st3" points="234.9,346.9 249.7,345.2 253.4,378 238.5,379.7 234.9,346.9 	"/>
	<polygon class="st3" points="549.3,328.1 548,312.2 581,309.6 582.3,325.4 549.3,328.1 	"/>
	<polygon class="st3" points="550.8,344.8 549.4,328 582.3,325.4 583.7,342.2 550.8,344.8 	"/>
	<polygon class="st3" points="468.2,235.9 482.5,234.7 485.3,267.6 471,268.8 468.2,235.9 	"/>
	<polygon class="st3" points="488.4,60 503.3,59.4 504.8,92.4 489.8,93 488.4,60 	"/>
	<polygon class="st3" points="258.8,253.2 273.6,252 276.3,284.9 261.4,286.1 258.8,253.2 	"/>
	<polygon class="st3" points="378.8,243.3 393.7,242.1 396.5,275 381.6,276.2 378.8,243.3 	"/>
	<polygon class="st3" points="482.5,234.7 497.7,233.5 500.5,266.4 485.3,267.6 482.5,234.7 	"/>
	<polygon class="st3" points="393.7,242.1 409.5,240.8 412.3,273.7 396.5,275 393.7,242.1 	"/>
	<polygon class="st3" points="273.6,252 288.5,250.8 291.2,283.7 276.3,284.9 273.6,252 	"/>
	<polygon class="st3" points="494.7,147.4 509.6,146.1 512.3,179 497.4,180.3 494.7,147.4 	"/>
	<polygon class="st3" points="363,244.7 378.8,243.3 381.6,276.2 365.8,277.5 363,244.7 	"/>
	<polygon class="st3" points="243.8,254.4 258.8,253.2 261.4,286.1 246.5,287.3 243.8,254.4 	"/>
	<polygon class="st3" points="225.4,256.4 240.3,254.7 243.9,287.5 229.1,289.2 225.4,256.4 	"/>
	<polygon class="st3" points="438.4,238.4 453,237.1 455.7,270.1 441.2,271.3 438.4,238.4 	"/>
	<polygon class="st3" points="453,237.1 468.2,235.9 471,268.8 455.7,270.1 453,237.1 	"/>
	<polygon class="st3" points="296.8,250.3 311.7,249.1 314.3,282.1 299.4,283.3 296.8,250.3 	"/>
	<polygon class="st3" points="311.7,249.1 326.6,247.9 329.2,280.9 314.3,282.1 311.7,249.1 	"/>
	<polygon class="st3" points="503.3,59.4 524.8,58.4 526.3,91.4 504.8,92.4 503.3,59.4 	"/>
	
		<rect x="343.6" y="245.5" transform="matrix(0.9965 -8.306703e-02 8.306703e-02 0.9965 -20.5372 30.3138)" class="st3" width="20.8" height="33"/>
	<polygon class="st3" points="210.5,258 225.4,256.3 229,289.1 214.1,290.8 210.5,258 	"/>
	<polygon class="st3" points="409.5,240.8 424.1,239.6 426.9,272.5 412.3,273.7 409.5,240.8 	"/>
	<polygon class="st3" points="424.1,239.6 438.4,238.4 441.2,271.3 426.9,272.5 424.1,239.6 	"/>
	<polygon class="st3" points="505.1,273 520,271.7 517.2,238.8 502.3,240 505.1,273 	"/>
	<polygon class="st3" points="211.6,270 213.2,284.8 180.4,288.4 178.8,273.6 211.6,270 	"/>
	<polygon class="st3" points="213.3,284.8 214.9,299.7 182.1,303.3 180.4,288.4 213.3,284.8 	"/>
	<polygon class="st3" points="326.6,247.9 341.5,246.8 344.2,279.6 329.2,280.9 326.6,247.9 	"/>
	<polygon class="st3" points="284.8,478.6 299.7,478.3 300.2,511.3 285.3,511.6 284.8,478.6 	"/>
	<polygon class="st3" points="487.2,475.1 502.1,474.8 502.7,507.8 487.7,508.1 487.2,475.1 	"/>
	<polygon class="st3" points="534,474.6 549,474.4 549.4,507.4 534.5,507.6 534,474.6 	"/>
	<polygon class="st3" points="363.2,477.2 378.2,477 378.8,510 363.8,510.2 363.2,477.2 	"/>
	<polygon class="st3" points="299.7,478.3 314.6,478.1 315.2,511.1 300.2,511.3 299.7,478.3 	"/>
	<polygon class="st3" points="176.3,480.4 191.3,480.2 191.9,513.2 176.9,513.4 176.3,480.4 	"/>
	<polygon class="st3" points="331.5,477.7 346.4,477.5 347,510.5 332,510.7 331.5,477.7 	"/>
	<polygon class="st3" points="424.9,476.1 439.9,475.9 440.4,508.9 425.5,509.2 424.9,476.1 	"/>
	<polygon class="st3" points="502.1,474.8 517.1,474.6 517.6,507.6 502.7,507.8 502.1,474.8 	"/>
	<polygon class="st3" points="439.9,475.9 454.8,475.6 455.4,508.6 440.4,508.9 439.9,475.9 	"/>
	<polygon class="st3" points="472.3,475.3 487.2,475.1 487.7,508.1 472.8,508.3 472.3,475.3 	"/>
	<polygon class="st3" points="191.3,480.2 206.2,479.9 206.8,512.9 191.9,513.2 191.3,480.2 	"/>
	<polygon class="st3" points="378.2,477 393.1,476.7 393.7,509.7 378.8,510 378.2,477 	"/>
	<polygon class="st3" points="223.1,479.6 238,479.3 238.6,512.3 223.6,512.6 223.1,479.6 	"/>
	<polygon class="st3" points="409.9,476.4 424.9,476.1 425.5,509.2 410.5,509.4 409.9,476.4 	"/>
	<polygon class="st3" points="253,479.1 267.9,478.8 268.5,511.8 253.5,512.1 253,479.1 	"/>
	<polygon class="st3" points="316.5,478 331.5,477.7 332,510.7 317.1,511 316.5,478 	"/>
	<polygon class="st3" points="519.1,474.8 534,474.6 534.5,507.6 519.5,507.8 519.1,474.8 	"/>
	<polygon class="st3" points="238,479.3 253,479.1 253.5,512.1 238.6,512.3 238,479.3 	"/>
	<polygon class="st3" points="393.1,476.7 408.1,476.5 408.7,509.5 393.7,509.7 393.1,476.7 	"/>
	<polyline class="st3" points="346.4,477.5 361.4,477.2 361.9,510.2 	"/>
	<polyline class="st3" points="361.9,510.2 347,510.5 346.4,477.5 	"/>
	<polygon class="st3" points="269.8,478.8 284.8,478.6 285.3,511.6 270.4,511.8 269.8,478.8 	"/>
	<polygon class="st3" points="206.2,479.9 221.2,479.7 221.8,512.7 206.8,512.9 206.2,479.9 	"/>
	<polygon class="st3" points="456.4,475.6 471.3,475.4 471.9,508.4 457,508.6 456.4,475.6 	"/>
	<polygon class="st3" points="315.2,407.9 330.2,407.7 330.8,440.7 315.8,441 315.2,407.9 	"/>
	<polygon class="st3" points="221.5,409.8 236.4,409.6 237,442.6 222,442.9 221.5,409.8 	"/>
	<polygon class="st3" points="453.8,405.9 438.9,406.1 439.4,439.1 454.3,438.9 453.8,405.9 	"/>
	<polygon class="st3" points="298.7,408.5 283.7,408.7 284.3,441.8 299.3,441.5 298.7,408.5 	"/>
	<polygon class="st3" points="219.3,409.9 204.3,410.1 204.9,443.1 219.8,442.9 219.3,409.9 	"/>
	<polygon class="st3" points="509.2,404.5 494.2,404.7 494.8,437.7 509.7,437.5 509.2,404.5 	"/>
	<polygon class="st3" points="376.6,407.2 391.5,407 392.1,440 377.1,440.2 376.6,407.2 	"/>
	<polygon class="st3" points="283.7,408.7 268.8,409 269.4,442.1 284.3,441.8 283.7,408.7 	"/>
	<polygon class="st3" points="361.6,407.5 376.6,407.2 377.1,440.2 362.2,440.5 361.6,407.5 	"/>
	<polygon class="st3" points="391.5,407 406.5,406.7 407.1,439.7 392.1,440 391.5,407 	"/>
	<polygon class="st3" points="492.5,404.7 477.5,405 478.1,438 493,437.8 492.5,404.7 	"/>
	<polygon class="st3" points="313.6,408.2 298.7,408.5 299.3,441.5 314.2,441.3 313.6,408.2 	"/>
	<polygon class="st3" points="251.4,409.3 266.3,409.1 266.8,442.1 251.9,442.4 251.4,409.3 	"/>
	<polygon class="st3" points="423.9,406.4 409,406.6 409.5,439.6 424.5,439.4 423.9,406.4 	"/>
	<polygon class="st3" points="438.9,406.1 423.9,406.4 424.5,439.4 439.4,439.1 438.9,406.1 	"/>
	<polygon class="st3" points="330.2,407.7 345.2,407.4 345.7,440.5 330.8,440.7 330.2,407.7 	"/>
	<polygon class="st3" points="345.2,407.4 360.1,407.1 360.7,440.2 345.7,440.5 345.2,407.4 	"/>
	<polygon class="st3" points="390,64.4 405,63.7 406.4,96.7 391.5,97.4 390,64.4 	"/>
	<polygon class="st3" points="454.8,61.5 469.7,60.8 471.2,93.9 456.2,94.5 454.8,61.5 	"/>
	<polygon class="st3" points="419.9,63.1 434.8,62.4 436.3,95.4 421.3,96 419.9,63.1 	"/>
	<polygon class="st3" points="439.8,62.2 454.8,61.5 456.2,94.5 441.3,95.1 439.8,62.2 	"/>
	<polygon class="st3" points="405,63.7 419.9,63.1 421.3,96 406.4,96.7 405,63.7 	"/>
	<polygon class="st3" points="469.7,60.8 484.6,60.2 486.1,93.2 471.2,93.9 469.7,60.8 	"/>
	<polygon class="st3" points="413.7,134.1 391.9,135.1 393.4,168.1 415.2,167.1 413.7,134.1 	"/>
	<polygon class="st3" points="424.8,202.9 446.6,201 443.8,168.1 422,169.9 424.8,202.9 	"/>
	<polygon class="st3" points="407.8,204.3 422.7,203.1 419.9,170.2 405,171.5 407.8,204.3 	"/>
	<polygon class="st3" points="283.8,341.4 298.7,339.8 302.3,372.7 287.5,374.3 283.8,341.4 	"/>
</g>
<g id="Gdraw">
	<line class="st3" x1="128.7" y1="331.1" x2="129.4" y2="336.7"/>
	<line class="st3" x1="137.3" y1="340.4" x2="129.6" y2="341.3"/>
	<line class="st3" x1="138.7" y1="353.5" x2="131" y2="354.3"/>
	<line class="st3" x1="138.6" y1="351.6" x2="130.8" y2="352.5"/>
	<line class="st3" x1="138.4" y1="349.7" x2="130.6" y2="350.6"/>
	<line class="st3" x1="138.1" y1="347.9" x2="130.4" y2="348.8"/>
	<line class="st3" x1="137.9" y1="346" x2="130.2" y2="346.9"/>
	<polyline class="st3" points="129.4,336.7 130.3,336.5 131.2,336.2 132.1,335.7 132.8,335 133.5,334.2 134,333.4 134.2,332.4 
		134.4,331.4 134.4,330.4 	"/>
	<line class="st3" x1="137.7" y1="344.2" x2="130" y2="345"/>
	<line class="st3" x1="137.5" y1="342.3" x2="129.8" y2="343.2"/>
	<polyline class="st3" points="135.8,321.4 136,322.4 136.3,323.3 136.8,324.2 137.5,324.9 138.3,325.5 139.1,326 140.1,326.3 
		141,326.5 142.1,326.4 	"/>
	<line class="st3" x1="141.4" y1="320.8" x2="135.7" y2="321.4"/>
	<line class="st3" x1="147.4" y1="354.4" x2="139.6" y2="355.3"/>
	<line class="st3" x1="146.9" y1="350.7" x2="139.2" y2="351.5"/>
	<line class="st3" x1="131.2" y1="356.2" x2="138.9" y2="355.3"/>
	<line class="st3" x1="147.1" y1="352.5" x2="139.4" y2="353.4"/>
	<line class="st3" x1="146.3" y1="345.1" x2="138.6" y2="346"/>
	<line class="st3" x1="146.5" y1="347" x2="138.7" y2="347.8"/>
	<polyline class="st3" points="147.5,356.2 139.8,357.1 139.7,356.2 	"/>
	<line class="st3" x1="145.7" y1="339.5" x2="137.9" y2="340.4"/>
	<line class="st3" x1="145.9" y1="341.4" x2="138.1" y2="342.3"/>
	<line class="st3" x1="146.1" y1="343.2" x2="138.4" y2="344.1"/>
	<line class="st3" x1="146.7" y1="348.8" x2="138.9" y2="349.7"/>
	<polyline class="st3" points="137.2,339.2 137.1,338.6 129.4,339.5 	"/>
	<polygon class="st3" points="435.1,163.8 449.7,163.2 449.3,153.2 434.7,153.9 435.1,163.8 	"/>
	<polygon class="st3" points="434.4,147.8 449,147.1 448.6,137.2 433.9,137.8 434.4,147.8 	"/>
	<line class="st3" x1="459" y1="143.7" x2="451.5" y2="144"/>
	<line class="st3" x1="459.7" y1="159" x2="452.2" y2="159.3"/>
	<line class="st3" x1="417.7" y1="135.1" x2="417.9" y2="141.4"/>
	<line class="st3" x1="459.6" y1="157.2" x2="452.1" y2="157.5"/>
	<polyline class="st3" points="417.9,141.4 419.2,141.2 420.4,140.7 421.4,140.1 422.3,139.3 423,138.4 423.5,137.3 423.9,136.1 
		423.9,134.9 	"/>
	<line class="st3" x1="459.1" y1="145.6" x2="451.6" y2="145.9"/>
	<line class="st3" x1="459.3" y1="149.5" x2="451.8" y2="149.8"/>
	<line class="st3" x1="459.2" y1="147.6" x2="451.7" y2="147.9"/>
	<line class="st3" x1="459.3" y1="151.4" x2="451.9" y2="151.7"/>
	<polyline class="st3" points="451.5,138.6 452.5,138.5 453.4,138.1 454.3,137.6 455,137 455.5,136.2 456,135.4 456.2,134.4 
		456.3,133.4 	"/>
	<line class="st3" x1="451.3" y1="133.6" x2="451.5" y2="138.6"/>
	<line class="st3" x1="459.6" y1="145.5" x2="467.1" y2="145.1"/>
	<line class="st3" x1="459.7" y1="147.4" x2="467.2" y2="147.1"/>
	<line class="st3" x1="459.8" y1="149.3" x2="467.3" y2="149"/>
	<line class="st3" x1="459.4" y1="153.3" x2="451.9" y2="153.7"/>
	<line class="st3" x1="459.5" y1="155.3" x2="452.1" y2="155.6"/>
	<line class="st3" x1="460.4" y1="160.9" x2="467.9" y2="160.6"/>
	<line class="st3" x1="460.3" y1="159" x2="467.8" y2="158.7"/>
	<line class="st3" x1="460.2" y1="157.1" x2="467.7" y2="156.7"/>
	<line class="st3" x1="460.1" y1="155.1" x2="467.6" y2="154.8"/>
	<line class="st3" x1="459.9" y1="153.2" x2="467.5" y2="152.9"/>
	<line class="st3" x1="459.9" y1="151.3" x2="467.3" y2="150.9"/>
	<line class="st3" x1="564.2" y1="401" x2="556.4" y2="401.6"/>
	<line class="st3" x1="563.7" y1="395.4" x2="555.9" y2="396"/>
	<line class="st3" x1="564.3" y1="402.8" x2="556.6" y2="403.4"/>
	<line class="st3" x1="564.5" y1="404.7" x2="556.8" y2="405.3"/>
	<line class="st3" x1="564.7" y1="406.5" x2="556.9" y2="407.1"/>
	<line class="st3" x1="565" y1="410.3" x2="557.2" y2="410.9"/>
	<line class="st3" x1="564.8" y1="408.4" x2="557" y2="409.1"/>
	<line class="st3" x1="563.9" y1="397.2" x2="556.1" y2="397.8"/>
	<line class="st3" x1="564" y1="399.1" x2="556.3" y2="399.7"/>
	<line class="st3" x1="572.9" y1="404" x2="565.1" y2="404.6"/>
	<line class="st3" x1="573.2" y1="407.7" x2="565.4" y2="408.4"/>
	<line class="st3" x1="573.3" y1="409.6" x2="565.6" y2="410.2"/>
	<line class="st3" x1="573" y1="405.8" x2="565.2" y2="406.5"/>
	<line class="st3" x1="573.5" y1="411.4" x2="565.7" y2="412"/>
	<line class="st3" x1="572.7" y1="402.1" x2="565" y2="402.7"/>
	<line class="st3" x1="572.2" y1="396.5" x2="564.5" y2="397.1"/>
	<line class="st3" x1="572.4" y1="398.3" x2="564.7" y2="399.1"/>
	<line class="st3" x1="572.6" y1="400.3" x2="564.8" y2="400.9"/>
	<polyline class="st3" points="564.5,382.8 564.7,383.8 565.1,384.7 565.6,385.5 566.3,386.2 567.1,386.7 568,387.1 568.9,387.3 
		570,387.3 	"/>
	<line class="st3" x1="569.5" y1="382.4" x2="570" y2="387.3"/>
	<polyline class="st3" points="556.6,374.4 557.7,374.2 558.5,373.8 559.4,373.3 560.1,372.6 560.6,371.8 561,371 561.2,370 
		561.2,369 	"/>
	<line class="st3" x1="556.3" y1="369.4" x2="556.6" y2="374.4"/>
	<polygon class="st3" points="512.8,375.9 511.7,362.6 519.4,362 520.6,375.3 512.8,375.9 	"/>
	<polygon class="st3" points="448.5,381.2 458.2,380.4 457.3,370.2 447.7,371 448.5,381.2 	"/>
	<polyline class="st3" points="447.8,392.7 449.1,392.6 450.1,392.1 451.2,391.4 452.1,390.6 452.7,389.6 453.2,388.5 453.5,387.3 
		453.5,386.1 	"/>
	<line class="st3" x1="447.3" y1="386.6" x2="453.5" y2="386.1"/>
	<polygon class="st3" points="507.4,376.4 506.3,363.1 498.5,363.7 499.6,377.1 507.4,376.4 	"/>
	<line class="st3" x1="524.1" y1="403.5" x2="524" y2="397.3"/>
	<polyline class="st3" points="524,397.3 522.8,397.4 521.6,397.8 520.6,398.4 519.7,399.2 518.9,400.1 518.3,401.2 518,402.4 
		517.9,403.6 	"/>
	<polyline class="st3" points="471.2,411.3 472.4,411.2 473.6,410.8 474.6,410.2 475.5,409.4 476.3,408.5 476.8,407.5 477.2,406.3 
		477.3,405 	"/>
	<line class="st3" x1="471" y1="405.1" x2="471.2" y2="411.3"/>
	<polyline class="st3" points="442.7,403.2 442.6,401.9 442.1,400.8 441.4,399.8 440.6,398.9 439.6,398.2 438.5,397.8 437.3,397.5 
		436.1,397.5 	"/>
	<line class="st3" x1="436.6" y1="403.7" x2="442.7" y2="403.2"/>
	<line class="st3" x1="494.3" y1="331.1" x2="490.7" y2="287.6"/>
	<polyline class="st3" points="330.1,300.9 492.5,309.3 333.6,344.4 	"/>
</g>
<g id="Gexit">
	<polygon class="st1" points="496.5,362.8 499.4,403.9 525.7,403.4 523.6,378.7 522.7,377.2 521.3,360.8 	"/>
	<circle id="Exit_1_" class="st4" cx="531" cy="416.6" r="7.3"/>
	<g id="Level-3">
		<circle class="st5" cx="507.4" cy="307.4" r="7.3"/>
	</g>
	<path class="st5" d="M330.1,300.9"/>
</g>
<g id="Gplanek">
	<line class="st6" x1="456.6" y1="287.4" x2="455.4" y2="287.4"/>
	<polyline class="st7" points="248.2,397.3 247,397.5 245.8,397.8 244.8,398.4 243.9,399.2 243.1,400.1 242.6,401.2 242.2,402.4 
		242.1,403.6 	"/>
	<polygon points="519.4,479.4 519,474.7 516.5,474.9 516.9,479.6 519.4,479.4 	"/>
	<line class="st6" x1="455.4" y1="287.4" x2="455.5" y2="289"/>
	<path class="st6" d="M512,378.1"/>
	<line class="st6" x1="501" y1="380.6" x2="496.4" y2="381"/>
	<line class="st6" x1="560.1" y1="460.3" x2="560.2" y2="460.3"/>
	<line class="st6" x1="500.9" y1="379" x2="497.8" y2="379.2"/>
	<path class="st6" d="M509.8,378.3"/>
	<polyline points="446.6,372.8 445.1,372.9 446.6,372.8 446.3,368.8 459.4,367.8 460.6,382.4 447.5,383.4 447.3,380.4 445.7,380.5 
		446.1,385.1 462.2,383.8 460.8,366 444.7,367.4 445.1,372.9 	"/>
	<line class="st6" x1="149.8" y1="362.9" x2="150" y2="362.9"/>
	<line class="st6" x1="138.8" y1="317.1" x2="138.9" y2="317.1"/>
	<polygon class="st7" points="234.9,400.5 225,401.5 223.9,391.6 233.8,390.5 234.9,400.5 	"/>
	<line class="st6" x1="144.2" y1="366" x2="144.4" y2="366"/>
	<polygon points="154,428.2 158.6,427.7 158.3,425.2 153.7,425.7 	"/>
	<polygon points="156,446.8 155.8,444.4 160.4,443.8 160.7,446.3 	"/>
	<polygon points="472.8,438.2 470.3,438.3 470.2,437.5 469.9,417.9 471.6,417.8 472.4,417.8 	"/>
	<polygon points="266.8,441 266.8,441.7 269.3,441.7 269,421.4 268.3,421.4 266.5,421.4 	"/>
	<polygon points="406.7,419 407,438.6 407.1,439.4 409.5,439.3 409.2,418.9 408.4,418.9 	"/>
	<polygon points="219.8,422.2 220.1,441.8 220.1,442.6 222.6,442.5 222.3,422.1 221.5,422.1 	"/>
	<polygon points="455.9,418.2 456.3,438.6 453.8,438.6 453.7,437.8 453.4,418.2 455.1,418.2 	"/>
	<polygon points="195.5,421.2 195.7,423.6 200.4,423.1 200.1,420.7 195.5,421.2 	"/>
	<polygon points="197.5,439.7 197.8,442.2 202.5,441.7 202.2,439.2 197.5,439.7 	"/>
	<polygon points="407.8,481.6 410.2,481.6 410.2,476.8 407.7,476.9 	"/>
	<polygon points="174.2,485.6 176.7,485.5 176.5,480.9 174.1,480.9 	"/>
	<polygon points="267.6,484 270.1,483.9 270,479.3 267.5,479.3 	"/>
	<polygon points="183.7,314.6 183.4,312.1 203.6,309.9 203.9,312.4 	"/>
	<polygon points="391.9,135.1 392.1,139.7 389.6,139.9 389.4,135.1 	"/>
	<polygon points="162.4,103.5 164.9,103.3 165.1,108.1 162.6,108.1 	"/>
	<polygon points="339.6,137.4 339.8,142 342.3,141.9 342.1,137.2 	"/>
	<polygon points="363.5,477.7 363.5,482.3 361,482.4 361,477.7 	"/>
	<polygon points="178.2,265.7 178.5,268.2 198.8,265.9 198.5,263.5 	"/>
	<polygon points="347.1,172.6 347.2,175.7 341,176 340.8,172.9 	"/>
	<polygon points="126.4,179.9 131,179.4 130.8,176.9 126.1,177.4 	"/>
	<polyline points="255.2,355 250.9,355.5 250.5,351.7 254.8,351.3 255.1,354.2 255.2,355 250.6,351.8 250.5,351.7 	"/>
	<polygon points="136.7,272.8 141.4,272.3 141,269.8 136.5,270.3 	"/>
	<polygon points="188.6,106.3 188.4,101.6 190.9,101.5 191.1,106.2 	"/>
	<polygon points="340.5,99.6 338,99.7 337.8,95.1 340.3,94.9 	"/>
	<polygon points="454.5,480.8 457,480.7 456.9,476.1 454.4,476.1 	"/>
	<polyline points="243.1,257.9 243.5,260.5 243.6,261.6 240.5,261.9 240.1,258.2 243.1,257.9 240.2,258.2 240.1,258.2 	"/>
	<polygon points="316.8,478.4 316.8,483.2 314.3,483.2 314.2,478.5 	"/>
	<polygon points="473.3,475.8 470.9,475.8 471,480.5 473.5,480.5 	"/>
	<polygon points="125.6,130.5 125.9,133 121.2,133.5 121,131 	"/>
	<polygon points="240.8,104 238.4,104.1 238.2,99.4 240.7,99.3 	"/>
	<polygon points="220.9,484.7 223.4,484.7 223.3,480 220.8,480.1 	"/>
	<polygon points="135.9,223.4 136.2,225.9 131.5,226.4 131.3,223.9 	"/>
	<polygon points="238.4,214.8 238.3,214.1 238,211.7 237.3,211.8 235,212.1 235.3,215.2 	"/>
	<path class="st6" d="M245.6,307.7"/>
	<path class="st6" d="M451.4,193.7"/>
	<polygon points="362.8,440.1 360.3,440.1 360,419.8 360.7,419.8 362.4,419.8 362.8,439.4 	"/>
	<line class="st7" x1="248.4" y1="403.5" x2="248.2" y2="397.3"/>
	<polygon points="294.8,253.6 295.1,257.3 297.6,257.1 297.2,253.3 	"/>
	<path class="st6" d="M593,419.8"/>
	<path class="st6" d="M590.6,420"/>
	<polyline points="462.2,383.8 464,404.1 471,404 471,405.1 463,405.3 461.2,383.8 	"/>
	<polyline points="137.2,339.2 137.8,339.2 139.7,356.2 139.1,356.2 137.2,339.2 	"/>
	<polygon points="387.7,97.5 387.6,92.8 390,92.7 390.2,97.4 	"/>
	<line class="st6" x1="173.7" y1="493.3" x2="173.8" y2="493.3"/>
	<polyline points="156.9,411.7 156.8,411.7 156.5,409.2 151.9,409.7 152.2,412.2 156.8,411.7 	"/>
	<polygon points="364.9,251.5 362.4,251.7 362.1,248 364.5,247.8 	"/>
	<polygon points="316,440.9 313.6,441 313.6,440.2 313.2,420.6 315,420.5 315.7,420.5 	"/>
	<polygon points="552.4,326 548.6,326.3 548.9,330 552.6,329.7 	"/>
	<polygon points="408.8,378.6 408.8,378.5 408.8,377.7 408.7,375.5 405.7,375.5 405.7,376.8 405.7,377.6 405.7,378.7 	"/>
	<polygon points="548.5,279.4 548.8,283.2 545,283.4 544.7,279.7 	"/>
	<polygon points="341.4,249.7 341.7,253.4 344.2,253.2 343.8,249.5 	"/>
	<polygon points="499.3,236.1 499.7,240.8 497.2,241 496.8,236.3 	"/>
	<polygon points="405.1,201.3 407.6,201.1 407.2,197.3 404.8,197.5 	"/>
	<polygon points="437.3,89.1 437.5,95.3 440,95.2 439.8,89 	"/>
	<line class="st6" x1="449" y1="193.9" x2="451.4" y2="193.7"/>
	<polyline points="513.6,437.7 513.5,437.7 511.8,417.7 514.3,417.5 516,437.5 513.5,437.7 	"/>
	<polyline points="444.7,368.1 433.7,369 436.1,397.5 435.4,397.5 432.9,368.4 445,367.4 	"/>
	<polygon points="521.6,426.8 522.9,426.8 522.7,425.3 521.5,425.4 521.6,426.8 	"/>
	<line class="st6" x1="517.6" y1="404.3" x2="517.8" y2="404.3"/>
	<line class="st6" x1="524.5" y1="404.2" x2="524.6" y2="404.2"/>
	<polyline points="446.4,385 446.6,386.6 447.3,386.6 447.1,385 	"/>
	<polyline points="430.8,133.4 423.9,133.7 424,134.8 430.8,134.4 	"/>
	<polyline points="553.7,507.3 549.8,460 592.8,456.5 592.8,455.8 549.1,459.4 553,507.3 	"/>
	<polyline points="307.2,407.9 408.1,406.2 448.9,405.5 447.8,392.8 447.1,392.8 448,404.8 436.7,405 436.6,403.7 435.9,403.8 
		435.9,405 420.8,405.2 407.3,405.5 307,407.2 	"/>
	<line class="st6" x1="494.1" y1="166.9" x2="494.8" y2="166.9"/>
	<polyline points="289.2,101.9 289.1,101.9 288.2,101.9 287.9,97.2 290.4,97.1 290.7,101.8 288.2,101.9 	"/>
	<polygon points="554.9,382.9 554.3,376.4 556.5,376.2 556.2,372.5 556,370.4 555.9,369.4 556.3,369.4 556.2,368.8 552.2,369.1 
		556.6,422.8 575.9,421.2 571.5,368.2 573.7,368 586.1,367 586,366.3 573.6,367.3 571.4,367.5 561.2,368.3 561.2,369 561.5,369 
		561.6,369.9 570,369.2 571,381.6 569.4,381.7 569.5,382.4 569.8,382.4 569.9,382.9 571.1,382.9 574.2,419.8 559.9,421 559.8,419.4 
		557.9,419.6 555,384.2 564.3,383.4 564.2,382.8 564.5,382.8 564.5,382.2 	"/>
	<polygon points="565.1,412.1 563.7,395.4 564.3,395.3 565.7,412 	"/>
	<polygon points="358.5,205.1 358.2,201.4 360.7,201.2 361,204.9 	"/>
	<polygon points="408.7,244.1 409,247.9 411.5,247.6 411.1,243.9 	"/>
	<polygon points="341.8,202.7 342.1,206.5 339.6,206.7 339.3,203 	"/>
	
		<rect x="487.2" y="86.8" transform="matrix(0.9987 -5.097009e-02 5.097009e-02 0.9987 -3.9507 25.0129)" width="2.5" height="6.3"/>
	<polygon points="452.4,244.7 454.9,244.5 454.5,239.8 452.1,240 	"/>
	<polyline points="456.4,270.3 501.8,266.5 503.2,283.2 502.5,283.2 501.1,267.4 456.5,271 	"/>
	<line class="st6" x1="452.3" y1="161.3" x2="452.4" y2="161.3"/>
	<line class="st6" x1="459.8" y1="160.9" x2="460.4" y2="160.9"/>
	<polyline points="123.9,414.6 124,415.3 152.2,412.2 152.1,411.4 123.9,414.6 	"/>
	<polyline points="608.1,369.8 608.2,371.7 599,244.3 577.1,246.1 576,246.1 543.4,248.9 527.4,55.5 145,72.3 86.6,75.4 91.1,119 
		131.9,486.3 132,487.4 135,514.4 132.4,517.4 83,72.1 530.1,52.4 546.1,245.7 601.8,241.1 621,509.1 132.4,517.4 135,514.4 
		165.9,513.9 167,513.9 617.9,506.2 608.2,371.7 	"/>
	<polyline points="608.2,371.6 586.6,373.4 578.7,277.2 601.3,275.3 601.4,277.2 580.6,278.9 588.3,371.4 608.1,369.8 	"/>
	<polygon points="91.1,119 90.8,116.4 144.3,110.3 142.5,72.4 145,72.3 146.8,112.5 	"/>
	<polyline points="288,66 289.3,97.2 290.4,97.1 289.1,66 	"/>
	<polygon points="132,487.5 166.2,483.7 166.7,513.9 167.8,513.9 167.2,482.5 131.9,486.4 	"/>
	<polyline points="560.3,425.1 611.8,420.8 557.8,425.3 560.6,458.4 559.9,458.5 557.1,424.7 557.2,424.7 557.1,424.7 592.4,421.7 
		592.2,419.9 575.9,421.2 575.8,420.5 592.9,419.1 593.1,421.7 611.7,420.1 611.8,420.8 	"/>
	<polyline points="584.1,274.5 601.1,273.1 584.1,274.5 583.5,267 578.9,267.4 577.1,246 576,246.1 577.9,268.6 582.5,268.2 
		583.1,275.6 601.2,274.2 601.1,273.1 584.1,274.5 583.1,275.6 	"/>
	<polygon points="295.2,206.6 295.5,210.4 293,210.6 292.7,206.8 291.2,178.1 291.1,175 292.8,175 291.4,144.2 290,144.3 
		289.8,139.5 292.3,139.5 292.5,144.1 293.9,174.9 294.2,174.9 294.3,178 292.3,178.1 293.8,206.8 	"/>
	<polygon points="240.1,142.9 240,141.8 242.5,141.6 242.8,146.3 242,146.4 240.2,146.4 233.9,146.7 235.4,179.9 242.1,179.6 
		242.1,177.2 243.4,177.1 242,146.4 242.8,146.3 244.1,177.1 248.2,176.9 248.4,180.1 242.2,180.3 235.4,180.6 238,211.7 
		237.3,211.8 234.7,180.7 234,164.7 233.1,143.9 199.4,145.3 199.5,149.3 197.1,149.4 196.9,145.5 196.9,145.5 169,146.7 
		168.9,146.7 169,149.1 167.5,149.2 175.3,219 193.4,217 193.6,218.8 193.5,218.8 235.2,214.5 235.3,215.2 193.6,219.5 173.4,221.7 
		173.1,219.2 173.7,219.2 165.6,146.1 168.9,146 196.9,144.8 199.4,144.6 	"/>
	<polyline points="118.9,368.8 130.9,367.5 144.2,366 150.1,365.3 149.8,362.9 145.9,327.6 143.7,327.8 143.6,326.4 142.1,326.5 
		142.2,328 134.2,328.9 134.4,330.4 144.5,329.3 148.3,363.1 132.2,364.8 128.4,331.1 128.7,331.1 128.6,329.5 128.3,329.5 
		127.3,320.9 141.2,319.3 141.4,320.8 143,320.7 142.8,319.2 144.9,318.9 144.8,317.4 113.5,320.9 113.6,322 125.7,320.6 
		130.8,366.4 118.7,367.8 	"/>
	<polygon points="468,129.4 469.8,168 494.1,166.9 494.8,166.9 497.2,196.3 451.8,200.1 451.7,198.2 464,197.2 463.6,192.7 
		467.3,192.4 463.6,192.7 467.3,192.4 467.7,196.9 492.7,194.8 492.3,190.3 494.8,190.1 492.3,190.3 494.8,190.1 493,168.8 
		448,170.8 449,193.9 451.4,193.7 451.8,200.1 447.4,200.4 446,169 451.1,168.8 451,166.4 417.2,167.8 415.7,134 417.7,133.9 
		417.8,135 416.9,135.1 418.2,166.6 423.2,166.4 432.6,166 432.4,162.9 434,162.9 434.1,165.9 450.9,165.2 450.3,150.6 433.5,151.3 
		433.6,154.6 432,154.6 431.7,146.9 433.3,146.9 433.4,150 450.2,149.3 449.6,134.7 432.7,135.5 432.9,138.6 431.3,138.6 
		431.2,135.5 430.9,135.5 430.6,128.8 432.5,128.7 432.7,134.2 449.2,133.5 448.9,128 450.8,127.9 451,132.9 451.4,132.9 
		451.4,133.5 451.1,133.5 451.1,134.4 452.6,168.7 468.2,168 466.5,130 460,130.3 460.1,134.1 456.7,134.2 456.7,133.3 456.4,133.3 
		456.3,132.7 458.8,132.5 458.7,129.2 468,128.7 	"/>
	<polyline points="460.4,160.9 459.6,143.5 459,143.6 459.8,160.9 	"/>
	<polyline points="468,128.7 488.8,127.8 491.3,127.7 491.6,133.9 492,143.4 492.6,143.4 492.9,147.1 494.8,166.9 494.1,166.9 
		492.2,147.2 489.2,147.4 488.9,143.7 491.3,143.5 490.9,133.9 489.1,134 488.9,128.5 468,129.4 	"/>
	<polyline points="303.2,378.3 236.1,385.7 219.6,387.6 221.2,402 202.4,404.1 200.8,389.6 199.2,389.8 200.8,404.2 187,405.7 
		182.3,363.4 218,359.4 221.1,387.4 221.8,387.3 218.5,357.8 181.4,361.9 186.5,408.4 221.5,404.5 221.5,404.7 238.1,404.4 
		242.2,404.3 242.1,403.6 238,403.7 237.5,399.1 236,399.3 236.4,402.9 222.9,403.1 221.3,388.9 234.7,387.5 235.2,391.7 
		236.7,391.5 236.1,386.4 247.3,385.2 249.3,403.5 248.4,403.5 248.4,404.2 249.4,404.2 249.9,408.9 307.2,407.9 306,406.8 
		250.9,407.8 248.4,385.5 302.9,379.4 	"/>
	<path class="st6" d="M306.9,407.4"/>
	<path d="M492.4,332.8l-13.6,1.1l0.1,1l-36.3,3l-0.1-1l-23.1,2l0.1,1.5l-3.1,0.3l-0.1-1.5l-44.7,3.7l0.1,1.5l-3.1,0.3l-0.1-1.5
		l-43.4,3.6l0.1,1.6l-6.2,0.5l-0.1-1.6l-15.7,1.3l0.1,1.5l-2.4,0.2l6.3,57.6l-1.1-0.9l-3.2-28.5c0,0,0.4-0.1,0.4-0.2l-3.1-28
		l-0.3-3.1l3.1-0.3l15.7-1.3l130-10.8l59.1-4.9l15,29.1l-0.8,0.1l-14.1-27.3l0.1,1.3l-3.8,0.3l-0.1-1.6L492.4,332.8z"/>
	<polyline points="333.6,344.4 330.1,300.9 421.5,293.3 504.1,286.5 503.8,283.1 500,283.4 500.2,285.3 459.3,288.7 459.1,287.1 
		457.9,287.2 456.4,270.3 293.7,283.8 243.6,288 214.5,291.2 216.6,310.2 203.9,311.7 203.9,312.4 245.6,307.7 295,303.9 
		294.9,303.2 248.6,306.7 248.2,303.7 245.2,304.1 245.5,307 217.3,310.2 215.2,291.9 243.7,288.7 293.8,284.5 295.6,300.7 
		294.7,300.7 295,303.9 329,301.1 320,300.2 319.9,298.7 314.7,299.1 314.8,300.7 297.9,302.1 297.8,300.5 296.8,300.6 295.1,284.9 
		455.3,271.7 456.6,287.4 455.4,287.4 455.5,289 415.5,292.3 412.8,292.5 415.5,292.3 412.3,292.6 412.8,292.5 415.5,292.3 
		412.6,292.6 412.3,292.6 320,300.2 329,301.1 332.6,344.5 	"/>
	<polygon points="508.3,361.8 509.7,378.3 508.5,378.3 508.6,379.9 512.2,379.6 512,378.1 510.9,378.2 509.5,361.7 521.3,360.8 
		522.7,377.2 519.7,377.5 519.8,379 523.6,378.7 525.7,403.4 524.1,403.5 524.1,404.2 526.5,404.1 524.3,378.6 522.7,359 
		494.8,361.4 496.4,381 501,380.6 500.9,379 497.8,379.2 496.5,362.8 	"/>
	<polyline points="462.2,383.8 496.4,381 498.3,403.6 477.2,403.9 477.3,405 498.3,404.7 510.7,404.4 511.8,417.7 512.5,417.7 
		511.4,404.4 518,404.3 517.9,403.6 499.4,403.9 497.4,379.7 462.2,382.7 	"/>
	<polyline points="578.7,277.2 548.5,279.7 548.5,280.4 578.8,277.9 	"/>
</g>
</svg>
