<?xml version="1.0" encoding="utf-8"?><!-- Generator: Adobe Illustrator 20.0.0, SVG Export Plug-In . SVG Version: 6.00 Build 0)  --><svg version="1.1" id="Layer_1" xmlns="http://www.w3.org/2000/svg" xmlns:xlink="http://www.w3.org/1999/xlink" x="0px" y="0px" width="900px" height="1350px" viewBox="0 0 900 1350" style="enable-background:new 0 0 900 1350;" xml:space="preserve"><style type="text/css">.st0{fill:#B3B3B3;}.st1{fill:#00D3FF;stroke:#000000;stroke-width:3;stroke-miterlimit:10;}.st2{fill:#E6E6E6;}.st3{fill:#CCCCCC;stroke:#000000;stroke-width:3;stroke-miterlimit:10;}.st4{fill:#4D4D4D;stroke:#4D4D4D;stroke-width:0.75;stroke-miterlimit:10;}.st5{fill:none;stroke:#000000;stroke-miterlimit:10;}.st6{fill:none;stroke:#000000;stroke-width:3;stroke-miterlimit:10;}.st7{fill:none;stroke:#000000;stroke-width:7;stroke-miterlimit:10;}.st8{stroke:#000000;stroke-width:3;stroke-miterlimit:10;}.st9{stroke:#000000;stroke-miterlimit:10;}.st10{fill:#CCCCCC;}.st11{fill:#8CC63F;}</style><g id="IMGback"><polyline id="Outside" class="st0" points="400.6,0.9 98.5,1262.9 168.5,1350 0,1350 0,-0.4 400.7,1 "/></g><g id="Gcontrol"><polygon id="WC" class="st1" points="323.1,863.6 312.8,908.5 268.8,898.6 279.5,853.2 "/><rect id="Place21" x="355.4" y="1212.5" class="st2" width="120.7" height="60.8"/><rect id="Place22" x="355.4" y="1151.7" class="st2" width="120.7" height="60.8"/><rect id="Place23" x="355.4" y="1091" class="st2" width="120.7" height="60.8"/><rect id="Place24" x="355.4" y="1030.3" class="st2" width="120.7" height="60.8"/><rect id="Place25" x="355.4" y="969.4" class="st2" width="120.7" height="60.8"/><rect id="Place26" x="355.4" y="908.7" class="st2" width="120.7" height="60.8"/><rect id="Place27" x="355.4" y="848" class="st2" width="120.7" height="60.8"/><rect id="Place28" x="355.4" y="787.2" class="st2" width="120.7" height="60.8"/><polygon id="Place34b" class="st2" points="367.6,300.8 383.5,240 476.1,240 476.1,300.8 "/><polygon id="Place34c" class="st2" points="383.5,240.1 398.5,179.3 476.1,179.3 476.1,240.1 "/><rect id="Place29" x="355.4" y="605" class="st2" width="120.7" height="60.8"/><rect id="Place30" x="355.4" y="544.3" class="st2" width="120.7" height="60.8"/><rect id="Place31" x="355.4" y="483.6" class="st2" width="120.7" height="60.8"/><rect id="Place32" x="355.4" y="422.8" class="st2" width="120.7" height="60.8"/><rect id="Place33" x="355.4" y="362" class="st2" width="120.7" height="60.8"/><polygon id="Place34" class="st2" points="355.4,362.1 367.6,301.3 476.1,301.3 476.1,362.1 "/><rect id="Place20" x="610.8" y="1212.5" class="st2" width="120.7" height="60.8"/><rect id="Place19" x="610.8" y="1151.7" class="st2" width="120.7" height="60.8"/><rect id="Place18" x="610.8" y="1091" class="st2" width="120.7" height="60.8"/><rect id="Place17" x="610.8" y="1030.3" class="st2" width="120.7" height="60.8"/><rect id="Place16" x="610.8" y="969.4" class="st2" width="120.7" height="60.8"/><rect id="Place15" x="610.8" y="908.7" class="st2" width="120.7" height="60.8"/><rect id="Place14" x="610.8" y="848" class="st2" width="120.7" height="60.8"/><rect id="Place13" x="610.8" y="787.2" class="st2" width="120.7" height="60.8"/><rect id="Place12" x="610.8" y="726.5" class="st2" width="120.7" height="60.8"/><rect id="Place11_22_" x="610.8" y="665.8" class="st2" width="120.7" height="60.8"/><rect id="Place10" x="610.8" y="605" class="st2" width="120.7" height="60.8"/><rect id="Place09" x="610.8" y="544.3" class="st2" width="120.7" height="60.8"/><rect id="Place08" x="610.8" y="483.6" class="st2" width="120.7" height="60.8"/><rect id="Place07" x="610.8" y="422.8" class="st2" width="120.7" height="60.8"/><rect id="Place06" x="610.8" y="362" class="st2" width="120.7" height="60.8"/><rect id="Place05" x="610.8" y="301.3" class="st2" width="120.7" height="60.8"/><rect id="Place04" x="610.8" y="242.3" class="st2" width="120.7" height="60.8"/><rect id="Place03" x="610.8" y="181.5" class="st2" width="120.7" height="60.8"/><rect id="Place02" x="610.8" y="120.8" class="st2" width="120.7" height="60.8"/><rect id="Place01" x="610.8" y="60.1" class="st2" width="120.7" height="60.8"/></g><g id="Gfills"><polygon class="st3" points="454.6,54.4 454.6,181.6 397.9,181.6 426.9,54.4 "/><polygon class="st3" points="292.2,802.7 244.1,790.6 220.7,886.9 268.8,898.6 "/><polygon class="st4" points="900,-0.5 417.5,0.9 263.2,649 315.2,661.9 351.1,662.5 351.1,348.6 426.9,52.1 732.8,53.4 732.8,1276.6 351.4,1277 351.5,1029.1 181.4,991.2 116.8,1260.4 189.3,1349.5 900,1349.5 "/></g><g id="Gdraw"><line class="st5" x1="246.5" y1="651.7" x2="217.9" y2="767.2"/><line class="st5" x1="196.8" y1="857.9" x2="167.7" y2="975.3"/><line class="st5" x1="184.1" y1="977.7" x2="262" y2="654.5"/><line class="st5" x1="350.7" y1="912.7" x2="314.9" y2="904.4"/><line class="st5" x1="350.8" y1="905.7" x2="316.8" y2="897.9"/><line class="st5" x1="350.8" y1="898.4" x2="317.7" y2="890.8"/><line class="st5" x1="350.7" y1="891.4" x2="319.6" y2="884.2"/><line class="st5" x1="350.7" y1="877.5" x2="321.5" y2="870.8"/><line class="st5" x1="350.8" y1="884" x2="321.5" y2="877.3"/><line class="st5" x1="297.8" y1="756.9" x2="287" y2="801.6"/><polyline class="st5" points="338.3,-0.3 29.3,1272.9 92,1350 "/><line class="st5" x1="169.6" y1="965.1" x2="98.5" y2="987.9"/><line class="st5" x1="189.4" y1="887.9" x2="135.9" y2="834"/><line class="st5" x1="225.4" y1="736.7" x2="153.6" y2="760.6"/><line class="st5" x1="245.5" y1="655.9" x2="191.3" y2="605.4"/><line class="st5" x1="210.9" y1="-0.3" x2="0.1" y2="861.7"/><line class="st5" x1="164.2" y1="-0.3" x2="0.1" y2="674.9"/><polyline class="st5" points="257.9,671.5 342,691.4 453.1,691.4 "/><polyline class="st5" points="242.9,733.5 341.4,758.8 453.1,758.8 "/><line class="st5" x1="349.8" y1="935.1" x2="203" y2="899.2"/><line class="st5" x1="350.7" y1="999.9" x2="187.7" y2="963.1"/><path class="st5" d="M453.1,691.4c12.2,0,22-10.5,22-23.4"/><path class="st5" d="M453.1,758.7c12.2,0,22,9.4,22,20.6v5.2"/></g><g id="GspaceDIVIDER"><path class="st6" d="M400.7,378"/><line class="st6" x1="730.9" y1="118.9" x2="611.2" y2="118.9"/><g><line class="st6" x1="730.9" y1="179.7" x2="633.6" y2="179.7"/><line class="st7" x1="633.6" y1="179.7" x2="611.2" y2="179.7"/></g><line class="st6" x1="730.9" y1="240.5" x2="611.2" y2="240.5"/><g><line class="st6" x1="730.9" y1="301.3" x2="633.6" y2="301.3"/><line class="st7" x1="633.6" y1="301.3" x2="611.2" y2="301.3"/></g><line class="st6" x1="730.9" y1="362.1" x2="611.2" y2="362.1"/><g><line class="st6" x1="730.9" y1="422.9" x2="633.6" y2="422.9"/><line class="st7" x1="633.6" y1="422.9" x2="611.2" y2="422.9"/></g><line class="st6" x1="730.9" y1="483.7" x2="611.2" y2="483.7"/><g><line class="st6" x1="730.9" y1="544.6" x2="633.6" y2="544.6"/><line class="st7" x1="633.6" y1="544.6" x2="611.2" y2="544.6"/></g><line class="st6" x1="730.9" y1="605.4" x2="611.2" y2="605.4"/><g><line class="st6" x1="730.9" y1="666.2" x2="633.6" y2="666.2"/><line class="st7" x1="633.6" y1="666.2" x2="611.2" y2="666.2"/></g><line class="st6" x1="730.9" y1="727" x2="611.2" y2="727"/><g><line class="st6" x1="730.9" y1="787.8" x2="633.6" y2="787.8"/><line class="st7" x1="633.6" y1="787.8" x2="611.2" y2="787.8"/></g><line class="st6" x1="730.9" y1="848.6" x2="611.2" y2="848.6"/><g><line class="st6" x1="730.9" y1="909.4" x2="633.6" y2="909.4"/><line class="st7" x1="633.6" y1="909.4" x2="611.2" y2="909.4"/></g><line class="st6" x1="730.9" y1="970.2" x2="611.2" y2="970.2"/><g><line class="st6" x1="730.9" y1="1031" x2="633.6" y2="1031"/><line class="st7" x1="633.6" y1="1031" x2="611.2" y2="1031"/></g><line class="st6" x1="730.9" y1="1091.8" x2="611.2" y2="1091.8"/><g><line class="st6" x1="730.9" y1="1152.6" x2="633.6" y2="1152.6"/><line class="st7" x1="633.6" y1="1152.6" x2="611.2" y2="1152.6"/></g><line class="st6" x1="730.9" y1="1213.4" x2="611.2" y2="1213.4"/><line class="st7" x1="453.1" y1="179.7" x2="475.5" y2="179.7"/><line class="st6" x1="368.9" y1="301.3" x2="453.1" y2="301.3"/><line class="st7" x1="453.1" y1="301.3" x2="475.5" y2="301.3"/><line class="st6" x1="355.8" y1="362.1" x2="475.5" y2="362.1"/><g><line class="st6" x1="355.8" y1="422.9" x2="453.1" y2="422.9"/><line class="st7" x1="453.1" y1="422.9" x2="475.5" y2="422.9"/></g><line class="st6" x1="355.8" y1="483.7" x2="475.5" y2="483.7"/><g><line class="st6" x1="355.8" y1="544.6" x2="453.1" y2="544.6"/><line class="st7" x1="453.1" y1="544.6" x2="475.5" y2="544.6"/></g><line class="st6" x1="355.8" y1="605.4" x2="475.5" y2="605.4"/><g><polygon class="st8" points="314.5,665.4 261.7,654.7 262.4,650.9 315.5,661.9 351.7,662.5 351.7,348.6 427.5,53.4 733.4,53.4 733.4,1277 351.7,1277 351.7,784 355.4,784 355.4,1272.4 728.7,1272.4 728.7,58.1 430.6,58.1 355.4,352.6 355.4,665.7 "/><line class="st6" x1="453.1" y1="666.2" x2="356.7" y2="666.2"/><line class="st7" x1="453.1" y1="666.2" x2="475.5" y2="666.2"/></g><g><line class="st6" x1="355.8" y1="787.8" x2="453.1" y2="787.8"/><line class="st7" x1="453.1" y1="787.8" x2="475.5" y2="787.8"/></g><line class="st6" x1="355.8" y1="848.6" x2="475.5" y2="848.6"/><g><line class="st6" x1="355.8" y1="909.4" x2="453.1" y2="909.4"/><line class="st7" x1="453.1" y1="909.4" x2="475.5" y2="909.4"/></g><line class="st6" x1="355.8" y1="970.2" x2="475.5" y2="970.2"/><g><line class="st6" x1="355.8" y1="1031" x2="453.1" y2="1031"/><line class="st7" x1="453.1" y1="1031" x2="475.5" y2="1031"/></g><line class="st6" x1="355.8" y1="1091.8" x2="475.5" y2="1091.8"/><g><line class="st6" x1="355.8" y1="1152.6" x2="453.1" y2="1152.6"/><line class="st7" x1="453.1" y1="1152.6" x2="475.5" y2="1152.6"/></g><line class="st6" x1="355.8" y1="1213.4" x2="475.5" y2="1213.4"/><line class="st6" x1="241.4" y1="740" x2="288.5" y2="752.8"/><line class="st7" x1="287" y1="752.9" x2="303" y2="756.6"/><line class="st7" x1="250.5" y1="899.8" x2="267.5" y2="903.5"/><polygon class="st8" points="349.8,1024.9 191.7,988.9 193,981.9 184,979.6 181.4,991.2 349.8,1029.1 "/></g><g id="Gwalls"><polygon class="st9" points="400.7,1 246.5,651.7 261.7,655.4 417.5,1 "/><polygon class="st9" points="217.9,767.2 245.6,773.3 223.9,863.1 196.8,857.9 "/><polygon class="st9" points="184,978.6 167.7,975.3 98.5,1263 168.5,1350 189.3,1350 116.9,1260.7 "/></g><polygon id="LevelBounds" class="st5" points="733.4,53 733.4,1276.6 351.7,1277 351.7,348.6 427.5,53.4 "/><g id="Level1"><circle class="st10" cx="297.8" cy="714.3" r="29.2"/></g><g id="Level-1"><circle class="st10" cx="240.7" cy="942.6" r="29.2"/></g><circle id="Exit_1_" class="st11" cx="318.4" cy="785.4" r="29.2"/></svg>
